G04 #@! TF.GenerationSoftware,KiCad,Pcbnew,(5.1.4)-1*
G04 #@! TF.CreationDate,2019-10-03T09:13:13-04:00*
G04 #@! TF.ProjectId,8-bit counter,382d6269-7420-4636-9f75-6e7465722e6b,rev?*
G04 #@! TF.SameCoordinates,Original*
G04 #@! TF.FileFunction,Legend,Top*
G04 #@! TF.FilePolarity,Positive*
%FSLAX46Y46*%
G04 Gerber Fmt 4.6, Leading zero omitted, Abs format (unit mm)*
G04 Created by KiCad (PCBNEW (5.1.4)-1) date 2019-10-03 09:13:13*
%MOMM*%
%LPD*%
G04 APERTURE LIST*
%ADD10C,0.150000*%
%ADD11C,0.300000*%
%ADD12C,0.120000*%
G04 APERTURE END LIST*
D10*
X87447380Y-48855190D02*
X86971190Y-49188523D01*
X87447380Y-49426619D02*
X86447380Y-49426619D01*
X86447380Y-49045666D01*
X86495000Y-48950428D01*
X86542619Y-48902809D01*
X86637857Y-48855190D01*
X86780714Y-48855190D01*
X86875952Y-48902809D01*
X86923571Y-48950428D01*
X86971190Y-49045666D01*
X86971190Y-49426619D01*
X87399761Y-48045666D02*
X87447380Y-48140904D01*
X87447380Y-48331380D01*
X87399761Y-48426619D01*
X87304523Y-48474238D01*
X86923571Y-48474238D01*
X86828333Y-48426619D01*
X86780714Y-48331380D01*
X86780714Y-48140904D01*
X86828333Y-48045666D01*
X86923571Y-47998047D01*
X87018809Y-47998047D01*
X87114047Y-48474238D01*
X86780714Y-47664714D02*
X87447380Y-47426619D01*
X86780714Y-47188523D01*
X87447380Y-46283761D02*
X87447380Y-46855190D01*
X87447380Y-46569476D02*
X86447380Y-46569476D01*
X86590238Y-46664714D01*
X86685476Y-46759952D01*
X86733095Y-46855190D01*
X87161666Y-44616523D02*
X87161666Y-44140333D01*
X87447380Y-44711761D02*
X86447380Y-44378428D01*
X87447380Y-44045095D01*
X86923571Y-43378428D02*
X86971190Y-43235571D01*
X87018809Y-43187952D01*
X87114047Y-43140333D01*
X87256904Y-43140333D01*
X87352142Y-43187952D01*
X87399761Y-43235571D01*
X87447380Y-43330809D01*
X87447380Y-43711761D01*
X86447380Y-43711761D01*
X86447380Y-43378428D01*
X86495000Y-43283190D01*
X86542619Y-43235571D01*
X86637857Y-43187952D01*
X86733095Y-43187952D01*
X86828333Y-43235571D01*
X86875952Y-43283190D01*
X86923571Y-43378428D01*
X86923571Y-43711761D01*
X86447380Y-42807000D02*
X87447380Y-42568904D01*
X86733095Y-42378428D01*
X87447380Y-42187952D01*
X86447380Y-41949857D01*
X86050952Y-75096476D02*
X86003333Y-75191714D01*
X85955714Y-75239333D01*
X85860476Y-75286952D01*
X85812857Y-75286952D01*
X85717619Y-75239333D01*
X85670000Y-75191714D01*
X85622380Y-75096476D01*
X85622380Y-74906000D01*
X85670000Y-74810761D01*
X85717619Y-74763142D01*
X85812857Y-74715523D01*
X85860476Y-74715523D01*
X85955714Y-74763142D01*
X86003333Y-74810761D01*
X86050952Y-74906000D01*
X86050952Y-75096476D01*
X86098571Y-75191714D01*
X86146190Y-75239333D01*
X86241428Y-75286952D01*
X86431904Y-75286952D01*
X86527142Y-75239333D01*
X86574761Y-75191714D01*
X86622380Y-75096476D01*
X86622380Y-74906000D01*
X86574761Y-74810761D01*
X86527142Y-74763142D01*
X86431904Y-74715523D01*
X86241428Y-74715523D01*
X86146190Y-74763142D01*
X86098571Y-74810761D01*
X86050952Y-74906000D01*
X86241428Y-74286952D02*
X86241428Y-73525047D01*
X86622380Y-73048857D02*
X85622380Y-73048857D01*
X86003333Y-73048857D02*
X85955714Y-72953619D01*
X85955714Y-72763142D01*
X86003333Y-72667904D01*
X86050952Y-72620285D01*
X86146190Y-72572666D01*
X86431904Y-72572666D01*
X86527142Y-72620285D01*
X86574761Y-72667904D01*
X86622380Y-72763142D01*
X86622380Y-72953619D01*
X86574761Y-73048857D01*
X86622380Y-72144095D02*
X85955714Y-72144095D01*
X85622380Y-72144095D02*
X85670000Y-72191714D01*
X85717619Y-72144095D01*
X85670000Y-72096476D01*
X85622380Y-72144095D01*
X85717619Y-72144095D01*
X85955714Y-71810761D02*
X85955714Y-71429809D01*
X85622380Y-71667904D02*
X86479523Y-71667904D01*
X86574761Y-71620285D01*
X86622380Y-71525047D01*
X86622380Y-71429809D01*
X88224761Y-75548857D02*
X88272380Y-75644095D01*
X88272380Y-75834571D01*
X88224761Y-75929809D01*
X88177142Y-75977428D01*
X88081904Y-76025047D01*
X87796190Y-76025047D01*
X87700952Y-75977428D01*
X87653333Y-75929809D01*
X87605714Y-75834571D01*
X87605714Y-75644095D01*
X87653333Y-75548857D01*
X88272380Y-74977428D02*
X88224761Y-75072666D01*
X88177142Y-75120285D01*
X88081904Y-75167904D01*
X87796190Y-75167904D01*
X87700952Y-75120285D01*
X87653333Y-75072666D01*
X87605714Y-74977428D01*
X87605714Y-74834571D01*
X87653333Y-74739333D01*
X87700952Y-74691714D01*
X87796190Y-74644095D01*
X88081904Y-74644095D01*
X88177142Y-74691714D01*
X88224761Y-74739333D01*
X88272380Y-74834571D01*
X88272380Y-74977428D01*
X87605714Y-73786952D02*
X88272380Y-73786952D01*
X87605714Y-74215523D02*
X88129523Y-74215523D01*
X88224761Y-74167904D01*
X88272380Y-74072666D01*
X88272380Y-73929809D01*
X88224761Y-73834571D01*
X88177142Y-73786952D01*
X87605714Y-73310761D02*
X88272380Y-73310761D01*
X87700952Y-73310761D02*
X87653333Y-73263142D01*
X87605714Y-73167904D01*
X87605714Y-73025047D01*
X87653333Y-72929809D01*
X87748571Y-72882190D01*
X88272380Y-72882190D01*
X87605714Y-72548857D02*
X87605714Y-72167904D01*
X87272380Y-72406000D02*
X88129523Y-72406000D01*
X88224761Y-72358380D01*
X88272380Y-72263142D01*
X88272380Y-72167904D01*
X88224761Y-71453619D02*
X88272380Y-71548857D01*
X88272380Y-71739333D01*
X88224761Y-71834571D01*
X88129523Y-71882190D01*
X87748571Y-71882190D01*
X87653333Y-71834571D01*
X87605714Y-71739333D01*
X87605714Y-71548857D01*
X87653333Y-71453619D01*
X87748571Y-71406000D01*
X87843809Y-71406000D01*
X87939047Y-71882190D01*
X88272380Y-70977428D02*
X87605714Y-70977428D01*
X87796190Y-70977428D02*
X87700952Y-70929809D01*
X87653333Y-70882190D01*
X87605714Y-70786952D01*
X87605714Y-70691714D01*
D11*
X87058571Y-68687142D02*
X88201428Y-68687142D01*
X87630000Y-69258571D02*
X87630000Y-68115714D01*
X87058571Y-50145142D02*
X88201428Y-50145142D01*
D12*
X112106225Y-42471000D02*
X112106225Y-42971000D01*
X111856225Y-42721000D02*
X112356225Y-42721000D01*
X117262000Y-43912000D02*
X117262000Y-44480000D01*
X117222000Y-43678000D02*
X117222000Y-44714000D01*
X117182000Y-43519000D02*
X117182000Y-44873000D01*
X117142000Y-43391000D02*
X117142000Y-45001000D01*
X117102000Y-43281000D02*
X117102000Y-45111000D01*
X117062000Y-43185000D02*
X117062000Y-45207000D01*
X117022000Y-43098000D02*
X117022000Y-45294000D01*
X116982000Y-43018000D02*
X116982000Y-45374000D01*
X116942000Y-45236000D02*
X116942000Y-45447000D01*
X116942000Y-42945000D02*
X116942000Y-43156000D01*
X116902000Y-45236000D02*
X116902000Y-45515000D01*
X116902000Y-42877000D02*
X116902000Y-43156000D01*
X116862000Y-45236000D02*
X116862000Y-45579000D01*
X116862000Y-42813000D02*
X116862000Y-43156000D01*
X116822000Y-45236000D02*
X116822000Y-45639000D01*
X116822000Y-42753000D02*
X116822000Y-43156000D01*
X116782000Y-45236000D02*
X116782000Y-45696000D01*
X116782000Y-42696000D02*
X116782000Y-43156000D01*
X116742000Y-45236000D02*
X116742000Y-45750000D01*
X116742000Y-42642000D02*
X116742000Y-43156000D01*
X116702000Y-45236000D02*
X116702000Y-45801000D01*
X116702000Y-42591000D02*
X116702000Y-43156000D01*
X116662000Y-45236000D02*
X116662000Y-45849000D01*
X116662000Y-42543000D02*
X116662000Y-43156000D01*
X116622000Y-45236000D02*
X116622000Y-45895000D01*
X116622000Y-42497000D02*
X116622000Y-43156000D01*
X116582000Y-45236000D02*
X116582000Y-45939000D01*
X116582000Y-42453000D02*
X116582000Y-43156000D01*
X116542000Y-45236000D02*
X116542000Y-45981000D01*
X116542000Y-42411000D02*
X116542000Y-43156000D01*
X116502000Y-45236000D02*
X116502000Y-46022000D01*
X116502000Y-42370000D02*
X116502000Y-43156000D01*
X116462000Y-45236000D02*
X116462000Y-46060000D01*
X116462000Y-42332000D02*
X116462000Y-43156000D01*
X116422000Y-45236000D02*
X116422000Y-46097000D01*
X116422000Y-42295000D02*
X116422000Y-43156000D01*
X116382000Y-45236000D02*
X116382000Y-46133000D01*
X116382000Y-42259000D02*
X116382000Y-43156000D01*
X116342000Y-45236000D02*
X116342000Y-46167000D01*
X116342000Y-42225000D02*
X116342000Y-43156000D01*
X116302000Y-45236000D02*
X116302000Y-46200000D01*
X116302000Y-42192000D02*
X116302000Y-43156000D01*
X116262000Y-45236000D02*
X116262000Y-46231000D01*
X116262000Y-42161000D02*
X116262000Y-43156000D01*
X116222000Y-45236000D02*
X116222000Y-46261000D01*
X116222000Y-42131000D02*
X116222000Y-43156000D01*
X116182000Y-45236000D02*
X116182000Y-46291000D01*
X116182000Y-42101000D02*
X116182000Y-43156000D01*
X116142000Y-45236000D02*
X116142000Y-46318000D01*
X116142000Y-42074000D02*
X116142000Y-43156000D01*
X116102000Y-45236000D02*
X116102000Y-46345000D01*
X116102000Y-42047000D02*
X116102000Y-43156000D01*
X116062000Y-45236000D02*
X116062000Y-46371000D01*
X116062000Y-42021000D02*
X116062000Y-43156000D01*
X116022000Y-45236000D02*
X116022000Y-46396000D01*
X116022000Y-41996000D02*
X116022000Y-43156000D01*
X115982000Y-45236000D02*
X115982000Y-46420000D01*
X115982000Y-41972000D02*
X115982000Y-43156000D01*
X115942000Y-45236000D02*
X115942000Y-46443000D01*
X115942000Y-41949000D02*
X115942000Y-43156000D01*
X115902000Y-45236000D02*
X115902000Y-46464000D01*
X115902000Y-41928000D02*
X115902000Y-43156000D01*
X115862000Y-45236000D02*
X115862000Y-46486000D01*
X115862000Y-41906000D02*
X115862000Y-43156000D01*
X115822000Y-45236000D02*
X115822000Y-46506000D01*
X115822000Y-41886000D02*
X115822000Y-43156000D01*
X115782000Y-45236000D02*
X115782000Y-46525000D01*
X115782000Y-41867000D02*
X115782000Y-43156000D01*
X115742000Y-45236000D02*
X115742000Y-46544000D01*
X115742000Y-41848000D02*
X115742000Y-43156000D01*
X115702000Y-45236000D02*
X115702000Y-46561000D01*
X115702000Y-41831000D02*
X115702000Y-43156000D01*
X115662000Y-45236000D02*
X115662000Y-46578000D01*
X115662000Y-41814000D02*
X115662000Y-43156000D01*
X115622000Y-45236000D02*
X115622000Y-46594000D01*
X115622000Y-41798000D02*
X115622000Y-43156000D01*
X115582000Y-45236000D02*
X115582000Y-46610000D01*
X115582000Y-41782000D02*
X115582000Y-43156000D01*
X115542000Y-45236000D02*
X115542000Y-46624000D01*
X115542000Y-41768000D02*
X115542000Y-43156000D01*
X115502000Y-45236000D02*
X115502000Y-46638000D01*
X115502000Y-41754000D02*
X115502000Y-43156000D01*
X115462000Y-45236000D02*
X115462000Y-46651000D01*
X115462000Y-41741000D02*
X115462000Y-43156000D01*
X115422000Y-45236000D02*
X115422000Y-46664000D01*
X115422000Y-41728000D02*
X115422000Y-43156000D01*
X115382000Y-45236000D02*
X115382000Y-46676000D01*
X115382000Y-41716000D02*
X115382000Y-43156000D01*
X115341000Y-45236000D02*
X115341000Y-46687000D01*
X115341000Y-41705000D02*
X115341000Y-43156000D01*
X115301000Y-45236000D02*
X115301000Y-46697000D01*
X115301000Y-41695000D02*
X115301000Y-43156000D01*
X115261000Y-45236000D02*
X115261000Y-46707000D01*
X115261000Y-41685000D02*
X115261000Y-43156000D01*
X115221000Y-45236000D02*
X115221000Y-46716000D01*
X115221000Y-41676000D02*
X115221000Y-43156000D01*
X115181000Y-45236000D02*
X115181000Y-46724000D01*
X115181000Y-41668000D02*
X115181000Y-43156000D01*
X115141000Y-45236000D02*
X115141000Y-46732000D01*
X115141000Y-41660000D02*
X115141000Y-43156000D01*
X115101000Y-45236000D02*
X115101000Y-46739000D01*
X115101000Y-41653000D02*
X115101000Y-43156000D01*
X115061000Y-45236000D02*
X115061000Y-46746000D01*
X115061000Y-41646000D02*
X115061000Y-43156000D01*
X115021000Y-45236000D02*
X115021000Y-46752000D01*
X115021000Y-41640000D02*
X115021000Y-43156000D01*
X114981000Y-45236000D02*
X114981000Y-46757000D01*
X114981000Y-41635000D02*
X114981000Y-43156000D01*
X114941000Y-45236000D02*
X114941000Y-46761000D01*
X114941000Y-41631000D02*
X114941000Y-43156000D01*
X114901000Y-45236000D02*
X114901000Y-46765000D01*
X114901000Y-41627000D02*
X114901000Y-43156000D01*
X114861000Y-41623000D02*
X114861000Y-46769000D01*
X114821000Y-41620000D02*
X114821000Y-46772000D01*
X114781000Y-41618000D02*
X114781000Y-46774000D01*
X114741000Y-41617000D02*
X114741000Y-46775000D01*
X114701000Y-41616000D02*
X114701000Y-46776000D01*
X114661000Y-41616000D02*
X114661000Y-46776000D01*
X117281000Y-44196000D02*
G75*
G03X117281000Y-44196000I-2620000J0D01*
G01*
X103978225Y-41709000D02*
X103978225Y-42209000D01*
X103728225Y-41959000D02*
X104228225Y-41959000D01*
X109134000Y-43150000D02*
X109134000Y-43718000D01*
X109094000Y-42916000D02*
X109094000Y-43952000D01*
X109054000Y-42757000D02*
X109054000Y-44111000D01*
X109014000Y-42629000D02*
X109014000Y-44239000D01*
X108974000Y-42519000D02*
X108974000Y-44349000D01*
X108934000Y-42423000D02*
X108934000Y-44445000D01*
X108894000Y-42336000D02*
X108894000Y-44532000D01*
X108854000Y-42256000D02*
X108854000Y-44612000D01*
X108814000Y-44474000D02*
X108814000Y-44685000D01*
X108814000Y-42183000D02*
X108814000Y-42394000D01*
X108774000Y-44474000D02*
X108774000Y-44753000D01*
X108774000Y-42115000D02*
X108774000Y-42394000D01*
X108734000Y-44474000D02*
X108734000Y-44817000D01*
X108734000Y-42051000D02*
X108734000Y-42394000D01*
X108694000Y-44474000D02*
X108694000Y-44877000D01*
X108694000Y-41991000D02*
X108694000Y-42394000D01*
X108654000Y-44474000D02*
X108654000Y-44934000D01*
X108654000Y-41934000D02*
X108654000Y-42394000D01*
X108614000Y-44474000D02*
X108614000Y-44988000D01*
X108614000Y-41880000D02*
X108614000Y-42394000D01*
X108574000Y-44474000D02*
X108574000Y-45039000D01*
X108574000Y-41829000D02*
X108574000Y-42394000D01*
X108534000Y-44474000D02*
X108534000Y-45087000D01*
X108534000Y-41781000D02*
X108534000Y-42394000D01*
X108494000Y-44474000D02*
X108494000Y-45133000D01*
X108494000Y-41735000D02*
X108494000Y-42394000D01*
X108454000Y-44474000D02*
X108454000Y-45177000D01*
X108454000Y-41691000D02*
X108454000Y-42394000D01*
X108414000Y-44474000D02*
X108414000Y-45219000D01*
X108414000Y-41649000D02*
X108414000Y-42394000D01*
X108374000Y-44474000D02*
X108374000Y-45260000D01*
X108374000Y-41608000D02*
X108374000Y-42394000D01*
X108334000Y-44474000D02*
X108334000Y-45298000D01*
X108334000Y-41570000D02*
X108334000Y-42394000D01*
X108294000Y-44474000D02*
X108294000Y-45335000D01*
X108294000Y-41533000D02*
X108294000Y-42394000D01*
X108254000Y-44474000D02*
X108254000Y-45371000D01*
X108254000Y-41497000D02*
X108254000Y-42394000D01*
X108214000Y-44474000D02*
X108214000Y-45405000D01*
X108214000Y-41463000D02*
X108214000Y-42394000D01*
X108174000Y-44474000D02*
X108174000Y-45438000D01*
X108174000Y-41430000D02*
X108174000Y-42394000D01*
X108134000Y-44474000D02*
X108134000Y-45469000D01*
X108134000Y-41399000D02*
X108134000Y-42394000D01*
X108094000Y-44474000D02*
X108094000Y-45499000D01*
X108094000Y-41369000D02*
X108094000Y-42394000D01*
X108054000Y-44474000D02*
X108054000Y-45529000D01*
X108054000Y-41339000D02*
X108054000Y-42394000D01*
X108014000Y-44474000D02*
X108014000Y-45556000D01*
X108014000Y-41312000D02*
X108014000Y-42394000D01*
X107974000Y-44474000D02*
X107974000Y-45583000D01*
X107974000Y-41285000D02*
X107974000Y-42394000D01*
X107934000Y-44474000D02*
X107934000Y-45609000D01*
X107934000Y-41259000D02*
X107934000Y-42394000D01*
X107894000Y-44474000D02*
X107894000Y-45634000D01*
X107894000Y-41234000D02*
X107894000Y-42394000D01*
X107854000Y-44474000D02*
X107854000Y-45658000D01*
X107854000Y-41210000D02*
X107854000Y-42394000D01*
X107814000Y-44474000D02*
X107814000Y-45681000D01*
X107814000Y-41187000D02*
X107814000Y-42394000D01*
X107774000Y-44474000D02*
X107774000Y-45702000D01*
X107774000Y-41166000D02*
X107774000Y-42394000D01*
X107734000Y-44474000D02*
X107734000Y-45724000D01*
X107734000Y-41144000D02*
X107734000Y-42394000D01*
X107694000Y-44474000D02*
X107694000Y-45744000D01*
X107694000Y-41124000D02*
X107694000Y-42394000D01*
X107654000Y-44474000D02*
X107654000Y-45763000D01*
X107654000Y-41105000D02*
X107654000Y-42394000D01*
X107614000Y-44474000D02*
X107614000Y-45782000D01*
X107614000Y-41086000D02*
X107614000Y-42394000D01*
X107574000Y-44474000D02*
X107574000Y-45799000D01*
X107574000Y-41069000D02*
X107574000Y-42394000D01*
X107534000Y-44474000D02*
X107534000Y-45816000D01*
X107534000Y-41052000D02*
X107534000Y-42394000D01*
X107494000Y-44474000D02*
X107494000Y-45832000D01*
X107494000Y-41036000D02*
X107494000Y-42394000D01*
X107454000Y-44474000D02*
X107454000Y-45848000D01*
X107454000Y-41020000D02*
X107454000Y-42394000D01*
X107414000Y-44474000D02*
X107414000Y-45862000D01*
X107414000Y-41006000D02*
X107414000Y-42394000D01*
X107374000Y-44474000D02*
X107374000Y-45876000D01*
X107374000Y-40992000D02*
X107374000Y-42394000D01*
X107334000Y-44474000D02*
X107334000Y-45889000D01*
X107334000Y-40979000D02*
X107334000Y-42394000D01*
X107294000Y-44474000D02*
X107294000Y-45902000D01*
X107294000Y-40966000D02*
X107294000Y-42394000D01*
X107254000Y-44474000D02*
X107254000Y-45914000D01*
X107254000Y-40954000D02*
X107254000Y-42394000D01*
X107213000Y-44474000D02*
X107213000Y-45925000D01*
X107213000Y-40943000D02*
X107213000Y-42394000D01*
X107173000Y-44474000D02*
X107173000Y-45935000D01*
X107173000Y-40933000D02*
X107173000Y-42394000D01*
X107133000Y-44474000D02*
X107133000Y-45945000D01*
X107133000Y-40923000D02*
X107133000Y-42394000D01*
X107093000Y-44474000D02*
X107093000Y-45954000D01*
X107093000Y-40914000D02*
X107093000Y-42394000D01*
X107053000Y-44474000D02*
X107053000Y-45962000D01*
X107053000Y-40906000D02*
X107053000Y-42394000D01*
X107013000Y-44474000D02*
X107013000Y-45970000D01*
X107013000Y-40898000D02*
X107013000Y-42394000D01*
X106973000Y-44474000D02*
X106973000Y-45977000D01*
X106973000Y-40891000D02*
X106973000Y-42394000D01*
X106933000Y-44474000D02*
X106933000Y-45984000D01*
X106933000Y-40884000D02*
X106933000Y-42394000D01*
X106893000Y-44474000D02*
X106893000Y-45990000D01*
X106893000Y-40878000D02*
X106893000Y-42394000D01*
X106853000Y-44474000D02*
X106853000Y-45995000D01*
X106853000Y-40873000D02*
X106853000Y-42394000D01*
X106813000Y-44474000D02*
X106813000Y-45999000D01*
X106813000Y-40869000D02*
X106813000Y-42394000D01*
X106773000Y-44474000D02*
X106773000Y-46003000D01*
X106773000Y-40865000D02*
X106773000Y-42394000D01*
X106733000Y-40861000D02*
X106733000Y-46007000D01*
X106693000Y-40858000D02*
X106693000Y-46010000D01*
X106653000Y-40856000D02*
X106653000Y-46012000D01*
X106613000Y-40855000D02*
X106613000Y-46013000D01*
X106573000Y-40854000D02*
X106573000Y-46014000D01*
X106533000Y-40854000D02*
X106533000Y-46014000D01*
X109153000Y-43434000D02*
G75*
G03X109153000Y-43434000I-2620000J0D01*
G01*
X86260000Y-55991000D02*
X89000000Y-55991000D01*
X86260000Y-64231000D02*
X89000000Y-64231000D01*
X89000000Y-64231000D02*
X89000000Y-55991000D01*
X86260000Y-64231000D02*
X86260000Y-55991000D01*
X102378000Y-40794000D02*
X102378000Y-43534000D01*
X94138000Y-40794000D02*
X94138000Y-43534000D01*
X94138000Y-43534000D02*
X102378000Y-43534000D01*
X94138000Y-40794000D02*
X102378000Y-40794000D01*
X100941000Y-61341000D02*
X100171000Y-61341000D01*
X92861000Y-61341000D02*
X93631000Y-61341000D01*
X100171000Y-59971000D02*
X93631000Y-59971000D01*
X100171000Y-62711000D02*
X100171000Y-59971000D01*
X93631000Y-62711000D02*
X100171000Y-62711000D01*
X93631000Y-59971000D02*
X93631000Y-62711000D01*
X108677225Y-46789000D02*
X108677225Y-47289000D01*
X108427225Y-47039000D02*
X108927225Y-47039000D01*
X113833000Y-48230000D02*
X113833000Y-48798000D01*
X113793000Y-47996000D02*
X113793000Y-49032000D01*
X113753000Y-47837000D02*
X113753000Y-49191000D01*
X113713000Y-47709000D02*
X113713000Y-49319000D01*
X113673000Y-47599000D02*
X113673000Y-49429000D01*
X113633000Y-47503000D02*
X113633000Y-49525000D01*
X113593000Y-47416000D02*
X113593000Y-49612000D01*
X113553000Y-47336000D02*
X113553000Y-49692000D01*
X113513000Y-49554000D02*
X113513000Y-49765000D01*
X113513000Y-47263000D02*
X113513000Y-47474000D01*
X113473000Y-49554000D02*
X113473000Y-49833000D01*
X113473000Y-47195000D02*
X113473000Y-47474000D01*
X113433000Y-49554000D02*
X113433000Y-49897000D01*
X113433000Y-47131000D02*
X113433000Y-47474000D01*
X113393000Y-49554000D02*
X113393000Y-49957000D01*
X113393000Y-47071000D02*
X113393000Y-47474000D01*
X113353000Y-49554000D02*
X113353000Y-50014000D01*
X113353000Y-47014000D02*
X113353000Y-47474000D01*
X113313000Y-49554000D02*
X113313000Y-50068000D01*
X113313000Y-46960000D02*
X113313000Y-47474000D01*
X113273000Y-49554000D02*
X113273000Y-50119000D01*
X113273000Y-46909000D02*
X113273000Y-47474000D01*
X113233000Y-49554000D02*
X113233000Y-50167000D01*
X113233000Y-46861000D02*
X113233000Y-47474000D01*
X113193000Y-49554000D02*
X113193000Y-50213000D01*
X113193000Y-46815000D02*
X113193000Y-47474000D01*
X113153000Y-49554000D02*
X113153000Y-50257000D01*
X113153000Y-46771000D02*
X113153000Y-47474000D01*
X113113000Y-49554000D02*
X113113000Y-50299000D01*
X113113000Y-46729000D02*
X113113000Y-47474000D01*
X113073000Y-49554000D02*
X113073000Y-50340000D01*
X113073000Y-46688000D02*
X113073000Y-47474000D01*
X113033000Y-49554000D02*
X113033000Y-50378000D01*
X113033000Y-46650000D02*
X113033000Y-47474000D01*
X112993000Y-49554000D02*
X112993000Y-50415000D01*
X112993000Y-46613000D02*
X112993000Y-47474000D01*
X112953000Y-49554000D02*
X112953000Y-50451000D01*
X112953000Y-46577000D02*
X112953000Y-47474000D01*
X112913000Y-49554000D02*
X112913000Y-50485000D01*
X112913000Y-46543000D02*
X112913000Y-47474000D01*
X112873000Y-49554000D02*
X112873000Y-50518000D01*
X112873000Y-46510000D02*
X112873000Y-47474000D01*
X112833000Y-49554000D02*
X112833000Y-50549000D01*
X112833000Y-46479000D02*
X112833000Y-47474000D01*
X112793000Y-49554000D02*
X112793000Y-50579000D01*
X112793000Y-46449000D02*
X112793000Y-47474000D01*
X112753000Y-49554000D02*
X112753000Y-50609000D01*
X112753000Y-46419000D02*
X112753000Y-47474000D01*
X112713000Y-49554000D02*
X112713000Y-50636000D01*
X112713000Y-46392000D02*
X112713000Y-47474000D01*
X112673000Y-49554000D02*
X112673000Y-50663000D01*
X112673000Y-46365000D02*
X112673000Y-47474000D01*
X112633000Y-49554000D02*
X112633000Y-50689000D01*
X112633000Y-46339000D02*
X112633000Y-47474000D01*
X112593000Y-49554000D02*
X112593000Y-50714000D01*
X112593000Y-46314000D02*
X112593000Y-47474000D01*
X112553000Y-49554000D02*
X112553000Y-50738000D01*
X112553000Y-46290000D02*
X112553000Y-47474000D01*
X112513000Y-49554000D02*
X112513000Y-50761000D01*
X112513000Y-46267000D02*
X112513000Y-47474000D01*
X112473000Y-49554000D02*
X112473000Y-50782000D01*
X112473000Y-46246000D02*
X112473000Y-47474000D01*
X112433000Y-49554000D02*
X112433000Y-50804000D01*
X112433000Y-46224000D02*
X112433000Y-47474000D01*
X112393000Y-49554000D02*
X112393000Y-50824000D01*
X112393000Y-46204000D02*
X112393000Y-47474000D01*
X112353000Y-49554000D02*
X112353000Y-50843000D01*
X112353000Y-46185000D02*
X112353000Y-47474000D01*
X112313000Y-49554000D02*
X112313000Y-50862000D01*
X112313000Y-46166000D02*
X112313000Y-47474000D01*
X112273000Y-49554000D02*
X112273000Y-50879000D01*
X112273000Y-46149000D02*
X112273000Y-47474000D01*
X112233000Y-49554000D02*
X112233000Y-50896000D01*
X112233000Y-46132000D02*
X112233000Y-47474000D01*
X112193000Y-49554000D02*
X112193000Y-50912000D01*
X112193000Y-46116000D02*
X112193000Y-47474000D01*
X112153000Y-49554000D02*
X112153000Y-50928000D01*
X112153000Y-46100000D02*
X112153000Y-47474000D01*
X112113000Y-49554000D02*
X112113000Y-50942000D01*
X112113000Y-46086000D02*
X112113000Y-47474000D01*
X112073000Y-49554000D02*
X112073000Y-50956000D01*
X112073000Y-46072000D02*
X112073000Y-47474000D01*
X112033000Y-49554000D02*
X112033000Y-50969000D01*
X112033000Y-46059000D02*
X112033000Y-47474000D01*
X111993000Y-49554000D02*
X111993000Y-50982000D01*
X111993000Y-46046000D02*
X111993000Y-47474000D01*
X111953000Y-49554000D02*
X111953000Y-50994000D01*
X111953000Y-46034000D02*
X111953000Y-47474000D01*
X111912000Y-49554000D02*
X111912000Y-51005000D01*
X111912000Y-46023000D02*
X111912000Y-47474000D01*
X111872000Y-49554000D02*
X111872000Y-51015000D01*
X111872000Y-46013000D02*
X111872000Y-47474000D01*
X111832000Y-49554000D02*
X111832000Y-51025000D01*
X111832000Y-46003000D02*
X111832000Y-47474000D01*
X111792000Y-49554000D02*
X111792000Y-51034000D01*
X111792000Y-45994000D02*
X111792000Y-47474000D01*
X111752000Y-49554000D02*
X111752000Y-51042000D01*
X111752000Y-45986000D02*
X111752000Y-47474000D01*
X111712000Y-49554000D02*
X111712000Y-51050000D01*
X111712000Y-45978000D02*
X111712000Y-47474000D01*
X111672000Y-49554000D02*
X111672000Y-51057000D01*
X111672000Y-45971000D02*
X111672000Y-47474000D01*
X111632000Y-49554000D02*
X111632000Y-51064000D01*
X111632000Y-45964000D02*
X111632000Y-47474000D01*
X111592000Y-49554000D02*
X111592000Y-51070000D01*
X111592000Y-45958000D02*
X111592000Y-47474000D01*
X111552000Y-49554000D02*
X111552000Y-51075000D01*
X111552000Y-45953000D02*
X111552000Y-47474000D01*
X111512000Y-49554000D02*
X111512000Y-51079000D01*
X111512000Y-45949000D02*
X111512000Y-47474000D01*
X111472000Y-49554000D02*
X111472000Y-51083000D01*
X111472000Y-45945000D02*
X111472000Y-47474000D01*
X111432000Y-45941000D02*
X111432000Y-51087000D01*
X111392000Y-45938000D02*
X111392000Y-51090000D01*
X111352000Y-45936000D02*
X111352000Y-51092000D01*
X111312000Y-45935000D02*
X111312000Y-51093000D01*
X111272000Y-45934000D02*
X111272000Y-51094000D01*
X111232000Y-45934000D02*
X111232000Y-51094000D01*
X113852000Y-48514000D02*
G75*
G03X113852000Y-48514000I-2620000J0D01*
G01*
X95648000Y-54416000D02*
X97298000Y-54416000D01*
X95648000Y-44136000D02*
X95648000Y-54416000D01*
X100948000Y-44136000D02*
X95648000Y-44136000D01*
X100948000Y-54416000D02*
X100948000Y-44136000D01*
X99298000Y-54416000D02*
X100948000Y-54416000D01*
X97298000Y-54416000D02*
G75*
G02X99298000Y-54416000I1000000J0D01*
G01*
X121936000Y-62290000D02*
G75*
G02X123936000Y-62290000I1000000J0D01*
G01*
X123936000Y-62290000D02*
X125586000Y-62290000D01*
X125586000Y-62290000D02*
X125586000Y-41850000D01*
X125586000Y-41850000D02*
X120286000Y-41850000D01*
X120286000Y-41850000D02*
X120286000Y-62290000D01*
X120286000Y-62290000D02*
X121936000Y-62290000D01*
X136414000Y-62290000D02*
G75*
G02X138414000Y-62290000I1000000J0D01*
G01*
X138414000Y-62290000D02*
X140064000Y-62290000D01*
X140064000Y-62290000D02*
X140064000Y-41850000D01*
X140064000Y-41850000D02*
X134764000Y-41850000D01*
X134764000Y-41850000D02*
X134764000Y-62290000D01*
X134764000Y-62290000D02*
X136414000Y-62290000D01*
X91694462Y-71686000D02*
G75*
G03X90149170Y-77236000I-462J-2990000D01*
G01*
X91693538Y-71686000D02*
G75*
G02X93238830Y-77236000I462J-2990000D01*
G01*
X94194000Y-74676000D02*
G75*
G03X94194000Y-74676000I-2500000J0D01*
G01*
X90149000Y-77236000D02*
X93239000Y-77236000D01*
X96716714Y-77236000D02*
X99806714Y-77236000D01*
X100761714Y-74676000D02*
G75*
G03X100761714Y-74676000I-2500000J0D01*
G01*
X98261252Y-71686000D02*
G75*
G02X99806544Y-77236000I462J-2990000D01*
G01*
X98262176Y-71686000D02*
G75*
G03X96716884Y-77236000I-462J-2990000D01*
G01*
X103284428Y-77236000D02*
X106374428Y-77236000D01*
X107329428Y-74676000D02*
G75*
G03X107329428Y-74676000I-2500000J0D01*
G01*
X104828966Y-71686000D02*
G75*
G02X106374258Y-77236000I462J-2990000D01*
G01*
X104829890Y-71686000D02*
G75*
G03X103284598Y-77236000I-462J-2990000D01*
G01*
X111397604Y-71686000D02*
G75*
G03X109852312Y-77236000I-462J-2990000D01*
G01*
X111396680Y-71686000D02*
G75*
G02X112941972Y-77236000I462J-2990000D01*
G01*
X113897142Y-74676000D02*
G75*
G03X113897142Y-74676000I-2500000J0D01*
G01*
X109852142Y-77236000D02*
X112942142Y-77236000D01*
X116419856Y-77236000D02*
X119509856Y-77236000D01*
X120464856Y-74676000D02*
G75*
G03X120464856Y-74676000I-2500000J0D01*
G01*
X117964394Y-71686000D02*
G75*
G02X119509686Y-77236000I462J-2990000D01*
G01*
X117965318Y-71686000D02*
G75*
G03X116420026Y-77236000I-462J-2990000D01*
G01*
X124533032Y-71686000D02*
G75*
G03X122987740Y-77236000I-462J-2990000D01*
G01*
X124532108Y-71686000D02*
G75*
G02X126077400Y-77236000I462J-2990000D01*
G01*
X127032570Y-74676000D02*
G75*
G03X127032570Y-74676000I-2500000J0D01*
G01*
X122987570Y-77236000D02*
X126077570Y-77236000D01*
X129555284Y-77236000D02*
X132645284Y-77236000D01*
X133600284Y-74676000D02*
G75*
G03X133600284Y-74676000I-2500000J0D01*
G01*
X131099822Y-71686000D02*
G75*
G02X132645114Y-77236000I462J-2990000D01*
G01*
X131100746Y-71686000D02*
G75*
G03X129555454Y-77236000I-462J-2990000D01*
G01*
X137668462Y-71686000D02*
G75*
G03X136123170Y-77236000I-462J-2990000D01*
G01*
X137667538Y-71686000D02*
G75*
G02X139212830Y-77236000I462J-2990000D01*
G01*
X140168000Y-74676000D02*
G75*
G03X140168000Y-74676000I-2500000J0D01*
G01*
X136123000Y-77236000D02*
X139213000Y-77236000D01*
X109148000Y-53953000D02*
X109148000Y-57553000D01*
X109159522Y-53914522D02*
G75*
G02X113598000Y-55753000I1838478J-1838478D01*
G01*
X109159522Y-57591478D02*
G75*
G03X113598000Y-55753000I1838478J1838478D01*
G01*
X90551000Y-45363000D02*
X90551000Y-46133000D01*
X90551000Y-53443000D02*
X90551000Y-52673000D01*
X89181000Y-46133000D02*
X89181000Y-52673000D01*
X91921000Y-46133000D02*
X89181000Y-46133000D01*
X91921000Y-52673000D02*
X91921000Y-46133000D01*
X89181000Y-52673000D02*
X91921000Y-52673000D01*
X95028000Y-55780000D02*
X95028000Y-58520000D01*
X95028000Y-58520000D02*
X101568000Y-58520000D01*
X101568000Y-58520000D02*
X101568000Y-55780000D01*
X101568000Y-55780000D02*
X95028000Y-55780000D01*
X94258000Y-57150000D02*
X95028000Y-57150000D01*
X102338000Y-57150000D02*
X101568000Y-57150000D01*
X100941000Y-64516000D02*
X100171000Y-64516000D01*
X92861000Y-64516000D02*
X93631000Y-64516000D01*
X100171000Y-63146000D02*
X93631000Y-63146000D01*
X100171000Y-65886000D02*
X100171000Y-63146000D01*
X93631000Y-65886000D02*
X100171000Y-65886000D01*
X93631000Y-63146000D02*
X93631000Y-65886000D01*
X93631000Y-66321000D02*
X93631000Y-69061000D01*
X93631000Y-69061000D02*
X100171000Y-69061000D01*
X100171000Y-69061000D02*
X100171000Y-66321000D01*
X100171000Y-66321000D02*
X93631000Y-66321000D01*
X92861000Y-67691000D02*
X93631000Y-67691000D01*
X100941000Y-67691000D02*
X100171000Y-67691000D01*
X118213000Y-65151000D02*
X117443000Y-65151000D01*
X110133000Y-65151000D02*
X110903000Y-65151000D01*
X117443000Y-63781000D02*
X110903000Y-63781000D01*
X117443000Y-66521000D02*
X117443000Y-63781000D01*
X110903000Y-66521000D02*
X117443000Y-66521000D01*
X110903000Y-63781000D02*
X110903000Y-66521000D01*
X110903000Y-66829000D02*
X110903000Y-69569000D01*
X110903000Y-69569000D02*
X117443000Y-69569000D01*
X117443000Y-69569000D02*
X117443000Y-66829000D01*
X117443000Y-66829000D02*
X110903000Y-66829000D01*
X110133000Y-68199000D02*
X110903000Y-68199000D01*
X118213000Y-68199000D02*
X117443000Y-68199000D01*
X123603000Y-63781000D02*
X123603000Y-66521000D01*
X123603000Y-66521000D02*
X130143000Y-66521000D01*
X130143000Y-66521000D02*
X130143000Y-63781000D01*
X130143000Y-63781000D02*
X123603000Y-63781000D01*
X122833000Y-65151000D02*
X123603000Y-65151000D01*
X130913000Y-65151000D02*
X130143000Y-65151000D01*
X130913000Y-68199000D02*
X130143000Y-68199000D01*
X122833000Y-68199000D02*
X123603000Y-68199000D01*
X130143000Y-66829000D02*
X123603000Y-66829000D01*
X130143000Y-69569000D02*
X130143000Y-66829000D01*
X123603000Y-69569000D02*
X130143000Y-69569000D01*
X123603000Y-66829000D02*
X123603000Y-69569000D01*
X141759000Y-72993000D02*
X144499000Y-72993000D01*
X144499000Y-72993000D02*
X144499000Y-66453000D01*
X144499000Y-66453000D02*
X141759000Y-66453000D01*
X141759000Y-66453000D02*
X141759000Y-72993000D01*
X143129000Y-73763000D02*
X143129000Y-72993000D01*
X143129000Y-65683000D02*
X143129000Y-66453000D01*
X105564000Y-56356000D02*
X108304000Y-56356000D01*
X108304000Y-56356000D02*
X108304000Y-49816000D01*
X108304000Y-49816000D02*
X105564000Y-49816000D01*
X105564000Y-49816000D02*
X105564000Y-56356000D01*
X106934000Y-57126000D02*
X106934000Y-56356000D01*
X106934000Y-49046000D02*
X106934000Y-49816000D01*
X105942000Y-60960000D02*
X106712000Y-60960000D01*
X114022000Y-60960000D02*
X113252000Y-60960000D01*
X106712000Y-62330000D02*
X113252000Y-62330000D01*
X106712000Y-59590000D02*
X106712000Y-62330000D01*
X113252000Y-59590000D02*
X106712000Y-59590000D01*
X113252000Y-62330000D02*
X113252000Y-59590000D01*
D10*
X111847333Y-42013142D02*
X111799714Y-42060761D01*
X111656857Y-42108380D01*
X111561619Y-42108380D01*
X111418761Y-42060761D01*
X111323523Y-41965523D01*
X111275904Y-41870285D01*
X111228285Y-41679809D01*
X111228285Y-41536952D01*
X111275904Y-41346476D01*
X111323523Y-41251238D01*
X111418761Y-41156000D01*
X111561619Y-41108380D01*
X111656857Y-41108380D01*
X111799714Y-41156000D01*
X111847333Y-41203619D01*
X112752095Y-41108380D02*
X112275904Y-41108380D01*
X112228285Y-41584571D01*
X112275904Y-41536952D01*
X112371142Y-41489333D01*
X112609238Y-41489333D01*
X112704476Y-41536952D01*
X112752095Y-41584571D01*
X112799714Y-41679809D01*
X112799714Y-41917904D01*
X112752095Y-42013142D01*
X112704476Y-42060761D01*
X112609238Y-42108380D01*
X112371142Y-42108380D01*
X112275904Y-42060761D01*
X112228285Y-42013142D01*
X104354333Y-46712142D02*
X104306714Y-46759761D01*
X104163857Y-46807380D01*
X104068619Y-46807380D01*
X103925761Y-46759761D01*
X103830523Y-46664523D01*
X103782904Y-46569285D01*
X103735285Y-46378809D01*
X103735285Y-46235952D01*
X103782904Y-46045476D01*
X103830523Y-45950238D01*
X103925761Y-45855000D01*
X104068619Y-45807380D01*
X104163857Y-45807380D01*
X104306714Y-45855000D01*
X104354333Y-45902619D01*
X105211476Y-46140714D02*
X105211476Y-46807380D01*
X104973380Y-45759761D02*
X104735285Y-46474047D01*
X105354333Y-46474047D01*
X85487142Y-60277666D02*
X85534761Y-60325285D01*
X85582380Y-60468142D01*
X85582380Y-60563380D01*
X85534761Y-60706238D01*
X85439523Y-60801476D01*
X85344285Y-60849095D01*
X85153809Y-60896714D01*
X85010952Y-60896714D01*
X84820476Y-60849095D01*
X84725238Y-60801476D01*
X84630000Y-60706238D01*
X84582380Y-60563380D01*
X84582380Y-60468142D01*
X84630000Y-60325285D01*
X84677619Y-60277666D01*
X84582380Y-59944333D02*
X84582380Y-59325285D01*
X84963333Y-59658619D01*
X84963333Y-59515761D01*
X85010952Y-59420523D01*
X85058571Y-59372904D01*
X85153809Y-59325285D01*
X85391904Y-59325285D01*
X85487142Y-59372904D01*
X85534761Y-59420523D01*
X85582380Y-59515761D01*
X85582380Y-59801476D01*
X85534761Y-59896714D01*
X85487142Y-59944333D01*
X93178333Y-42521142D02*
X93130714Y-42568761D01*
X92987857Y-42616380D01*
X92892619Y-42616380D01*
X92749761Y-42568761D01*
X92654523Y-42473523D01*
X92606904Y-42378285D01*
X92559285Y-42187809D01*
X92559285Y-42044952D01*
X92606904Y-41854476D01*
X92654523Y-41759238D01*
X92749761Y-41664000D01*
X92892619Y-41616380D01*
X92987857Y-41616380D01*
X93130714Y-41664000D01*
X93178333Y-41711619D01*
X94130714Y-42616380D02*
X93559285Y-42616380D01*
X93845000Y-42616380D02*
X93845000Y-41616380D01*
X93749761Y-41759238D01*
X93654523Y-41854476D01*
X93559285Y-41902095D01*
X92416333Y-60396380D02*
X92083000Y-59920190D01*
X91844904Y-60396380D02*
X91844904Y-59396380D01*
X92225857Y-59396380D01*
X92321095Y-59444000D01*
X92368714Y-59491619D01*
X92416333Y-59586857D01*
X92416333Y-59729714D01*
X92368714Y-59824952D01*
X92321095Y-59872571D01*
X92225857Y-59920190D01*
X91844904Y-59920190D01*
X92749666Y-59396380D02*
X93368714Y-59396380D01*
X93035380Y-59777333D01*
X93178238Y-59777333D01*
X93273476Y-59824952D01*
X93321095Y-59872571D01*
X93368714Y-59967809D01*
X93368714Y-60205904D01*
X93321095Y-60301142D01*
X93273476Y-60348761D01*
X93178238Y-60396380D01*
X92892523Y-60396380D01*
X92797285Y-60348761D01*
X92749666Y-60301142D01*
X114641333Y-49125142D02*
X114593714Y-49172761D01*
X114450857Y-49220380D01*
X114355619Y-49220380D01*
X114212761Y-49172761D01*
X114117523Y-49077523D01*
X114069904Y-48982285D01*
X114022285Y-48791809D01*
X114022285Y-48648952D01*
X114069904Y-48458476D01*
X114117523Y-48363238D01*
X114212761Y-48268000D01*
X114355619Y-48220380D01*
X114450857Y-48220380D01*
X114593714Y-48268000D01*
X114641333Y-48315619D01*
X115022285Y-48315619D02*
X115069904Y-48268000D01*
X115165142Y-48220380D01*
X115403238Y-48220380D01*
X115498476Y-48268000D01*
X115546095Y-48315619D01*
X115593714Y-48410857D01*
X115593714Y-48506095D01*
X115546095Y-48648952D01*
X114974666Y-49220380D01*
X115593714Y-49220380D01*
X97536095Y-54316380D02*
X97536095Y-55125904D01*
X97583714Y-55221142D01*
X97631333Y-55268761D01*
X97726571Y-55316380D01*
X97917047Y-55316380D01*
X98012285Y-55268761D01*
X98059904Y-55221142D01*
X98107523Y-55125904D01*
X98107523Y-54316380D01*
X99107523Y-55316380D02*
X98536095Y-55316380D01*
X98821809Y-55316380D02*
X98821809Y-54316380D01*
X98726571Y-54459238D01*
X98631333Y-54554476D01*
X98536095Y-54602095D01*
X122174095Y-62063380D02*
X122174095Y-62872904D01*
X122221714Y-62968142D01*
X122269333Y-63015761D01*
X122364571Y-63063380D01*
X122555047Y-63063380D01*
X122650285Y-63015761D01*
X122697904Y-62968142D01*
X122745523Y-62872904D01*
X122745523Y-62063380D01*
X123174095Y-62158619D02*
X123221714Y-62111000D01*
X123316952Y-62063380D01*
X123555047Y-62063380D01*
X123650285Y-62111000D01*
X123697904Y-62158619D01*
X123745523Y-62253857D01*
X123745523Y-62349095D01*
X123697904Y-62491952D01*
X123126476Y-63063380D01*
X123745523Y-63063380D01*
X136652095Y-62742380D02*
X136652095Y-63551904D01*
X136699714Y-63647142D01*
X136747333Y-63694761D01*
X136842571Y-63742380D01*
X137033047Y-63742380D01*
X137128285Y-63694761D01*
X137175904Y-63647142D01*
X137223523Y-63551904D01*
X137223523Y-62742380D01*
X137604476Y-62742380D02*
X138223523Y-62742380D01*
X137890190Y-63123333D01*
X138033047Y-63123333D01*
X138128285Y-63170952D01*
X138175904Y-63218571D01*
X138223523Y-63313809D01*
X138223523Y-63551904D01*
X138175904Y-63647142D01*
X138128285Y-63694761D01*
X138033047Y-63742380D01*
X137747333Y-63742380D01*
X137652095Y-63694761D01*
X137604476Y-63647142D01*
X90955904Y-71445380D02*
X90955904Y-70445380D01*
X91194000Y-70445380D01*
X91336857Y-70493000D01*
X91432095Y-70588238D01*
X91479714Y-70683476D01*
X91527333Y-70873952D01*
X91527333Y-71016809D01*
X91479714Y-71207285D01*
X91432095Y-71302523D01*
X91336857Y-71397761D01*
X91194000Y-71445380D01*
X90955904Y-71445380D01*
X92479714Y-71445380D02*
X91908285Y-71445380D01*
X92194000Y-71445380D02*
X92194000Y-70445380D01*
X92098761Y-70588238D01*
X92003523Y-70683476D01*
X91908285Y-70731095D01*
X97559904Y-71445380D02*
X97559904Y-70445380D01*
X97798000Y-70445380D01*
X97940857Y-70493000D01*
X98036095Y-70588238D01*
X98083714Y-70683476D01*
X98131333Y-70873952D01*
X98131333Y-71016809D01*
X98083714Y-71207285D01*
X98036095Y-71302523D01*
X97940857Y-71397761D01*
X97798000Y-71445380D01*
X97559904Y-71445380D01*
X98512285Y-70540619D02*
X98559904Y-70493000D01*
X98655142Y-70445380D01*
X98893238Y-70445380D01*
X98988476Y-70493000D01*
X99036095Y-70540619D01*
X99083714Y-70635857D01*
X99083714Y-70731095D01*
X99036095Y-70873952D01*
X98464666Y-71445380D01*
X99083714Y-71445380D01*
X104036904Y-71445380D02*
X104036904Y-70445380D01*
X104275000Y-70445380D01*
X104417857Y-70493000D01*
X104513095Y-70588238D01*
X104560714Y-70683476D01*
X104608333Y-70873952D01*
X104608333Y-71016809D01*
X104560714Y-71207285D01*
X104513095Y-71302523D01*
X104417857Y-71397761D01*
X104275000Y-71445380D01*
X104036904Y-71445380D01*
X104941666Y-70445380D02*
X105560714Y-70445380D01*
X105227380Y-70826333D01*
X105370238Y-70826333D01*
X105465476Y-70873952D01*
X105513095Y-70921571D01*
X105560714Y-71016809D01*
X105560714Y-71254904D01*
X105513095Y-71350142D01*
X105465476Y-71397761D01*
X105370238Y-71445380D01*
X105084523Y-71445380D01*
X104989285Y-71397761D01*
X104941666Y-71350142D01*
X110640904Y-71445380D02*
X110640904Y-70445380D01*
X110879000Y-70445380D01*
X111021857Y-70493000D01*
X111117095Y-70588238D01*
X111164714Y-70683476D01*
X111212333Y-70873952D01*
X111212333Y-71016809D01*
X111164714Y-71207285D01*
X111117095Y-71302523D01*
X111021857Y-71397761D01*
X110879000Y-71445380D01*
X110640904Y-71445380D01*
X112069476Y-70778714D02*
X112069476Y-71445380D01*
X111831380Y-70397761D02*
X111593285Y-71112047D01*
X112212333Y-71112047D01*
X117244904Y-71445380D02*
X117244904Y-70445380D01*
X117483000Y-70445380D01*
X117625857Y-70493000D01*
X117721095Y-70588238D01*
X117768714Y-70683476D01*
X117816333Y-70873952D01*
X117816333Y-71016809D01*
X117768714Y-71207285D01*
X117721095Y-71302523D01*
X117625857Y-71397761D01*
X117483000Y-71445380D01*
X117244904Y-71445380D01*
X118721095Y-70445380D02*
X118244904Y-70445380D01*
X118197285Y-70921571D01*
X118244904Y-70873952D01*
X118340142Y-70826333D01*
X118578238Y-70826333D01*
X118673476Y-70873952D01*
X118721095Y-70921571D01*
X118768714Y-71016809D01*
X118768714Y-71254904D01*
X118721095Y-71350142D01*
X118673476Y-71397761D01*
X118578238Y-71445380D01*
X118340142Y-71445380D01*
X118244904Y-71397761D01*
X118197285Y-71350142D01*
X123848904Y-71318380D02*
X123848904Y-70318380D01*
X124087000Y-70318380D01*
X124229857Y-70366000D01*
X124325095Y-70461238D01*
X124372714Y-70556476D01*
X124420333Y-70746952D01*
X124420333Y-70889809D01*
X124372714Y-71080285D01*
X124325095Y-71175523D01*
X124229857Y-71270761D01*
X124087000Y-71318380D01*
X123848904Y-71318380D01*
X125277476Y-70318380D02*
X125087000Y-70318380D01*
X124991761Y-70366000D01*
X124944142Y-70413619D01*
X124848904Y-70556476D01*
X124801285Y-70746952D01*
X124801285Y-71127904D01*
X124848904Y-71223142D01*
X124896523Y-71270761D01*
X124991761Y-71318380D01*
X125182238Y-71318380D01*
X125277476Y-71270761D01*
X125325095Y-71223142D01*
X125372714Y-71127904D01*
X125372714Y-70889809D01*
X125325095Y-70794571D01*
X125277476Y-70746952D01*
X125182238Y-70699333D01*
X124991761Y-70699333D01*
X124896523Y-70746952D01*
X124848904Y-70794571D01*
X124801285Y-70889809D01*
X130325904Y-71445380D02*
X130325904Y-70445380D01*
X130564000Y-70445380D01*
X130706857Y-70493000D01*
X130802095Y-70588238D01*
X130849714Y-70683476D01*
X130897333Y-70873952D01*
X130897333Y-71016809D01*
X130849714Y-71207285D01*
X130802095Y-71302523D01*
X130706857Y-71397761D01*
X130564000Y-71445380D01*
X130325904Y-71445380D01*
X131230666Y-70445380D02*
X131897333Y-70445380D01*
X131468761Y-71445380D01*
X136929904Y-71318380D02*
X136929904Y-70318380D01*
X137168000Y-70318380D01*
X137310857Y-70366000D01*
X137406095Y-70461238D01*
X137453714Y-70556476D01*
X137501333Y-70746952D01*
X137501333Y-70889809D01*
X137453714Y-71080285D01*
X137406095Y-71175523D01*
X137310857Y-71270761D01*
X137168000Y-71318380D01*
X136929904Y-71318380D01*
X138072761Y-70746952D02*
X137977523Y-70699333D01*
X137929904Y-70651714D01*
X137882285Y-70556476D01*
X137882285Y-70508857D01*
X137929904Y-70413619D01*
X137977523Y-70366000D01*
X138072761Y-70318380D01*
X138263238Y-70318380D01*
X138358476Y-70366000D01*
X138406095Y-70413619D01*
X138453714Y-70508857D01*
X138453714Y-70556476D01*
X138406095Y-70651714D01*
X138358476Y-70699333D01*
X138263238Y-70746952D01*
X138072761Y-70746952D01*
X137977523Y-70794571D01*
X137929904Y-70842190D01*
X137882285Y-70937428D01*
X137882285Y-71127904D01*
X137929904Y-71223142D01*
X137977523Y-71270761D01*
X138072761Y-71318380D01*
X138263238Y-71318380D01*
X138358476Y-71270761D01*
X138406095Y-71223142D01*
X138453714Y-71127904D01*
X138453714Y-70937428D01*
X138406095Y-70842190D01*
X138358476Y-70794571D01*
X138263238Y-70746952D01*
X115105619Y-55848238D02*
X115058000Y-55943476D01*
X114962761Y-56038714D01*
X114819904Y-56181571D01*
X114772285Y-56276809D01*
X114772285Y-56372047D01*
X115010380Y-56324428D02*
X114962761Y-56419666D01*
X114867523Y-56514904D01*
X114677047Y-56562523D01*
X114343714Y-56562523D01*
X114153238Y-56514904D01*
X114058000Y-56419666D01*
X114010380Y-56324428D01*
X114010380Y-56133952D01*
X114058000Y-56038714D01*
X114153238Y-55943476D01*
X114343714Y-55895857D01*
X114677047Y-55895857D01*
X114867523Y-55943476D01*
X114962761Y-56038714D01*
X115010380Y-56133952D01*
X115010380Y-56324428D01*
X115010380Y-54943476D02*
X115010380Y-55514904D01*
X115010380Y-55229190D02*
X114010380Y-55229190D01*
X114153238Y-55324428D01*
X114248476Y-55419666D01*
X114296095Y-55514904D01*
X91003380Y-42584666D02*
X90527190Y-42918000D01*
X91003380Y-43156095D02*
X90003380Y-43156095D01*
X90003380Y-42775142D01*
X90051000Y-42679904D01*
X90098619Y-42632285D01*
X90193857Y-42584666D01*
X90336714Y-42584666D01*
X90431952Y-42632285D01*
X90479571Y-42679904D01*
X90527190Y-42775142D01*
X90527190Y-43156095D01*
X91003380Y-41632285D02*
X91003380Y-42203714D01*
X91003380Y-41918000D02*
X90003380Y-41918000D01*
X90146238Y-42013238D01*
X90241476Y-42108476D01*
X90289095Y-42203714D01*
X102449333Y-59507380D02*
X102116000Y-59031190D01*
X101877904Y-59507380D02*
X101877904Y-58507380D01*
X102258857Y-58507380D01*
X102354095Y-58555000D01*
X102401714Y-58602619D01*
X102449333Y-58697857D01*
X102449333Y-58840714D01*
X102401714Y-58935952D01*
X102354095Y-58983571D01*
X102258857Y-59031190D01*
X101877904Y-59031190D01*
X102830285Y-58602619D02*
X102877904Y-58555000D01*
X102973142Y-58507380D01*
X103211238Y-58507380D01*
X103306476Y-58555000D01*
X103354095Y-58602619D01*
X103401714Y-58697857D01*
X103401714Y-58793095D01*
X103354095Y-58935952D01*
X102782666Y-59507380D01*
X103401714Y-59507380D01*
X103846333Y-65095380D02*
X103513000Y-64619190D01*
X103274904Y-65095380D02*
X103274904Y-64095380D01*
X103655857Y-64095380D01*
X103751095Y-64143000D01*
X103798714Y-64190619D01*
X103846333Y-64285857D01*
X103846333Y-64428714D01*
X103798714Y-64523952D01*
X103751095Y-64571571D01*
X103655857Y-64619190D01*
X103274904Y-64619190D01*
X104703476Y-64428714D02*
X104703476Y-65095380D01*
X104465380Y-64047761D02*
X104227285Y-64762047D01*
X104846333Y-64762047D01*
X103846333Y-68143380D02*
X103513000Y-67667190D01*
X103274904Y-68143380D02*
X103274904Y-67143380D01*
X103655857Y-67143380D01*
X103751095Y-67191000D01*
X103798714Y-67238619D01*
X103846333Y-67333857D01*
X103846333Y-67476714D01*
X103798714Y-67571952D01*
X103751095Y-67619571D01*
X103655857Y-67667190D01*
X103274904Y-67667190D01*
X104751095Y-67143380D02*
X104274904Y-67143380D01*
X104227285Y-67619571D01*
X104274904Y-67571952D01*
X104370142Y-67524333D01*
X104608238Y-67524333D01*
X104703476Y-67571952D01*
X104751095Y-67619571D01*
X104798714Y-67714809D01*
X104798714Y-67952904D01*
X104751095Y-68048142D01*
X104703476Y-68095761D01*
X104608238Y-68143380D01*
X104370142Y-68143380D01*
X104274904Y-68095761D01*
X104227285Y-68048142D01*
X116419333Y-63571380D02*
X116086000Y-63095190D01*
X115847904Y-63571380D02*
X115847904Y-62571380D01*
X116228857Y-62571380D01*
X116324095Y-62619000D01*
X116371714Y-62666619D01*
X116419333Y-62761857D01*
X116419333Y-62904714D01*
X116371714Y-62999952D01*
X116324095Y-63047571D01*
X116228857Y-63095190D01*
X115847904Y-63095190D01*
X117276476Y-62571380D02*
X117086000Y-62571380D01*
X116990761Y-62619000D01*
X116943142Y-62666619D01*
X116847904Y-62809476D01*
X116800285Y-62999952D01*
X116800285Y-63380904D01*
X116847904Y-63476142D01*
X116895523Y-63523761D01*
X116990761Y-63571380D01*
X117181238Y-63571380D01*
X117276476Y-63523761D01*
X117324095Y-63476142D01*
X117371714Y-63380904D01*
X117371714Y-63142809D01*
X117324095Y-63047571D01*
X117276476Y-62999952D01*
X117181238Y-62952333D01*
X116990761Y-62952333D01*
X116895523Y-62999952D01*
X116847904Y-63047571D01*
X116800285Y-63142809D01*
X114387333Y-70810380D02*
X114054000Y-70334190D01*
X113815904Y-70810380D02*
X113815904Y-69810380D01*
X114196857Y-69810380D01*
X114292095Y-69858000D01*
X114339714Y-69905619D01*
X114387333Y-70000857D01*
X114387333Y-70143714D01*
X114339714Y-70238952D01*
X114292095Y-70286571D01*
X114196857Y-70334190D01*
X113815904Y-70334190D01*
X114720666Y-69810380D02*
X115387333Y-69810380D01*
X114958761Y-70810380D01*
X129373333Y-63571380D02*
X129040000Y-63095190D01*
X128801904Y-63571380D02*
X128801904Y-62571380D01*
X129182857Y-62571380D01*
X129278095Y-62619000D01*
X129325714Y-62666619D01*
X129373333Y-62761857D01*
X129373333Y-62904714D01*
X129325714Y-62999952D01*
X129278095Y-63047571D01*
X129182857Y-63095190D01*
X128801904Y-63095190D01*
X129944761Y-62999952D02*
X129849523Y-62952333D01*
X129801904Y-62904714D01*
X129754285Y-62809476D01*
X129754285Y-62761857D01*
X129801904Y-62666619D01*
X129849523Y-62619000D01*
X129944761Y-62571380D01*
X130135238Y-62571380D01*
X130230476Y-62619000D01*
X130278095Y-62666619D01*
X130325714Y-62761857D01*
X130325714Y-62809476D01*
X130278095Y-62904714D01*
X130230476Y-62952333D01*
X130135238Y-62999952D01*
X129944761Y-62999952D01*
X129849523Y-63047571D01*
X129801904Y-63095190D01*
X129754285Y-63190428D01*
X129754285Y-63380904D01*
X129801904Y-63476142D01*
X129849523Y-63523761D01*
X129944761Y-63571380D01*
X130135238Y-63571380D01*
X130230476Y-63523761D01*
X130278095Y-63476142D01*
X130325714Y-63380904D01*
X130325714Y-63190428D01*
X130278095Y-63095190D01*
X130230476Y-63047571D01*
X130135238Y-62999952D01*
X127722333Y-70810380D02*
X127389000Y-70334190D01*
X127150904Y-70810380D02*
X127150904Y-69810380D01*
X127531857Y-69810380D01*
X127627095Y-69858000D01*
X127674714Y-69905619D01*
X127722333Y-70000857D01*
X127722333Y-70143714D01*
X127674714Y-70238952D01*
X127627095Y-70286571D01*
X127531857Y-70334190D01*
X127150904Y-70334190D01*
X128198523Y-70810380D02*
X128389000Y-70810380D01*
X128484238Y-70762761D01*
X128531857Y-70715142D01*
X128627095Y-70572285D01*
X128674714Y-70381809D01*
X128674714Y-70000857D01*
X128627095Y-69905619D01*
X128579476Y-69858000D01*
X128484238Y-69810380D01*
X128293761Y-69810380D01*
X128198523Y-69858000D01*
X128150904Y-69905619D01*
X128103285Y-70000857D01*
X128103285Y-70238952D01*
X128150904Y-70334190D01*
X128198523Y-70381809D01*
X128293761Y-70429428D01*
X128484238Y-70429428D01*
X128579476Y-70381809D01*
X128627095Y-70334190D01*
X128674714Y-70238952D01*
X141211380Y-70365857D02*
X140735190Y-70699190D01*
X141211380Y-70937285D02*
X140211380Y-70937285D01*
X140211380Y-70556333D01*
X140259000Y-70461095D01*
X140306619Y-70413476D01*
X140401857Y-70365857D01*
X140544714Y-70365857D01*
X140639952Y-70413476D01*
X140687571Y-70461095D01*
X140735190Y-70556333D01*
X140735190Y-70937285D01*
X141211380Y-69413476D02*
X141211380Y-69984904D01*
X141211380Y-69699190D02*
X140211380Y-69699190D01*
X140354238Y-69794428D01*
X140449476Y-69889666D01*
X140497095Y-69984904D01*
X140211380Y-68794428D02*
X140211380Y-68699190D01*
X140259000Y-68603952D01*
X140306619Y-68556333D01*
X140401857Y-68508714D01*
X140592333Y-68461095D01*
X140830428Y-68461095D01*
X141020904Y-68508714D01*
X141116142Y-68556333D01*
X141163761Y-68603952D01*
X141211380Y-68699190D01*
X141211380Y-68794428D01*
X141163761Y-68889666D01*
X141116142Y-68937285D01*
X141020904Y-68984904D01*
X140830428Y-69032523D01*
X140592333Y-69032523D01*
X140401857Y-68984904D01*
X140306619Y-68937285D01*
X140259000Y-68889666D01*
X140211380Y-68794428D01*
X105354380Y-54109857D02*
X104878190Y-54443190D01*
X105354380Y-54681285D02*
X104354380Y-54681285D01*
X104354380Y-54300333D01*
X104402000Y-54205095D01*
X104449619Y-54157476D01*
X104544857Y-54109857D01*
X104687714Y-54109857D01*
X104782952Y-54157476D01*
X104830571Y-54205095D01*
X104878190Y-54300333D01*
X104878190Y-54681285D01*
X105354380Y-53157476D02*
X105354380Y-53728904D01*
X105354380Y-53443190D02*
X104354380Y-53443190D01*
X104497238Y-53538428D01*
X104592476Y-53633666D01*
X104640095Y-53728904D01*
X105354380Y-52205095D02*
X105354380Y-52776523D01*
X105354380Y-52490809D02*
X104354380Y-52490809D01*
X104497238Y-52586047D01*
X104592476Y-52681285D01*
X104640095Y-52776523D01*
X104513142Y-63190380D02*
X104179809Y-62714190D01*
X103941714Y-63190380D02*
X103941714Y-62190380D01*
X104322666Y-62190380D01*
X104417904Y-62238000D01*
X104465523Y-62285619D01*
X104513142Y-62380857D01*
X104513142Y-62523714D01*
X104465523Y-62618952D01*
X104417904Y-62666571D01*
X104322666Y-62714190D01*
X103941714Y-62714190D01*
X105465523Y-63190380D02*
X104894095Y-63190380D01*
X105179809Y-63190380D02*
X105179809Y-62190380D01*
X105084571Y-62333238D01*
X104989333Y-62428476D01*
X104894095Y-62476095D01*
X105846476Y-62285619D02*
X105894095Y-62238000D01*
X105989333Y-62190380D01*
X106227428Y-62190380D01*
X106322666Y-62238000D01*
X106370285Y-62285619D01*
X106417904Y-62380857D01*
X106417904Y-62476095D01*
X106370285Y-62618952D01*
X105798857Y-63190380D01*
X106417904Y-63190380D01*
M02*
