M48
; DRILL file {KiCad (5.1.4)-1} date 10/3/2019 9:13:26 AM
; FORMAT={-:-/ absolute / inch / decimal}
; #@! TF.CreationDate,2019-10-03T09:13:26-04:00
; #@! TF.GenerationSoftware,Kicad,Pcbnew,(5.1.4)-1
; #@! TF.FileFunction,Plated,1,2,PTH
FMAT,2
INCH
T1C0.0130
T2C0.0295
T3C0.0315
T4C0.0354
T5C0.0402
%
G90
G05
T1
X3.385Y-1.67
X3.385Y-1.88
X3.41Y-2.345
X3.41Y-3.005
X3.415Y-2.76
X3.45Y-2.155
X3.465Y-1.67
X3.465Y-1.88
X3.515Y-2.925
X3.545Y-2.515
X3.565Y-1.635
X3.605Y-2.785
X3.645Y-2.6
X3.675Y-2.48
X3.68Y-1.72
X3.685Y-2.37
X3.705Y-1.63
X3.735Y-2.72
X3.735Y-2.975
X3.765Y-1.73
X3.765Y-2.805
X3.86Y-1.65
X3.935Y-2.48
X3.94Y-2.365
X3.945Y-1.785
X3.96Y-2.72
X3.97Y-2.615
X4.0Y-2.81
X4.0Y-2.98
X4.04Y-1.635
X4.09Y-2.65
X4.1Y-2.76
X4.11Y-2.16
X4.125Y-2.04
X4.14Y-2.255
X4.205Y-2.695
X4.225Y-2.55
X4.225Y-2.825
X4.255Y-2.18
X4.265Y-2.98
X4.27Y-2.05
X4.32Y-1.715
X4.33Y-1.815
X4.355Y-2.625
X4.365Y-2.02
X4.385Y-1.73
X4.42Y-2.555
X4.43Y-2.72
X4.445Y-2.2
X4.45Y-1.825
X4.49Y-2.29
X4.52Y-2.83
X4.525Y-2.94
X4.57Y-1.915
X4.595Y-1.81
X4.595Y-2.73
X4.6Y-2.365
X4.605Y-2.3
X4.61Y-2.56
X4.62Y-2.2
X4.65Y-2.785
X4.76Y-2.885
X4.765Y-2.39
X4.78Y-2.27
X4.78Y-3.025
X4.835Y-2.015
X4.84Y-1.825
X4.845Y-1.65
X4.885Y-2.395
X4.92Y-2.255
X5.025Y-2.995
X5.04Y-1.95
X5.04Y-2.05
X5.06Y-2.395
X5.1024Y-2.3576
X5.105Y-2.31
X5.125Y-1.655
X5.155Y-2.36
X5.16Y-2.235
X5.165Y-1.95
X5.165Y-2.17
X5.185Y-1.8
X5.2075Y-2.2475
X5.26Y-2.73
X5.295Y-2.99
X5.33Y-2.815
X5.425Y-1.655
X5.425Y-1.815
X5.49Y-2.015
X5.515Y-2.75
X5.52Y-2.945
X5.565Y-2.545
X5.64Y-1.76
X5.64Y-3.025
X5.655Y-2.875
X5.66Y-2.615
T2
X4.37Y-2.145
X4.37Y-2.195
X4.37Y-2.245
T3
X4.795Y-2.565
X5.195Y-2.565
X4.69Y-1.7
X4.69Y-1.8
X4.69Y-1.9
X4.69Y-2.0
X4.69Y-2.1
X4.69Y-2.2
X4.69Y-2.3
X4.69Y-2.4
X4.99Y-1.7
X4.99Y-1.8
X4.99Y-1.9
X4.99Y-2.0
X4.99Y-2.1
X4.99Y-2.2
X4.99Y-2.3
X4.99Y-2.4
X3.67Y-2.25
X4.07Y-2.25
X3.615Y-2.54
X4.015Y-2.54
X3.45Y-2.2681
X3.45Y-2.465
X4.145Y-1.71
X4.2434Y-1.71
X3.77Y-1.66
X3.9669Y-1.66
X3.615Y-2.415
X4.015Y-2.415
X4.13Y-2.4
X4.53Y-2.4
X3.615Y-2.665
X4.015Y-2.665
X5.26Y-1.7
X5.26Y-1.8
X5.26Y-1.9
X5.26Y-2.0
X5.26Y-2.1
X5.26Y-2.2
X5.26Y-2.3
X5.26Y-2.4
X5.56Y-1.7
X5.56Y-1.8
X5.56Y-1.9
X5.56Y-2.0
X5.56Y-2.1
X5.56Y-2.2
X5.56Y-2.3
X5.56Y-2.4
X4.295Y-2.565
X4.695Y-2.565
X4.295Y-2.685
X4.695Y-2.685
X4.795Y-2.685
X5.195Y-2.685
X4.33Y-1.91
X4.4284Y-1.91
X4.465Y-1.74
X4.5634Y-1.74
X3.72Y-1.79
X3.72Y-1.89
X3.72Y-1.99
X3.72Y-2.09
X4.02Y-1.79
X4.02Y-1.89
X4.02Y-1.99
X4.02Y-2.09
X3.565Y-1.745
X3.565Y-2.145
X4.21Y-1.89
X4.21Y-2.29
X5.635Y-2.545
X5.635Y-2.945
T4
X4.1271Y-2.89
X4.1271Y-2.99
X3.8686Y-2.89
X3.8686Y-2.99
X3.61Y-2.89
X3.61Y-2.99
X4.9029Y-2.89
X4.9029Y-2.99
X4.3857Y-2.89
X4.3857Y-2.99
X5.1614Y-2.89
X5.1614Y-2.99
X5.42Y-2.89
X5.42Y-2.99
X4.6443Y-2.89
X4.6443Y-2.99
T5
X3.45Y-2.0398
X3.45Y-2.63
T0
M30
