G04 #@! TF.GenerationSoftware,KiCad,Pcbnew,(5.1.4)-1*
G04 #@! TF.CreationDate,2019-11-26T11:52:50-05:00*
G04 #@! TF.ProjectId,8-bit counter,382d6269-7420-4636-9f75-6e7465722e6b,rev?*
G04 #@! TF.SameCoordinates,Original*
G04 #@! TF.FileFunction,Copper,L2,Bot*
G04 #@! TF.FilePolarity,Positive*
%FSLAX46Y46*%
G04 Gerber Fmt 4.6, Leading zero omitted, Abs format (unit mm)*
G04 Created by KiCad (PCBNEW (5.1.4)-1) date 2019-11-26 11:52:50*
%MOMM*%
%LPD*%
G04 APERTURE LIST*
%ADD10C,1.600000*%
%ADD11R,1.600000X1.600000*%
%ADD12O,1.600000X1.600000*%
%ADD13R,1.800000X1.800000*%
%ADD14C,1.800000*%
%ADD15O,1.500000X1.050000*%
%ADD16R,1.500000X1.050000*%
%ADD17R,2.000000X2.000000*%
%ADD18C,2.000000*%
%ADD19C,0.660400*%
%ADD20C,0.152400*%
%ADD21C,0.254000*%
G04 APERTURE END LIST*
D10*
X115911000Y-44196000D03*
D11*
X113411000Y-44196000D03*
D10*
X107783000Y-43434000D03*
D11*
X105283000Y-43434000D03*
D10*
X87630000Y-57611000D03*
X87630000Y-62611000D03*
X100758000Y-42164000D03*
X95758000Y-42164000D03*
D12*
X101981000Y-61341000D03*
D10*
X91821000Y-61341000D03*
X112482000Y-48514000D03*
D11*
X109982000Y-48514000D03*
D12*
X94488000Y-53086000D03*
X102108000Y-45466000D03*
X94488000Y-50546000D03*
X102108000Y-48006000D03*
X94488000Y-48006000D03*
X102108000Y-50546000D03*
X94488000Y-45466000D03*
D11*
X102108000Y-53086000D03*
X126746000Y-60960000D03*
D12*
X119126000Y-43180000D03*
X126746000Y-58420000D03*
X119126000Y-45720000D03*
X126746000Y-55880000D03*
X119126000Y-48260000D03*
X126746000Y-53340000D03*
X119126000Y-50800000D03*
X126746000Y-50800000D03*
X119126000Y-53340000D03*
X126746000Y-48260000D03*
X119126000Y-55880000D03*
X126746000Y-45720000D03*
X119126000Y-58420000D03*
X126746000Y-43180000D03*
X119126000Y-60960000D03*
D11*
X141224000Y-60960000D03*
D12*
X133604000Y-43180000D03*
X141224000Y-58420000D03*
X133604000Y-45720000D03*
X141224000Y-55880000D03*
X133604000Y-48260000D03*
X141224000Y-53340000D03*
X133604000Y-50800000D03*
X141224000Y-50800000D03*
X133604000Y-53340000D03*
X141224000Y-48260000D03*
X133604000Y-55880000D03*
X141224000Y-45720000D03*
X133604000Y-58420000D03*
X141224000Y-43180000D03*
X133604000Y-60960000D03*
D13*
X91694000Y-75946000D03*
D14*
X91694000Y-73406000D03*
X98261714Y-73406000D03*
D13*
X98261714Y-75946000D03*
D14*
X104829428Y-73406000D03*
D13*
X104829428Y-75946000D03*
X111397142Y-75946000D03*
D14*
X111397142Y-73406000D03*
X117964856Y-73406000D03*
D13*
X117964856Y-75946000D03*
X124532570Y-75946000D03*
D14*
X124532570Y-73406000D03*
X131100284Y-73406000D03*
D13*
X131100284Y-75946000D03*
X137668000Y-75946000D03*
D14*
X137668000Y-73406000D03*
D15*
X110998000Y-55753000D03*
X110998000Y-57023000D03*
D16*
X110998000Y-54483000D03*
D12*
X90551000Y-44323000D03*
D10*
X90551000Y-54483000D03*
X93218000Y-57150000D03*
D12*
X103378000Y-57150000D03*
X101981000Y-64516000D03*
D10*
X91821000Y-64516000D03*
X91821000Y-67691000D03*
D12*
X101981000Y-67691000D03*
X119253000Y-65151000D03*
D10*
X109093000Y-65151000D03*
X109093000Y-68199000D03*
D12*
X119253000Y-68199000D03*
D10*
X121793000Y-65151000D03*
D12*
X131953000Y-65151000D03*
X131953000Y-68199000D03*
D10*
X121793000Y-68199000D03*
X143129000Y-74803000D03*
D12*
X143129000Y-64643000D03*
D10*
X106934000Y-58166000D03*
D12*
X106934000Y-48006000D03*
X104902000Y-60960000D03*
D10*
X115062000Y-60960000D03*
D17*
X87630000Y-66802000D03*
D18*
X87630000Y-51812000D03*
D19*
X129667000Y-58674000D03*
X130937000Y-59944000D03*
X131064000Y-56769000D03*
X109728000Y-43561000D03*
X109982000Y-46101000D03*
X111379000Y-43942000D03*
X95631000Y-43942000D03*
X93472000Y-43688000D03*
X94107000Y-41402000D03*
X90551000Y-41529000D03*
X85979000Y-42418000D03*
X88011000Y-42418000D03*
X85979000Y-47752000D03*
X88011000Y-47752000D03*
X87630000Y-54737000D03*
X86614000Y-59563000D03*
X86741000Y-70104000D03*
X86614000Y-76327000D03*
X89281000Y-74295000D03*
X94869000Y-75565000D03*
X95631000Y-71247000D03*
X91567000Y-70739000D03*
X90043000Y-63881000D03*
X93345000Y-62992000D03*
X93599000Y-60198000D03*
X100076000Y-60071000D03*
X99949000Y-62992000D03*
X100838000Y-66421000D03*
X92583000Y-66040000D03*
X94869000Y-69088000D03*
X100584000Y-69088000D03*
X107315000Y-64770000D03*
X103886000Y-67310000D03*
X106807000Y-68453000D03*
X104140000Y-70104000D03*
X107315000Y-71755000D03*
X108331000Y-75692000D03*
X101600000Y-75692000D03*
X101600000Y-71374000D03*
X114935000Y-74676000D03*
X121412000Y-76835000D03*
X120904000Y-73279000D03*
X118110000Y-70739000D03*
X114808000Y-71882000D03*
X112522000Y-69088000D03*
X110617000Y-66675000D03*
X112268000Y-64897000D03*
X117094000Y-65024000D03*
X116713000Y-69342000D03*
X127635000Y-76073000D03*
X134493000Y-75946000D03*
X143256000Y-76835000D03*
X140208000Y-74803000D03*
X143637000Y-73025000D03*
X143764000Y-66421000D03*
X141351000Y-64643000D03*
X133604000Y-69342000D03*
X140081000Y-69850000D03*
X135382000Y-71501000D03*
X128524000Y-60833000D03*
X124079000Y-60833000D03*
X121412000Y-57658000D03*
X121031000Y-60706000D03*
X116840000Y-60071000D03*
X114046000Y-58166000D03*
X116967000Y-58420000D03*
X100203000Y-45339000D03*
X102616000Y-41529000D03*
X98044000Y-41910000D03*
X113030000Y-46355000D03*
X116713000Y-45974000D03*
X116078000Y-48641000D03*
X110871000Y-51308000D03*
X104775000Y-51816000D03*
X104394000Y-54864000D03*
X105156000Y-57277000D03*
X108077000Y-55372000D03*
X108458000Y-52070000D03*
X112903000Y-55880000D03*
X117348000Y-55880000D03*
X131191000Y-55118000D03*
X131191000Y-49530000D03*
X124968000Y-57277000D03*
X128016000Y-52070000D03*
X131699000Y-45720000D03*
X128016000Y-49530000D03*
X123063000Y-41910000D03*
X122936000Y-46355000D03*
X122809000Y-51181000D03*
X130175000Y-42037000D03*
X137795000Y-42037000D03*
X137795000Y-46101000D03*
X139446000Y-51181000D03*
X143256000Y-44704000D03*
X132270500Y-57086500D03*
X129600201Y-59883799D03*
D20*
X132270500Y-57213500D02*
X132270500Y-57086500D01*
X129600201Y-59883799D02*
X132270500Y-57213500D01*
D21*
G36*
X94843241Y-41049363D02*
G01*
X94643363Y-41249241D01*
X94486320Y-41484273D01*
X94378147Y-41745426D01*
X94323000Y-42022665D01*
X94323000Y-42305335D01*
X94378147Y-42582574D01*
X94486320Y-42843727D01*
X94643363Y-43078759D01*
X94843241Y-43278637D01*
X95078273Y-43435680D01*
X95339426Y-43543853D01*
X95616665Y-43599000D01*
X95899335Y-43599000D01*
X96176574Y-43543853D01*
X96437727Y-43435680D01*
X96672759Y-43278637D01*
X96794694Y-43156702D01*
X99944903Y-43156702D01*
X100016486Y-43400671D01*
X100271996Y-43521571D01*
X100546184Y-43590300D01*
X100828512Y-43604217D01*
X101108130Y-43562787D01*
X101374292Y-43467603D01*
X101499514Y-43400671D01*
X101571097Y-43156702D01*
X100758000Y-42343605D01*
X99944903Y-43156702D01*
X96794694Y-43156702D01*
X96872637Y-43078759D01*
X97029680Y-42843727D01*
X97137853Y-42582574D01*
X97193000Y-42305335D01*
X97193000Y-42234512D01*
X99317783Y-42234512D01*
X99359213Y-42514130D01*
X99454397Y-42780292D01*
X99521329Y-42905514D01*
X99765298Y-42977097D01*
X100578395Y-42164000D01*
X100937605Y-42164000D01*
X101750702Y-42977097D01*
X101994671Y-42905514D01*
X102115571Y-42650004D01*
X102119582Y-42634000D01*
X103844928Y-42634000D01*
X103844928Y-44234000D01*
X103857188Y-44358482D01*
X103893498Y-44478180D01*
X103952463Y-44588494D01*
X104031815Y-44685185D01*
X104128506Y-44764537D01*
X104238820Y-44823502D01*
X104358518Y-44859812D01*
X104483000Y-44872072D01*
X106083000Y-44872072D01*
X106207482Y-44859812D01*
X106327180Y-44823502D01*
X106437494Y-44764537D01*
X106534185Y-44685185D01*
X106613537Y-44588494D01*
X106672502Y-44478180D01*
X106688117Y-44426702D01*
X106969903Y-44426702D01*
X107041486Y-44670671D01*
X107296996Y-44791571D01*
X107571184Y-44860300D01*
X107853512Y-44874217D01*
X108133130Y-44832787D01*
X108399292Y-44737603D01*
X108524514Y-44670671D01*
X108596097Y-44426702D01*
X107783000Y-43613605D01*
X106969903Y-44426702D01*
X106688117Y-44426702D01*
X106708812Y-44358482D01*
X106721072Y-44234000D01*
X106721072Y-44226785D01*
X106790298Y-44247097D01*
X107603395Y-43434000D01*
X107962605Y-43434000D01*
X108775702Y-44247097D01*
X109019671Y-44175514D01*
X109140571Y-43920004D01*
X109209300Y-43645816D01*
X109221614Y-43396000D01*
X111972928Y-43396000D01*
X111972928Y-44996000D01*
X111985188Y-45120482D01*
X112021498Y-45240180D01*
X112080463Y-45350494D01*
X112159815Y-45447185D01*
X112256506Y-45526537D01*
X112366820Y-45585502D01*
X112486518Y-45621812D01*
X112611000Y-45634072D01*
X114211000Y-45634072D01*
X114335482Y-45621812D01*
X114455180Y-45585502D01*
X114565494Y-45526537D01*
X114662185Y-45447185D01*
X114741537Y-45350494D01*
X114800502Y-45240180D01*
X114816117Y-45188702D01*
X115097903Y-45188702D01*
X115169486Y-45432671D01*
X115424996Y-45553571D01*
X115699184Y-45622300D01*
X115981512Y-45636217D01*
X116261130Y-45594787D01*
X116527292Y-45499603D01*
X116652514Y-45432671D01*
X116724097Y-45188702D01*
X115911000Y-44375605D01*
X115097903Y-45188702D01*
X114816117Y-45188702D01*
X114836812Y-45120482D01*
X114849072Y-44996000D01*
X114849072Y-44988785D01*
X114918298Y-45009097D01*
X115731395Y-44196000D01*
X116090605Y-44196000D01*
X116903702Y-45009097D01*
X117147671Y-44937514D01*
X117268571Y-44682004D01*
X117337300Y-44407816D01*
X117351217Y-44125488D01*
X117309787Y-43845870D01*
X117214603Y-43579708D01*
X117187521Y-43529039D01*
X117734096Y-43529039D01*
X117774754Y-43663087D01*
X117894963Y-43917420D01*
X118062481Y-44143414D01*
X118270869Y-44332385D01*
X118466982Y-44450000D01*
X118270869Y-44567615D01*
X118062481Y-44756586D01*
X117894963Y-44982580D01*
X117774754Y-45236913D01*
X117734096Y-45370961D01*
X117856085Y-45593000D01*
X118999000Y-45593000D01*
X118999000Y-43307000D01*
X119253000Y-43307000D01*
X119253000Y-45593000D01*
X120395915Y-45593000D01*
X120517904Y-45370961D01*
X120477246Y-45236913D01*
X120357037Y-44982580D01*
X120189519Y-44756586D01*
X119981131Y-44567615D01*
X119785018Y-44450000D01*
X119981131Y-44332385D01*
X120189519Y-44143414D01*
X120357037Y-43917420D01*
X120477246Y-43663087D01*
X120517904Y-43529039D01*
X120395915Y-43307000D01*
X119253000Y-43307000D01*
X118999000Y-43307000D01*
X117856085Y-43307000D01*
X117734096Y-43529039D01*
X117187521Y-43529039D01*
X117147671Y-43454486D01*
X116903702Y-43382903D01*
X116090605Y-44196000D01*
X115731395Y-44196000D01*
X114918298Y-43382903D01*
X114849072Y-43403215D01*
X114849072Y-43396000D01*
X114836812Y-43271518D01*
X114816118Y-43203298D01*
X115097903Y-43203298D01*
X115911000Y-44016395D01*
X116724097Y-43203298D01*
X116652514Y-42959329D01*
X116397004Y-42838429D01*
X116367212Y-42830961D01*
X117734096Y-42830961D01*
X117856085Y-43053000D01*
X118999000Y-43053000D01*
X118999000Y-41909376D01*
X119253000Y-41909376D01*
X119253000Y-43053000D01*
X120395915Y-43053000D01*
X120517904Y-42830961D01*
X125354096Y-42830961D01*
X125476085Y-43053000D01*
X126619000Y-43053000D01*
X126619000Y-41909376D01*
X126873000Y-41909376D01*
X126873000Y-43053000D01*
X128015915Y-43053000D01*
X128137904Y-42830961D01*
X132212096Y-42830961D01*
X132334085Y-43053000D01*
X133477000Y-43053000D01*
X133477000Y-41909376D01*
X133731000Y-41909376D01*
X133731000Y-43053000D01*
X134873915Y-43053000D01*
X134995904Y-42830961D01*
X139832096Y-42830961D01*
X139954085Y-43053000D01*
X141097000Y-43053000D01*
X141097000Y-41909376D01*
X141351000Y-41909376D01*
X141351000Y-43053000D01*
X142493915Y-43053000D01*
X142615904Y-42830961D01*
X142575246Y-42696913D01*
X142455037Y-42442580D01*
X142287519Y-42216586D01*
X142079131Y-42027615D01*
X141837881Y-41882930D01*
X141573040Y-41788091D01*
X141351000Y-41909376D01*
X141097000Y-41909376D01*
X140874960Y-41788091D01*
X140610119Y-41882930D01*
X140368869Y-42027615D01*
X140160481Y-42216586D01*
X139992963Y-42442580D01*
X139872754Y-42696913D01*
X139832096Y-42830961D01*
X134995904Y-42830961D01*
X134955246Y-42696913D01*
X134835037Y-42442580D01*
X134667519Y-42216586D01*
X134459131Y-42027615D01*
X134217881Y-41882930D01*
X133953040Y-41788091D01*
X133731000Y-41909376D01*
X133477000Y-41909376D01*
X133254960Y-41788091D01*
X132990119Y-41882930D01*
X132748869Y-42027615D01*
X132540481Y-42216586D01*
X132372963Y-42442580D01*
X132252754Y-42696913D01*
X132212096Y-42830961D01*
X128137904Y-42830961D01*
X128097246Y-42696913D01*
X127977037Y-42442580D01*
X127809519Y-42216586D01*
X127601131Y-42027615D01*
X127359881Y-41882930D01*
X127095040Y-41788091D01*
X126873000Y-41909376D01*
X126619000Y-41909376D01*
X126396960Y-41788091D01*
X126132119Y-41882930D01*
X125890869Y-42027615D01*
X125682481Y-42216586D01*
X125514963Y-42442580D01*
X125394754Y-42696913D01*
X125354096Y-42830961D01*
X120517904Y-42830961D01*
X120477246Y-42696913D01*
X120357037Y-42442580D01*
X120189519Y-42216586D01*
X119981131Y-42027615D01*
X119739881Y-41882930D01*
X119475040Y-41788091D01*
X119253000Y-41909376D01*
X118999000Y-41909376D01*
X118776960Y-41788091D01*
X118512119Y-41882930D01*
X118270869Y-42027615D01*
X118062481Y-42216586D01*
X117894963Y-42442580D01*
X117774754Y-42696913D01*
X117734096Y-42830961D01*
X116367212Y-42830961D01*
X116122816Y-42769700D01*
X115840488Y-42755783D01*
X115560870Y-42797213D01*
X115294708Y-42892397D01*
X115169486Y-42959329D01*
X115097903Y-43203298D01*
X114816118Y-43203298D01*
X114800502Y-43151820D01*
X114741537Y-43041506D01*
X114662185Y-42944815D01*
X114565494Y-42865463D01*
X114455180Y-42806498D01*
X114335482Y-42770188D01*
X114211000Y-42757928D01*
X112611000Y-42757928D01*
X112486518Y-42770188D01*
X112366820Y-42806498D01*
X112256506Y-42865463D01*
X112159815Y-42944815D01*
X112080463Y-43041506D01*
X112021498Y-43151820D01*
X111985188Y-43271518D01*
X111972928Y-43396000D01*
X109221614Y-43396000D01*
X109223217Y-43363488D01*
X109181787Y-43083870D01*
X109086603Y-42817708D01*
X109019671Y-42692486D01*
X108775702Y-42620903D01*
X107962605Y-43434000D01*
X107603395Y-43434000D01*
X106790298Y-42620903D01*
X106721072Y-42641215D01*
X106721072Y-42634000D01*
X106708812Y-42509518D01*
X106688118Y-42441298D01*
X106969903Y-42441298D01*
X107783000Y-43254395D01*
X108596097Y-42441298D01*
X108524514Y-42197329D01*
X108269004Y-42076429D01*
X107994816Y-42007700D01*
X107712488Y-41993783D01*
X107432870Y-42035213D01*
X107166708Y-42130397D01*
X107041486Y-42197329D01*
X106969903Y-42441298D01*
X106688118Y-42441298D01*
X106672502Y-42389820D01*
X106613537Y-42279506D01*
X106534185Y-42182815D01*
X106437494Y-42103463D01*
X106327180Y-42044498D01*
X106207482Y-42008188D01*
X106083000Y-41995928D01*
X104483000Y-41995928D01*
X104358518Y-42008188D01*
X104238820Y-42044498D01*
X104128506Y-42103463D01*
X104031815Y-42182815D01*
X103952463Y-42279506D01*
X103893498Y-42389820D01*
X103857188Y-42509518D01*
X103844928Y-42634000D01*
X102119582Y-42634000D01*
X102184300Y-42375816D01*
X102198217Y-42093488D01*
X102156787Y-41813870D01*
X102061603Y-41547708D01*
X101994671Y-41422486D01*
X101750702Y-41350903D01*
X100937605Y-42164000D01*
X100578395Y-42164000D01*
X99765298Y-41350903D01*
X99521329Y-41422486D01*
X99400429Y-41677996D01*
X99331700Y-41952184D01*
X99317783Y-42234512D01*
X97193000Y-42234512D01*
X97193000Y-42022665D01*
X97137853Y-41745426D01*
X97029680Y-41484273D01*
X96872637Y-41249241D01*
X96672759Y-41049363D01*
X96667726Y-41046000D01*
X99981667Y-41046000D01*
X99944903Y-41171298D01*
X100758000Y-41984395D01*
X101571097Y-41171298D01*
X101534333Y-41046000D01*
X142436321Y-41046000D01*
X142783810Y-41080072D01*
X143087013Y-41171614D01*
X143366664Y-41320307D01*
X143612105Y-41520484D01*
X143813991Y-41764521D01*
X143964631Y-42043125D01*
X144058290Y-42345688D01*
X144094600Y-42691158D01*
X144094601Y-63579069D01*
X143930101Y-63444068D01*
X143680808Y-63310818D01*
X143410309Y-63228764D01*
X143199492Y-63208000D01*
X143058508Y-63208000D01*
X142847691Y-63228764D01*
X142577192Y-63310818D01*
X142327899Y-63444068D01*
X142109392Y-63623392D01*
X141930068Y-63841899D01*
X141796818Y-64091192D01*
X141714764Y-64361691D01*
X141687057Y-64643000D01*
X141714764Y-64924309D01*
X141796818Y-65194808D01*
X141930068Y-65444101D01*
X142109392Y-65662608D01*
X142327899Y-65841932D01*
X142577192Y-65975182D01*
X142847691Y-66057236D01*
X143058508Y-66078000D01*
X143199492Y-66078000D01*
X143410309Y-66057236D01*
X143680808Y-65975182D01*
X143930101Y-65841932D01*
X144094601Y-65706931D01*
X144094601Y-73739205D01*
X144043759Y-73688363D01*
X143808727Y-73531320D01*
X143547574Y-73423147D01*
X143270335Y-73368000D01*
X142987665Y-73368000D01*
X142710426Y-73423147D01*
X142449273Y-73531320D01*
X142214241Y-73688363D01*
X142014363Y-73888241D01*
X141857320Y-74123273D01*
X141749147Y-74384426D01*
X141694000Y-74661665D01*
X141694000Y-74944335D01*
X141749147Y-75221574D01*
X141857320Y-75482727D01*
X142014363Y-75717759D01*
X142214241Y-75917637D01*
X142449273Y-76074680D01*
X142710426Y-76182853D01*
X142987665Y-76238000D01*
X143270335Y-76238000D01*
X143547574Y-76182853D01*
X143808727Y-76074680D01*
X144043759Y-75917637D01*
X144094601Y-75866795D01*
X144094601Y-75913711D01*
X144060528Y-76261209D01*
X143968984Y-76564417D01*
X143820293Y-76844063D01*
X143620116Y-77089505D01*
X143376076Y-77291392D01*
X143097475Y-77442031D01*
X142794913Y-77535690D01*
X142449442Y-77572000D01*
X87128879Y-77572000D01*
X86781391Y-77537928D01*
X86478183Y-77446384D01*
X86198537Y-77297693D01*
X85953095Y-77097516D01*
X85751208Y-76853476D01*
X85747166Y-76846000D01*
X90155928Y-76846000D01*
X90168188Y-76970482D01*
X90204498Y-77090180D01*
X90263463Y-77200494D01*
X90342815Y-77297185D01*
X90439506Y-77376537D01*
X90549820Y-77435502D01*
X90669518Y-77471812D01*
X90794000Y-77484072D01*
X91408250Y-77481000D01*
X91567000Y-77322250D01*
X91567000Y-76073000D01*
X91821000Y-76073000D01*
X91821000Y-77322250D01*
X91979750Y-77481000D01*
X92594000Y-77484072D01*
X92718482Y-77471812D01*
X92838180Y-77435502D01*
X92948494Y-77376537D01*
X93045185Y-77297185D01*
X93124537Y-77200494D01*
X93183502Y-77090180D01*
X93219812Y-76970482D01*
X93232072Y-76846000D01*
X96723642Y-76846000D01*
X96735902Y-76970482D01*
X96772212Y-77090180D01*
X96831177Y-77200494D01*
X96910529Y-77297185D01*
X97007220Y-77376537D01*
X97117534Y-77435502D01*
X97237232Y-77471812D01*
X97361714Y-77484072D01*
X97975964Y-77481000D01*
X98134714Y-77322250D01*
X98134714Y-76073000D01*
X98388714Y-76073000D01*
X98388714Y-77322250D01*
X98547464Y-77481000D01*
X99161714Y-77484072D01*
X99286196Y-77471812D01*
X99405894Y-77435502D01*
X99516208Y-77376537D01*
X99612899Y-77297185D01*
X99692251Y-77200494D01*
X99751216Y-77090180D01*
X99787526Y-76970482D01*
X99799786Y-76846000D01*
X103291356Y-76846000D01*
X103303616Y-76970482D01*
X103339926Y-77090180D01*
X103398891Y-77200494D01*
X103478243Y-77297185D01*
X103574934Y-77376537D01*
X103685248Y-77435502D01*
X103804946Y-77471812D01*
X103929428Y-77484072D01*
X104543678Y-77481000D01*
X104702428Y-77322250D01*
X104702428Y-76073000D01*
X104956428Y-76073000D01*
X104956428Y-77322250D01*
X105115178Y-77481000D01*
X105729428Y-77484072D01*
X105853910Y-77471812D01*
X105973608Y-77435502D01*
X106083922Y-77376537D01*
X106180613Y-77297185D01*
X106259965Y-77200494D01*
X106318930Y-77090180D01*
X106355240Y-76970482D01*
X106367500Y-76846000D01*
X109859070Y-76846000D01*
X109871330Y-76970482D01*
X109907640Y-77090180D01*
X109966605Y-77200494D01*
X110045957Y-77297185D01*
X110142648Y-77376537D01*
X110252962Y-77435502D01*
X110372660Y-77471812D01*
X110497142Y-77484072D01*
X111111392Y-77481000D01*
X111270142Y-77322250D01*
X111270142Y-76073000D01*
X111524142Y-76073000D01*
X111524142Y-77322250D01*
X111682892Y-77481000D01*
X112297142Y-77484072D01*
X112421624Y-77471812D01*
X112541322Y-77435502D01*
X112651636Y-77376537D01*
X112748327Y-77297185D01*
X112827679Y-77200494D01*
X112886644Y-77090180D01*
X112922954Y-76970482D01*
X112935214Y-76846000D01*
X116426784Y-76846000D01*
X116439044Y-76970482D01*
X116475354Y-77090180D01*
X116534319Y-77200494D01*
X116613671Y-77297185D01*
X116710362Y-77376537D01*
X116820676Y-77435502D01*
X116940374Y-77471812D01*
X117064856Y-77484072D01*
X117679106Y-77481000D01*
X117837856Y-77322250D01*
X117837856Y-76073000D01*
X118091856Y-76073000D01*
X118091856Y-77322250D01*
X118250606Y-77481000D01*
X118864856Y-77484072D01*
X118989338Y-77471812D01*
X119109036Y-77435502D01*
X119219350Y-77376537D01*
X119316041Y-77297185D01*
X119395393Y-77200494D01*
X119454358Y-77090180D01*
X119490668Y-76970482D01*
X119502928Y-76846000D01*
X122994498Y-76846000D01*
X123006758Y-76970482D01*
X123043068Y-77090180D01*
X123102033Y-77200494D01*
X123181385Y-77297185D01*
X123278076Y-77376537D01*
X123388390Y-77435502D01*
X123508088Y-77471812D01*
X123632570Y-77484072D01*
X124246820Y-77481000D01*
X124405570Y-77322250D01*
X124405570Y-76073000D01*
X124659570Y-76073000D01*
X124659570Y-77322250D01*
X124818320Y-77481000D01*
X125432570Y-77484072D01*
X125557052Y-77471812D01*
X125676750Y-77435502D01*
X125787064Y-77376537D01*
X125883755Y-77297185D01*
X125963107Y-77200494D01*
X126022072Y-77090180D01*
X126058382Y-76970482D01*
X126070642Y-76846000D01*
X129562212Y-76846000D01*
X129574472Y-76970482D01*
X129610782Y-77090180D01*
X129669747Y-77200494D01*
X129749099Y-77297185D01*
X129845790Y-77376537D01*
X129956104Y-77435502D01*
X130075802Y-77471812D01*
X130200284Y-77484072D01*
X130814534Y-77481000D01*
X130973284Y-77322250D01*
X130973284Y-76073000D01*
X131227284Y-76073000D01*
X131227284Y-77322250D01*
X131386034Y-77481000D01*
X132000284Y-77484072D01*
X132124766Y-77471812D01*
X132244464Y-77435502D01*
X132354778Y-77376537D01*
X132451469Y-77297185D01*
X132530821Y-77200494D01*
X132589786Y-77090180D01*
X132626096Y-76970482D01*
X132638356Y-76846000D01*
X136129928Y-76846000D01*
X136142188Y-76970482D01*
X136178498Y-77090180D01*
X136237463Y-77200494D01*
X136316815Y-77297185D01*
X136413506Y-77376537D01*
X136523820Y-77435502D01*
X136643518Y-77471812D01*
X136768000Y-77484072D01*
X137382250Y-77481000D01*
X137541000Y-77322250D01*
X137541000Y-76073000D01*
X137795000Y-76073000D01*
X137795000Y-77322250D01*
X137953750Y-77481000D01*
X138568000Y-77484072D01*
X138692482Y-77471812D01*
X138812180Y-77435502D01*
X138922494Y-77376537D01*
X139019185Y-77297185D01*
X139098537Y-77200494D01*
X139157502Y-77090180D01*
X139193812Y-76970482D01*
X139206072Y-76846000D01*
X139203000Y-76231750D01*
X139044250Y-76073000D01*
X137795000Y-76073000D01*
X137541000Y-76073000D01*
X136291750Y-76073000D01*
X136133000Y-76231750D01*
X136129928Y-76846000D01*
X132638356Y-76846000D01*
X132635284Y-76231750D01*
X132476534Y-76073000D01*
X131227284Y-76073000D01*
X130973284Y-76073000D01*
X129724034Y-76073000D01*
X129565284Y-76231750D01*
X129562212Y-76846000D01*
X126070642Y-76846000D01*
X126067570Y-76231750D01*
X125908820Y-76073000D01*
X124659570Y-76073000D01*
X124405570Y-76073000D01*
X123156320Y-76073000D01*
X122997570Y-76231750D01*
X122994498Y-76846000D01*
X119502928Y-76846000D01*
X119499856Y-76231750D01*
X119341106Y-76073000D01*
X118091856Y-76073000D01*
X117837856Y-76073000D01*
X116588606Y-76073000D01*
X116429856Y-76231750D01*
X116426784Y-76846000D01*
X112935214Y-76846000D01*
X112932142Y-76231750D01*
X112773392Y-76073000D01*
X111524142Y-76073000D01*
X111270142Y-76073000D01*
X110020892Y-76073000D01*
X109862142Y-76231750D01*
X109859070Y-76846000D01*
X106367500Y-76846000D01*
X106364428Y-76231750D01*
X106205678Y-76073000D01*
X104956428Y-76073000D01*
X104702428Y-76073000D01*
X103453178Y-76073000D01*
X103294428Y-76231750D01*
X103291356Y-76846000D01*
X99799786Y-76846000D01*
X99796714Y-76231750D01*
X99637964Y-76073000D01*
X98388714Y-76073000D01*
X98134714Y-76073000D01*
X96885464Y-76073000D01*
X96726714Y-76231750D01*
X96723642Y-76846000D01*
X93232072Y-76846000D01*
X93229000Y-76231750D01*
X93070250Y-76073000D01*
X91821000Y-76073000D01*
X91567000Y-76073000D01*
X90317750Y-76073000D01*
X90159000Y-76231750D01*
X90155928Y-76846000D01*
X85747166Y-76846000D01*
X85600569Y-76574875D01*
X85506910Y-76272313D01*
X85470600Y-75926842D01*
X85470600Y-75046000D01*
X90155928Y-75046000D01*
X90159000Y-75660250D01*
X90317750Y-75819000D01*
X91567000Y-75819000D01*
X91567000Y-75799000D01*
X91821000Y-75799000D01*
X91821000Y-75819000D01*
X93070250Y-75819000D01*
X93229000Y-75660250D01*
X93232072Y-75046000D01*
X96723642Y-75046000D01*
X96726714Y-75660250D01*
X96885464Y-75819000D01*
X98134714Y-75819000D01*
X98134714Y-75799000D01*
X98388714Y-75799000D01*
X98388714Y-75819000D01*
X99637964Y-75819000D01*
X99796714Y-75660250D01*
X99799786Y-75046000D01*
X103291356Y-75046000D01*
X103294428Y-75660250D01*
X103453178Y-75819000D01*
X104702428Y-75819000D01*
X104702428Y-75799000D01*
X104956428Y-75799000D01*
X104956428Y-75819000D01*
X106205678Y-75819000D01*
X106364428Y-75660250D01*
X106367500Y-75046000D01*
X109859070Y-75046000D01*
X109862142Y-75660250D01*
X110020892Y-75819000D01*
X111270142Y-75819000D01*
X111270142Y-75799000D01*
X111524142Y-75799000D01*
X111524142Y-75819000D01*
X112773392Y-75819000D01*
X112932142Y-75660250D01*
X112935214Y-75046000D01*
X116426784Y-75046000D01*
X116429856Y-75660250D01*
X116588606Y-75819000D01*
X117837856Y-75819000D01*
X117837856Y-75799000D01*
X118091856Y-75799000D01*
X118091856Y-75819000D01*
X119341106Y-75819000D01*
X119499856Y-75660250D01*
X119502928Y-75046000D01*
X122994498Y-75046000D01*
X122997570Y-75660250D01*
X123156320Y-75819000D01*
X124405570Y-75819000D01*
X124405570Y-75799000D01*
X124659570Y-75799000D01*
X124659570Y-75819000D01*
X125908820Y-75819000D01*
X126067570Y-75660250D01*
X126070642Y-75046000D01*
X129562212Y-75046000D01*
X129565284Y-75660250D01*
X129724034Y-75819000D01*
X130973284Y-75819000D01*
X130973284Y-75799000D01*
X131227284Y-75799000D01*
X131227284Y-75819000D01*
X132476534Y-75819000D01*
X132635284Y-75660250D01*
X132638356Y-75046000D01*
X136129928Y-75046000D01*
X136133000Y-75660250D01*
X136291750Y-75819000D01*
X137541000Y-75819000D01*
X137541000Y-75799000D01*
X137795000Y-75799000D01*
X137795000Y-75819000D01*
X139044250Y-75819000D01*
X139203000Y-75660250D01*
X139206072Y-75046000D01*
X139193812Y-74921518D01*
X139157502Y-74801820D01*
X139098537Y-74691506D01*
X139019185Y-74594815D01*
X138922494Y-74515463D01*
X138812180Y-74456498D01*
X138793873Y-74450944D01*
X138860312Y-74384505D01*
X139028299Y-74133095D01*
X139144011Y-73853743D01*
X139203000Y-73557184D01*
X139203000Y-73254816D01*
X139144011Y-72958257D01*
X139028299Y-72678905D01*
X138860312Y-72427495D01*
X138646505Y-72213688D01*
X138395095Y-72045701D01*
X138115743Y-71929989D01*
X137819184Y-71871000D01*
X137516816Y-71871000D01*
X137220257Y-71929989D01*
X136940905Y-72045701D01*
X136689495Y-72213688D01*
X136475688Y-72427495D01*
X136307701Y-72678905D01*
X136191989Y-72958257D01*
X136133000Y-73254816D01*
X136133000Y-73557184D01*
X136191989Y-73853743D01*
X136307701Y-74133095D01*
X136475688Y-74384505D01*
X136542127Y-74450944D01*
X136523820Y-74456498D01*
X136413506Y-74515463D01*
X136316815Y-74594815D01*
X136237463Y-74691506D01*
X136178498Y-74801820D01*
X136142188Y-74921518D01*
X136129928Y-75046000D01*
X132638356Y-75046000D01*
X132626096Y-74921518D01*
X132589786Y-74801820D01*
X132530821Y-74691506D01*
X132451469Y-74594815D01*
X132354778Y-74515463D01*
X132244464Y-74456498D01*
X132226157Y-74450944D01*
X132292596Y-74384505D01*
X132460583Y-74133095D01*
X132576295Y-73853743D01*
X132635284Y-73557184D01*
X132635284Y-73254816D01*
X132576295Y-72958257D01*
X132460583Y-72678905D01*
X132292596Y-72427495D01*
X132078789Y-72213688D01*
X131827379Y-72045701D01*
X131548027Y-71929989D01*
X131251468Y-71871000D01*
X130949100Y-71871000D01*
X130652541Y-71929989D01*
X130373189Y-72045701D01*
X130121779Y-72213688D01*
X129907972Y-72427495D01*
X129739985Y-72678905D01*
X129624273Y-72958257D01*
X129565284Y-73254816D01*
X129565284Y-73557184D01*
X129624273Y-73853743D01*
X129739985Y-74133095D01*
X129907972Y-74384505D01*
X129974411Y-74450944D01*
X129956104Y-74456498D01*
X129845790Y-74515463D01*
X129749099Y-74594815D01*
X129669747Y-74691506D01*
X129610782Y-74801820D01*
X129574472Y-74921518D01*
X129562212Y-75046000D01*
X126070642Y-75046000D01*
X126058382Y-74921518D01*
X126022072Y-74801820D01*
X125963107Y-74691506D01*
X125883755Y-74594815D01*
X125787064Y-74515463D01*
X125676750Y-74456498D01*
X125658443Y-74450944D01*
X125724882Y-74384505D01*
X125892869Y-74133095D01*
X126008581Y-73853743D01*
X126067570Y-73557184D01*
X126067570Y-73254816D01*
X126008581Y-72958257D01*
X125892869Y-72678905D01*
X125724882Y-72427495D01*
X125511075Y-72213688D01*
X125259665Y-72045701D01*
X124980313Y-71929989D01*
X124683754Y-71871000D01*
X124381386Y-71871000D01*
X124084827Y-71929989D01*
X123805475Y-72045701D01*
X123554065Y-72213688D01*
X123340258Y-72427495D01*
X123172271Y-72678905D01*
X123056559Y-72958257D01*
X122997570Y-73254816D01*
X122997570Y-73557184D01*
X123056559Y-73853743D01*
X123172271Y-74133095D01*
X123340258Y-74384505D01*
X123406697Y-74450944D01*
X123388390Y-74456498D01*
X123278076Y-74515463D01*
X123181385Y-74594815D01*
X123102033Y-74691506D01*
X123043068Y-74801820D01*
X123006758Y-74921518D01*
X122994498Y-75046000D01*
X119502928Y-75046000D01*
X119490668Y-74921518D01*
X119454358Y-74801820D01*
X119395393Y-74691506D01*
X119316041Y-74594815D01*
X119219350Y-74515463D01*
X119109036Y-74456498D01*
X119090729Y-74450944D01*
X119157168Y-74384505D01*
X119325155Y-74133095D01*
X119440867Y-73853743D01*
X119499856Y-73557184D01*
X119499856Y-73254816D01*
X119440867Y-72958257D01*
X119325155Y-72678905D01*
X119157168Y-72427495D01*
X118943361Y-72213688D01*
X118691951Y-72045701D01*
X118412599Y-71929989D01*
X118116040Y-71871000D01*
X117813672Y-71871000D01*
X117517113Y-71929989D01*
X117237761Y-72045701D01*
X116986351Y-72213688D01*
X116772544Y-72427495D01*
X116604557Y-72678905D01*
X116488845Y-72958257D01*
X116429856Y-73254816D01*
X116429856Y-73557184D01*
X116488845Y-73853743D01*
X116604557Y-74133095D01*
X116772544Y-74384505D01*
X116838983Y-74450944D01*
X116820676Y-74456498D01*
X116710362Y-74515463D01*
X116613671Y-74594815D01*
X116534319Y-74691506D01*
X116475354Y-74801820D01*
X116439044Y-74921518D01*
X116426784Y-75046000D01*
X112935214Y-75046000D01*
X112922954Y-74921518D01*
X112886644Y-74801820D01*
X112827679Y-74691506D01*
X112748327Y-74594815D01*
X112651636Y-74515463D01*
X112541322Y-74456498D01*
X112523015Y-74450944D01*
X112589454Y-74384505D01*
X112757441Y-74133095D01*
X112873153Y-73853743D01*
X112932142Y-73557184D01*
X112932142Y-73254816D01*
X112873153Y-72958257D01*
X112757441Y-72678905D01*
X112589454Y-72427495D01*
X112375647Y-72213688D01*
X112124237Y-72045701D01*
X111844885Y-71929989D01*
X111548326Y-71871000D01*
X111245958Y-71871000D01*
X110949399Y-71929989D01*
X110670047Y-72045701D01*
X110418637Y-72213688D01*
X110204830Y-72427495D01*
X110036843Y-72678905D01*
X109921131Y-72958257D01*
X109862142Y-73254816D01*
X109862142Y-73557184D01*
X109921131Y-73853743D01*
X110036843Y-74133095D01*
X110204830Y-74384505D01*
X110271269Y-74450944D01*
X110252962Y-74456498D01*
X110142648Y-74515463D01*
X110045957Y-74594815D01*
X109966605Y-74691506D01*
X109907640Y-74801820D01*
X109871330Y-74921518D01*
X109859070Y-75046000D01*
X106367500Y-75046000D01*
X106355240Y-74921518D01*
X106318930Y-74801820D01*
X106259965Y-74691506D01*
X106180613Y-74594815D01*
X106083922Y-74515463D01*
X105973608Y-74456498D01*
X105955301Y-74450944D01*
X106021740Y-74384505D01*
X106189727Y-74133095D01*
X106305439Y-73853743D01*
X106364428Y-73557184D01*
X106364428Y-73254816D01*
X106305439Y-72958257D01*
X106189727Y-72678905D01*
X106021740Y-72427495D01*
X105807933Y-72213688D01*
X105556523Y-72045701D01*
X105277171Y-71929989D01*
X104980612Y-71871000D01*
X104678244Y-71871000D01*
X104381685Y-71929989D01*
X104102333Y-72045701D01*
X103850923Y-72213688D01*
X103637116Y-72427495D01*
X103469129Y-72678905D01*
X103353417Y-72958257D01*
X103294428Y-73254816D01*
X103294428Y-73557184D01*
X103353417Y-73853743D01*
X103469129Y-74133095D01*
X103637116Y-74384505D01*
X103703555Y-74450944D01*
X103685248Y-74456498D01*
X103574934Y-74515463D01*
X103478243Y-74594815D01*
X103398891Y-74691506D01*
X103339926Y-74801820D01*
X103303616Y-74921518D01*
X103291356Y-75046000D01*
X99799786Y-75046000D01*
X99787526Y-74921518D01*
X99751216Y-74801820D01*
X99692251Y-74691506D01*
X99612899Y-74594815D01*
X99516208Y-74515463D01*
X99405894Y-74456498D01*
X99387587Y-74450944D01*
X99454026Y-74384505D01*
X99622013Y-74133095D01*
X99737725Y-73853743D01*
X99796714Y-73557184D01*
X99796714Y-73254816D01*
X99737725Y-72958257D01*
X99622013Y-72678905D01*
X99454026Y-72427495D01*
X99240219Y-72213688D01*
X98988809Y-72045701D01*
X98709457Y-71929989D01*
X98412898Y-71871000D01*
X98110530Y-71871000D01*
X97813971Y-71929989D01*
X97534619Y-72045701D01*
X97283209Y-72213688D01*
X97069402Y-72427495D01*
X96901415Y-72678905D01*
X96785703Y-72958257D01*
X96726714Y-73254816D01*
X96726714Y-73557184D01*
X96785703Y-73853743D01*
X96901415Y-74133095D01*
X97069402Y-74384505D01*
X97135841Y-74450944D01*
X97117534Y-74456498D01*
X97007220Y-74515463D01*
X96910529Y-74594815D01*
X96831177Y-74691506D01*
X96772212Y-74801820D01*
X96735902Y-74921518D01*
X96723642Y-75046000D01*
X93232072Y-75046000D01*
X93219812Y-74921518D01*
X93183502Y-74801820D01*
X93124537Y-74691506D01*
X93045185Y-74594815D01*
X92948494Y-74515463D01*
X92838180Y-74456498D01*
X92819873Y-74450944D01*
X92886312Y-74384505D01*
X93054299Y-74133095D01*
X93170011Y-73853743D01*
X93229000Y-73557184D01*
X93229000Y-73254816D01*
X93170011Y-72958257D01*
X93054299Y-72678905D01*
X92886312Y-72427495D01*
X92672505Y-72213688D01*
X92421095Y-72045701D01*
X92141743Y-71929989D01*
X91845184Y-71871000D01*
X91542816Y-71871000D01*
X91246257Y-71929989D01*
X90966905Y-72045701D01*
X90715495Y-72213688D01*
X90501688Y-72427495D01*
X90333701Y-72678905D01*
X90217989Y-72958257D01*
X90159000Y-73254816D01*
X90159000Y-73557184D01*
X90217989Y-73853743D01*
X90333701Y-74133095D01*
X90501688Y-74384505D01*
X90568127Y-74450944D01*
X90549820Y-74456498D01*
X90439506Y-74515463D01*
X90342815Y-74594815D01*
X90263463Y-74691506D01*
X90204498Y-74801820D01*
X90168188Y-74921518D01*
X90155928Y-75046000D01*
X85470600Y-75046000D01*
X85470600Y-65802000D01*
X85991928Y-65802000D01*
X85991928Y-67802000D01*
X86004188Y-67926482D01*
X86040498Y-68046180D01*
X86099463Y-68156494D01*
X86178815Y-68253185D01*
X86275506Y-68332537D01*
X86385820Y-68391502D01*
X86505518Y-68427812D01*
X86630000Y-68440072D01*
X88630000Y-68440072D01*
X88754482Y-68427812D01*
X88874180Y-68391502D01*
X88984494Y-68332537D01*
X89081185Y-68253185D01*
X89160537Y-68156494D01*
X89219502Y-68046180D01*
X89255812Y-67926482D01*
X89268072Y-67802000D01*
X89268072Y-67549665D01*
X90386000Y-67549665D01*
X90386000Y-67832335D01*
X90441147Y-68109574D01*
X90549320Y-68370727D01*
X90706363Y-68605759D01*
X90906241Y-68805637D01*
X91141273Y-68962680D01*
X91402426Y-69070853D01*
X91679665Y-69126000D01*
X91962335Y-69126000D01*
X92239574Y-69070853D01*
X92500727Y-68962680D01*
X92735759Y-68805637D01*
X92935637Y-68605759D01*
X93092680Y-68370727D01*
X93200853Y-68109574D01*
X93256000Y-67832335D01*
X93256000Y-67691000D01*
X100539057Y-67691000D01*
X100566764Y-67972309D01*
X100648818Y-68242808D01*
X100782068Y-68492101D01*
X100961392Y-68710608D01*
X101179899Y-68889932D01*
X101429192Y-69023182D01*
X101699691Y-69105236D01*
X101910508Y-69126000D01*
X102051492Y-69126000D01*
X102262309Y-69105236D01*
X102532808Y-69023182D01*
X102782101Y-68889932D01*
X103000608Y-68710608D01*
X103179932Y-68492101D01*
X103313182Y-68242808D01*
X103369343Y-68057665D01*
X107658000Y-68057665D01*
X107658000Y-68340335D01*
X107713147Y-68617574D01*
X107821320Y-68878727D01*
X107978363Y-69113759D01*
X108178241Y-69313637D01*
X108413273Y-69470680D01*
X108674426Y-69578853D01*
X108951665Y-69634000D01*
X109234335Y-69634000D01*
X109511574Y-69578853D01*
X109772727Y-69470680D01*
X110007759Y-69313637D01*
X110207637Y-69113759D01*
X110364680Y-68878727D01*
X110472853Y-68617574D01*
X110528000Y-68340335D01*
X110528000Y-68057665D01*
X110472853Y-67780426D01*
X110364680Y-67519273D01*
X110207637Y-67284241D01*
X110007759Y-67084363D01*
X109772727Y-66927320D01*
X109511574Y-66819147D01*
X109234335Y-66764000D01*
X108951665Y-66764000D01*
X108674426Y-66819147D01*
X108413273Y-66927320D01*
X108178241Y-67084363D01*
X107978363Y-67284241D01*
X107821320Y-67519273D01*
X107713147Y-67780426D01*
X107658000Y-68057665D01*
X103369343Y-68057665D01*
X103395236Y-67972309D01*
X103422943Y-67691000D01*
X103395236Y-67409691D01*
X103313182Y-67139192D01*
X103179932Y-66889899D01*
X103000608Y-66671392D01*
X102782101Y-66492068D01*
X102532808Y-66358818D01*
X102262309Y-66276764D01*
X102051492Y-66256000D01*
X101910508Y-66256000D01*
X101699691Y-66276764D01*
X101429192Y-66358818D01*
X101179899Y-66492068D01*
X100961392Y-66671392D01*
X100782068Y-66889899D01*
X100648818Y-67139192D01*
X100566764Y-67409691D01*
X100539057Y-67691000D01*
X93256000Y-67691000D01*
X93256000Y-67549665D01*
X93200853Y-67272426D01*
X93092680Y-67011273D01*
X92935637Y-66776241D01*
X92735759Y-66576363D01*
X92500727Y-66419320D01*
X92239574Y-66311147D01*
X91962335Y-66256000D01*
X91679665Y-66256000D01*
X91402426Y-66311147D01*
X91141273Y-66419320D01*
X90906241Y-66576363D01*
X90706363Y-66776241D01*
X90549320Y-67011273D01*
X90441147Y-67272426D01*
X90386000Y-67549665D01*
X89268072Y-67549665D01*
X89268072Y-65802000D01*
X89255812Y-65677518D01*
X89219502Y-65557820D01*
X89160537Y-65447506D01*
X89081185Y-65350815D01*
X88984494Y-65271463D01*
X88874180Y-65212498D01*
X88754482Y-65176188D01*
X88630000Y-65163928D01*
X86630000Y-65163928D01*
X86505518Y-65176188D01*
X86385820Y-65212498D01*
X86275506Y-65271463D01*
X86178815Y-65350815D01*
X86099463Y-65447506D01*
X86040498Y-65557820D01*
X86004188Y-65677518D01*
X85991928Y-65802000D01*
X85470600Y-65802000D01*
X85470600Y-64374665D01*
X90386000Y-64374665D01*
X90386000Y-64657335D01*
X90441147Y-64934574D01*
X90549320Y-65195727D01*
X90706363Y-65430759D01*
X90906241Y-65630637D01*
X91141273Y-65787680D01*
X91402426Y-65895853D01*
X91679665Y-65951000D01*
X91962335Y-65951000D01*
X92239574Y-65895853D01*
X92500727Y-65787680D01*
X92735759Y-65630637D01*
X92935637Y-65430759D01*
X93092680Y-65195727D01*
X93200853Y-64934574D01*
X93256000Y-64657335D01*
X93256000Y-64516000D01*
X100539057Y-64516000D01*
X100566764Y-64797309D01*
X100648818Y-65067808D01*
X100782068Y-65317101D01*
X100961392Y-65535608D01*
X101179899Y-65714932D01*
X101429192Y-65848182D01*
X101699691Y-65930236D01*
X101910508Y-65951000D01*
X102051492Y-65951000D01*
X102262309Y-65930236D01*
X102532808Y-65848182D01*
X102782101Y-65714932D01*
X103000608Y-65535608D01*
X103179932Y-65317101D01*
X103313182Y-65067808D01*
X103330819Y-65009665D01*
X107658000Y-65009665D01*
X107658000Y-65292335D01*
X107713147Y-65569574D01*
X107821320Y-65830727D01*
X107978363Y-66065759D01*
X108178241Y-66265637D01*
X108413273Y-66422680D01*
X108674426Y-66530853D01*
X108951665Y-66586000D01*
X109234335Y-66586000D01*
X109279846Y-66576947D01*
X112510000Y-66576947D01*
X112510000Y-67027053D01*
X112597811Y-67468510D01*
X112770059Y-67884353D01*
X113020125Y-68258603D01*
X113338397Y-68576875D01*
X113712647Y-68826941D01*
X114128490Y-68999189D01*
X114569947Y-69087000D01*
X115020053Y-69087000D01*
X115461510Y-68999189D01*
X115877353Y-68826941D01*
X116251603Y-68576875D01*
X116569875Y-68258603D01*
X116609700Y-68199000D01*
X117811057Y-68199000D01*
X117838764Y-68480309D01*
X117920818Y-68750808D01*
X118054068Y-69000101D01*
X118233392Y-69218608D01*
X118451899Y-69397932D01*
X118701192Y-69531182D01*
X118971691Y-69613236D01*
X119182508Y-69634000D01*
X119323492Y-69634000D01*
X119534309Y-69613236D01*
X119804808Y-69531182D01*
X120054101Y-69397932D01*
X120272608Y-69218608D01*
X120451932Y-69000101D01*
X120519350Y-68873971D01*
X120521320Y-68878727D01*
X120678363Y-69113759D01*
X120878241Y-69313637D01*
X121113273Y-69470680D01*
X121374426Y-69578853D01*
X121651665Y-69634000D01*
X121934335Y-69634000D01*
X122211574Y-69578853D01*
X122472727Y-69470680D01*
X122707759Y-69313637D01*
X122907637Y-69113759D01*
X123064680Y-68878727D01*
X123172853Y-68617574D01*
X123228000Y-68340335D01*
X123228000Y-68199000D01*
X130511057Y-68199000D01*
X130538764Y-68480309D01*
X130620818Y-68750808D01*
X130754068Y-69000101D01*
X130933392Y-69218608D01*
X131151899Y-69397932D01*
X131401192Y-69531182D01*
X131671691Y-69613236D01*
X131882508Y-69634000D01*
X132023492Y-69634000D01*
X132234309Y-69613236D01*
X132504808Y-69531182D01*
X132754101Y-69397932D01*
X132972608Y-69218608D01*
X133151932Y-69000101D01*
X133285182Y-68750808D01*
X133367236Y-68480309D01*
X133394943Y-68199000D01*
X133367236Y-67917691D01*
X133285182Y-67647192D01*
X133151932Y-67397899D01*
X132972608Y-67179392D01*
X132754101Y-67000068D01*
X132504808Y-66866818D01*
X132234309Y-66784764D01*
X132023492Y-66764000D01*
X131882508Y-66764000D01*
X131671691Y-66784764D01*
X131401192Y-66866818D01*
X131151899Y-67000068D01*
X130933392Y-67179392D01*
X130754068Y-67397899D01*
X130620818Y-67647192D01*
X130538764Y-67917691D01*
X130511057Y-68199000D01*
X123228000Y-68199000D01*
X123228000Y-68057665D01*
X123172853Y-67780426D01*
X123064680Y-67519273D01*
X122907637Y-67284241D01*
X122707759Y-67084363D01*
X122472727Y-66927320D01*
X122211574Y-66819147D01*
X121934335Y-66764000D01*
X121651665Y-66764000D01*
X121374426Y-66819147D01*
X121113273Y-66927320D01*
X120878241Y-67084363D01*
X120678363Y-67284241D01*
X120521320Y-67519273D01*
X120519350Y-67524029D01*
X120451932Y-67397899D01*
X120272608Y-67179392D01*
X120054101Y-67000068D01*
X119804808Y-66866818D01*
X119534309Y-66784764D01*
X119323492Y-66764000D01*
X119182508Y-66764000D01*
X118971691Y-66784764D01*
X118701192Y-66866818D01*
X118451899Y-67000068D01*
X118233392Y-67179392D01*
X118054068Y-67397899D01*
X117920818Y-67647192D01*
X117838764Y-67917691D01*
X117811057Y-68199000D01*
X116609700Y-68199000D01*
X116819941Y-67884353D01*
X116992189Y-67468510D01*
X117080000Y-67027053D01*
X117080000Y-66576947D01*
X116992189Y-66135490D01*
X116819941Y-65719647D01*
X116569875Y-65345397D01*
X116375478Y-65151000D01*
X117811057Y-65151000D01*
X117838764Y-65432309D01*
X117920818Y-65702808D01*
X118054068Y-65952101D01*
X118233392Y-66170608D01*
X118451899Y-66349932D01*
X118701192Y-66483182D01*
X118971691Y-66565236D01*
X119182508Y-66586000D01*
X119323492Y-66586000D01*
X119534309Y-66565236D01*
X119804808Y-66483182D01*
X120054101Y-66349932D01*
X120272608Y-66170608D01*
X120451932Y-65952101D01*
X120519350Y-65825971D01*
X120521320Y-65830727D01*
X120678363Y-66065759D01*
X120878241Y-66265637D01*
X121113273Y-66422680D01*
X121374426Y-66530853D01*
X121651665Y-66586000D01*
X121934335Y-66586000D01*
X122211574Y-66530853D01*
X122472727Y-66422680D01*
X122707759Y-66265637D01*
X122907637Y-66065759D01*
X123064680Y-65830727D01*
X123172853Y-65569574D01*
X123228000Y-65292335D01*
X123228000Y-65151000D01*
X130511057Y-65151000D01*
X130538764Y-65432309D01*
X130620818Y-65702808D01*
X130754068Y-65952101D01*
X130933392Y-66170608D01*
X131151899Y-66349932D01*
X131401192Y-66483182D01*
X131671691Y-66565236D01*
X131882508Y-66586000D01*
X132023492Y-66586000D01*
X132234309Y-66565236D01*
X132504808Y-66483182D01*
X132754101Y-66349932D01*
X132972608Y-66170608D01*
X133151932Y-65952101D01*
X133285182Y-65702808D01*
X133367236Y-65432309D01*
X133394943Y-65151000D01*
X133367236Y-64869691D01*
X133285182Y-64599192D01*
X133151932Y-64349899D01*
X132972608Y-64131392D01*
X132754101Y-63952068D01*
X132504808Y-63818818D01*
X132234309Y-63736764D01*
X132023492Y-63716000D01*
X131882508Y-63716000D01*
X131671691Y-63736764D01*
X131401192Y-63818818D01*
X131151899Y-63952068D01*
X130933392Y-64131392D01*
X130754068Y-64349899D01*
X130620818Y-64599192D01*
X130538764Y-64869691D01*
X130511057Y-65151000D01*
X123228000Y-65151000D01*
X123228000Y-65009665D01*
X123172853Y-64732426D01*
X123064680Y-64471273D01*
X122907637Y-64236241D01*
X122707759Y-64036363D01*
X122472727Y-63879320D01*
X122211574Y-63771147D01*
X121934335Y-63716000D01*
X121651665Y-63716000D01*
X121374426Y-63771147D01*
X121113273Y-63879320D01*
X120878241Y-64036363D01*
X120678363Y-64236241D01*
X120521320Y-64471273D01*
X120519350Y-64476029D01*
X120451932Y-64349899D01*
X120272608Y-64131392D01*
X120054101Y-63952068D01*
X119804808Y-63818818D01*
X119534309Y-63736764D01*
X119323492Y-63716000D01*
X119182508Y-63716000D01*
X118971691Y-63736764D01*
X118701192Y-63818818D01*
X118451899Y-63952068D01*
X118233392Y-64131392D01*
X118054068Y-64349899D01*
X117920818Y-64599192D01*
X117838764Y-64869691D01*
X117811057Y-65151000D01*
X116375478Y-65151000D01*
X116251603Y-65027125D01*
X115877353Y-64777059D01*
X115461510Y-64604811D01*
X115020053Y-64517000D01*
X114569947Y-64517000D01*
X114128490Y-64604811D01*
X113712647Y-64777059D01*
X113338397Y-65027125D01*
X113020125Y-65345397D01*
X112770059Y-65719647D01*
X112597811Y-66135490D01*
X112510000Y-66576947D01*
X109279846Y-66576947D01*
X109511574Y-66530853D01*
X109772727Y-66422680D01*
X110007759Y-66265637D01*
X110207637Y-66065759D01*
X110364680Y-65830727D01*
X110472853Y-65569574D01*
X110528000Y-65292335D01*
X110528000Y-65009665D01*
X110472853Y-64732426D01*
X110364680Y-64471273D01*
X110207637Y-64236241D01*
X110007759Y-64036363D01*
X109772727Y-63879320D01*
X109511574Y-63771147D01*
X109234335Y-63716000D01*
X108951665Y-63716000D01*
X108674426Y-63771147D01*
X108413273Y-63879320D01*
X108178241Y-64036363D01*
X107978363Y-64236241D01*
X107821320Y-64471273D01*
X107713147Y-64732426D01*
X107658000Y-65009665D01*
X103330819Y-65009665D01*
X103395236Y-64797309D01*
X103422943Y-64516000D01*
X103395236Y-64234691D01*
X103313182Y-63964192D01*
X103179932Y-63714899D01*
X103000608Y-63496392D01*
X102782101Y-63317068D01*
X102532808Y-63183818D01*
X102262309Y-63101764D01*
X102051492Y-63081000D01*
X101910508Y-63081000D01*
X101699691Y-63101764D01*
X101429192Y-63183818D01*
X101179899Y-63317068D01*
X100961392Y-63496392D01*
X100782068Y-63714899D01*
X100648818Y-63964192D01*
X100566764Y-64234691D01*
X100539057Y-64516000D01*
X93256000Y-64516000D01*
X93256000Y-64374665D01*
X93200853Y-64097426D01*
X93092680Y-63836273D01*
X92935637Y-63601241D01*
X92735759Y-63401363D01*
X92500727Y-63244320D01*
X92239574Y-63136147D01*
X91962335Y-63081000D01*
X91679665Y-63081000D01*
X91402426Y-63136147D01*
X91141273Y-63244320D01*
X90906241Y-63401363D01*
X90706363Y-63601241D01*
X90549320Y-63836273D01*
X90441147Y-64097426D01*
X90386000Y-64374665D01*
X85470600Y-64374665D01*
X85470600Y-62469665D01*
X86195000Y-62469665D01*
X86195000Y-62752335D01*
X86250147Y-63029574D01*
X86358320Y-63290727D01*
X86515363Y-63525759D01*
X86715241Y-63725637D01*
X86950273Y-63882680D01*
X87211426Y-63990853D01*
X87488665Y-64046000D01*
X87771335Y-64046000D01*
X88048574Y-63990853D01*
X88309727Y-63882680D01*
X88544759Y-63725637D01*
X88744637Y-63525759D01*
X88901680Y-63290727D01*
X89009853Y-63029574D01*
X89065000Y-62752335D01*
X89065000Y-62469665D01*
X89009853Y-62192426D01*
X88901680Y-61931273D01*
X88744637Y-61696241D01*
X88544759Y-61496363D01*
X88309727Y-61339320D01*
X88048574Y-61231147D01*
X87890306Y-61199665D01*
X90386000Y-61199665D01*
X90386000Y-61482335D01*
X90441147Y-61759574D01*
X90549320Y-62020727D01*
X90706363Y-62255759D01*
X90906241Y-62455637D01*
X91141273Y-62612680D01*
X91402426Y-62720853D01*
X91679665Y-62776000D01*
X91962335Y-62776000D01*
X92239574Y-62720853D01*
X92500727Y-62612680D01*
X92735759Y-62455637D01*
X92935637Y-62255759D01*
X93092680Y-62020727D01*
X93200853Y-61759574D01*
X93256000Y-61482335D01*
X93256000Y-61341000D01*
X100539057Y-61341000D01*
X100566764Y-61622309D01*
X100648818Y-61892808D01*
X100782068Y-62142101D01*
X100961392Y-62360608D01*
X101179899Y-62539932D01*
X101429192Y-62673182D01*
X101699691Y-62755236D01*
X101910508Y-62776000D01*
X102051492Y-62776000D01*
X102262309Y-62755236D01*
X102532808Y-62673182D01*
X102782101Y-62539932D01*
X103000608Y-62360608D01*
X103179932Y-62142101D01*
X103313182Y-61892808D01*
X103395236Y-61622309D01*
X103422943Y-61341000D01*
X103395236Y-61059691D01*
X103364996Y-60960000D01*
X103460057Y-60960000D01*
X103487764Y-61241309D01*
X103569818Y-61511808D01*
X103703068Y-61761101D01*
X103882392Y-61979608D01*
X104100899Y-62158932D01*
X104350192Y-62292182D01*
X104620691Y-62374236D01*
X104831508Y-62395000D01*
X104972492Y-62395000D01*
X105183309Y-62374236D01*
X105453808Y-62292182D01*
X105703101Y-62158932D01*
X105921608Y-61979608D01*
X106100932Y-61761101D01*
X106234182Y-61511808D01*
X106316236Y-61241309D01*
X106343943Y-60960000D01*
X106330023Y-60818665D01*
X113627000Y-60818665D01*
X113627000Y-61101335D01*
X113682147Y-61378574D01*
X113790320Y-61639727D01*
X113947363Y-61874759D01*
X114147241Y-62074637D01*
X114382273Y-62231680D01*
X114643426Y-62339853D01*
X114920665Y-62395000D01*
X115203335Y-62395000D01*
X115480574Y-62339853D01*
X115741727Y-62231680D01*
X115976759Y-62074637D01*
X116176637Y-61874759D01*
X116333680Y-61639727D01*
X116441853Y-61378574D01*
X116497000Y-61101335D01*
X116497000Y-60960000D01*
X117684057Y-60960000D01*
X117711764Y-61241309D01*
X117793818Y-61511808D01*
X117927068Y-61761101D01*
X118106392Y-61979608D01*
X118324899Y-62158932D01*
X118574192Y-62292182D01*
X118844691Y-62374236D01*
X119055508Y-62395000D01*
X119196492Y-62395000D01*
X119407309Y-62374236D01*
X119677808Y-62292182D01*
X119927101Y-62158932D01*
X120145608Y-61979608D01*
X120324932Y-61761101D01*
X120325520Y-61760000D01*
X125307928Y-61760000D01*
X125320188Y-61884482D01*
X125356498Y-62004180D01*
X125415463Y-62114494D01*
X125494815Y-62211185D01*
X125591506Y-62290537D01*
X125701820Y-62349502D01*
X125821518Y-62385812D01*
X125946000Y-62398072D01*
X126460250Y-62395000D01*
X126619000Y-62236250D01*
X126619000Y-61087000D01*
X126873000Y-61087000D01*
X126873000Y-62236250D01*
X127031750Y-62395000D01*
X127546000Y-62398072D01*
X127670482Y-62385812D01*
X127790180Y-62349502D01*
X127900494Y-62290537D01*
X127997185Y-62211185D01*
X128076537Y-62114494D01*
X128135502Y-62004180D01*
X128171812Y-61884482D01*
X128184072Y-61760000D01*
X128181000Y-61245750D01*
X128022250Y-61087000D01*
X126873000Y-61087000D01*
X126619000Y-61087000D01*
X125469750Y-61087000D01*
X125311000Y-61245750D01*
X125307928Y-61760000D01*
X120325520Y-61760000D01*
X120458182Y-61511808D01*
X120540236Y-61241309D01*
X120567943Y-60960000D01*
X132162057Y-60960000D01*
X132189764Y-61241309D01*
X132271818Y-61511808D01*
X132405068Y-61761101D01*
X132584392Y-61979608D01*
X132802899Y-62158932D01*
X133052192Y-62292182D01*
X133322691Y-62374236D01*
X133533508Y-62395000D01*
X133674492Y-62395000D01*
X133885309Y-62374236D01*
X134155808Y-62292182D01*
X134405101Y-62158932D01*
X134623608Y-61979608D01*
X134802932Y-61761101D01*
X134803520Y-61760000D01*
X139785928Y-61760000D01*
X139798188Y-61884482D01*
X139834498Y-62004180D01*
X139893463Y-62114494D01*
X139972815Y-62211185D01*
X140069506Y-62290537D01*
X140179820Y-62349502D01*
X140299518Y-62385812D01*
X140424000Y-62398072D01*
X140938250Y-62395000D01*
X141097000Y-62236250D01*
X141097000Y-61087000D01*
X141351000Y-61087000D01*
X141351000Y-62236250D01*
X141509750Y-62395000D01*
X142024000Y-62398072D01*
X142148482Y-62385812D01*
X142268180Y-62349502D01*
X142378494Y-62290537D01*
X142475185Y-62211185D01*
X142554537Y-62114494D01*
X142613502Y-62004180D01*
X142649812Y-61884482D01*
X142662072Y-61760000D01*
X142659000Y-61245750D01*
X142500250Y-61087000D01*
X141351000Y-61087000D01*
X141097000Y-61087000D01*
X139947750Y-61087000D01*
X139789000Y-61245750D01*
X139785928Y-61760000D01*
X134803520Y-61760000D01*
X134936182Y-61511808D01*
X135018236Y-61241309D01*
X135045943Y-60960000D01*
X135018236Y-60678691D01*
X134936182Y-60408192D01*
X134802932Y-60158899D01*
X134623608Y-59940392D01*
X134405101Y-59761068D01*
X134267318Y-59687421D01*
X134459131Y-59572385D01*
X134667519Y-59383414D01*
X134835037Y-59157420D01*
X134955246Y-58903087D01*
X134995904Y-58769039D01*
X134873915Y-58547000D01*
X133731000Y-58547000D01*
X133731000Y-58567000D01*
X133477000Y-58567000D01*
X133477000Y-58547000D01*
X132334085Y-58547000D01*
X132212096Y-58769039D01*
X132252754Y-58903087D01*
X132372963Y-59157420D01*
X132540481Y-59383414D01*
X132748869Y-59572385D01*
X132940682Y-59687421D01*
X132802899Y-59761068D01*
X132584392Y-59940392D01*
X132405068Y-60158899D01*
X132271818Y-60408192D01*
X132189764Y-60678691D01*
X132162057Y-60960000D01*
X120567943Y-60960000D01*
X120540236Y-60678691D01*
X120458182Y-60408192D01*
X120324932Y-60158899D01*
X120145608Y-59940392D01*
X119927101Y-59761068D01*
X119789318Y-59687421D01*
X119981131Y-59572385D01*
X120189519Y-59383414D01*
X120357037Y-59157420D01*
X120477246Y-58903087D01*
X120517904Y-58769039D01*
X120395915Y-58547000D01*
X119253000Y-58547000D01*
X119253000Y-58567000D01*
X118999000Y-58567000D01*
X118999000Y-58547000D01*
X117856085Y-58547000D01*
X117734096Y-58769039D01*
X117774754Y-58903087D01*
X117894963Y-59157420D01*
X118062481Y-59383414D01*
X118270869Y-59572385D01*
X118462682Y-59687421D01*
X118324899Y-59761068D01*
X118106392Y-59940392D01*
X117927068Y-60158899D01*
X117793818Y-60408192D01*
X117711764Y-60678691D01*
X117684057Y-60960000D01*
X116497000Y-60960000D01*
X116497000Y-60818665D01*
X116441853Y-60541426D01*
X116333680Y-60280273D01*
X116176637Y-60045241D01*
X115976759Y-59845363D01*
X115741727Y-59688320D01*
X115480574Y-59580147D01*
X115203335Y-59525000D01*
X114920665Y-59525000D01*
X114643426Y-59580147D01*
X114382273Y-59688320D01*
X114147241Y-59845363D01*
X113947363Y-60045241D01*
X113790320Y-60280273D01*
X113682147Y-60541426D01*
X113627000Y-60818665D01*
X106330023Y-60818665D01*
X106316236Y-60678691D01*
X106234182Y-60408192D01*
X106100932Y-60158899D01*
X105921608Y-59940392D01*
X105703101Y-59761068D01*
X105453808Y-59627818D01*
X105183309Y-59545764D01*
X104972492Y-59525000D01*
X104831508Y-59525000D01*
X104620691Y-59545764D01*
X104350192Y-59627818D01*
X104100899Y-59761068D01*
X103882392Y-59940392D01*
X103703068Y-60158899D01*
X103569818Y-60408192D01*
X103487764Y-60678691D01*
X103460057Y-60960000D01*
X103364996Y-60960000D01*
X103313182Y-60789192D01*
X103179932Y-60539899D01*
X103000608Y-60321392D01*
X102782101Y-60142068D01*
X102532808Y-60008818D01*
X102262309Y-59926764D01*
X102051492Y-59906000D01*
X101910508Y-59906000D01*
X101699691Y-59926764D01*
X101429192Y-60008818D01*
X101179899Y-60142068D01*
X100961392Y-60321392D01*
X100782068Y-60539899D01*
X100648818Y-60789192D01*
X100566764Y-61059691D01*
X100539057Y-61341000D01*
X93256000Y-61341000D01*
X93256000Y-61199665D01*
X93200853Y-60922426D01*
X93092680Y-60661273D01*
X92935637Y-60426241D01*
X92735759Y-60226363D01*
X92500727Y-60069320D01*
X92239574Y-59961147D01*
X91962335Y-59906000D01*
X91679665Y-59906000D01*
X91402426Y-59961147D01*
X91141273Y-60069320D01*
X90906241Y-60226363D01*
X90706363Y-60426241D01*
X90549320Y-60661273D01*
X90441147Y-60922426D01*
X90386000Y-61199665D01*
X87890306Y-61199665D01*
X87771335Y-61176000D01*
X87488665Y-61176000D01*
X87211426Y-61231147D01*
X86950273Y-61339320D01*
X86715241Y-61496363D01*
X86515363Y-61696241D01*
X86358320Y-61931273D01*
X86250147Y-62192426D01*
X86195000Y-62469665D01*
X85470600Y-62469665D01*
X85470600Y-58603702D01*
X86816903Y-58603702D01*
X86888486Y-58847671D01*
X87143996Y-58968571D01*
X87418184Y-59037300D01*
X87700512Y-59051217D01*
X87980130Y-59009787D01*
X88246292Y-58914603D01*
X88371514Y-58847671D01*
X88443097Y-58603702D01*
X87630000Y-57790605D01*
X86816903Y-58603702D01*
X85470600Y-58603702D01*
X85470600Y-57681512D01*
X86189783Y-57681512D01*
X86231213Y-57961130D01*
X86326397Y-58227292D01*
X86393329Y-58352514D01*
X86637298Y-58424097D01*
X87450395Y-57611000D01*
X87809605Y-57611000D01*
X88622702Y-58424097D01*
X88866671Y-58352514D01*
X88987571Y-58097004D01*
X89056300Y-57822816D01*
X89070217Y-57540488D01*
X89028787Y-57260870D01*
X88938595Y-57008665D01*
X91783000Y-57008665D01*
X91783000Y-57291335D01*
X91838147Y-57568574D01*
X91946320Y-57829727D01*
X92103363Y-58064759D01*
X92303241Y-58264637D01*
X92538273Y-58421680D01*
X92799426Y-58529853D01*
X93076665Y-58585000D01*
X93359335Y-58585000D01*
X93636574Y-58529853D01*
X93897727Y-58421680D01*
X94132759Y-58264637D01*
X94332637Y-58064759D01*
X94489680Y-57829727D01*
X94597853Y-57568574D01*
X94653000Y-57291335D01*
X94653000Y-57150000D01*
X101936057Y-57150000D01*
X101963764Y-57431309D01*
X102045818Y-57701808D01*
X102179068Y-57951101D01*
X102358392Y-58169608D01*
X102576899Y-58348932D01*
X102826192Y-58482182D01*
X103096691Y-58564236D01*
X103307508Y-58585000D01*
X103448492Y-58585000D01*
X103659309Y-58564236D01*
X103929808Y-58482182D01*
X104179101Y-58348932D01*
X104397608Y-58169608D01*
X104516559Y-58024665D01*
X105499000Y-58024665D01*
X105499000Y-58307335D01*
X105554147Y-58584574D01*
X105662320Y-58845727D01*
X105819363Y-59080759D01*
X106019241Y-59280637D01*
X106254273Y-59437680D01*
X106515426Y-59545853D01*
X106792665Y-59601000D01*
X107075335Y-59601000D01*
X107352574Y-59545853D01*
X107613727Y-59437680D01*
X107848759Y-59280637D01*
X108048637Y-59080759D01*
X108205680Y-58845727D01*
X108313853Y-58584574D01*
X108369000Y-58307335D01*
X108369000Y-58024665D01*
X108313853Y-57747426D01*
X108205680Y-57486273D01*
X108048637Y-57251241D01*
X107848759Y-57051363D01*
X107613727Y-56894320D01*
X107352574Y-56786147D01*
X107075335Y-56731000D01*
X106792665Y-56731000D01*
X106515426Y-56786147D01*
X106254273Y-56894320D01*
X106019241Y-57051363D01*
X105819363Y-57251241D01*
X105662320Y-57486273D01*
X105554147Y-57747426D01*
X105499000Y-58024665D01*
X104516559Y-58024665D01*
X104576932Y-57951101D01*
X104710182Y-57701808D01*
X104792236Y-57431309D01*
X104819943Y-57150000D01*
X104792236Y-56868691D01*
X104710182Y-56598192D01*
X104576932Y-56348899D01*
X104397608Y-56130392D01*
X104179101Y-55951068D01*
X103929808Y-55817818D01*
X103716130Y-55753000D01*
X109607388Y-55753000D01*
X109629785Y-55980400D01*
X109696115Y-56199060D01*
X109797105Y-56388000D01*
X109696115Y-56576940D01*
X109629785Y-56795600D01*
X109607388Y-57023000D01*
X109629785Y-57250400D01*
X109696115Y-57469060D01*
X109803829Y-57670579D01*
X109948788Y-57847212D01*
X110125421Y-57992171D01*
X110326940Y-58099885D01*
X110545600Y-58166215D01*
X110716021Y-58183000D01*
X111279979Y-58183000D01*
X111450400Y-58166215D01*
X111669060Y-58099885D01*
X111870579Y-57992171D01*
X112047212Y-57847212D01*
X112192171Y-57670579D01*
X112299885Y-57469060D01*
X112366215Y-57250400D01*
X112388612Y-57023000D01*
X112366215Y-56795600D01*
X112299885Y-56576940D01*
X112198895Y-56388000D01*
X112299885Y-56199060D01*
X112366215Y-55980400D01*
X112388612Y-55753000D01*
X112366215Y-55525600D01*
X112302907Y-55316902D01*
X112337502Y-55252180D01*
X112373812Y-55132482D01*
X112386072Y-55008000D01*
X112383000Y-54768750D01*
X112224250Y-54610000D01*
X111451109Y-54610000D01*
X111450400Y-54609785D01*
X111279979Y-54593000D01*
X110716021Y-54593000D01*
X110545600Y-54609785D01*
X110544891Y-54610000D01*
X109771750Y-54610000D01*
X109613000Y-54768750D01*
X109609928Y-55008000D01*
X109622188Y-55132482D01*
X109658498Y-55252180D01*
X109693093Y-55316902D01*
X109629785Y-55525600D01*
X109607388Y-55753000D01*
X103716130Y-55753000D01*
X103659309Y-55735764D01*
X103448492Y-55715000D01*
X103307508Y-55715000D01*
X103096691Y-55735764D01*
X102826192Y-55817818D01*
X102576899Y-55951068D01*
X102358392Y-56130392D01*
X102179068Y-56348899D01*
X102045818Y-56598192D01*
X101963764Y-56868691D01*
X101936057Y-57150000D01*
X94653000Y-57150000D01*
X94653000Y-57008665D01*
X94597853Y-56731426D01*
X94489680Y-56470273D01*
X94332637Y-56235241D01*
X94132759Y-56035363D01*
X93897727Y-55878320D01*
X93636574Y-55770147D01*
X93359335Y-55715000D01*
X93076665Y-55715000D01*
X92799426Y-55770147D01*
X92538273Y-55878320D01*
X92303241Y-56035363D01*
X92103363Y-56235241D01*
X91946320Y-56470273D01*
X91838147Y-56731426D01*
X91783000Y-57008665D01*
X88938595Y-57008665D01*
X88933603Y-56994708D01*
X88866671Y-56869486D01*
X88622702Y-56797903D01*
X87809605Y-57611000D01*
X87450395Y-57611000D01*
X86637298Y-56797903D01*
X86393329Y-56869486D01*
X86272429Y-57124996D01*
X86203700Y-57399184D01*
X86189783Y-57681512D01*
X85470600Y-57681512D01*
X85470600Y-56618298D01*
X86816903Y-56618298D01*
X87630000Y-57431395D01*
X88443097Y-56618298D01*
X88371514Y-56374329D01*
X88116004Y-56253429D01*
X87841816Y-56184700D01*
X87559488Y-56170783D01*
X87279870Y-56212213D01*
X87013708Y-56307397D01*
X86888486Y-56374329D01*
X86816903Y-56618298D01*
X85470600Y-56618298D01*
X85470600Y-54341665D01*
X89116000Y-54341665D01*
X89116000Y-54624335D01*
X89171147Y-54901574D01*
X89279320Y-55162727D01*
X89436363Y-55397759D01*
X89636241Y-55597637D01*
X89871273Y-55754680D01*
X90132426Y-55862853D01*
X90409665Y-55918000D01*
X90692335Y-55918000D01*
X90969574Y-55862853D01*
X91230727Y-55754680D01*
X91465759Y-55597637D01*
X91665637Y-55397759D01*
X91822680Y-55162727D01*
X91930853Y-54901574D01*
X91986000Y-54624335D01*
X91986000Y-54341665D01*
X91930853Y-54064426D01*
X91822680Y-53803273D01*
X91665637Y-53568241D01*
X91465759Y-53368363D01*
X91230727Y-53211320D01*
X90969574Y-53103147D01*
X90692335Y-53048000D01*
X90409665Y-53048000D01*
X90132426Y-53103147D01*
X89871273Y-53211320D01*
X89636241Y-53368363D01*
X89436363Y-53568241D01*
X89279320Y-53803273D01*
X89171147Y-54064426D01*
X89116000Y-54341665D01*
X85470600Y-54341665D01*
X85470600Y-52947413D01*
X86674192Y-52947413D01*
X86769956Y-53211814D01*
X87059571Y-53352704D01*
X87371108Y-53434384D01*
X87692595Y-53453718D01*
X88011675Y-53409961D01*
X88316088Y-53304795D01*
X88490044Y-53211814D01*
X88585808Y-52947413D01*
X87630000Y-51991605D01*
X86674192Y-52947413D01*
X85470600Y-52947413D01*
X85470600Y-51874595D01*
X85988282Y-51874595D01*
X86032039Y-52193675D01*
X86137205Y-52498088D01*
X86230186Y-52672044D01*
X86494587Y-52767808D01*
X87450395Y-51812000D01*
X87809605Y-51812000D01*
X88765413Y-52767808D01*
X89029814Y-52672044D01*
X89170704Y-52382429D01*
X89252384Y-52070892D01*
X89271718Y-51749405D01*
X89227961Y-51430325D01*
X89122795Y-51125912D01*
X89029814Y-50951956D01*
X88765413Y-50856192D01*
X87809605Y-51812000D01*
X87450395Y-51812000D01*
X86494587Y-50856192D01*
X86230186Y-50951956D01*
X86089296Y-51241571D01*
X86007616Y-51553108D01*
X85988282Y-51874595D01*
X85470600Y-51874595D01*
X85470600Y-50676587D01*
X86674192Y-50676587D01*
X87630000Y-51632395D01*
X88585808Y-50676587D01*
X88490044Y-50412186D01*
X88200429Y-50271296D01*
X87888892Y-50189616D01*
X87567405Y-50170282D01*
X87248325Y-50214039D01*
X86943912Y-50319205D01*
X86769956Y-50412186D01*
X86674192Y-50676587D01*
X85470600Y-50676587D01*
X85470600Y-44323000D01*
X89109057Y-44323000D01*
X89136764Y-44604309D01*
X89218818Y-44874808D01*
X89352068Y-45124101D01*
X89531392Y-45342608D01*
X89749899Y-45521932D01*
X89999192Y-45655182D01*
X90269691Y-45737236D01*
X90480508Y-45758000D01*
X90621492Y-45758000D01*
X90832309Y-45737236D01*
X91102808Y-45655182D01*
X91352101Y-45521932D01*
X91420254Y-45466000D01*
X93046057Y-45466000D01*
X93073764Y-45747309D01*
X93155818Y-46017808D01*
X93289068Y-46267101D01*
X93468392Y-46485608D01*
X93686899Y-46664932D01*
X93819858Y-46736000D01*
X93686899Y-46807068D01*
X93468392Y-46986392D01*
X93289068Y-47204899D01*
X93155818Y-47454192D01*
X93073764Y-47724691D01*
X93046057Y-48006000D01*
X93073764Y-48287309D01*
X93155818Y-48557808D01*
X93289068Y-48807101D01*
X93468392Y-49025608D01*
X93686899Y-49204932D01*
X93819858Y-49276000D01*
X93686899Y-49347068D01*
X93468392Y-49526392D01*
X93289068Y-49744899D01*
X93155818Y-49994192D01*
X93073764Y-50264691D01*
X93046057Y-50546000D01*
X93073764Y-50827309D01*
X93155818Y-51097808D01*
X93289068Y-51347101D01*
X93468392Y-51565608D01*
X93686899Y-51744932D01*
X93819858Y-51816000D01*
X93686899Y-51887068D01*
X93468392Y-52066392D01*
X93289068Y-52284899D01*
X93155818Y-52534192D01*
X93073764Y-52804691D01*
X93046057Y-53086000D01*
X93073764Y-53367309D01*
X93155818Y-53637808D01*
X93289068Y-53887101D01*
X93468392Y-54105608D01*
X93686899Y-54284932D01*
X93936192Y-54418182D01*
X94206691Y-54500236D01*
X94417508Y-54521000D01*
X94558492Y-54521000D01*
X94769309Y-54500236D01*
X95039808Y-54418182D01*
X95289101Y-54284932D01*
X95507608Y-54105608D01*
X95686932Y-53887101D01*
X95687520Y-53886000D01*
X100669928Y-53886000D01*
X100682188Y-54010482D01*
X100718498Y-54130180D01*
X100777463Y-54240494D01*
X100856815Y-54337185D01*
X100953506Y-54416537D01*
X101063820Y-54475502D01*
X101183518Y-54511812D01*
X101308000Y-54524072D01*
X101822250Y-54521000D01*
X101981000Y-54362250D01*
X101981000Y-53213000D01*
X102235000Y-53213000D01*
X102235000Y-54362250D01*
X102393750Y-54521000D01*
X102908000Y-54524072D01*
X103032482Y-54511812D01*
X103152180Y-54475502D01*
X103262494Y-54416537D01*
X103359185Y-54337185D01*
X103438537Y-54240494D01*
X103497502Y-54130180D01*
X103533812Y-54010482D01*
X103538980Y-53958000D01*
X109609928Y-53958000D01*
X109613000Y-54197250D01*
X109771750Y-54356000D01*
X110871000Y-54356000D01*
X110871000Y-53481750D01*
X111125000Y-53481750D01*
X111125000Y-54356000D01*
X112224250Y-54356000D01*
X112383000Y-54197250D01*
X112386072Y-53958000D01*
X112373812Y-53833518D01*
X112337502Y-53713820D01*
X112278537Y-53603506D01*
X112199185Y-53506815D01*
X112102494Y-53427463D01*
X111992180Y-53368498D01*
X111872482Y-53332188D01*
X111748000Y-53319928D01*
X111283750Y-53323000D01*
X111125000Y-53481750D01*
X110871000Y-53481750D01*
X110712250Y-53323000D01*
X110248000Y-53319928D01*
X110123518Y-53332188D01*
X110003820Y-53368498D01*
X109893506Y-53427463D01*
X109796815Y-53506815D01*
X109717463Y-53603506D01*
X109658498Y-53713820D01*
X109622188Y-53833518D01*
X109609928Y-53958000D01*
X103538980Y-53958000D01*
X103546072Y-53886000D01*
X103543000Y-53371750D01*
X103384250Y-53213000D01*
X102235000Y-53213000D01*
X101981000Y-53213000D01*
X100831750Y-53213000D01*
X100673000Y-53371750D01*
X100669928Y-53886000D01*
X95687520Y-53886000D01*
X95820182Y-53637808D01*
X95902236Y-53367309D01*
X95929943Y-53086000D01*
X95902236Y-52804691D01*
X95820182Y-52534192D01*
X95686932Y-52284899D01*
X95507608Y-52066392D01*
X95289101Y-51887068D01*
X95156142Y-51816000D01*
X95289101Y-51744932D01*
X95507608Y-51565608D01*
X95686932Y-51347101D01*
X95820182Y-51097808D01*
X95902236Y-50827309D01*
X95929943Y-50546000D01*
X95902236Y-50264691D01*
X95820182Y-49994192D01*
X95686932Y-49744899D01*
X95507608Y-49526392D01*
X95289101Y-49347068D01*
X95156142Y-49276000D01*
X95289101Y-49204932D01*
X95507608Y-49025608D01*
X95686932Y-48807101D01*
X95820182Y-48557808D01*
X95902236Y-48287309D01*
X95929943Y-48006000D01*
X95902236Y-47724691D01*
X95820182Y-47454192D01*
X95686932Y-47204899D01*
X95507608Y-46986392D01*
X95289101Y-46807068D01*
X95156142Y-46736000D01*
X95289101Y-46664932D01*
X95507608Y-46485608D01*
X95686932Y-46267101D01*
X95820182Y-46017808D01*
X95902236Y-45747309D01*
X95929943Y-45466000D01*
X100666057Y-45466000D01*
X100693764Y-45747309D01*
X100775818Y-46017808D01*
X100909068Y-46267101D01*
X101088392Y-46485608D01*
X101306899Y-46664932D01*
X101439858Y-46736000D01*
X101306899Y-46807068D01*
X101088392Y-46986392D01*
X100909068Y-47204899D01*
X100775818Y-47454192D01*
X100693764Y-47724691D01*
X100666057Y-48006000D01*
X100693764Y-48287309D01*
X100775818Y-48557808D01*
X100909068Y-48807101D01*
X101088392Y-49025608D01*
X101306899Y-49204932D01*
X101439858Y-49276000D01*
X101306899Y-49347068D01*
X101088392Y-49526392D01*
X100909068Y-49744899D01*
X100775818Y-49994192D01*
X100693764Y-50264691D01*
X100666057Y-50546000D01*
X100693764Y-50827309D01*
X100775818Y-51097808D01*
X100909068Y-51347101D01*
X101088392Y-51565608D01*
X101201482Y-51658419D01*
X101183518Y-51660188D01*
X101063820Y-51696498D01*
X100953506Y-51755463D01*
X100856815Y-51834815D01*
X100777463Y-51931506D01*
X100718498Y-52041820D01*
X100682188Y-52161518D01*
X100669928Y-52286000D01*
X100673000Y-52800250D01*
X100831750Y-52959000D01*
X101981000Y-52959000D01*
X101981000Y-52939000D01*
X102235000Y-52939000D01*
X102235000Y-52959000D01*
X103384250Y-52959000D01*
X103543000Y-52800250D01*
X103546072Y-52286000D01*
X103533812Y-52161518D01*
X103497502Y-52041820D01*
X103438537Y-51931506D01*
X103359185Y-51834815D01*
X103262494Y-51755463D01*
X103152180Y-51696498D01*
X103032482Y-51660188D01*
X103014518Y-51658419D01*
X103101606Y-51586947D01*
X112510000Y-51586947D01*
X112510000Y-52037053D01*
X112597811Y-52478510D01*
X112770059Y-52894353D01*
X113020125Y-53268603D01*
X113338397Y-53586875D01*
X113712647Y-53836941D01*
X114128490Y-54009189D01*
X114569947Y-54097000D01*
X115020053Y-54097000D01*
X115461510Y-54009189D01*
X115877353Y-53836941D01*
X116251603Y-53586875D01*
X116498478Y-53340000D01*
X117684057Y-53340000D01*
X117711764Y-53621309D01*
X117793818Y-53891808D01*
X117927068Y-54141101D01*
X118106392Y-54359608D01*
X118324899Y-54538932D01*
X118457858Y-54610000D01*
X118324899Y-54681068D01*
X118106392Y-54860392D01*
X117927068Y-55078899D01*
X117793818Y-55328192D01*
X117711764Y-55598691D01*
X117684057Y-55880000D01*
X117711764Y-56161309D01*
X117793818Y-56431808D01*
X117927068Y-56681101D01*
X118106392Y-56899608D01*
X118324899Y-57078932D01*
X118462682Y-57152579D01*
X118270869Y-57267615D01*
X118062481Y-57456586D01*
X117894963Y-57682580D01*
X117774754Y-57936913D01*
X117734096Y-58070961D01*
X117856085Y-58293000D01*
X118999000Y-58293000D01*
X118999000Y-58273000D01*
X119253000Y-58273000D01*
X119253000Y-58293000D01*
X120395915Y-58293000D01*
X120517904Y-58070961D01*
X120477246Y-57936913D01*
X120357037Y-57682580D01*
X120189519Y-57456586D01*
X119981131Y-57267615D01*
X119789318Y-57152579D01*
X119927101Y-57078932D01*
X120145608Y-56899608D01*
X120324932Y-56681101D01*
X120458182Y-56431808D01*
X120540236Y-56161309D01*
X120567943Y-55880000D01*
X125304057Y-55880000D01*
X125331764Y-56161309D01*
X125413818Y-56431808D01*
X125547068Y-56681101D01*
X125726392Y-56899608D01*
X125944899Y-57078932D01*
X126077858Y-57150000D01*
X125944899Y-57221068D01*
X125726392Y-57400392D01*
X125547068Y-57618899D01*
X125413818Y-57868192D01*
X125331764Y-58138691D01*
X125304057Y-58420000D01*
X125331764Y-58701309D01*
X125413818Y-58971808D01*
X125547068Y-59221101D01*
X125726392Y-59439608D01*
X125839482Y-59532419D01*
X125821518Y-59534188D01*
X125701820Y-59570498D01*
X125591506Y-59629463D01*
X125494815Y-59708815D01*
X125415463Y-59805506D01*
X125356498Y-59915820D01*
X125320188Y-60035518D01*
X125307928Y-60160000D01*
X125311000Y-60674250D01*
X125469750Y-60833000D01*
X126619000Y-60833000D01*
X126619000Y-60813000D01*
X126873000Y-60813000D01*
X126873000Y-60833000D01*
X128022250Y-60833000D01*
X128181000Y-60674250D01*
X128184072Y-60160000D01*
X128171812Y-60035518D01*
X128135502Y-59915820D01*
X128076537Y-59805506D01*
X128062774Y-59788735D01*
X128635001Y-59788735D01*
X128635001Y-59978863D01*
X128672093Y-60165337D01*
X128744852Y-60340993D01*
X128850481Y-60499078D01*
X128984922Y-60633519D01*
X129143007Y-60739148D01*
X129318663Y-60811907D01*
X129505137Y-60848999D01*
X129695265Y-60848999D01*
X129881739Y-60811907D01*
X130057395Y-60739148D01*
X130215480Y-60633519D01*
X130349921Y-60499078D01*
X130455550Y-60340993D01*
X130528309Y-60165337D01*
X130565401Y-59978863D01*
X130565401Y-59924386D01*
X132285401Y-58204387D01*
X132334085Y-58293000D01*
X133477000Y-58293000D01*
X133477000Y-58273000D01*
X133731000Y-58273000D01*
X133731000Y-58293000D01*
X134873915Y-58293000D01*
X134995904Y-58070961D01*
X134955246Y-57936913D01*
X134835037Y-57682580D01*
X134667519Y-57456586D01*
X134459131Y-57267615D01*
X134267318Y-57152579D01*
X134405101Y-57078932D01*
X134623608Y-56899608D01*
X134802932Y-56681101D01*
X134936182Y-56431808D01*
X135018236Y-56161309D01*
X135045943Y-55880000D01*
X139782057Y-55880000D01*
X139809764Y-56161309D01*
X139891818Y-56431808D01*
X140025068Y-56681101D01*
X140204392Y-56899608D01*
X140422899Y-57078932D01*
X140555858Y-57150000D01*
X140422899Y-57221068D01*
X140204392Y-57400392D01*
X140025068Y-57618899D01*
X139891818Y-57868192D01*
X139809764Y-58138691D01*
X139782057Y-58420000D01*
X139809764Y-58701309D01*
X139891818Y-58971808D01*
X140025068Y-59221101D01*
X140204392Y-59439608D01*
X140317482Y-59532419D01*
X140299518Y-59534188D01*
X140179820Y-59570498D01*
X140069506Y-59629463D01*
X139972815Y-59708815D01*
X139893463Y-59805506D01*
X139834498Y-59915820D01*
X139798188Y-60035518D01*
X139785928Y-60160000D01*
X139789000Y-60674250D01*
X139947750Y-60833000D01*
X141097000Y-60833000D01*
X141097000Y-60813000D01*
X141351000Y-60813000D01*
X141351000Y-60833000D01*
X142500250Y-60833000D01*
X142659000Y-60674250D01*
X142662072Y-60160000D01*
X142649812Y-60035518D01*
X142613502Y-59915820D01*
X142554537Y-59805506D01*
X142475185Y-59708815D01*
X142378494Y-59629463D01*
X142268180Y-59570498D01*
X142148482Y-59534188D01*
X142130518Y-59532419D01*
X142243608Y-59439608D01*
X142422932Y-59221101D01*
X142556182Y-58971808D01*
X142638236Y-58701309D01*
X142665943Y-58420000D01*
X142638236Y-58138691D01*
X142556182Y-57868192D01*
X142422932Y-57618899D01*
X142243608Y-57400392D01*
X142025101Y-57221068D01*
X141892142Y-57150000D01*
X142025101Y-57078932D01*
X142243608Y-56899608D01*
X142422932Y-56681101D01*
X142556182Y-56431808D01*
X142638236Y-56161309D01*
X142665943Y-55880000D01*
X142638236Y-55598691D01*
X142556182Y-55328192D01*
X142422932Y-55078899D01*
X142243608Y-54860392D01*
X142025101Y-54681068D01*
X141887318Y-54607421D01*
X142079131Y-54492385D01*
X142287519Y-54303414D01*
X142455037Y-54077420D01*
X142575246Y-53823087D01*
X142615904Y-53689039D01*
X142493915Y-53467000D01*
X141351000Y-53467000D01*
X141351000Y-53487000D01*
X141097000Y-53487000D01*
X141097000Y-53467000D01*
X139954085Y-53467000D01*
X139832096Y-53689039D01*
X139872754Y-53823087D01*
X139992963Y-54077420D01*
X140160481Y-54303414D01*
X140368869Y-54492385D01*
X140560682Y-54607421D01*
X140422899Y-54681068D01*
X140204392Y-54860392D01*
X140025068Y-55078899D01*
X139891818Y-55328192D01*
X139809764Y-55598691D01*
X139782057Y-55880000D01*
X135045943Y-55880000D01*
X135018236Y-55598691D01*
X134936182Y-55328192D01*
X134802932Y-55078899D01*
X134623608Y-54860392D01*
X134405101Y-54681068D01*
X134267318Y-54607421D01*
X134459131Y-54492385D01*
X134667519Y-54303414D01*
X134835037Y-54077420D01*
X134955246Y-53823087D01*
X134995904Y-53689039D01*
X134873915Y-53467000D01*
X133731000Y-53467000D01*
X133731000Y-53487000D01*
X133477000Y-53487000D01*
X133477000Y-53467000D01*
X132334085Y-53467000D01*
X132212096Y-53689039D01*
X132252754Y-53823087D01*
X132372963Y-54077420D01*
X132540481Y-54303414D01*
X132748869Y-54492385D01*
X132940682Y-54607421D01*
X132802899Y-54681068D01*
X132584392Y-54860392D01*
X132405068Y-55078899D01*
X132271818Y-55328192D01*
X132189764Y-55598691D01*
X132162057Y-55880000D01*
X132185823Y-56121300D01*
X132175436Y-56121300D01*
X131988962Y-56158392D01*
X131813306Y-56231151D01*
X131655221Y-56336780D01*
X131520780Y-56471221D01*
X131415151Y-56629306D01*
X131342392Y-56804962D01*
X131305300Y-56991436D01*
X131305300Y-57172912D01*
X129559614Y-58918599D01*
X129505137Y-58918599D01*
X129318663Y-58955691D01*
X129143007Y-59028450D01*
X128984922Y-59134079D01*
X128850481Y-59268520D01*
X128744852Y-59426605D01*
X128672093Y-59602261D01*
X128635001Y-59788735D01*
X128062774Y-59788735D01*
X127997185Y-59708815D01*
X127900494Y-59629463D01*
X127790180Y-59570498D01*
X127670482Y-59534188D01*
X127652518Y-59532419D01*
X127765608Y-59439608D01*
X127944932Y-59221101D01*
X128078182Y-58971808D01*
X128160236Y-58701309D01*
X128187943Y-58420000D01*
X128160236Y-58138691D01*
X128078182Y-57868192D01*
X127944932Y-57618899D01*
X127765608Y-57400392D01*
X127547101Y-57221068D01*
X127414142Y-57150000D01*
X127547101Y-57078932D01*
X127765608Y-56899608D01*
X127944932Y-56681101D01*
X128078182Y-56431808D01*
X128160236Y-56161309D01*
X128187943Y-55880000D01*
X128160236Y-55598691D01*
X128078182Y-55328192D01*
X127944932Y-55078899D01*
X127765608Y-54860392D01*
X127547101Y-54681068D01*
X127409318Y-54607421D01*
X127601131Y-54492385D01*
X127809519Y-54303414D01*
X127977037Y-54077420D01*
X128097246Y-53823087D01*
X128137904Y-53689039D01*
X128015915Y-53467000D01*
X126873000Y-53467000D01*
X126873000Y-53487000D01*
X126619000Y-53487000D01*
X126619000Y-53467000D01*
X125476085Y-53467000D01*
X125354096Y-53689039D01*
X125394754Y-53823087D01*
X125514963Y-54077420D01*
X125682481Y-54303414D01*
X125890869Y-54492385D01*
X126082682Y-54607421D01*
X125944899Y-54681068D01*
X125726392Y-54860392D01*
X125547068Y-55078899D01*
X125413818Y-55328192D01*
X125331764Y-55598691D01*
X125304057Y-55880000D01*
X120567943Y-55880000D01*
X120540236Y-55598691D01*
X120458182Y-55328192D01*
X120324932Y-55078899D01*
X120145608Y-54860392D01*
X119927101Y-54681068D01*
X119794142Y-54610000D01*
X119927101Y-54538932D01*
X120145608Y-54359608D01*
X120324932Y-54141101D01*
X120458182Y-53891808D01*
X120540236Y-53621309D01*
X120567943Y-53340000D01*
X120540236Y-53058691D01*
X120458182Y-52788192D01*
X120324932Y-52538899D01*
X120145608Y-52320392D01*
X119927101Y-52141068D01*
X119789318Y-52067421D01*
X119981131Y-51952385D01*
X120189519Y-51763414D01*
X120357037Y-51537420D01*
X120477246Y-51283087D01*
X120517904Y-51149039D01*
X125354096Y-51149039D01*
X125394754Y-51283087D01*
X125514963Y-51537420D01*
X125682481Y-51763414D01*
X125890869Y-51952385D01*
X126086982Y-52070000D01*
X125890869Y-52187615D01*
X125682481Y-52376586D01*
X125514963Y-52602580D01*
X125394754Y-52856913D01*
X125354096Y-52990961D01*
X125476085Y-53213000D01*
X126619000Y-53213000D01*
X126619000Y-50927000D01*
X126873000Y-50927000D01*
X126873000Y-53213000D01*
X128015915Y-53213000D01*
X128137904Y-52990961D01*
X128097246Y-52856913D01*
X127977037Y-52602580D01*
X127809519Y-52376586D01*
X127601131Y-52187615D01*
X127405018Y-52070000D01*
X127601131Y-51952385D01*
X127809519Y-51763414D01*
X127977037Y-51537420D01*
X128097246Y-51283087D01*
X128137904Y-51149039D01*
X132212096Y-51149039D01*
X132252754Y-51283087D01*
X132372963Y-51537420D01*
X132540481Y-51763414D01*
X132748869Y-51952385D01*
X132944982Y-52070000D01*
X132748869Y-52187615D01*
X132540481Y-52376586D01*
X132372963Y-52602580D01*
X132252754Y-52856913D01*
X132212096Y-52990961D01*
X132334085Y-53213000D01*
X133477000Y-53213000D01*
X133477000Y-50927000D01*
X133731000Y-50927000D01*
X133731000Y-53213000D01*
X134873915Y-53213000D01*
X134995904Y-52990961D01*
X134955246Y-52856913D01*
X134835037Y-52602580D01*
X134667519Y-52376586D01*
X134459131Y-52187615D01*
X134263018Y-52070000D01*
X134459131Y-51952385D01*
X134667519Y-51763414D01*
X134835037Y-51537420D01*
X134955246Y-51283087D01*
X134995904Y-51149039D01*
X139832096Y-51149039D01*
X139872754Y-51283087D01*
X139992963Y-51537420D01*
X140160481Y-51763414D01*
X140368869Y-51952385D01*
X140564982Y-52070000D01*
X140368869Y-52187615D01*
X140160481Y-52376586D01*
X139992963Y-52602580D01*
X139872754Y-52856913D01*
X139832096Y-52990961D01*
X139954085Y-53213000D01*
X141097000Y-53213000D01*
X141097000Y-50927000D01*
X141351000Y-50927000D01*
X141351000Y-53213000D01*
X142493915Y-53213000D01*
X142615904Y-52990961D01*
X142575246Y-52856913D01*
X142455037Y-52602580D01*
X142287519Y-52376586D01*
X142079131Y-52187615D01*
X141883018Y-52070000D01*
X142079131Y-51952385D01*
X142287519Y-51763414D01*
X142455037Y-51537420D01*
X142575246Y-51283087D01*
X142615904Y-51149039D01*
X142493915Y-50927000D01*
X141351000Y-50927000D01*
X141097000Y-50927000D01*
X139954085Y-50927000D01*
X139832096Y-51149039D01*
X134995904Y-51149039D01*
X134873915Y-50927000D01*
X133731000Y-50927000D01*
X133477000Y-50927000D01*
X132334085Y-50927000D01*
X132212096Y-51149039D01*
X128137904Y-51149039D01*
X128015915Y-50927000D01*
X126873000Y-50927000D01*
X126619000Y-50927000D01*
X125476085Y-50927000D01*
X125354096Y-51149039D01*
X120517904Y-51149039D01*
X120395915Y-50927000D01*
X119253000Y-50927000D01*
X119253000Y-50947000D01*
X118999000Y-50947000D01*
X118999000Y-50927000D01*
X117856085Y-50927000D01*
X117734096Y-51149039D01*
X117774754Y-51283087D01*
X117894963Y-51537420D01*
X118062481Y-51763414D01*
X118270869Y-51952385D01*
X118462682Y-52067421D01*
X118324899Y-52141068D01*
X118106392Y-52320392D01*
X117927068Y-52538899D01*
X117793818Y-52788192D01*
X117711764Y-53058691D01*
X117684057Y-53340000D01*
X116498478Y-53340000D01*
X116569875Y-53268603D01*
X116819941Y-52894353D01*
X116992189Y-52478510D01*
X117080000Y-52037053D01*
X117080000Y-51586947D01*
X116992189Y-51145490D01*
X116819941Y-50729647D01*
X116569875Y-50355397D01*
X116251603Y-50037125D01*
X115877353Y-49787059D01*
X115461510Y-49614811D01*
X115020053Y-49527000D01*
X114569947Y-49527000D01*
X114128490Y-49614811D01*
X113712647Y-49787059D01*
X113338397Y-50037125D01*
X113020125Y-50355397D01*
X112770059Y-50729647D01*
X112597811Y-51145490D01*
X112510000Y-51586947D01*
X103101606Y-51586947D01*
X103127608Y-51565608D01*
X103306932Y-51347101D01*
X103440182Y-51097808D01*
X103522236Y-50827309D01*
X103549943Y-50546000D01*
X103522236Y-50264691D01*
X103440182Y-49994192D01*
X103306932Y-49744899D01*
X103127608Y-49526392D01*
X102909101Y-49347068D01*
X102776142Y-49276000D01*
X102909101Y-49204932D01*
X103127608Y-49025608D01*
X103306932Y-48807101D01*
X103440182Y-48557808D01*
X103522236Y-48287309D01*
X103549943Y-48006000D01*
X105492057Y-48006000D01*
X105519764Y-48287309D01*
X105601818Y-48557808D01*
X105735068Y-48807101D01*
X105914392Y-49025608D01*
X106132899Y-49204932D01*
X106382192Y-49338182D01*
X106652691Y-49420236D01*
X106863508Y-49441000D01*
X107004492Y-49441000D01*
X107215309Y-49420236D01*
X107485808Y-49338182D01*
X107735101Y-49204932D01*
X107953608Y-49025608D01*
X108132932Y-48807101D01*
X108266182Y-48557808D01*
X108348236Y-48287309D01*
X108375943Y-48006000D01*
X108348236Y-47724691D01*
X108344993Y-47714000D01*
X108543928Y-47714000D01*
X108543928Y-49314000D01*
X108556188Y-49438482D01*
X108592498Y-49558180D01*
X108651463Y-49668494D01*
X108730815Y-49765185D01*
X108827506Y-49844537D01*
X108937820Y-49903502D01*
X109057518Y-49939812D01*
X109182000Y-49952072D01*
X110782000Y-49952072D01*
X110906482Y-49939812D01*
X111026180Y-49903502D01*
X111136494Y-49844537D01*
X111233185Y-49765185D01*
X111312537Y-49668494D01*
X111371502Y-49558180D01*
X111387117Y-49506702D01*
X111668903Y-49506702D01*
X111740486Y-49750671D01*
X111995996Y-49871571D01*
X112270184Y-49940300D01*
X112552512Y-49954217D01*
X112832130Y-49912787D01*
X113098292Y-49817603D01*
X113223514Y-49750671D01*
X113295097Y-49506702D01*
X112482000Y-48693605D01*
X111668903Y-49506702D01*
X111387117Y-49506702D01*
X111407812Y-49438482D01*
X111420072Y-49314000D01*
X111420072Y-49306785D01*
X111489298Y-49327097D01*
X112302395Y-48514000D01*
X112661605Y-48514000D01*
X113474702Y-49327097D01*
X113718671Y-49255514D01*
X113839571Y-49000004D01*
X113908300Y-48725816D01*
X113922217Y-48443488D01*
X113895031Y-48260000D01*
X117684057Y-48260000D01*
X117711764Y-48541309D01*
X117793818Y-48811808D01*
X117927068Y-49061101D01*
X118106392Y-49279608D01*
X118324899Y-49458932D01*
X118462682Y-49532579D01*
X118270869Y-49647615D01*
X118062481Y-49836586D01*
X117894963Y-50062580D01*
X117774754Y-50316913D01*
X117734096Y-50450961D01*
X117856085Y-50673000D01*
X118999000Y-50673000D01*
X118999000Y-50653000D01*
X119253000Y-50653000D01*
X119253000Y-50673000D01*
X120395915Y-50673000D01*
X120517904Y-50450961D01*
X120477246Y-50316913D01*
X120357037Y-50062580D01*
X120189519Y-49836586D01*
X119981131Y-49647615D01*
X119789318Y-49532579D01*
X119927101Y-49458932D01*
X120145608Y-49279608D01*
X120324932Y-49061101D01*
X120458182Y-48811808D01*
X120540236Y-48541309D01*
X120567943Y-48260000D01*
X120540236Y-47978691D01*
X120458182Y-47708192D01*
X120324932Y-47458899D01*
X120145608Y-47240392D01*
X119927101Y-47061068D01*
X119789318Y-46987421D01*
X119981131Y-46872385D01*
X120189519Y-46683414D01*
X120357037Y-46457420D01*
X120477246Y-46203087D01*
X120517904Y-46069039D01*
X120395915Y-45847000D01*
X119253000Y-45847000D01*
X119253000Y-45867000D01*
X118999000Y-45867000D01*
X118999000Y-45847000D01*
X117856085Y-45847000D01*
X117734096Y-46069039D01*
X117774754Y-46203087D01*
X117894963Y-46457420D01*
X118062481Y-46683414D01*
X118270869Y-46872385D01*
X118462682Y-46987421D01*
X118324899Y-47061068D01*
X118106392Y-47240392D01*
X117927068Y-47458899D01*
X117793818Y-47708192D01*
X117711764Y-47978691D01*
X117684057Y-48260000D01*
X113895031Y-48260000D01*
X113880787Y-48163870D01*
X113785603Y-47897708D01*
X113718671Y-47772486D01*
X113474702Y-47700903D01*
X112661605Y-48514000D01*
X112302395Y-48514000D01*
X111489298Y-47700903D01*
X111420072Y-47721215D01*
X111420072Y-47714000D01*
X111407812Y-47589518D01*
X111387118Y-47521298D01*
X111668903Y-47521298D01*
X112482000Y-48334395D01*
X113295097Y-47521298D01*
X113223514Y-47277329D01*
X112968004Y-47156429D01*
X112693816Y-47087700D01*
X112411488Y-47073783D01*
X112131870Y-47115213D01*
X111865708Y-47210397D01*
X111740486Y-47277329D01*
X111668903Y-47521298D01*
X111387118Y-47521298D01*
X111371502Y-47469820D01*
X111312537Y-47359506D01*
X111233185Y-47262815D01*
X111136494Y-47183463D01*
X111026180Y-47124498D01*
X110906482Y-47088188D01*
X110782000Y-47075928D01*
X109182000Y-47075928D01*
X109057518Y-47088188D01*
X108937820Y-47124498D01*
X108827506Y-47183463D01*
X108730815Y-47262815D01*
X108651463Y-47359506D01*
X108592498Y-47469820D01*
X108556188Y-47589518D01*
X108543928Y-47714000D01*
X108344993Y-47714000D01*
X108266182Y-47454192D01*
X108132932Y-47204899D01*
X107953608Y-46986392D01*
X107735101Y-46807068D01*
X107485808Y-46673818D01*
X107215309Y-46591764D01*
X107004492Y-46571000D01*
X106863508Y-46571000D01*
X106652691Y-46591764D01*
X106382192Y-46673818D01*
X106132899Y-46807068D01*
X105914392Y-46986392D01*
X105735068Y-47204899D01*
X105601818Y-47454192D01*
X105519764Y-47724691D01*
X105492057Y-48006000D01*
X103549943Y-48006000D01*
X103522236Y-47724691D01*
X103440182Y-47454192D01*
X103306932Y-47204899D01*
X103127608Y-46986392D01*
X102909101Y-46807068D01*
X102776142Y-46736000D01*
X102909101Y-46664932D01*
X103127608Y-46485608D01*
X103306932Y-46267101D01*
X103440182Y-46017808D01*
X103522236Y-45747309D01*
X103524925Y-45720000D01*
X125304057Y-45720000D01*
X125331764Y-46001309D01*
X125413818Y-46271808D01*
X125547068Y-46521101D01*
X125726392Y-46739608D01*
X125944899Y-46918932D01*
X126077858Y-46990000D01*
X125944899Y-47061068D01*
X125726392Y-47240392D01*
X125547068Y-47458899D01*
X125413818Y-47708192D01*
X125331764Y-47978691D01*
X125304057Y-48260000D01*
X125331764Y-48541309D01*
X125413818Y-48811808D01*
X125547068Y-49061101D01*
X125726392Y-49279608D01*
X125944899Y-49458932D01*
X126082682Y-49532579D01*
X125890869Y-49647615D01*
X125682481Y-49836586D01*
X125514963Y-50062580D01*
X125394754Y-50316913D01*
X125354096Y-50450961D01*
X125476085Y-50673000D01*
X126619000Y-50673000D01*
X126619000Y-50653000D01*
X126873000Y-50653000D01*
X126873000Y-50673000D01*
X128015915Y-50673000D01*
X128137904Y-50450961D01*
X128097246Y-50316913D01*
X127977037Y-50062580D01*
X127809519Y-49836586D01*
X127601131Y-49647615D01*
X127409318Y-49532579D01*
X127547101Y-49458932D01*
X127765608Y-49279608D01*
X127944932Y-49061101D01*
X128078182Y-48811808D01*
X128160236Y-48541309D01*
X128187943Y-48260000D01*
X132162057Y-48260000D01*
X132189764Y-48541309D01*
X132271818Y-48811808D01*
X132405068Y-49061101D01*
X132584392Y-49279608D01*
X132802899Y-49458932D01*
X132940682Y-49532579D01*
X132748869Y-49647615D01*
X132540481Y-49836586D01*
X132372963Y-50062580D01*
X132252754Y-50316913D01*
X132212096Y-50450961D01*
X132334085Y-50673000D01*
X133477000Y-50673000D01*
X133477000Y-50653000D01*
X133731000Y-50653000D01*
X133731000Y-50673000D01*
X134873915Y-50673000D01*
X134995904Y-50450961D01*
X134955246Y-50316913D01*
X134835037Y-50062580D01*
X134667519Y-49836586D01*
X134459131Y-49647615D01*
X134267318Y-49532579D01*
X134405101Y-49458932D01*
X134623608Y-49279608D01*
X134802932Y-49061101D01*
X134936182Y-48811808D01*
X135018236Y-48541309D01*
X135045943Y-48260000D01*
X135018236Y-47978691D01*
X134936182Y-47708192D01*
X134802932Y-47458899D01*
X134623608Y-47240392D01*
X134405101Y-47061068D01*
X134267318Y-46987421D01*
X134459131Y-46872385D01*
X134667519Y-46683414D01*
X134835037Y-46457420D01*
X134955246Y-46203087D01*
X134995904Y-46069039D01*
X134873915Y-45847000D01*
X133731000Y-45847000D01*
X133731000Y-45867000D01*
X133477000Y-45867000D01*
X133477000Y-45847000D01*
X132334085Y-45847000D01*
X132212096Y-46069039D01*
X132252754Y-46203087D01*
X132372963Y-46457420D01*
X132540481Y-46683414D01*
X132748869Y-46872385D01*
X132940682Y-46987421D01*
X132802899Y-47061068D01*
X132584392Y-47240392D01*
X132405068Y-47458899D01*
X132271818Y-47708192D01*
X132189764Y-47978691D01*
X132162057Y-48260000D01*
X128187943Y-48260000D01*
X128160236Y-47978691D01*
X128078182Y-47708192D01*
X127944932Y-47458899D01*
X127765608Y-47240392D01*
X127547101Y-47061068D01*
X127414142Y-46990000D01*
X127547101Y-46918932D01*
X127765608Y-46739608D01*
X127944932Y-46521101D01*
X128078182Y-46271808D01*
X128160236Y-46001309D01*
X128187943Y-45720000D01*
X139782057Y-45720000D01*
X139809764Y-46001309D01*
X139891818Y-46271808D01*
X140025068Y-46521101D01*
X140204392Y-46739608D01*
X140422899Y-46918932D01*
X140555858Y-46990000D01*
X140422899Y-47061068D01*
X140204392Y-47240392D01*
X140025068Y-47458899D01*
X139891818Y-47708192D01*
X139809764Y-47978691D01*
X139782057Y-48260000D01*
X139809764Y-48541309D01*
X139891818Y-48811808D01*
X140025068Y-49061101D01*
X140204392Y-49279608D01*
X140422899Y-49458932D01*
X140560682Y-49532579D01*
X140368869Y-49647615D01*
X140160481Y-49836586D01*
X139992963Y-50062580D01*
X139872754Y-50316913D01*
X139832096Y-50450961D01*
X139954085Y-50673000D01*
X141097000Y-50673000D01*
X141097000Y-50653000D01*
X141351000Y-50653000D01*
X141351000Y-50673000D01*
X142493915Y-50673000D01*
X142615904Y-50450961D01*
X142575246Y-50316913D01*
X142455037Y-50062580D01*
X142287519Y-49836586D01*
X142079131Y-49647615D01*
X141887318Y-49532579D01*
X142025101Y-49458932D01*
X142243608Y-49279608D01*
X142422932Y-49061101D01*
X142556182Y-48811808D01*
X142638236Y-48541309D01*
X142665943Y-48260000D01*
X142638236Y-47978691D01*
X142556182Y-47708192D01*
X142422932Y-47458899D01*
X142243608Y-47240392D01*
X142025101Y-47061068D01*
X141892142Y-46990000D01*
X142025101Y-46918932D01*
X142243608Y-46739608D01*
X142422932Y-46521101D01*
X142556182Y-46271808D01*
X142638236Y-46001309D01*
X142665943Y-45720000D01*
X142638236Y-45438691D01*
X142556182Y-45168192D01*
X142422932Y-44918899D01*
X142243608Y-44700392D01*
X142025101Y-44521068D01*
X141887318Y-44447421D01*
X142079131Y-44332385D01*
X142287519Y-44143414D01*
X142455037Y-43917420D01*
X142575246Y-43663087D01*
X142615904Y-43529039D01*
X142493915Y-43307000D01*
X141351000Y-43307000D01*
X141351000Y-43327000D01*
X141097000Y-43327000D01*
X141097000Y-43307000D01*
X139954085Y-43307000D01*
X139832096Y-43529039D01*
X139872754Y-43663087D01*
X139992963Y-43917420D01*
X140160481Y-44143414D01*
X140368869Y-44332385D01*
X140560682Y-44447421D01*
X140422899Y-44521068D01*
X140204392Y-44700392D01*
X140025068Y-44918899D01*
X139891818Y-45168192D01*
X139809764Y-45438691D01*
X139782057Y-45720000D01*
X128187943Y-45720000D01*
X128160236Y-45438691D01*
X128078182Y-45168192D01*
X127944932Y-44918899D01*
X127765608Y-44700392D01*
X127547101Y-44521068D01*
X127409318Y-44447421D01*
X127601131Y-44332385D01*
X127809519Y-44143414D01*
X127977037Y-43917420D01*
X128097246Y-43663087D01*
X128137904Y-43529039D01*
X132212096Y-43529039D01*
X132252754Y-43663087D01*
X132372963Y-43917420D01*
X132540481Y-44143414D01*
X132748869Y-44332385D01*
X132944982Y-44450000D01*
X132748869Y-44567615D01*
X132540481Y-44756586D01*
X132372963Y-44982580D01*
X132252754Y-45236913D01*
X132212096Y-45370961D01*
X132334085Y-45593000D01*
X133477000Y-45593000D01*
X133477000Y-43307000D01*
X133731000Y-43307000D01*
X133731000Y-45593000D01*
X134873915Y-45593000D01*
X134995904Y-45370961D01*
X134955246Y-45236913D01*
X134835037Y-44982580D01*
X134667519Y-44756586D01*
X134459131Y-44567615D01*
X134263018Y-44450000D01*
X134459131Y-44332385D01*
X134667519Y-44143414D01*
X134835037Y-43917420D01*
X134955246Y-43663087D01*
X134995904Y-43529039D01*
X134873915Y-43307000D01*
X133731000Y-43307000D01*
X133477000Y-43307000D01*
X132334085Y-43307000D01*
X132212096Y-43529039D01*
X128137904Y-43529039D01*
X128015915Y-43307000D01*
X126873000Y-43307000D01*
X126873000Y-43327000D01*
X126619000Y-43327000D01*
X126619000Y-43307000D01*
X125476085Y-43307000D01*
X125354096Y-43529039D01*
X125394754Y-43663087D01*
X125514963Y-43917420D01*
X125682481Y-44143414D01*
X125890869Y-44332385D01*
X126082682Y-44447421D01*
X125944899Y-44521068D01*
X125726392Y-44700392D01*
X125547068Y-44918899D01*
X125413818Y-45168192D01*
X125331764Y-45438691D01*
X125304057Y-45720000D01*
X103524925Y-45720000D01*
X103549943Y-45466000D01*
X103522236Y-45184691D01*
X103440182Y-44914192D01*
X103306932Y-44664899D01*
X103127608Y-44446392D01*
X102909101Y-44267068D01*
X102659808Y-44133818D01*
X102389309Y-44051764D01*
X102178492Y-44031000D01*
X102037508Y-44031000D01*
X101826691Y-44051764D01*
X101556192Y-44133818D01*
X101306899Y-44267068D01*
X101088392Y-44446392D01*
X100909068Y-44664899D01*
X100775818Y-44914192D01*
X100693764Y-45184691D01*
X100666057Y-45466000D01*
X95929943Y-45466000D01*
X95902236Y-45184691D01*
X95820182Y-44914192D01*
X95686932Y-44664899D01*
X95507608Y-44446392D01*
X95289101Y-44267068D01*
X95039808Y-44133818D01*
X94769309Y-44051764D01*
X94558492Y-44031000D01*
X94417508Y-44031000D01*
X94206691Y-44051764D01*
X93936192Y-44133818D01*
X93686899Y-44267068D01*
X93468392Y-44446392D01*
X93289068Y-44664899D01*
X93155818Y-44914192D01*
X93073764Y-45184691D01*
X93046057Y-45466000D01*
X91420254Y-45466000D01*
X91570608Y-45342608D01*
X91749932Y-45124101D01*
X91883182Y-44874808D01*
X91965236Y-44604309D01*
X91992943Y-44323000D01*
X91965236Y-44041691D01*
X91883182Y-43771192D01*
X91749932Y-43521899D01*
X91570608Y-43303392D01*
X91352101Y-43124068D01*
X91102808Y-42990818D01*
X90832309Y-42908764D01*
X90621492Y-42888000D01*
X90480508Y-42888000D01*
X90269691Y-42908764D01*
X89999192Y-42990818D01*
X89749899Y-43124068D01*
X89531392Y-43303392D01*
X89352068Y-43521899D01*
X89218818Y-43771192D01*
X89136764Y-44041691D01*
X89109057Y-44323000D01*
X85470600Y-44323000D01*
X85470600Y-42704279D01*
X85504672Y-42356790D01*
X85596214Y-42053587D01*
X85744907Y-41773936D01*
X85945084Y-41528495D01*
X86189121Y-41326609D01*
X86467725Y-41175969D01*
X86770288Y-41082310D01*
X87115758Y-41046000D01*
X94848274Y-41046000D01*
X94843241Y-41049363D01*
X94843241Y-41049363D01*
G37*
X94843241Y-41049363D02*
X94643363Y-41249241D01*
X94486320Y-41484273D01*
X94378147Y-41745426D01*
X94323000Y-42022665D01*
X94323000Y-42305335D01*
X94378147Y-42582574D01*
X94486320Y-42843727D01*
X94643363Y-43078759D01*
X94843241Y-43278637D01*
X95078273Y-43435680D01*
X95339426Y-43543853D01*
X95616665Y-43599000D01*
X95899335Y-43599000D01*
X96176574Y-43543853D01*
X96437727Y-43435680D01*
X96672759Y-43278637D01*
X96794694Y-43156702D01*
X99944903Y-43156702D01*
X100016486Y-43400671D01*
X100271996Y-43521571D01*
X100546184Y-43590300D01*
X100828512Y-43604217D01*
X101108130Y-43562787D01*
X101374292Y-43467603D01*
X101499514Y-43400671D01*
X101571097Y-43156702D01*
X100758000Y-42343605D01*
X99944903Y-43156702D01*
X96794694Y-43156702D01*
X96872637Y-43078759D01*
X97029680Y-42843727D01*
X97137853Y-42582574D01*
X97193000Y-42305335D01*
X97193000Y-42234512D01*
X99317783Y-42234512D01*
X99359213Y-42514130D01*
X99454397Y-42780292D01*
X99521329Y-42905514D01*
X99765298Y-42977097D01*
X100578395Y-42164000D01*
X100937605Y-42164000D01*
X101750702Y-42977097D01*
X101994671Y-42905514D01*
X102115571Y-42650004D01*
X102119582Y-42634000D01*
X103844928Y-42634000D01*
X103844928Y-44234000D01*
X103857188Y-44358482D01*
X103893498Y-44478180D01*
X103952463Y-44588494D01*
X104031815Y-44685185D01*
X104128506Y-44764537D01*
X104238820Y-44823502D01*
X104358518Y-44859812D01*
X104483000Y-44872072D01*
X106083000Y-44872072D01*
X106207482Y-44859812D01*
X106327180Y-44823502D01*
X106437494Y-44764537D01*
X106534185Y-44685185D01*
X106613537Y-44588494D01*
X106672502Y-44478180D01*
X106688117Y-44426702D01*
X106969903Y-44426702D01*
X107041486Y-44670671D01*
X107296996Y-44791571D01*
X107571184Y-44860300D01*
X107853512Y-44874217D01*
X108133130Y-44832787D01*
X108399292Y-44737603D01*
X108524514Y-44670671D01*
X108596097Y-44426702D01*
X107783000Y-43613605D01*
X106969903Y-44426702D01*
X106688117Y-44426702D01*
X106708812Y-44358482D01*
X106721072Y-44234000D01*
X106721072Y-44226785D01*
X106790298Y-44247097D01*
X107603395Y-43434000D01*
X107962605Y-43434000D01*
X108775702Y-44247097D01*
X109019671Y-44175514D01*
X109140571Y-43920004D01*
X109209300Y-43645816D01*
X109221614Y-43396000D01*
X111972928Y-43396000D01*
X111972928Y-44996000D01*
X111985188Y-45120482D01*
X112021498Y-45240180D01*
X112080463Y-45350494D01*
X112159815Y-45447185D01*
X112256506Y-45526537D01*
X112366820Y-45585502D01*
X112486518Y-45621812D01*
X112611000Y-45634072D01*
X114211000Y-45634072D01*
X114335482Y-45621812D01*
X114455180Y-45585502D01*
X114565494Y-45526537D01*
X114662185Y-45447185D01*
X114741537Y-45350494D01*
X114800502Y-45240180D01*
X114816117Y-45188702D01*
X115097903Y-45188702D01*
X115169486Y-45432671D01*
X115424996Y-45553571D01*
X115699184Y-45622300D01*
X115981512Y-45636217D01*
X116261130Y-45594787D01*
X116527292Y-45499603D01*
X116652514Y-45432671D01*
X116724097Y-45188702D01*
X115911000Y-44375605D01*
X115097903Y-45188702D01*
X114816117Y-45188702D01*
X114836812Y-45120482D01*
X114849072Y-44996000D01*
X114849072Y-44988785D01*
X114918298Y-45009097D01*
X115731395Y-44196000D01*
X116090605Y-44196000D01*
X116903702Y-45009097D01*
X117147671Y-44937514D01*
X117268571Y-44682004D01*
X117337300Y-44407816D01*
X117351217Y-44125488D01*
X117309787Y-43845870D01*
X117214603Y-43579708D01*
X117187521Y-43529039D01*
X117734096Y-43529039D01*
X117774754Y-43663087D01*
X117894963Y-43917420D01*
X118062481Y-44143414D01*
X118270869Y-44332385D01*
X118466982Y-44450000D01*
X118270869Y-44567615D01*
X118062481Y-44756586D01*
X117894963Y-44982580D01*
X117774754Y-45236913D01*
X117734096Y-45370961D01*
X117856085Y-45593000D01*
X118999000Y-45593000D01*
X118999000Y-43307000D01*
X119253000Y-43307000D01*
X119253000Y-45593000D01*
X120395915Y-45593000D01*
X120517904Y-45370961D01*
X120477246Y-45236913D01*
X120357037Y-44982580D01*
X120189519Y-44756586D01*
X119981131Y-44567615D01*
X119785018Y-44450000D01*
X119981131Y-44332385D01*
X120189519Y-44143414D01*
X120357037Y-43917420D01*
X120477246Y-43663087D01*
X120517904Y-43529039D01*
X120395915Y-43307000D01*
X119253000Y-43307000D01*
X118999000Y-43307000D01*
X117856085Y-43307000D01*
X117734096Y-43529039D01*
X117187521Y-43529039D01*
X117147671Y-43454486D01*
X116903702Y-43382903D01*
X116090605Y-44196000D01*
X115731395Y-44196000D01*
X114918298Y-43382903D01*
X114849072Y-43403215D01*
X114849072Y-43396000D01*
X114836812Y-43271518D01*
X114816118Y-43203298D01*
X115097903Y-43203298D01*
X115911000Y-44016395D01*
X116724097Y-43203298D01*
X116652514Y-42959329D01*
X116397004Y-42838429D01*
X116367212Y-42830961D01*
X117734096Y-42830961D01*
X117856085Y-43053000D01*
X118999000Y-43053000D01*
X118999000Y-41909376D01*
X119253000Y-41909376D01*
X119253000Y-43053000D01*
X120395915Y-43053000D01*
X120517904Y-42830961D01*
X125354096Y-42830961D01*
X125476085Y-43053000D01*
X126619000Y-43053000D01*
X126619000Y-41909376D01*
X126873000Y-41909376D01*
X126873000Y-43053000D01*
X128015915Y-43053000D01*
X128137904Y-42830961D01*
X132212096Y-42830961D01*
X132334085Y-43053000D01*
X133477000Y-43053000D01*
X133477000Y-41909376D01*
X133731000Y-41909376D01*
X133731000Y-43053000D01*
X134873915Y-43053000D01*
X134995904Y-42830961D01*
X139832096Y-42830961D01*
X139954085Y-43053000D01*
X141097000Y-43053000D01*
X141097000Y-41909376D01*
X141351000Y-41909376D01*
X141351000Y-43053000D01*
X142493915Y-43053000D01*
X142615904Y-42830961D01*
X142575246Y-42696913D01*
X142455037Y-42442580D01*
X142287519Y-42216586D01*
X142079131Y-42027615D01*
X141837881Y-41882930D01*
X141573040Y-41788091D01*
X141351000Y-41909376D01*
X141097000Y-41909376D01*
X140874960Y-41788091D01*
X140610119Y-41882930D01*
X140368869Y-42027615D01*
X140160481Y-42216586D01*
X139992963Y-42442580D01*
X139872754Y-42696913D01*
X139832096Y-42830961D01*
X134995904Y-42830961D01*
X134955246Y-42696913D01*
X134835037Y-42442580D01*
X134667519Y-42216586D01*
X134459131Y-42027615D01*
X134217881Y-41882930D01*
X133953040Y-41788091D01*
X133731000Y-41909376D01*
X133477000Y-41909376D01*
X133254960Y-41788091D01*
X132990119Y-41882930D01*
X132748869Y-42027615D01*
X132540481Y-42216586D01*
X132372963Y-42442580D01*
X132252754Y-42696913D01*
X132212096Y-42830961D01*
X128137904Y-42830961D01*
X128097246Y-42696913D01*
X127977037Y-42442580D01*
X127809519Y-42216586D01*
X127601131Y-42027615D01*
X127359881Y-41882930D01*
X127095040Y-41788091D01*
X126873000Y-41909376D01*
X126619000Y-41909376D01*
X126396960Y-41788091D01*
X126132119Y-41882930D01*
X125890869Y-42027615D01*
X125682481Y-42216586D01*
X125514963Y-42442580D01*
X125394754Y-42696913D01*
X125354096Y-42830961D01*
X120517904Y-42830961D01*
X120477246Y-42696913D01*
X120357037Y-42442580D01*
X120189519Y-42216586D01*
X119981131Y-42027615D01*
X119739881Y-41882930D01*
X119475040Y-41788091D01*
X119253000Y-41909376D01*
X118999000Y-41909376D01*
X118776960Y-41788091D01*
X118512119Y-41882930D01*
X118270869Y-42027615D01*
X118062481Y-42216586D01*
X117894963Y-42442580D01*
X117774754Y-42696913D01*
X117734096Y-42830961D01*
X116367212Y-42830961D01*
X116122816Y-42769700D01*
X115840488Y-42755783D01*
X115560870Y-42797213D01*
X115294708Y-42892397D01*
X115169486Y-42959329D01*
X115097903Y-43203298D01*
X114816118Y-43203298D01*
X114800502Y-43151820D01*
X114741537Y-43041506D01*
X114662185Y-42944815D01*
X114565494Y-42865463D01*
X114455180Y-42806498D01*
X114335482Y-42770188D01*
X114211000Y-42757928D01*
X112611000Y-42757928D01*
X112486518Y-42770188D01*
X112366820Y-42806498D01*
X112256506Y-42865463D01*
X112159815Y-42944815D01*
X112080463Y-43041506D01*
X112021498Y-43151820D01*
X111985188Y-43271518D01*
X111972928Y-43396000D01*
X109221614Y-43396000D01*
X109223217Y-43363488D01*
X109181787Y-43083870D01*
X109086603Y-42817708D01*
X109019671Y-42692486D01*
X108775702Y-42620903D01*
X107962605Y-43434000D01*
X107603395Y-43434000D01*
X106790298Y-42620903D01*
X106721072Y-42641215D01*
X106721072Y-42634000D01*
X106708812Y-42509518D01*
X106688118Y-42441298D01*
X106969903Y-42441298D01*
X107783000Y-43254395D01*
X108596097Y-42441298D01*
X108524514Y-42197329D01*
X108269004Y-42076429D01*
X107994816Y-42007700D01*
X107712488Y-41993783D01*
X107432870Y-42035213D01*
X107166708Y-42130397D01*
X107041486Y-42197329D01*
X106969903Y-42441298D01*
X106688118Y-42441298D01*
X106672502Y-42389820D01*
X106613537Y-42279506D01*
X106534185Y-42182815D01*
X106437494Y-42103463D01*
X106327180Y-42044498D01*
X106207482Y-42008188D01*
X106083000Y-41995928D01*
X104483000Y-41995928D01*
X104358518Y-42008188D01*
X104238820Y-42044498D01*
X104128506Y-42103463D01*
X104031815Y-42182815D01*
X103952463Y-42279506D01*
X103893498Y-42389820D01*
X103857188Y-42509518D01*
X103844928Y-42634000D01*
X102119582Y-42634000D01*
X102184300Y-42375816D01*
X102198217Y-42093488D01*
X102156787Y-41813870D01*
X102061603Y-41547708D01*
X101994671Y-41422486D01*
X101750702Y-41350903D01*
X100937605Y-42164000D01*
X100578395Y-42164000D01*
X99765298Y-41350903D01*
X99521329Y-41422486D01*
X99400429Y-41677996D01*
X99331700Y-41952184D01*
X99317783Y-42234512D01*
X97193000Y-42234512D01*
X97193000Y-42022665D01*
X97137853Y-41745426D01*
X97029680Y-41484273D01*
X96872637Y-41249241D01*
X96672759Y-41049363D01*
X96667726Y-41046000D01*
X99981667Y-41046000D01*
X99944903Y-41171298D01*
X100758000Y-41984395D01*
X101571097Y-41171298D01*
X101534333Y-41046000D01*
X142436321Y-41046000D01*
X142783810Y-41080072D01*
X143087013Y-41171614D01*
X143366664Y-41320307D01*
X143612105Y-41520484D01*
X143813991Y-41764521D01*
X143964631Y-42043125D01*
X144058290Y-42345688D01*
X144094600Y-42691158D01*
X144094601Y-63579069D01*
X143930101Y-63444068D01*
X143680808Y-63310818D01*
X143410309Y-63228764D01*
X143199492Y-63208000D01*
X143058508Y-63208000D01*
X142847691Y-63228764D01*
X142577192Y-63310818D01*
X142327899Y-63444068D01*
X142109392Y-63623392D01*
X141930068Y-63841899D01*
X141796818Y-64091192D01*
X141714764Y-64361691D01*
X141687057Y-64643000D01*
X141714764Y-64924309D01*
X141796818Y-65194808D01*
X141930068Y-65444101D01*
X142109392Y-65662608D01*
X142327899Y-65841932D01*
X142577192Y-65975182D01*
X142847691Y-66057236D01*
X143058508Y-66078000D01*
X143199492Y-66078000D01*
X143410309Y-66057236D01*
X143680808Y-65975182D01*
X143930101Y-65841932D01*
X144094601Y-65706931D01*
X144094601Y-73739205D01*
X144043759Y-73688363D01*
X143808727Y-73531320D01*
X143547574Y-73423147D01*
X143270335Y-73368000D01*
X142987665Y-73368000D01*
X142710426Y-73423147D01*
X142449273Y-73531320D01*
X142214241Y-73688363D01*
X142014363Y-73888241D01*
X141857320Y-74123273D01*
X141749147Y-74384426D01*
X141694000Y-74661665D01*
X141694000Y-74944335D01*
X141749147Y-75221574D01*
X141857320Y-75482727D01*
X142014363Y-75717759D01*
X142214241Y-75917637D01*
X142449273Y-76074680D01*
X142710426Y-76182853D01*
X142987665Y-76238000D01*
X143270335Y-76238000D01*
X143547574Y-76182853D01*
X143808727Y-76074680D01*
X144043759Y-75917637D01*
X144094601Y-75866795D01*
X144094601Y-75913711D01*
X144060528Y-76261209D01*
X143968984Y-76564417D01*
X143820293Y-76844063D01*
X143620116Y-77089505D01*
X143376076Y-77291392D01*
X143097475Y-77442031D01*
X142794913Y-77535690D01*
X142449442Y-77572000D01*
X87128879Y-77572000D01*
X86781391Y-77537928D01*
X86478183Y-77446384D01*
X86198537Y-77297693D01*
X85953095Y-77097516D01*
X85751208Y-76853476D01*
X85747166Y-76846000D01*
X90155928Y-76846000D01*
X90168188Y-76970482D01*
X90204498Y-77090180D01*
X90263463Y-77200494D01*
X90342815Y-77297185D01*
X90439506Y-77376537D01*
X90549820Y-77435502D01*
X90669518Y-77471812D01*
X90794000Y-77484072D01*
X91408250Y-77481000D01*
X91567000Y-77322250D01*
X91567000Y-76073000D01*
X91821000Y-76073000D01*
X91821000Y-77322250D01*
X91979750Y-77481000D01*
X92594000Y-77484072D01*
X92718482Y-77471812D01*
X92838180Y-77435502D01*
X92948494Y-77376537D01*
X93045185Y-77297185D01*
X93124537Y-77200494D01*
X93183502Y-77090180D01*
X93219812Y-76970482D01*
X93232072Y-76846000D01*
X96723642Y-76846000D01*
X96735902Y-76970482D01*
X96772212Y-77090180D01*
X96831177Y-77200494D01*
X96910529Y-77297185D01*
X97007220Y-77376537D01*
X97117534Y-77435502D01*
X97237232Y-77471812D01*
X97361714Y-77484072D01*
X97975964Y-77481000D01*
X98134714Y-77322250D01*
X98134714Y-76073000D01*
X98388714Y-76073000D01*
X98388714Y-77322250D01*
X98547464Y-77481000D01*
X99161714Y-77484072D01*
X99286196Y-77471812D01*
X99405894Y-77435502D01*
X99516208Y-77376537D01*
X99612899Y-77297185D01*
X99692251Y-77200494D01*
X99751216Y-77090180D01*
X99787526Y-76970482D01*
X99799786Y-76846000D01*
X103291356Y-76846000D01*
X103303616Y-76970482D01*
X103339926Y-77090180D01*
X103398891Y-77200494D01*
X103478243Y-77297185D01*
X103574934Y-77376537D01*
X103685248Y-77435502D01*
X103804946Y-77471812D01*
X103929428Y-77484072D01*
X104543678Y-77481000D01*
X104702428Y-77322250D01*
X104702428Y-76073000D01*
X104956428Y-76073000D01*
X104956428Y-77322250D01*
X105115178Y-77481000D01*
X105729428Y-77484072D01*
X105853910Y-77471812D01*
X105973608Y-77435502D01*
X106083922Y-77376537D01*
X106180613Y-77297185D01*
X106259965Y-77200494D01*
X106318930Y-77090180D01*
X106355240Y-76970482D01*
X106367500Y-76846000D01*
X109859070Y-76846000D01*
X109871330Y-76970482D01*
X109907640Y-77090180D01*
X109966605Y-77200494D01*
X110045957Y-77297185D01*
X110142648Y-77376537D01*
X110252962Y-77435502D01*
X110372660Y-77471812D01*
X110497142Y-77484072D01*
X111111392Y-77481000D01*
X111270142Y-77322250D01*
X111270142Y-76073000D01*
X111524142Y-76073000D01*
X111524142Y-77322250D01*
X111682892Y-77481000D01*
X112297142Y-77484072D01*
X112421624Y-77471812D01*
X112541322Y-77435502D01*
X112651636Y-77376537D01*
X112748327Y-77297185D01*
X112827679Y-77200494D01*
X112886644Y-77090180D01*
X112922954Y-76970482D01*
X112935214Y-76846000D01*
X116426784Y-76846000D01*
X116439044Y-76970482D01*
X116475354Y-77090180D01*
X116534319Y-77200494D01*
X116613671Y-77297185D01*
X116710362Y-77376537D01*
X116820676Y-77435502D01*
X116940374Y-77471812D01*
X117064856Y-77484072D01*
X117679106Y-77481000D01*
X117837856Y-77322250D01*
X117837856Y-76073000D01*
X118091856Y-76073000D01*
X118091856Y-77322250D01*
X118250606Y-77481000D01*
X118864856Y-77484072D01*
X118989338Y-77471812D01*
X119109036Y-77435502D01*
X119219350Y-77376537D01*
X119316041Y-77297185D01*
X119395393Y-77200494D01*
X119454358Y-77090180D01*
X119490668Y-76970482D01*
X119502928Y-76846000D01*
X122994498Y-76846000D01*
X123006758Y-76970482D01*
X123043068Y-77090180D01*
X123102033Y-77200494D01*
X123181385Y-77297185D01*
X123278076Y-77376537D01*
X123388390Y-77435502D01*
X123508088Y-77471812D01*
X123632570Y-77484072D01*
X124246820Y-77481000D01*
X124405570Y-77322250D01*
X124405570Y-76073000D01*
X124659570Y-76073000D01*
X124659570Y-77322250D01*
X124818320Y-77481000D01*
X125432570Y-77484072D01*
X125557052Y-77471812D01*
X125676750Y-77435502D01*
X125787064Y-77376537D01*
X125883755Y-77297185D01*
X125963107Y-77200494D01*
X126022072Y-77090180D01*
X126058382Y-76970482D01*
X126070642Y-76846000D01*
X129562212Y-76846000D01*
X129574472Y-76970482D01*
X129610782Y-77090180D01*
X129669747Y-77200494D01*
X129749099Y-77297185D01*
X129845790Y-77376537D01*
X129956104Y-77435502D01*
X130075802Y-77471812D01*
X130200284Y-77484072D01*
X130814534Y-77481000D01*
X130973284Y-77322250D01*
X130973284Y-76073000D01*
X131227284Y-76073000D01*
X131227284Y-77322250D01*
X131386034Y-77481000D01*
X132000284Y-77484072D01*
X132124766Y-77471812D01*
X132244464Y-77435502D01*
X132354778Y-77376537D01*
X132451469Y-77297185D01*
X132530821Y-77200494D01*
X132589786Y-77090180D01*
X132626096Y-76970482D01*
X132638356Y-76846000D01*
X136129928Y-76846000D01*
X136142188Y-76970482D01*
X136178498Y-77090180D01*
X136237463Y-77200494D01*
X136316815Y-77297185D01*
X136413506Y-77376537D01*
X136523820Y-77435502D01*
X136643518Y-77471812D01*
X136768000Y-77484072D01*
X137382250Y-77481000D01*
X137541000Y-77322250D01*
X137541000Y-76073000D01*
X137795000Y-76073000D01*
X137795000Y-77322250D01*
X137953750Y-77481000D01*
X138568000Y-77484072D01*
X138692482Y-77471812D01*
X138812180Y-77435502D01*
X138922494Y-77376537D01*
X139019185Y-77297185D01*
X139098537Y-77200494D01*
X139157502Y-77090180D01*
X139193812Y-76970482D01*
X139206072Y-76846000D01*
X139203000Y-76231750D01*
X139044250Y-76073000D01*
X137795000Y-76073000D01*
X137541000Y-76073000D01*
X136291750Y-76073000D01*
X136133000Y-76231750D01*
X136129928Y-76846000D01*
X132638356Y-76846000D01*
X132635284Y-76231750D01*
X132476534Y-76073000D01*
X131227284Y-76073000D01*
X130973284Y-76073000D01*
X129724034Y-76073000D01*
X129565284Y-76231750D01*
X129562212Y-76846000D01*
X126070642Y-76846000D01*
X126067570Y-76231750D01*
X125908820Y-76073000D01*
X124659570Y-76073000D01*
X124405570Y-76073000D01*
X123156320Y-76073000D01*
X122997570Y-76231750D01*
X122994498Y-76846000D01*
X119502928Y-76846000D01*
X119499856Y-76231750D01*
X119341106Y-76073000D01*
X118091856Y-76073000D01*
X117837856Y-76073000D01*
X116588606Y-76073000D01*
X116429856Y-76231750D01*
X116426784Y-76846000D01*
X112935214Y-76846000D01*
X112932142Y-76231750D01*
X112773392Y-76073000D01*
X111524142Y-76073000D01*
X111270142Y-76073000D01*
X110020892Y-76073000D01*
X109862142Y-76231750D01*
X109859070Y-76846000D01*
X106367500Y-76846000D01*
X106364428Y-76231750D01*
X106205678Y-76073000D01*
X104956428Y-76073000D01*
X104702428Y-76073000D01*
X103453178Y-76073000D01*
X103294428Y-76231750D01*
X103291356Y-76846000D01*
X99799786Y-76846000D01*
X99796714Y-76231750D01*
X99637964Y-76073000D01*
X98388714Y-76073000D01*
X98134714Y-76073000D01*
X96885464Y-76073000D01*
X96726714Y-76231750D01*
X96723642Y-76846000D01*
X93232072Y-76846000D01*
X93229000Y-76231750D01*
X93070250Y-76073000D01*
X91821000Y-76073000D01*
X91567000Y-76073000D01*
X90317750Y-76073000D01*
X90159000Y-76231750D01*
X90155928Y-76846000D01*
X85747166Y-76846000D01*
X85600569Y-76574875D01*
X85506910Y-76272313D01*
X85470600Y-75926842D01*
X85470600Y-75046000D01*
X90155928Y-75046000D01*
X90159000Y-75660250D01*
X90317750Y-75819000D01*
X91567000Y-75819000D01*
X91567000Y-75799000D01*
X91821000Y-75799000D01*
X91821000Y-75819000D01*
X93070250Y-75819000D01*
X93229000Y-75660250D01*
X93232072Y-75046000D01*
X96723642Y-75046000D01*
X96726714Y-75660250D01*
X96885464Y-75819000D01*
X98134714Y-75819000D01*
X98134714Y-75799000D01*
X98388714Y-75799000D01*
X98388714Y-75819000D01*
X99637964Y-75819000D01*
X99796714Y-75660250D01*
X99799786Y-75046000D01*
X103291356Y-75046000D01*
X103294428Y-75660250D01*
X103453178Y-75819000D01*
X104702428Y-75819000D01*
X104702428Y-75799000D01*
X104956428Y-75799000D01*
X104956428Y-75819000D01*
X106205678Y-75819000D01*
X106364428Y-75660250D01*
X106367500Y-75046000D01*
X109859070Y-75046000D01*
X109862142Y-75660250D01*
X110020892Y-75819000D01*
X111270142Y-75819000D01*
X111270142Y-75799000D01*
X111524142Y-75799000D01*
X111524142Y-75819000D01*
X112773392Y-75819000D01*
X112932142Y-75660250D01*
X112935214Y-75046000D01*
X116426784Y-75046000D01*
X116429856Y-75660250D01*
X116588606Y-75819000D01*
X117837856Y-75819000D01*
X117837856Y-75799000D01*
X118091856Y-75799000D01*
X118091856Y-75819000D01*
X119341106Y-75819000D01*
X119499856Y-75660250D01*
X119502928Y-75046000D01*
X122994498Y-75046000D01*
X122997570Y-75660250D01*
X123156320Y-75819000D01*
X124405570Y-75819000D01*
X124405570Y-75799000D01*
X124659570Y-75799000D01*
X124659570Y-75819000D01*
X125908820Y-75819000D01*
X126067570Y-75660250D01*
X126070642Y-75046000D01*
X129562212Y-75046000D01*
X129565284Y-75660250D01*
X129724034Y-75819000D01*
X130973284Y-75819000D01*
X130973284Y-75799000D01*
X131227284Y-75799000D01*
X131227284Y-75819000D01*
X132476534Y-75819000D01*
X132635284Y-75660250D01*
X132638356Y-75046000D01*
X136129928Y-75046000D01*
X136133000Y-75660250D01*
X136291750Y-75819000D01*
X137541000Y-75819000D01*
X137541000Y-75799000D01*
X137795000Y-75799000D01*
X137795000Y-75819000D01*
X139044250Y-75819000D01*
X139203000Y-75660250D01*
X139206072Y-75046000D01*
X139193812Y-74921518D01*
X139157502Y-74801820D01*
X139098537Y-74691506D01*
X139019185Y-74594815D01*
X138922494Y-74515463D01*
X138812180Y-74456498D01*
X138793873Y-74450944D01*
X138860312Y-74384505D01*
X139028299Y-74133095D01*
X139144011Y-73853743D01*
X139203000Y-73557184D01*
X139203000Y-73254816D01*
X139144011Y-72958257D01*
X139028299Y-72678905D01*
X138860312Y-72427495D01*
X138646505Y-72213688D01*
X138395095Y-72045701D01*
X138115743Y-71929989D01*
X137819184Y-71871000D01*
X137516816Y-71871000D01*
X137220257Y-71929989D01*
X136940905Y-72045701D01*
X136689495Y-72213688D01*
X136475688Y-72427495D01*
X136307701Y-72678905D01*
X136191989Y-72958257D01*
X136133000Y-73254816D01*
X136133000Y-73557184D01*
X136191989Y-73853743D01*
X136307701Y-74133095D01*
X136475688Y-74384505D01*
X136542127Y-74450944D01*
X136523820Y-74456498D01*
X136413506Y-74515463D01*
X136316815Y-74594815D01*
X136237463Y-74691506D01*
X136178498Y-74801820D01*
X136142188Y-74921518D01*
X136129928Y-75046000D01*
X132638356Y-75046000D01*
X132626096Y-74921518D01*
X132589786Y-74801820D01*
X132530821Y-74691506D01*
X132451469Y-74594815D01*
X132354778Y-74515463D01*
X132244464Y-74456498D01*
X132226157Y-74450944D01*
X132292596Y-74384505D01*
X132460583Y-74133095D01*
X132576295Y-73853743D01*
X132635284Y-73557184D01*
X132635284Y-73254816D01*
X132576295Y-72958257D01*
X132460583Y-72678905D01*
X132292596Y-72427495D01*
X132078789Y-72213688D01*
X131827379Y-72045701D01*
X131548027Y-71929989D01*
X131251468Y-71871000D01*
X130949100Y-71871000D01*
X130652541Y-71929989D01*
X130373189Y-72045701D01*
X130121779Y-72213688D01*
X129907972Y-72427495D01*
X129739985Y-72678905D01*
X129624273Y-72958257D01*
X129565284Y-73254816D01*
X129565284Y-73557184D01*
X129624273Y-73853743D01*
X129739985Y-74133095D01*
X129907972Y-74384505D01*
X129974411Y-74450944D01*
X129956104Y-74456498D01*
X129845790Y-74515463D01*
X129749099Y-74594815D01*
X129669747Y-74691506D01*
X129610782Y-74801820D01*
X129574472Y-74921518D01*
X129562212Y-75046000D01*
X126070642Y-75046000D01*
X126058382Y-74921518D01*
X126022072Y-74801820D01*
X125963107Y-74691506D01*
X125883755Y-74594815D01*
X125787064Y-74515463D01*
X125676750Y-74456498D01*
X125658443Y-74450944D01*
X125724882Y-74384505D01*
X125892869Y-74133095D01*
X126008581Y-73853743D01*
X126067570Y-73557184D01*
X126067570Y-73254816D01*
X126008581Y-72958257D01*
X125892869Y-72678905D01*
X125724882Y-72427495D01*
X125511075Y-72213688D01*
X125259665Y-72045701D01*
X124980313Y-71929989D01*
X124683754Y-71871000D01*
X124381386Y-71871000D01*
X124084827Y-71929989D01*
X123805475Y-72045701D01*
X123554065Y-72213688D01*
X123340258Y-72427495D01*
X123172271Y-72678905D01*
X123056559Y-72958257D01*
X122997570Y-73254816D01*
X122997570Y-73557184D01*
X123056559Y-73853743D01*
X123172271Y-74133095D01*
X123340258Y-74384505D01*
X123406697Y-74450944D01*
X123388390Y-74456498D01*
X123278076Y-74515463D01*
X123181385Y-74594815D01*
X123102033Y-74691506D01*
X123043068Y-74801820D01*
X123006758Y-74921518D01*
X122994498Y-75046000D01*
X119502928Y-75046000D01*
X119490668Y-74921518D01*
X119454358Y-74801820D01*
X119395393Y-74691506D01*
X119316041Y-74594815D01*
X119219350Y-74515463D01*
X119109036Y-74456498D01*
X119090729Y-74450944D01*
X119157168Y-74384505D01*
X119325155Y-74133095D01*
X119440867Y-73853743D01*
X119499856Y-73557184D01*
X119499856Y-73254816D01*
X119440867Y-72958257D01*
X119325155Y-72678905D01*
X119157168Y-72427495D01*
X118943361Y-72213688D01*
X118691951Y-72045701D01*
X118412599Y-71929989D01*
X118116040Y-71871000D01*
X117813672Y-71871000D01*
X117517113Y-71929989D01*
X117237761Y-72045701D01*
X116986351Y-72213688D01*
X116772544Y-72427495D01*
X116604557Y-72678905D01*
X116488845Y-72958257D01*
X116429856Y-73254816D01*
X116429856Y-73557184D01*
X116488845Y-73853743D01*
X116604557Y-74133095D01*
X116772544Y-74384505D01*
X116838983Y-74450944D01*
X116820676Y-74456498D01*
X116710362Y-74515463D01*
X116613671Y-74594815D01*
X116534319Y-74691506D01*
X116475354Y-74801820D01*
X116439044Y-74921518D01*
X116426784Y-75046000D01*
X112935214Y-75046000D01*
X112922954Y-74921518D01*
X112886644Y-74801820D01*
X112827679Y-74691506D01*
X112748327Y-74594815D01*
X112651636Y-74515463D01*
X112541322Y-74456498D01*
X112523015Y-74450944D01*
X112589454Y-74384505D01*
X112757441Y-74133095D01*
X112873153Y-73853743D01*
X112932142Y-73557184D01*
X112932142Y-73254816D01*
X112873153Y-72958257D01*
X112757441Y-72678905D01*
X112589454Y-72427495D01*
X112375647Y-72213688D01*
X112124237Y-72045701D01*
X111844885Y-71929989D01*
X111548326Y-71871000D01*
X111245958Y-71871000D01*
X110949399Y-71929989D01*
X110670047Y-72045701D01*
X110418637Y-72213688D01*
X110204830Y-72427495D01*
X110036843Y-72678905D01*
X109921131Y-72958257D01*
X109862142Y-73254816D01*
X109862142Y-73557184D01*
X109921131Y-73853743D01*
X110036843Y-74133095D01*
X110204830Y-74384505D01*
X110271269Y-74450944D01*
X110252962Y-74456498D01*
X110142648Y-74515463D01*
X110045957Y-74594815D01*
X109966605Y-74691506D01*
X109907640Y-74801820D01*
X109871330Y-74921518D01*
X109859070Y-75046000D01*
X106367500Y-75046000D01*
X106355240Y-74921518D01*
X106318930Y-74801820D01*
X106259965Y-74691506D01*
X106180613Y-74594815D01*
X106083922Y-74515463D01*
X105973608Y-74456498D01*
X105955301Y-74450944D01*
X106021740Y-74384505D01*
X106189727Y-74133095D01*
X106305439Y-73853743D01*
X106364428Y-73557184D01*
X106364428Y-73254816D01*
X106305439Y-72958257D01*
X106189727Y-72678905D01*
X106021740Y-72427495D01*
X105807933Y-72213688D01*
X105556523Y-72045701D01*
X105277171Y-71929989D01*
X104980612Y-71871000D01*
X104678244Y-71871000D01*
X104381685Y-71929989D01*
X104102333Y-72045701D01*
X103850923Y-72213688D01*
X103637116Y-72427495D01*
X103469129Y-72678905D01*
X103353417Y-72958257D01*
X103294428Y-73254816D01*
X103294428Y-73557184D01*
X103353417Y-73853743D01*
X103469129Y-74133095D01*
X103637116Y-74384505D01*
X103703555Y-74450944D01*
X103685248Y-74456498D01*
X103574934Y-74515463D01*
X103478243Y-74594815D01*
X103398891Y-74691506D01*
X103339926Y-74801820D01*
X103303616Y-74921518D01*
X103291356Y-75046000D01*
X99799786Y-75046000D01*
X99787526Y-74921518D01*
X99751216Y-74801820D01*
X99692251Y-74691506D01*
X99612899Y-74594815D01*
X99516208Y-74515463D01*
X99405894Y-74456498D01*
X99387587Y-74450944D01*
X99454026Y-74384505D01*
X99622013Y-74133095D01*
X99737725Y-73853743D01*
X99796714Y-73557184D01*
X99796714Y-73254816D01*
X99737725Y-72958257D01*
X99622013Y-72678905D01*
X99454026Y-72427495D01*
X99240219Y-72213688D01*
X98988809Y-72045701D01*
X98709457Y-71929989D01*
X98412898Y-71871000D01*
X98110530Y-71871000D01*
X97813971Y-71929989D01*
X97534619Y-72045701D01*
X97283209Y-72213688D01*
X97069402Y-72427495D01*
X96901415Y-72678905D01*
X96785703Y-72958257D01*
X96726714Y-73254816D01*
X96726714Y-73557184D01*
X96785703Y-73853743D01*
X96901415Y-74133095D01*
X97069402Y-74384505D01*
X97135841Y-74450944D01*
X97117534Y-74456498D01*
X97007220Y-74515463D01*
X96910529Y-74594815D01*
X96831177Y-74691506D01*
X96772212Y-74801820D01*
X96735902Y-74921518D01*
X96723642Y-75046000D01*
X93232072Y-75046000D01*
X93219812Y-74921518D01*
X93183502Y-74801820D01*
X93124537Y-74691506D01*
X93045185Y-74594815D01*
X92948494Y-74515463D01*
X92838180Y-74456498D01*
X92819873Y-74450944D01*
X92886312Y-74384505D01*
X93054299Y-74133095D01*
X93170011Y-73853743D01*
X93229000Y-73557184D01*
X93229000Y-73254816D01*
X93170011Y-72958257D01*
X93054299Y-72678905D01*
X92886312Y-72427495D01*
X92672505Y-72213688D01*
X92421095Y-72045701D01*
X92141743Y-71929989D01*
X91845184Y-71871000D01*
X91542816Y-71871000D01*
X91246257Y-71929989D01*
X90966905Y-72045701D01*
X90715495Y-72213688D01*
X90501688Y-72427495D01*
X90333701Y-72678905D01*
X90217989Y-72958257D01*
X90159000Y-73254816D01*
X90159000Y-73557184D01*
X90217989Y-73853743D01*
X90333701Y-74133095D01*
X90501688Y-74384505D01*
X90568127Y-74450944D01*
X90549820Y-74456498D01*
X90439506Y-74515463D01*
X90342815Y-74594815D01*
X90263463Y-74691506D01*
X90204498Y-74801820D01*
X90168188Y-74921518D01*
X90155928Y-75046000D01*
X85470600Y-75046000D01*
X85470600Y-65802000D01*
X85991928Y-65802000D01*
X85991928Y-67802000D01*
X86004188Y-67926482D01*
X86040498Y-68046180D01*
X86099463Y-68156494D01*
X86178815Y-68253185D01*
X86275506Y-68332537D01*
X86385820Y-68391502D01*
X86505518Y-68427812D01*
X86630000Y-68440072D01*
X88630000Y-68440072D01*
X88754482Y-68427812D01*
X88874180Y-68391502D01*
X88984494Y-68332537D01*
X89081185Y-68253185D01*
X89160537Y-68156494D01*
X89219502Y-68046180D01*
X89255812Y-67926482D01*
X89268072Y-67802000D01*
X89268072Y-67549665D01*
X90386000Y-67549665D01*
X90386000Y-67832335D01*
X90441147Y-68109574D01*
X90549320Y-68370727D01*
X90706363Y-68605759D01*
X90906241Y-68805637D01*
X91141273Y-68962680D01*
X91402426Y-69070853D01*
X91679665Y-69126000D01*
X91962335Y-69126000D01*
X92239574Y-69070853D01*
X92500727Y-68962680D01*
X92735759Y-68805637D01*
X92935637Y-68605759D01*
X93092680Y-68370727D01*
X93200853Y-68109574D01*
X93256000Y-67832335D01*
X93256000Y-67691000D01*
X100539057Y-67691000D01*
X100566764Y-67972309D01*
X100648818Y-68242808D01*
X100782068Y-68492101D01*
X100961392Y-68710608D01*
X101179899Y-68889932D01*
X101429192Y-69023182D01*
X101699691Y-69105236D01*
X101910508Y-69126000D01*
X102051492Y-69126000D01*
X102262309Y-69105236D01*
X102532808Y-69023182D01*
X102782101Y-68889932D01*
X103000608Y-68710608D01*
X103179932Y-68492101D01*
X103313182Y-68242808D01*
X103369343Y-68057665D01*
X107658000Y-68057665D01*
X107658000Y-68340335D01*
X107713147Y-68617574D01*
X107821320Y-68878727D01*
X107978363Y-69113759D01*
X108178241Y-69313637D01*
X108413273Y-69470680D01*
X108674426Y-69578853D01*
X108951665Y-69634000D01*
X109234335Y-69634000D01*
X109511574Y-69578853D01*
X109772727Y-69470680D01*
X110007759Y-69313637D01*
X110207637Y-69113759D01*
X110364680Y-68878727D01*
X110472853Y-68617574D01*
X110528000Y-68340335D01*
X110528000Y-68057665D01*
X110472853Y-67780426D01*
X110364680Y-67519273D01*
X110207637Y-67284241D01*
X110007759Y-67084363D01*
X109772727Y-66927320D01*
X109511574Y-66819147D01*
X109234335Y-66764000D01*
X108951665Y-66764000D01*
X108674426Y-66819147D01*
X108413273Y-66927320D01*
X108178241Y-67084363D01*
X107978363Y-67284241D01*
X107821320Y-67519273D01*
X107713147Y-67780426D01*
X107658000Y-68057665D01*
X103369343Y-68057665D01*
X103395236Y-67972309D01*
X103422943Y-67691000D01*
X103395236Y-67409691D01*
X103313182Y-67139192D01*
X103179932Y-66889899D01*
X103000608Y-66671392D01*
X102782101Y-66492068D01*
X102532808Y-66358818D01*
X102262309Y-66276764D01*
X102051492Y-66256000D01*
X101910508Y-66256000D01*
X101699691Y-66276764D01*
X101429192Y-66358818D01*
X101179899Y-66492068D01*
X100961392Y-66671392D01*
X100782068Y-66889899D01*
X100648818Y-67139192D01*
X100566764Y-67409691D01*
X100539057Y-67691000D01*
X93256000Y-67691000D01*
X93256000Y-67549665D01*
X93200853Y-67272426D01*
X93092680Y-67011273D01*
X92935637Y-66776241D01*
X92735759Y-66576363D01*
X92500727Y-66419320D01*
X92239574Y-66311147D01*
X91962335Y-66256000D01*
X91679665Y-66256000D01*
X91402426Y-66311147D01*
X91141273Y-66419320D01*
X90906241Y-66576363D01*
X90706363Y-66776241D01*
X90549320Y-67011273D01*
X90441147Y-67272426D01*
X90386000Y-67549665D01*
X89268072Y-67549665D01*
X89268072Y-65802000D01*
X89255812Y-65677518D01*
X89219502Y-65557820D01*
X89160537Y-65447506D01*
X89081185Y-65350815D01*
X88984494Y-65271463D01*
X88874180Y-65212498D01*
X88754482Y-65176188D01*
X88630000Y-65163928D01*
X86630000Y-65163928D01*
X86505518Y-65176188D01*
X86385820Y-65212498D01*
X86275506Y-65271463D01*
X86178815Y-65350815D01*
X86099463Y-65447506D01*
X86040498Y-65557820D01*
X86004188Y-65677518D01*
X85991928Y-65802000D01*
X85470600Y-65802000D01*
X85470600Y-64374665D01*
X90386000Y-64374665D01*
X90386000Y-64657335D01*
X90441147Y-64934574D01*
X90549320Y-65195727D01*
X90706363Y-65430759D01*
X90906241Y-65630637D01*
X91141273Y-65787680D01*
X91402426Y-65895853D01*
X91679665Y-65951000D01*
X91962335Y-65951000D01*
X92239574Y-65895853D01*
X92500727Y-65787680D01*
X92735759Y-65630637D01*
X92935637Y-65430759D01*
X93092680Y-65195727D01*
X93200853Y-64934574D01*
X93256000Y-64657335D01*
X93256000Y-64516000D01*
X100539057Y-64516000D01*
X100566764Y-64797309D01*
X100648818Y-65067808D01*
X100782068Y-65317101D01*
X100961392Y-65535608D01*
X101179899Y-65714932D01*
X101429192Y-65848182D01*
X101699691Y-65930236D01*
X101910508Y-65951000D01*
X102051492Y-65951000D01*
X102262309Y-65930236D01*
X102532808Y-65848182D01*
X102782101Y-65714932D01*
X103000608Y-65535608D01*
X103179932Y-65317101D01*
X103313182Y-65067808D01*
X103330819Y-65009665D01*
X107658000Y-65009665D01*
X107658000Y-65292335D01*
X107713147Y-65569574D01*
X107821320Y-65830727D01*
X107978363Y-66065759D01*
X108178241Y-66265637D01*
X108413273Y-66422680D01*
X108674426Y-66530853D01*
X108951665Y-66586000D01*
X109234335Y-66586000D01*
X109279846Y-66576947D01*
X112510000Y-66576947D01*
X112510000Y-67027053D01*
X112597811Y-67468510D01*
X112770059Y-67884353D01*
X113020125Y-68258603D01*
X113338397Y-68576875D01*
X113712647Y-68826941D01*
X114128490Y-68999189D01*
X114569947Y-69087000D01*
X115020053Y-69087000D01*
X115461510Y-68999189D01*
X115877353Y-68826941D01*
X116251603Y-68576875D01*
X116569875Y-68258603D01*
X116609700Y-68199000D01*
X117811057Y-68199000D01*
X117838764Y-68480309D01*
X117920818Y-68750808D01*
X118054068Y-69000101D01*
X118233392Y-69218608D01*
X118451899Y-69397932D01*
X118701192Y-69531182D01*
X118971691Y-69613236D01*
X119182508Y-69634000D01*
X119323492Y-69634000D01*
X119534309Y-69613236D01*
X119804808Y-69531182D01*
X120054101Y-69397932D01*
X120272608Y-69218608D01*
X120451932Y-69000101D01*
X120519350Y-68873971D01*
X120521320Y-68878727D01*
X120678363Y-69113759D01*
X120878241Y-69313637D01*
X121113273Y-69470680D01*
X121374426Y-69578853D01*
X121651665Y-69634000D01*
X121934335Y-69634000D01*
X122211574Y-69578853D01*
X122472727Y-69470680D01*
X122707759Y-69313637D01*
X122907637Y-69113759D01*
X123064680Y-68878727D01*
X123172853Y-68617574D01*
X123228000Y-68340335D01*
X123228000Y-68199000D01*
X130511057Y-68199000D01*
X130538764Y-68480309D01*
X130620818Y-68750808D01*
X130754068Y-69000101D01*
X130933392Y-69218608D01*
X131151899Y-69397932D01*
X131401192Y-69531182D01*
X131671691Y-69613236D01*
X131882508Y-69634000D01*
X132023492Y-69634000D01*
X132234309Y-69613236D01*
X132504808Y-69531182D01*
X132754101Y-69397932D01*
X132972608Y-69218608D01*
X133151932Y-69000101D01*
X133285182Y-68750808D01*
X133367236Y-68480309D01*
X133394943Y-68199000D01*
X133367236Y-67917691D01*
X133285182Y-67647192D01*
X133151932Y-67397899D01*
X132972608Y-67179392D01*
X132754101Y-67000068D01*
X132504808Y-66866818D01*
X132234309Y-66784764D01*
X132023492Y-66764000D01*
X131882508Y-66764000D01*
X131671691Y-66784764D01*
X131401192Y-66866818D01*
X131151899Y-67000068D01*
X130933392Y-67179392D01*
X130754068Y-67397899D01*
X130620818Y-67647192D01*
X130538764Y-67917691D01*
X130511057Y-68199000D01*
X123228000Y-68199000D01*
X123228000Y-68057665D01*
X123172853Y-67780426D01*
X123064680Y-67519273D01*
X122907637Y-67284241D01*
X122707759Y-67084363D01*
X122472727Y-66927320D01*
X122211574Y-66819147D01*
X121934335Y-66764000D01*
X121651665Y-66764000D01*
X121374426Y-66819147D01*
X121113273Y-66927320D01*
X120878241Y-67084363D01*
X120678363Y-67284241D01*
X120521320Y-67519273D01*
X120519350Y-67524029D01*
X120451932Y-67397899D01*
X120272608Y-67179392D01*
X120054101Y-67000068D01*
X119804808Y-66866818D01*
X119534309Y-66784764D01*
X119323492Y-66764000D01*
X119182508Y-66764000D01*
X118971691Y-66784764D01*
X118701192Y-66866818D01*
X118451899Y-67000068D01*
X118233392Y-67179392D01*
X118054068Y-67397899D01*
X117920818Y-67647192D01*
X117838764Y-67917691D01*
X117811057Y-68199000D01*
X116609700Y-68199000D01*
X116819941Y-67884353D01*
X116992189Y-67468510D01*
X117080000Y-67027053D01*
X117080000Y-66576947D01*
X116992189Y-66135490D01*
X116819941Y-65719647D01*
X116569875Y-65345397D01*
X116375478Y-65151000D01*
X117811057Y-65151000D01*
X117838764Y-65432309D01*
X117920818Y-65702808D01*
X118054068Y-65952101D01*
X118233392Y-66170608D01*
X118451899Y-66349932D01*
X118701192Y-66483182D01*
X118971691Y-66565236D01*
X119182508Y-66586000D01*
X119323492Y-66586000D01*
X119534309Y-66565236D01*
X119804808Y-66483182D01*
X120054101Y-66349932D01*
X120272608Y-66170608D01*
X120451932Y-65952101D01*
X120519350Y-65825971D01*
X120521320Y-65830727D01*
X120678363Y-66065759D01*
X120878241Y-66265637D01*
X121113273Y-66422680D01*
X121374426Y-66530853D01*
X121651665Y-66586000D01*
X121934335Y-66586000D01*
X122211574Y-66530853D01*
X122472727Y-66422680D01*
X122707759Y-66265637D01*
X122907637Y-66065759D01*
X123064680Y-65830727D01*
X123172853Y-65569574D01*
X123228000Y-65292335D01*
X123228000Y-65151000D01*
X130511057Y-65151000D01*
X130538764Y-65432309D01*
X130620818Y-65702808D01*
X130754068Y-65952101D01*
X130933392Y-66170608D01*
X131151899Y-66349932D01*
X131401192Y-66483182D01*
X131671691Y-66565236D01*
X131882508Y-66586000D01*
X132023492Y-66586000D01*
X132234309Y-66565236D01*
X132504808Y-66483182D01*
X132754101Y-66349932D01*
X132972608Y-66170608D01*
X133151932Y-65952101D01*
X133285182Y-65702808D01*
X133367236Y-65432309D01*
X133394943Y-65151000D01*
X133367236Y-64869691D01*
X133285182Y-64599192D01*
X133151932Y-64349899D01*
X132972608Y-64131392D01*
X132754101Y-63952068D01*
X132504808Y-63818818D01*
X132234309Y-63736764D01*
X132023492Y-63716000D01*
X131882508Y-63716000D01*
X131671691Y-63736764D01*
X131401192Y-63818818D01*
X131151899Y-63952068D01*
X130933392Y-64131392D01*
X130754068Y-64349899D01*
X130620818Y-64599192D01*
X130538764Y-64869691D01*
X130511057Y-65151000D01*
X123228000Y-65151000D01*
X123228000Y-65009665D01*
X123172853Y-64732426D01*
X123064680Y-64471273D01*
X122907637Y-64236241D01*
X122707759Y-64036363D01*
X122472727Y-63879320D01*
X122211574Y-63771147D01*
X121934335Y-63716000D01*
X121651665Y-63716000D01*
X121374426Y-63771147D01*
X121113273Y-63879320D01*
X120878241Y-64036363D01*
X120678363Y-64236241D01*
X120521320Y-64471273D01*
X120519350Y-64476029D01*
X120451932Y-64349899D01*
X120272608Y-64131392D01*
X120054101Y-63952068D01*
X119804808Y-63818818D01*
X119534309Y-63736764D01*
X119323492Y-63716000D01*
X119182508Y-63716000D01*
X118971691Y-63736764D01*
X118701192Y-63818818D01*
X118451899Y-63952068D01*
X118233392Y-64131392D01*
X118054068Y-64349899D01*
X117920818Y-64599192D01*
X117838764Y-64869691D01*
X117811057Y-65151000D01*
X116375478Y-65151000D01*
X116251603Y-65027125D01*
X115877353Y-64777059D01*
X115461510Y-64604811D01*
X115020053Y-64517000D01*
X114569947Y-64517000D01*
X114128490Y-64604811D01*
X113712647Y-64777059D01*
X113338397Y-65027125D01*
X113020125Y-65345397D01*
X112770059Y-65719647D01*
X112597811Y-66135490D01*
X112510000Y-66576947D01*
X109279846Y-66576947D01*
X109511574Y-66530853D01*
X109772727Y-66422680D01*
X110007759Y-66265637D01*
X110207637Y-66065759D01*
X110364680Y-65830727D01*
X110472853Y-65569574D01*
X110528000Y-65292335D01*
X110528000Y-65009665D01*
X110472853Y-64732426D01*
X110364680Y-64471273D01*
X110207637Y-64236241D01*
X110007759Y-64036363D01*
X109772727Y-63879320D01*
X109511574Y-63771147D01*
X109234335Y-63716000D01*
X108951665Y-63716000D01*
X108674426Y-63771147D01*
X108413273Y-63879320D01*
X108178241Y-64036363D01*
X107978363Y-64236241D01*
X107821320Y-64471273D01*
X107713147Y-64732426D01*
X107658000Y-65009665D01*
X103330819Y-65009665D01*
X103395236Y-64797309D01*
X103422943Y-64516000D01*
X103395236Y-64234691D01*
X103313182Y-63964192D01*
X103179932Y-63714899D01*
X103000608Y-63496392D01*
X102782101Y-63317068D01*
X102532808Y-63183818D01*
X102262309Y-63101764D01*
X102051492Y-63081000D01*
X101910508Y-63081000D01*
X101699691Y-63101764D01*
X101429192Y-63183818D01*
X101179899Y-63317068D01*
X100961392Y-63496392D01*
X100782068Y-63714899D01*
X100648818Y-63964192D01*
X100566764Y-64234691D01*
X100539057Y-64516000D01*
X93256000Y-64516000D01*
X93256000Y-64374665D01*
X93200853Y-64097426D01*
X93092680Y-63836273D01*
X92935637Y-63601241D01*
X92735759Y-63401363D01*
X92500727Y-63244320D01*
X92239574Y-63136147D01*
X91962335Y-63081000D01*
X91679665Y-63081000D01*
X91402426Y-63136147D01*
X91141273Y-63244320D01*
X90906241Y-63401363D01*
X90706363Y-63601241D01*
X90549320Y-63836273D01*
X90441147Y-64097426D01*
X90386000Y-64374665D01*
X85470600Y-64374665D01*
X85470600Y-62469665D01*
X86195000Y-62469665D01*
X86195000Y-62752335D01*
X86250147Y-63029574D01*
X86358320Y-63290727D01*
X86515363Y-63525759D01*
X86715241Y-63725637D01*
X86950273Y-63882680D01*
X87211426Y-63990853D01*
X87488665Y-64046000D01*
X87771335Y-64046000D01*
X88048574Y-63990853D01*
X88309727Y-63882680D01*
X88544759Y-63725637D01*
X88744637Y-63525759D01*
X88901680Y-63290727D01*
X89009853Y-63029574D01*
X89065000Y-62752335D01*
X89065000Y-62469665D01*
X89009853Y-62192426D01*
X88901680Y-61931273D01*
X88744637Y-61696241D01*
X88544759Y-61496363D01*
X88309727Y-61339320D01*
X88048574Y-61231147D01*
X87890306Y-61199665D01*
X90386000Y-61199665D01*
X90386000Y-61482335D01*
X90441147Y-61759574D01*
X90549320Y-62020727D01*
X90706363Y-62255759D01*
X90906241Y-62455637D01*
X91141273Y-62612680D01*
X91402426Y-62720853D01*
X91679665Y-62776000D01*
X91962335Y-62776000D01*
X92239574Y-62720853D01*
X92500727Y-62612680D01*
X92735759Y-62455637D01*
X92935637Y-62255759D01*
X93092680Y-62020727D01*
X93200853Y-61759574D01*
X93256000Y-61482335D01*
X93256000Y-61341000D01*
X100539057Y-61341000D01*
X100566764Y-61622309D01*
X100648818Y-61892808D01*
X100782068Y-62142101D01*
X100961392Y-62360608D01*
X101179899Y-62539932D01*
X101429192Y-62673182D01*
X101699691Y-62755236D01*
X101910508Y-62776000D01*
X102051492Y-62776000D01*
X102262309Y-62755236D01*
X102532808Y-62673182D01*
X102782101Y-62539932D01*
X103000608Y-62360608D01*
X103179932Y-62142101D01*
X103313182Y-61892808D01*
X103395236Y-61622309D01*
X103422943Y-61341000D01*
X103395236Y-61059691D01*
X103364996Y-60960000D01*
X103460057Y-60960000D01*
X103487764Y-61241309D01*
X103569818Y-61511808D01*
X103703068Y-61761101D01*
X103882392Y-61979608D01*
X104100899Y-62158932D01*
X104350192Y-62292182D01*
X104620691Y-62374236D01*
X104831508Y-62395000D01*
X104972492Y-62395000D01*
X105183309Y-62374236D01*
X105453808Y-62292182D01*
X105703101Y-62158932D01*
X105921608Y-61979608D01*
X106100932Y-61761101D01*
X106234182Y-61511808D01*
X106316236Y-61241309D01*
X106343943Y-60960000D01*
X106330023Y-60818665D01*
X113627000Y-60818665D01*
X113627000Y-61101335D01*
X113682147Y-61378574D01*
X113790320Y-61639727D01*
X113947363Y-61874759D01*
X114147241Y-62074637D01*
X114382273Y-62231680D01*
X114643426Y-62339853D01*
X114920665Y-62395000D01*
X115203335Y-62395000D01*
X115480574Y-62339853D01*
X115741727Y-62231680D01*
X115976759Y-62074637D01*
X116176637Y-61874759D01*
X116333680Y-61639727D01*
X116441853Y-61378574D01*
X116497000Y-61101335D01*
X116497000Y-60960000D01*
X117684057Y-60960000D01*
X117711764Y-61241309D01*
X117793818Y-61511808D01*
X117927068Y-61761101D01*
X118106392Y-61979608D01*
X118324899Y-62158932D01*
X118574192Y-62292182D01*
X118844691Y-62374236D01*
X119055508Y-62395000D01*
X119196492Y-62395000D01*
X119407309Y-62374236D01*
X119677808Y-62292182D01*
X119927101Y-62158932D01*
X120145608Y-61979608D01*
X120324932Y-61761101D01*
X120325520Y-61760000D01*
X125307928Y-61760000D01*
X125320188Y-61884482D01*
X125356498Y-62004180D01*
X125415463Y-62114494D01*
X125494815Y-62211185D01*
X125591506Y-62290537D01*
X125701820Y-62349502D01*
X125821518Y-62385812D01*
X125946000Y-62398072D01*
X126460250Y-62395000D01*
X126619000Y-62236250D01*
X126619000Y-61087000D01*
X126873000Y-61087000D01*
X126873000Y-62236250D01*
X127031750Y-62395000D01*
X127546000Y-62398072D01*
X127670482Y-62385812D01*
X127790180Y-62349502D01*
X127900494Y-62290537D01*
X127997185Y-62211185D01*
X128076537Y-62114494D01*
X128135502Y-62004180D01*
X128171812Y-61884482D01*
X128184072Y-61760000D01*
X128181000Y-61245750D01*
X128022250Y-61087000D01*
X126873000Y-61087000D01*
X126619000Y-61087000D01*
X125469750Y-61087000D01*
X125311000Y-61245750D01*
X125307928Y-61760000D01*
X120325520Y-61760000D01*
X120458182Y-61511808D01*
X120540236Y-61241309D01*
X120567943Y-60960000D01*
X132162057Y-60960000D01*
X132189764Y-61241309D01*
X132271818Y-61511808D01*
X132405068Y-61761101D01*
X132584392Y-61979608D01*
X132802899Y-62158932D01*
X133052192Y-62292182D01*
X133322691Y-62374236D01*
X133533508Y-62395000D01*
X133674492Y-62395000D01*
X133885309Y-62374236D01*
X134155808Y-62292182D01*
X134405101Y-62158932D01*
X134623608Y-61979608D01*
X134802932Y-61761101D01*
X134803520Y-61760000D01*
X139785928Y-61760000D01*
X139798188Y-61884482D01*
X139834498Y-62004180D01*
X139893463Y-62114494D01*
X139972815Y-62211185D01*
X140069506Y-62290537D01*
X140179820Y-62349502D01*
X140299518Y-62385812D01*
X140424000Y-62398072D01*
X140938250Y-62395000D01*
X141097000Y-62236250D01*
X141097000Y-61087000D01*
X141351000Y-61087000D01*
X141351000Y-62236250D01*
X141509750Y-62395000D01*
X142024000Y-62398072D01*
X142148482Y-62385812D01*
X142268180Y-62349502D01*
X142378494Y-62290537D01*
X142475185Y-62211185D01*
X142554537Y-62114494D01*
X142613502Y-62004180D01*
X142649812Y-61884482D01*
X142662072Y-61760000D01*
X142659000Y-61245750D01*
X142500250Y-61087000D01*
X141351000Y-61087000D01*
X141097000Y-61087000D01*
X139947750Y-61087000D01*
X139789000Y-61245750D01*
X139785928Y-61760000D01*
X134803520Y-61760000D01*
X134936182Y-61511808D01*
X135018236Y-61241309D01*
X135045943Y-60960000D01*
X135018236Y-60678691D01*
X134936182Y-60408192D01*
X134802932Y-60158899D01*
X134623608Y-59940392D01*
X134405101Y-59761068D01*
X134267318Y-59687421D01*
X134459131Y-59572385D01*
X134667519Y-59383414D01*
X134835037Y-59157420D01*
X134955246Y-58903087D01*
X134995904Y-58769039D01*
X134873915Y-58547000D01*
X133731000Y-58547000D01*
X133731000Y-58567000D01*
X133477000Y-58567000D01*
X133477000Y-58547000D01*
X132334085Y-58547000D01*
X132212096Y-58769039D01*
X132252754Y-58903087D01*
X132372963Y-59157420D01*
X132540481Y-59383414D01*
X132748869Y-59572385D01*
X132940682Y-59687421D01*
X132802899Y-59761068D01*
X132584392Y-59940392D01*
X132405068Y-60158899D01*
X132271818Y-60408192D01*
X132189764Y-60678691D01*
X132162057Y-60960000D01*
X120567943Y-60960000D01*
X120540236Y-60678691D01*
X120458182Y-60408192D01*
X120324932Y-60158899D01*
X120145608Y-59940392D01*
X119927101Y-59761068D01*
X119789318Y-59687421D01*
X119981131Y-59572385D01*
X120189519Y-59383414D01*
X120357037Y-59157420D01*
X120477246Y-58903087D01*
X120517904Y-58769039D01*
X120395915Y-58547000D01*
X119253000Y-58547000D01*
X119253000Y-58567000D01*
X118999000Y-58567000D01*
X118999000Y-58547000D01*
X117856085Y-58547000D01*
X117734096Y-58769039D01*
X117774754Y-58903087D01*
X117894963Y-59157420D01*
X118062481Y-59383414D01*
X118270869Y-59572385D01*
X118462682Y-59687421D01*
X118324899Y-59761068D01*
X118106392Y-59940392D01*
X117927068Y-60158899D01*
X117793818Y-60408192D01*
X117711764Y-60678691D01*
X117684057Y-60960000D01*
X116497000Y-60960000D01*
X116497000Y-60818665D01*
X116441853Y-60541426D01*
X116333680Y-60280273D01*
X116176637Y-60045241D01*
X115976759Y-59845363D01*
X115741727Y-59688320D01*
X115480574Y-59580147D01*
X115203335Y-59525000D01*
X114920665Y-59525000D01*
X114643426Y-59580147D01*
X114382273Y-59688320D01*
X114147241Y-59845363D01*
X113947363Y-60045241D01*
X113790320Y-60280273D01*
X113682147Y-60541426D01*
X113627000Y-60818665D01*
X106330023Y-60818665D01*
X106316236Y-60678691D01*
X106234182Y-60408192D01*
X106100932Y-60158899D01*
X105921608Y-59940392D01*
X105703101Y-59761068D01*
X105453808Y-59627818D01*
X105183309Y-59545764D01*
X104972492Y-59525000D01*
X104831508Y-59525000D01*
X104620691Y-59545764D01*
X104350192Y-59627818D01*
X104100899Y-59761068D01*
X103882392Y-59940392D01*
X103703068Y-60158899D01*
X103569818Y-60408192D01*
X103487764Y-60678691D01*
X103460057Y-60960000D01*
X103364996Y-60960000D01*
X103313182Y-60789192D01*
X103179932Y-60539899D01*
X103000608Y-60321392D01*
X102782101Y-60142068D01*
X102532808Y-60008818D01*
X102262309Y-59926764D01*
X102051492Y-59906000D01*
X101910508Y-59906000D01*
X101699691Y-59926764D01*
X101429192Y-60008818D01*
X101179899Y-60142068D01*
X100961392Y-60321392D01*
X100782068Y-60539899D01*
X100648818Y-60789192D01*
X100566764Y-61059691D01*
X100539057Y-61341000D01*
X93256000Y-61341000D01*
X93256000Y-61199665D01*
X93200853Y-60922426D01*
X93092680Y-60661273D01*
X92935637Y-60426241D01*
X92735759Y-60226363D01*
X92500727Y-60069320D01*
X92239574Y-59961147D01*
X91962335Y-59906000D01*
X91679665Y-59906000D01*
X91402426Y-59961147D01*
X91141273Y-60069320D01*
X90906241Y-60226363D01*
X90706363Y-60426241D01*
X90549320Y-60661273D01*
X90441147Y-60922426D01*
X90386000Y-61199665D01*
X87890306Y-61199665D01*
X87771335Y-61176000D01*
X87488665Y-61176000D01*
X87211426Y-61231147D01*
X86950273Y-61339320D01*
X86715241Y-61496363D01*
X86515363Y-61696241D01*
X86358320Y-61931273D01*
X86250147Y-62192426D01*
X86195000Y-62469665D01*
X85470600Y-62469665D01*
X85470600Y-58603702D01*
X86816903Y-58603702D01*
X86888486Y-58847671D01*
X87143996Y-58968571D01*
X87418184Y-59037300D01*
X87700512Y-59051217D01*
X87980130Y-59009787D01*
X88246292Y-58914603D01*
X88371514Y-58847671D01*
X88443097Y-58603702D01*
X87630000Y-57790605D01*
X86816903Y-58603702D01*
X85470600Y-58603702D01*
X85470600Y-57681512D01*
X86189783Y-57681512D01*
X86231213Y-57961130D01*
X86326397Y-58227292D01*
X86393329Y-58352514D01*
X86637298Y-58424097D01*
X87450395Y-57611000D01*
X87809605Y-57611000D01*
X88622702Y-58424097D01*
X88866671Y-58352514D01*
X88987571Y-58097004D01*
X89056300Y-57822816D01*
X89070217Y-57540488D01*
X89028787Y-57260870D01*
X88938595Y-57008665D01*
X91783000Y-57008665D01*
X91783000Y-57291335D01*
X91838147Y-57568574D01*
X91946320Y-57829727D01*
X92103363Y-58064759D01*
X92303241Y-58264637D01*
X92538273Y-58421680D01*
X92799426Y-58529853D01*
X93076665Y-58585000D01*
X93359335Y-58585000D01*
X93636574Y-58529853D01*
X93897727Y-58421680D01*
X94132759Y-58264637D01*
X94332637Y-58064759D01*
X94489680Y-57829727D01*
X94597853Y-57568574D01*
X94653000Y-57291335D01*
X94653000Y-57150000D01*
X101936057Y-57150000D01*
X101963764Y-57431309D01*
X102045818Y-57701808D01*
X102179068Y-57951101D01*
X102358392Y-58169608D01*
X102576899Y-58348932D01*
X102826192Y-58482182D01*
X103096691Y-58564236D01*
X103307508Y-58585000D01*
X103448492Y-58585000D01*
X103659309Y-58564236D01*
X103929808Y-58482182D01*
X104179101Y-58348932D01*
X104397608Y-58169608D01*
X104516559Y-58024665D01*
X105499000Y-58024665D01*
X105499000Y-58307335D01*
X105554147Y-58584574D01*
X105662320Y-58845727D01*
X105819363Y-59080759D01*
X106019241Y-59280637D01*
X106254273Y-59437680D01*
X106515426Y-59545853D01*
X106792665Y-59601000D01*
X107075335Y-59601000D01*
X107352574Y-59545853D01*
X107613727Y-59437680D01*
X107848759Y-59280637D01*
X108048637Y-59080759D01*
X108205680Y-58845727D01*
X108313853Y-58584574D01*
X108369000Y-58307335D01*
X108369000Y-58024665D01*
X108313853Y-57747426D01*
X108205680Y-57486273D01*
X108048637Y-57251241D01*
X107848759Y-57051363D01*
X107613727Y-56894320D01*
X107352574Y-56786147D01*
X107075335Y-56731000D01*
X106792665Y-56731000D01*
X106515426Y-56786147D01*
X106254273Y-56894320D01*
X106019241Y-57051363D01*
X105819363Y-57251241D01*
X105662320Y-57486273D01*
X105554147Y-57747426D01*
X105499000Y-58024665D01*
X104516559Y-58024665D01*
X104576932Y-57951101D01*
X104710182Y-57701808D01*
X104792236Y-57431309D01*
X104819943Y-57150000D01*
X104792236Y-56868691D01*
X104710182Y-56598192D01*
X104576932Y-56348899D01*
X104397608Y-56130392D01*
X104179101Y-55951068D01*
X103929808Y-55817818D01*
X103716130Y-55753000D01*
X109607388Y-55753000D01*
X109629785Y-55980400D01*
X109696115Y-56199060D01*
X109797105Y-56388000D01*
X109696115Y-56576940D01*
X109629785Y-56795600D01*
X109607388Y-57023000D01*
X109629785Y-57250400D01*
X109696115Y-57469060D01*
X109803829Y-57670579D01*
X109948788Y-57847212D01*
X110125421Y-57992171D01*
X110326940Y-58099885D01*
X110545600Y-58166215D01*
X110716021Y-58183000D01*
X111279979Y-58183000D01*
X111450400Y-58166215D01*
X111669060Y-58099885D01*
X111870579Y-57992171D01*
X112047212Y-57847212D01*
X112192171Y-57670579D01*
X112299885Y-57469060D01*
X112366215Y-57250400D01*
X112388612Y-57023000D01*
X112366215Y-56795600D01*
X112299885Y-56576940D01*
X112198895Y-56388000D01*
X112299885Y-56199060D01*
X112366215Y-55980400D01*
X112388612Y-55753000D01*
X112366215Y-55525600D01*
X112302907Y-55316902D01*
X112337502Y-55252180D01*
X112373812Y-55132482D01*
X112386072Y-55008000D01*
X112383000Y-54768750D01*
X112224250Y-54610000D01*
X111451109Y-54610000D01*
X111450400Y-54609785D01*
X111279979Y-54593000D01*
X110716021Y-54593000D01*
X110545600Y-54609785D01*
X110544891Y-54610000D01*
X109771750Y-54610000D01*
X109613000Y-54768750D01*
X109609928Y-55008000D01*
X109622188Y-55132482D01*
X109658498Y-55252180D01*
X109693093Y-55316902D01*
X109629785Y-55525600D01*
X109607388Y-55753000D01*
X103716130Y-55753000D01*
X103659309Y-55735764D01*
X103448492Y-55715000D01*
X103307508Y-55715000D01*
X103096691Y-55735764D01*
X102826192Y-55817818D01*
X102576899Y-55951068D01*
X102358392Y-56130392D01*
X102179068Y-56348899D01*
X102045818Y-56598192D01*
X101963764Y-56868691D01*
X101936057Y-57150000D01*
X94653000Y-57150000D01*
X94653000Y-57008665D01*
X94597853Y-56731426D01*
X94489680Y-56470273D01*
X94332637Y-56235241D01*
X94132759Y-56035363D01*
X93897727Y-55878320D01*
X93636574Y-55770147D01*
X93359335Y-55715000D01*
X93076665Y-55715000D01*
X92799426Y-55770147D01*
X92538273Y-55878320D01*
X92303241Y-56035363D01*
X92103363Y-56235241D01*
X91946320Y-56470273D01*
X91838147Y-56731426D01*
X91783000Y-57008665D01*
X88938595Y-57008665D01*
X88933603Y-56994708D01*
X88866671Y-56869486D01*
X88622702Y-56797903D01*
X87809605Y-57611000D01*
X87450395Y-57611000D01*
X86637298Y-56797903D01*
X86393329Y-56869486D01*
X86272429Y-57124996D01*
X86203700Y-57399184D01*
X86189783Y-57681512D01*
X85470600Y-57681512D01*
X85470600Y-56618298D01*
X86816903Y-56618298D01*
X87630000Y-57431395D01*
X88443097Y-56618298D01*
X88371514Y-56374329D01*
X88116004Y-56253429D01*
X87841816Y-56184700D01*
X87559488Y-56170783D01*
X87279870Y-56212213D01*
X87013708Y-56307397D01*
X86888486Y-56374329D01*
X86816903Y-56618298D01*
X85470600Y-56618298D01*
X85470600Y-54341665D01*
X89116000Y-54341665D01*
X89116000Y-54624335D01*
X89171147Y-54901574D01*
X89279320Y-55162727D01*
X89436363Y-55397759D01*
X89636241Y-55597637D01*
X89871273Y-55754680D01*
X90132426Y-55862853D01*
X90409665Y-55918000D01*
X90692335Y-55918000D01*
X90969574Y-55862853D01*
X91230727Y-55754680D01*
X91465759Y-55597637D01*
X91665637Y-55397759D01*
X91822680Y-55162727D01*
X91930853Y-54901574D01*
X91986000Y-54624335D01*
X91986000Y-54341665D01*
X91930853Y-54064426D01*
X91822680Y-53803273D01*
X91665637Y-53568241D01*
X91465759Y-53368363D01*
X91230727Y-53211320D01*
X90969574Y-53103147D01*
X90692335Y-53048000D01*
X90409665Y-53048000D01*
X90132426Y-53103147D01*
X89871273Y-53211320D01*
X89636241Y-53368363D01*
X89436363Y-53568241D01*
X89279320Y-53803273D01*
X89171147Y-54064426D01*
X89116000Y-54341665D01*
X85470600Y-54341665D01*
X85470600Y-52947413D01*
X86674192Y-52947413D01*
X86769956Y-53211814D01*
X87059571Y-53352704D01*
X87371108Y-53434384D01*
X87692595Y-53453718D01*
X88011675Y-53409961D01*
X88316088Y-53304795D01*
X88490044Y-53211814D01*
X88585808Y-52947413D01*
X87630000Y-51991605D01*
X86674192Y-52947413D01*
X85470600Y-52947413D01*
X85470600Y-51874595D01*
X85988282Y-51874595D01*
X86032039Y-52193675D01*
X86137205Y-52498088D01*
X86230186Y-52672044D01*
X86494587Y-52767808D01*
X87450395Y-51812000D01*
X87809605Y-51812000D01*
X88765413Y-52767808D01*
X89029814Y-52672044D01*
X89170704Y-52382429D01*
X89252384Y-52070892D01*
X89271718Y-51749405D01*
X89227961Y-51430325D01*
X89122795Y-51125912D01*
X89029814Y-50951956D01*
X88765413Y-50856192D01*
X87809605Y-51812000D01*
X87450395Y-51812000D01*
X86494587Y-50856192D01*
X86230186Y-50951956D01*
X86089296Y-51241571D01*
X86007616Y-51553108D01*
X85988282Y-51874595D01*
X85470600Y-51874595D01*
X85470600Y-50676587D01*
X86674192Y-50676587D01*
X87630000Y-51632395D01*
X88585808Y-50676587D01*
X88490044Y-50412186D01*
X88200429Y-50271296D01*
X87888892Y-50189616D01*
X87567405Y-50170282D01*
X87248325Y-50214039D01*
X86943912Y-50319205D01*
X86769956Y-50412186D01*
X86674192Y-50676587D01*
X85470600Y-50676587D01*
X85470600Y-44323000D01*
X89109057Y-44323000D01*
X89136764Y-44604309D01*
X89218818Y-44874808D01*
X89352068Y-45124101D01*
X89531392Y-45342608D01*
X89749899Y-45521932D01*
X89999192Y-45655182D01*
X90269691Y-45737236D01*
X90480508Y-45758000D01*
X90621492Y-45758000D01*
X90832309Y-45737236D01*
X91102808Y-45655182D01*
X91352101Y-45521932D01*
X91420254Y-45466000D01*
X93046057Y-45466000D01*
X93073764Y-45747309D01*
X93155818Y-46017808D01*
X93289068Y-46267101D01*
X93468392Y-46485608D01*
X93686899Y-46664932D01*
X93819858Y-46736000D01*
X93686899Y-46807068D01*
X93468392Y-46986392D01*
X93289068Y-47204899D01*
X93155818Y-47454192D01*
X93073764Y-47724691D01*
X93046057Y-48006000D01*
X93073764Y-48287309D01*
X93155818Y-48557808D01*
X93289068Y-48807101D01*
X93468392Y-49025608D01*
X93686899Y-49204932D01*
X93819858Y-49276000D01*
X93686899Y-49347068D01*
X93468392Y-49526392D01*
X93289068Y-49744899D01*
X93155818Y-49994192D01*
X93073764Y-50264691D01*
X93046057Y-50546000D01*
X93073764Y-50827309D01*
X93155818Y-51097808D01*
X93289068Y-51347101D01*
X93468392Y-51565608D01*
X93686899Y-51744932D01*
X93819858Y-51816000D01*
X93686899Y-51887068D01*
X93468392Y-52066392D01*
X93289068Y-52284899D01*
X93155818Y-52534192D01*
X93073764Y-52804691D01*
X93046057Y-53086000D01*
X93073764Y-53367309D01*
X93155818Y-53637808D01*
X93289068Y-53887101D01*
X93468392Y-54105608D01*
X93686899Y-54284932D01*
X93936192Y-54418182D01*
X94206691Y-54500236D01*
X94417508Y-54521000D01*
X94558492Y-54521000D01*
X94769309Y-54500236D01*
X95039808Y-54418182D01*
X95289101Y-54284932D01*
X95507608Y-54105608D01*
X95686932Y-53887101D01*
X95687520Y-53886000D01*
X100669928Y-53886000D01*
X100682188Y-54010482D01*
X100718498Y-54130180D01*
X100777463Y-54240494D01*
X100856815Y-54337185D01*
X100953506Y-54416537D01*
X101063820Y-54475502D01*
X101183518Y-54511812D01*
X101308000Y-54524072D01*
X101822250Y-54521000D01*
X101981000Y-54362250D01*
X101981000Y-53213000D01*
X102235000Y-53213000D01*
X102235000Y-54362250D01*
X102393750Y-54521000D01*
X102908000Y-54524072D01*
X103032482Y-54511812D01*
X103152180Y-54475502D01*
X103262494Y-54416537D01*
X103359185Y-54337185D01*
X103438537Y-54240494D01*
X103497502Y-54130180D01*
X103533812Y-54010482D01*
X103538980Y-53958000D01*
X109609928Y-53958000D01*
X109613000Y-54197250D01*
X109771750Y-54356000D01*
X110871000Y-54356000D01*
X110871000Y-53481750D01*
X111125000Y-53481750D01*
X111125000Y-54356000D01*
X112224250Y-54356000D01*
X112383000Y-54197250D01*
X112386072Y-53958000D01*
X112373812Y-53833518D01*
X112337502Y-53713820D01*
X112278537Y-53603506D01*
X112199185Y-53506815D01*
X112102494Y-53427463D01*
X111992180Y-53368498D01*
X111872482Y-53332188D01*
X111748000Y-53319928D01*
X111283750Y-53323000D01*
X111125000Y-53481750D01*
X110871000Y-53481750D01*
X110712250Y-53323000D01*
X110248000Y-53319928D01*
X110123518Y-53332188D01*
X110003820Y-53368498D01*
X109893506Y-53427463D01*
X109796815Y-53506815D01*
X109717463Y-53603506D01*
X109658498Y-53713820D01*
X109622188Y-53833518D01*
X109609928Y-53958000D01*
X103538980Y-53958000D01*
X103546072Y-53886000D01*
X103543000Y-53371750D01*
X103384250Y-53213000D01*
X102235000Y-53213000D01*
X101981000Y-53213000D01*
X100831750Y-53213000D01*
X100673000Y-53371750D01*
X100669928Y-53886000D01*
X95687520Y-53886000D01*
X95820182Y-53637808D01*
X95902236Y-53367309D01*
X95929943Y-53086000D01*
X95902236Y-52804691D01*
X95820182Y-52534192D01*
X95686932Y-52284899D01*
X95507608Y-52066392D01*
X95289101Y-51887068D01*
X95156142Y-51816000D01*
X95289101Y-51744932D01*
X95507608Y-51565608D01*
X95686932Y-51347101D01*
X95820182Y-51097808D01*
X95902236Y-50827309D01*
X95929943Y-50546000D01*
X95902236Y-50264691D01*
X95820182Y-49994192D01*
X95686932Y-49744899D01*
X95507608Y-49526392D01*
X95289101Y-49347068D01*
X95156142Y-49276000D01*
X95289101Y-49204932D01*
X95507608Y-49025608D01*
X95686932Y-48807101D01*
X95820182Y-48557808D01*
X95902236Y-48287309D01*
X95929943Y-48006000D01*
X95902236Y-47724691D01*
X95820182Y-47454192D01*
X95686932Y-47204899D01*
X95507608Y-46986392D01*
X95289101Y-46807068D01*
X95156142Y-46736000D01*
X95289101Y-46664932D01*
X95507608Y-46485608D01*
X95686932Y-46267101D01*
X95820182Y-46017808D01*
X95902236Y-45747309D01*
X95929943Y-45466000D01*
X100666057Y-45466000D01*
X100693764Y-45747309D01*
X100775818Y-46017808D01*
X100909068Y-46267101D01*
X101088392Y-46485608D01*
X101306899Y-46664932D01*
X101439858Y-46736000D01*
X101306899Y-46807068D01*
X101088392Y-46986392D01*
X100909068Y-47204899D01*
X100775818Y-47454192D01*
X100693764Y-47724691D01*
X100666057Y-48006000D01*
X100693764Y-48287309D01*
X100775818Y-48557808D01*
X100909068Y-48807101D01*
X101088392Y-49025608D01*
X101306899Y-49204932D01*
X101439858Y-49276000D01*
X101306899Y-49347068D01*
X101088392Y-49526392D01*
X100909068Y-49744899D01*
X100775818Y-49994192D01*
X100693764Y-50264691D01*
X100666057Y-50546000D01*
X100693764Y-50827309D01*
X100775818Y-51097808D01*
X100909068Y-51347101D01*
X101088392Y-51565608D01*
X101201482Y-51658419D01*
X101183518Y-51660188D01*
X101063820Y-51696498D01*
X100953506Y-51755463D01*
X100856815Y-51834815D01*
X100777463Y-51931506D01*
X100718498Y-52041820D01*
X100682188Y-52161518D01*
X100669928Y-52286000D01*
X100673000Y-52800250D01*
X100831750Y-52959000D01*
X101981000Y-52959000D01*
X101981000Y-52939000D01*
X102235000Y-52939000D01*
X102235000Y-52959000D01*
X103384250Y-52959000D01*
X103543000Y-52800250D01*
X103546072Y-52286000D01*
X103533812Y-52161518D01*
X103497502Y-52041820D01*
X103438537Y-51931506D01*
X103359185Y-51834815D01*
X103262494Y-51755463D01*
X103152180Y-51696498D01*
X103032482Y-51660188D01*
X103014518Y-51658419D01*
X103101606Y-51586947D01*
X112510000Y-51586947D01*
X112510000Y-52037053D01*
X112597811Y-52478510D01*
X112770059Y-52894353D01*
X113020125Y-53268603D01*
X113338397Y-53586875D01*
X113712647Y-53836941D01*
X114128490Y-54009189D01*
X114569947Y-54097000D01*
X115020053Y-54097000D01*
X115461510Y-54009189D01*
X115877353Y-53836941D01*
X116251603Y-53586875D01*
X116498478Y-53340000D01*
X117684057Y-53340000D01*
X117711764Y-53621309D01*
X117793818Y-53891808D01*
X117927068Y-54141101D01*
X118106392Y-54359608D01*
X118324899Y-54538932D01*
X118457858Y-54610000D01*
X118324899Y-54681068D01*
X118106392Y-54860392D01*
X117927068Y-55078899D01*
X117793818Y-55328192D01*
X117711764Y-55598691D01*
X117684057Y-55880000D01*
X117711764Y-56161309D01*
X117793818Y-56431808D01*
X117927068Y-56681101D01*
X118106392Y-56899608D01*
X118324899Y-57078932D01*
X118462682Y-57152579D01*
X118270869Y-57267615D01*
X118062481Y-57456586D01*
X117894963Y-57682580D01*
X117774754Y-57936913D01*
X117734096Y-58070961D01*
X117856085Y-58293000D01*
X118999000Y-58293000D01*
X118999000Y-58273000D01*
X119253000Y-58273000D01*
X119253000Y-58293000D01*
X120395915Y-58293000D01*
X120517904Y-58070961D01*
X120477246Y-57936913D01*
X120357037Y-57682580D01*
X120189519Y-57456586D01*
X119981131Y-57267615D01*
X119789318Y-57152579D01*
X119927101Y-57078932D01*
X120145608Y-56899608D01*
X120324932Y-56681101D01*
X120458182Y-56431808D01*
X120540236Y-56161309D01*
X120567943Y-55880000D01*
X125304057Y-55880000D01*
X125331764Y-56161309D01*
X125413818Y-56431808D01*
X125547068Y-56681101D01*
X125726392Y-56899608D01*
X125944899Y-57078932D01*
X126077858Y-57150000D01*
X125944899Y-57221068D01*
X125726392Y-57400392D01*
X125547068Y-57618899D01*
X125413818Y-57868192D01*
X125331764Y-58138691D01*
X125304057Y-58420000D01*
X125331764Y-58701309D01*
X125413818Y-58971808D01*
X125547068Y-59221101D01*
X125726392Y-59439608D01*
X125839482Y-59532419D01*
X125821518Y-59534188D01*
X125701820Y-59570498D01*
X125591506Y-59629463D01*
X125494815Y-59708815D01*
X125415463Y-59805506D01*
X125356498Y-59915820D01*
X125320188Y-60035518D01*
X125307928Y-60160000D01*
X125311000Y-60674250D01*
X125469750Y-60833000D01*
X126619000Y-60833000D01*
X126619000Y-60813000D01*
X126873000Y-60813000D01*
X126873000Y-60833000D01*
X128022250Y-60833000D01*
X128181000Y-60674250D01*
X128184072Y-60160000D01*
X128171812Y-60035518D01*
X128135502Y-59915820D01*
X128076537Y-59805506D01*
X128062774Y-59788735D01*
X128635001Y-59788735D01*
X128635001Y-59978863D01*
X128672093Y-60165337D01*
X128744852Y-60340993D01*
X128850481Y-60499078D01*
X128984922Y-60633519D01*
X129143007Y-60739148D01*
X129318663Y-60811907D01*
X129505137Y-60848999D01*
X129695265Y-60848999D01*
X129881739Y-60811907D01*
X130057395Y-60739148D01*
X130215480Y-60633519D01*
X130349921Y-60499078D01*
X130455550Y-60340993D01*
X130528309Y-60165337D01*
X130565401Y-59978863D01*
X130565401Y-59924386D01*
X132285401Y-58204387D01*
X132334085Y-58293000D01*
X133477000Y-58293000D01*
X133477000Y-58273000D01*
X133731000Y-58273000D01*
X133731000Y-58293000D01*
X134873915Y-58293000D01*
X134995904Y-58070961D01*
X134955246Y-57936913D01*
X134835037Y-57682580D01*
X134667519Y-57456586D01*
X134459131Y-57267615D01*
X134267318Y-57152579D01*
X134405101Y-57078932D01*
X134623608Y-56899608D01*
X134802932Y-56681101D01*
X134936182Y-56431808D01*
X135018236Y-56161309D01*
X135045943Y-55880000D01*
X139782057Y-55880000D01*
X139809764Y-56161309D01*
X139891818Y-56431808D01*
X140025068Y-56681101D01*
X140204392Y-56899608D01*
X140422899Y-57078932D01*
X140555858Y-57150000D01*
X140422899Y-57221068D01*
X140204392Y-57400392D01*
X140025068Y-57618899D01*
X139891818Y-57868192D01*
X139809764Y-58138691D01*
X139782057Y-58420000D01*
X139809764Y-58701309D01*
X139891818Y-58971808D01*
X140025068Y-59221101D01*
X140204392Y-59439608D01*
X140317482Y-59532419D01*
X140299518Y-59534188D01*
X140179820Y-59570498D01*
X140069506Y-59629463D01*
X139972815Y-59708815D01*
X139893463Y-59805506D01*
X139834498Y-59915820D01*
X139798188Y-60035518D01*
X139785928Y-60160000D01*
X139789000Y-60674250D01*
X139947750Y-60833000D01*
X141097000Y-60833000D01*
X141097000Y-60813000D01*
X141351000Y-60813000D01*
X141351000Y-60833000D01*
X142500250Y-60833000D01*
X142659000Y-60674250D01*
X142662072Y-60160000D01*
X142649812Y-60035518D01*
X142613502Y-59915820D01*
X142554537Y-59805506D01*
X142475185Y-59708815D01*
X142378494Y-59629463D01*
X142268180Y-59570498D01*
X142148482Y-59534188D01*
X142130518Y-59532419D01*
X142243608Y-59439608D01*
X142422932Y-59221101D01*
X142556182Y-58971808D01*
X142638236Y-58701309D01*
X142665943Y-58420000D01*
X142638236Y-58138691D01*
X142556182Y-57868192D01*
X142422932Y-57618899D01*
X142243608Y-57400392D01*
X142025101Y-57221068D01*
X141892142Y-57150000D01*
X142025101Y-57078932D01*
X142243608Y-56899608D01*
X142422932Y-56681101D01*
X142556182Y-56431808D01*
X142638236Y-56161309D01*
X142665943Y-55880000D01*
X142638236Y-55598691D01*
X142556182Y-55328192D01*
X142422932Y-55078899D01*
X142243608Y-54860392D01*
X142025101Y-54681068D01*
X141887318Y-54607421D01*
X142079131Y-54492385D01*
X142287519Y-54303414D01*
X142455037Y-54077420D01*
X142575246Y-53823087D01*
X142615904Y-53689039D01*
X142493915Y-53467000D01*
X141351000Y-53467000D01*
X141351000Y-53487000D01*
X141097000Y-53487000D01*
X141097000Y-53467000D01*
X139954085Y-53467000D01*
X139832096Y-53689039D01*
X139872754Y-53823087D01*
X139992963Y-54077420D01*
X140160481Y-54303414D01*
X140368869Y-54492385D01*
X140560682Y-54607421D01*
X140422899Y-54681068D01*
X140204392Y-54860392D01*
X140025068Y-55078899D01*
X139891818Y-55328192D01*
X139809764Y-55598691D01*
X139782057Y-55880000D01*
X135045943Y-55880000D01*
X135018236Y-55598691D01*
X134936182Y-55328192D01*
X134802932Y-55078899D01*
X134623608Y-54860392D01*
X134405101Y-54681068D01*
X134267318Y-54607421D01*
X134459131Y-54492385D01*
X134667519Y-54303414D01*
X134835037Y-54077420D01*
X134955246Y-53823087D01*
X134995904Y-53689039D01*
X134873915Y-53467000D01*
X133731000Y-53467000D01*
X133731000Y-53487000D01*
X133477000Y-53487000D01*
X133477000Y-53467000D01*
X132334085Y-53467000D01*
X132212096Y-53689039D01*
X132252754Y-53823087D01*
X132372963Y-54077420D01*
X132540481Y-54303414D01*
X132748869Y-54492385D01*
X132940682Y-54607421D01*
X132802899Y-54681068D01*
X132584392Y-54860392D01*
X132405068Y-55078899D01*
X132271818Y-55328192D01*
X132189764Y-55598691D01*
X132162057Y-55880000D01*
X132185823Y-56121300D01*
X132175436Y-56121300D01*
X131988962Y-56158392D01*
X131813306Y-56231151D01*
X131655221Y-56336780D01*
X131520780Y-56471221D01*
X131415151Y-56629306D01*
X131342392Y-56804962D01*
X131305300Y-56991436D01*
X131305300Y-57172912D01*
X129559614Y-58918599D01*
X129505137Y-58918599D01*
X129318663Y-58955691D01*
X129143007Y-59028450D01*
X128984922Y-59134079D01*
X128850481Y-59268520D01*
X128744852Y-59426605D01*
X128672093Y-59602261D01*
X128635001Y-59788735D01*
X128062774Y-59788735D01*
X127997185Y-59708815D01*
X127900494Y-59629463D01*
X127790180Y-59570498D01*
X127670482Y-59534188D01*
X127652518Y-59532419D01*
X127765608Y-59439608D01*
X127944932Y-59221101D01*
X128078182Y-58971808D01*
X128160236Y-58701309D01*
X128187943Y-58420000D01*
X128160236Y-58138691D01*
X128078182Y-57868192D01*
X127944932Y-57618899D01*
X127765608Y-57400392D01*
X127547101Y-57221068D01*
X127414142Y-57150000D01*
X127547101Y-57078932D01*
X127765608Y-56899608D01*
X127944932Y-56681101D01*
X128078182Y-56431808D01*
X128160236Y-56161309D01*
X128187943Y-55880000D01*
X128160236Y-55598691D01*
X128078182Y-55328192D01*
X127944932Y-55078899D01*
X127765608Y-54860392D01*
X127547101Y-54681068D01*
X127409318Y-54607421D01*
X127601131Y-54492385D01*
X127809519Y-54303414D01*
X127977037Y-54077420D01*
X128097246Y-53823087D01*
X128137904Y-53689039D01*
X128015915Y-53467000D01*
X126873000Y-53467000D01*
X126873000Y-53487000D01*
X126619000Y-53487000D01*
X126619000Y-53467000D01*
X125476085Y-53467000D01*
X125354096Y-53689039D01*
X125394754Y-53823087D01*
X125514963Y-54077420D01*
X125682481Y-54303414D01*
X125890869Y-54492385D01*
X126082682Y-54607421D01*
X125944899Y-54681068D01*
X125726392Y-54860392D01*
X125547068Y-55078899D01*
X125413818Y-55328192D01*
X125331764Y-55598691D01*
X125304057Y-55880000D01*
X120567943Y-55880000D01*
X120540236Y-55598691D01*
X120458182Y-55328192D01*
X120324932Y-55078899D01*
X120145608Y-54860392D01*
X119927101Y-54681068D01*
X119794142Y-54610000D01*
X119927101Y-54538932D01*
X120145608Y-54359608D01*
X120324932Y-54141101D01*
X120458182Y-53891808D01*
X120540236Y-53621309D01*
X120567943Y-53340000D01*
X120540236Y-53058691D01*
X120458182Y-52788192D01*
X120324932Y-52538899D01*
X120145608Y-52320392D01*
X119927101Y-52141068D01*
X119789318Y-52067421D01*
X119981131Y-51952385D01*
X120189519Y-51763414D01*
X120357037Y-51537420D01*
X120477246Y-51283087D01*
X120517904Y-51149039D01*
X125354096Y-51149039D01*
X125394754Y-51283087D01*
X125514963Y-51537420D01*
X125682481Y-51763414D01*
X125890869Y-51952385D01*
X126086982Y-52070000D01*
X125890869Y-52187615D01*
X125682481Y-52376586D01*
X125514963Y-52602580D01*
X125394754Y-52856913D01*
X125354096Y-52990961D01*
X125476085Y-53213000D01*
X126619000Y-53213000D01*
X126619000Y-50927000D01*
X126873000Y-50927000D01*
X126873000Y-53213000D01*
X128015915Y-53213000D01*
X128137904Y-52990961D01*
X128097246Y-52856913D01*
X127977037Y-52602580D01*
X127809519Y-52376586D01*
X127601131Y-52187615D01*
X127405018Y-52070000D01*
X127601131Y-51952385D01*
X127809519Y-51763414D01*
X127977037Y-51537420D01*
X128097246Y-51283087D01*
X128137904Y-51149039D01*
X132212096Y-51149039D01*
X132252754Y-51283087D01*
X132372963Y-51537420D01*
X132540481Y-51763414D01*
X132748869Y-51952385D01*
X132944982Y-52070000D01*
X132748869Y-52187615D01*
X132540481Y-52376586D01*
X132372963Y-52602580D01*
X132252754Y-52856913D01*
X132212096Y-52990961D01*
X132334085Y-53213000D01*
X133477000Y-53213000D01*
X133477000Y-50927000D01*
X133731000Y-50927000D01*
X133731000Y-53213000D01*
X134873915Y-53213000D01*
X134995904Y-52990961D01*
X134955246Y-52856913D01*
X134835037Y-52602580D01*
X134667519Y-52376586D01*
X134459131Y-52187615D01*
X134263018Y-52070000D01*
X134459131Y-51952385D01*
X134667519Y-51763414D01*
X134835037Y-51537420D01*
X134955246Y-51283087D01*
X134995904Y-51149039D01*
X139832096Y-51149039D01*
X139872754Y-51283087D01*
X139992963Y-51537420D01*
X140160481Y-51763414D01*
X140368869Y-51952385D01*
X140564982Y-52070000D01*
X140368869Y-52187615D01*
X140160481Y-52376586D01*
X139992963Y-52602580D01*
X139872754Y-52856913D01*
X139832096Y-52990961D01*
X139954085Y-53213000D01*
X141097000Y-53213000D01*
X141097000Y-50927000D01*
X141351000Y-50927000D01*
X141351000Y-53213000D01*
X142493915Y-53213000D01*
X142615904Y-52990961D01*
X142575246Y-52856913D01*
X142455037Y-52602580D01*
X142287519Y-52376586D01*
X142079131Y-52187615D01*
X141883018Y-52070000D01*
X142079131Y-51952385D01*
X142287519Y-51763414D01*
X142455037Y-51537420D01*
X142575246Y-51283087D01*
X142615904Y-51149039D01*
X142493915Y-50927000D01*
X141351000Y-50927000D01*
X141097000Y-50927000D01*
X139954085Y-50927000D01*
X139832096Y-51149039D01*
X134995904Y-51149039D01*
X134873915Y-50927000D01*
X133731000Y-50927000D01*
X133477000Y-50927000D01*
X132334085Y-50927000D01*
X132212096Y-51149039D01*
X128137904Y-51149039D01*
X128015915Y-50927000D01*
X126873000Y-50927000D01*
X126619000Y-50927000D01*
X125476085Y-50927000D01*
X125354096Y-51149039D01*
X120517904Y-51149039D01*
X120395915Y-50927000D01*
X119253000Y-50927000D01*
X119253000Y-50947000D01*
X118999000Y-50947000D01*
X118999000Y-50927000D01*
X117856085Y-50927000D01*
X117734096Y-51149039D01*
X117774754Y-51283087D01*
X117894963Y-51537420D01*
X118062481Y-51763414D01*
X118270869Y-51952385D01*
X118462682Y-52067421D01*
X118324899Y-52141068D01*
X118106392Y-52320392D01*
X117927068Y-52538899D01*
X117793818Y-52788192D01*
X117711764Y-53058691D01*
X117684057Y-53340000D01*
X116498478Y-53340000D01*
X116569875Y-53268603D01*
X116819941Y-52894353D01*
X116992189Y-52478510D01*
X117080000Y-52037053D01*
X117080000Y-51586947D01*
X116992189Y-51145490D01*
X116819941Y-50729647D01*
X116569875Y-50355397D01*
X116251603Y-50037125D01*
X115877353Y-49787059D01*
X115461510Y-49614811D01*
X115020053Y-49527000D01*
X114569947Y-49527000D01*
X114128490Y-49614811D01*
X113712647Y-49787059D01*
X113338397Y-50037125D01*
X113020125Y-50355397D01*
X112770059Y-50729647D01*
X112597811Y-51145490D01*
X112510000Y-51586947D01*
X103101606Y-51586947D01*
X103127608Y-51565608D01*
X103306932Y-51347101D01*
X103440182Y-51097808D01*
X103522236Y-50827309D01*
X103549943Y-50546000D01*
X103522236Y-50264691D01*
X103440182Y-49994192D01*
X103306932Y-49744899D01*
X103127608Y-49526392D01*
X102909101Y-49347068D01*
X102776142Y-49276000D01*
X102909101Y-49204932D01*
X103127608Y-49025608D01*
X103306932Y-48807101D01*
X103440182Y-48557808D01*
X103522236Y-48287309D01*
X103549943Y-48006000D01*
X105492057Y-48006000D01*
X105519764Y-48287309D01*
X105601818Y-48557808D01*
X105735068Y-48807101D01*
X105914392Y-49025608D01*
X106132899Y-49204932D01*
X106382192Y-49338182D01*
X106652691Y-49420236D01*
X106863508Y-49441000D01*
X107004492Y-49441000D01*
X107215309Y-49420236D01*
X107485808Y-49338182D01*
X107735101Y-49204932D01*
X107953608Y-49025608D01*
X108132932Y-48807101D01*
X108266182Y-48557808D01*
X108348236Y-48287309D01*
X108375943Y-48006000D01*
X108348236Y-47724691D01*
X108344993Y-47714000D01*
X108543928Y-47714000D01*
X108543928Y-49314000D01*
X108556188Y-49438482D01*
X108592498Y-49558180D01*
X108651463Y-49668494D01*
X108730815Y-49765185D01*
X108827506Y-49844537D01*
X108937820Y-49903502D01*
X109057518Y-49939812D01*
X109182000Y-49952072D01*
X110782000Y-49952072D01*
X110906482Y-49939812D01*
X111026180Y-49903502D01*
X111136494Y-49844537D01*
X111233185Y-49765185D01*
X111312537Y-49668494D01*
X111371502Y-49558180D01*
X111387117Y-49506702D01*
X111668903Y-49506702D01*
X111740486Y-49750671D01*
X111995996Y-49871571D01*
X112270184Y-49940300D01*
X112552512Y-49954217D01*
X112832130Y-49912787D01*
X113098292Y-49817603D01*
X113223514Y-49750671D01*
X113295097Y-49506702D01*
X112482000Y-48693605D01*
X111668903Y-49506702D01*
X111387117Y-49506702D01*
X111407812Y-49438482D01*
X111420072Y-49314000D01*
X111420072Y-49306785D01*
X111489298Y-49327097D01*
X112302395Y-48514000D01*
X112661605Y-48514000D01*
X113474702Y-49327097D01*
X113718671Y-49255514D01*
X113839571Y-49000004D01*
X113908300Y-48725816D01*
X113922217Y-48443488D01*
X113895031Y-48260000D01*
X117684057Y-48260000D01*
X117711764Y-48541309D01*
X117793818Y-48811808D01*
X117927068Y-49061101D01*
X118106392Y-49279608D01*
X118324899Y-49458932D01*
X118462682Y-49532579D01*
X118270869Y-49647615D01*
X118062481Y-49836586D01*
X117894963Y-50062580D01*
X117774754Y-50316913D01*
X117734096Y-50450961D01*
X117856085Y-50673000D01*
X118999000Y-50673000D01*
X118999000Y-50653000D01*
X119253000Y-50653000D01*
X119253000Y-50673000D01*
X120395915Y-50673000D01*
X120517904Y-50450961D01*
X120477246Y-50316913D01*
X120357037Y-50062580D01*
X120189519Y-49836586D01*
X119981131Y-49647615D01*
X119789318Y-49532579D01*
X119927101Y-49458932D01*
X120145608Y-49279608D01*
X120324932Y-49061101D01*
X120458182Y-48811808D01*
X120540236Y-48541309D01*
X120567943Y-48260000D01*
X120540236Y-47978691D01*
X120458182Y-47708192D01*
X120324932Y-47458899D01*
X120145608Y-47240392D01*
X119927101Y-47061068D01*
X119789318Y-46987421D01*
X119981131Y-46872385D01*
X120189519Y-46683414D01*
X120357037Y-46457420D01*
X120477246Y-46203087D01*
X120517904Y-46069039D01*
X120395915Y-45847000D01*
X119253000Y-45847000D01*
X119253000Y-45867000D01*
X118999000Y-45867000D01*
X118999000Y-45847000D01*
X117856085Y-45847000D01*
X117734096Y-46069039D01*
X117774754Y-46203087D01*
X117894963Y-46457420D01*
X118062481Y-46683414D01*
X118270869Y-46872385D01*
X118462682Y-46987421D01*
X118324899Y-47061068D01*
X118106392Y-47240392D01*
X117927068Y-47458899D01*
X117793818Y-47708192D01*
X117711764Y-47978691D01*
X117684057Y-48260000D01*
X113895031Y-48260000D01*
X113880787Y-48163870D01*
X113785603Y-47897708D01*
X113718671Y-47772486D01*
X113474702Y-47700903D01*
X112661605Y-48514000D01*
X112302395Y-48514000D01*
X111489298Y-47700903D01*
X111420072Y-47721215D01*
X111420072Y-47714000D01*
X111407812Y-47589518D01*
X111387118Y-47521298D01*
X111668903Y-47521298D01*
X112482000Y-48334395D01*
X113295097Y-47521298D01*
X113223514Y-47277329D01*
X112968004Y-47156429D01*
X112693816Y-47087700D01*
X112411488Y-47073783D01*
X112131870Y-47115213D01*
X111865708Y-47210397D01*
X111740486Y-47277329D01*
X111668903Y-47521298D01*
X111387118Y-47521298D01*
X111371502Y-47469820D01*
X111312537Y-47359506D01*
X111233185Y-47262815D01*
X111136494Y-47183463D01*
X111026180Y-47124498D01*
X110906482Y-47088188D01*
X110782000Y-47075928D01*
X109182000Y-47075928D01*
X109057518Y-47088188D01*
X108937820Y-47124498D01*
X108827506Y-47183463D01*
X108730815Y-47262815D01*
X108651463Y-47359506D01*
X108592498Y-47469820D01*
X108556188Y-47589518D01*
X108543928Y-47714000D01*
X108344993Y-47714000D01*
X108266182Y-47454192D01*
X108132932Y-47204899D01*
X107953608Y-46986392D01*
X107735101Y-46807068D01*
X107485808Y-46673818D01*
X107215309Y-46591764D01*
X107004492Y-46571000D01*
X106863508Y-46571000D01*
X106652691Y-46591764D01*
X106382192Y-46673818D01*
X106132899Y-46807068D01*
X105914392Y-46986392D01*
X105735068Y-47204899D01*
X105601818Y-47454192D01*
X105519764Y-47724691D01*
X105492057Y-48006000D01*
X103549943Y-48006000D01*
X103522236Y-47724691D01*
X103440182Y-47454192D01*
X103306932Y-47204899D01*
X103127608Y-46986392D01*
X102909101Y-46807068D01*
X102776142Y-46736000D01*
X102909101Y-46664932D01*
X103127608Y-46485608D01*
X103306932Y-46267101D01*
X103440182Y-46017808D01*
X103522236Y-45747309D01*
X103524925Y-45720000D01*
X125304057Y-45720000D01*
X125331764Y-46001309D01*
X125413818Y-46271808D01*
X125547068Y-46521101D01*
X125726392Y-46739608D01*
X125944899Y-46918932D01*
X126077858Y-46990000D01*
X125944899Y-47061068D01*
X125726392Y-47240392D01*
X125547068Y-47458899D01*
X125413818Y-47708192D01*
X125331764Y-47978691D01*
X125304057Y-48260000D01*
X125331764Y-48541309D01*
X125413818Y-48811808D01*
X125547068Y-49061101D01*
X125726392Y-49279608D01*
X125944899Y-49458932D01*
X126082682Y-49532579D01*
X125890869Y-49647615D01*
X125682481Y-49836586D01*
X125514963Y-50062580D01*
X125394754Y-50316913D01*
X125354096Y-50450961D01*
X125476085Y-50673000D01*
X126619000Y-50673000D01*
X126619000Y-50653000D01*
X126873000Y-50653000D01*
X126873000Y-50673000D01*
X128015915Y-50673000D01*
X128137904Y-50450961D01*
X128097246Y-50316913D01*
X127977037Y-50062580D01*
X127809519Y-49836586D01*
X127601131Y-49647615D01*
X127409318Y-49532579D01*
X127547101Y-49458932D01*
X127765608Y-49279608D01*
X127944932Y-49061101D01*
X128078182Y-48811808D01*
X128160236Y-48541309D01*
X128187943Y-48260000D01*
X132162057Y-48260000D01*
X132189764Y-48541309D01*
X132271818Y-48811808D01*
X132405068Y-49061101D01*
X132584392Y-49279608D01*
X132802899Y-49458932D01*
X132940682Y-49532579D01*
X132748869Y-49647615D01*
X132540481Y-49836586D01*
X132372963Y-50062580D01*
X132252754Y-50316913D01*
X132212096Y-50450961D01*
X132334085Y-50673000D01*
X133477000Y-50673000D01*
X133477000Y-50653000D01*
X133731000Y-50653000D01*
X133731000Y-50673000D01*
X134873915Y-50673000D01*
X134995904Y-50450961D01*
X134955246Y-50316913D01*
X134835037Y-50062580D01*
X134667519Y-49836586D01*
X134459131Y-49647615D01*
X134267318Y-49532579D01*
X134405101Y-49458932D01*
X134623608Y-49279608D01*
X134802932Y-49061101D01*
X134936182Y-48811808D01*
X135018236Y-48541309D01*
X135045943Y-48260000D01*
X135018236Y-47978691D01*
X134936182Y-47708192D01*
X134802932Y-47458899D01*
X134623608Y-47240392D01*
X134405101Y-47061068D01*
X134267318Y-46987421D01*
X134459131Y-46872385D01*
X134667519Y-46683414D01*
X134835037Y-46457420D01*
X134955246Y-46203087D01*
X134995904Y-46069039D01*
X134873915Y-45847000D01*
X133731000Y-45847000D01*
X133731000Y-45867000D01*
X133477000Y-45867000D01*
X133477000Y-45847000D01*
X132334085Y-45847000D01*
X132212096Y-46069039D01*
X132252754Y-46203087D01*
X132372963Y-46457420D01*
X132540481Y-46683414D01*
X132748869Y-46872385D01*
X132940682Y-46987421D01*
X132802899Y-47061068D01*
X132584392Y-47240392D01*
X132405068Y-47458899D01*
X132271818Y-47708192D01*
X132189764Y-47978691D01*
X132162057Y-48260000D01*
X128187943Y-48260000D01*
X128160236Y-47978691D01*
X128078182Y-47708192D01*
X127944932Y-47458899D01*
X127765608Y-47240392D01*
X127547101Y-47061068D01*
X127414142Y-46990000D01*
X127547101Y-46918932D01*
X127765608Y-46739608D01*
X127944932Y-46521101D01*
X128078182Y-46271808D01*
X128160236Y-46001309D01*
X128187943Y-45720000D01*
X139782057Y-45720000D01*
X139809764Y-46001309D01*
X139891818Y-46271808D01*
X140025068Y-46521101D01*
X140204392Y-46739608D01*
X140422899Y-46918932D01*
X140555858Y-46990000D01*
X140422899Y-47061068D01*
X140204392Y-47240392D01*
X140025068Y-47458899D01*
X139891818Y-47708192D01*
X139809764Y-47978691D01*
X139782057Y-48260000D01*
X139809764Y-48541309D01*
X139891818Y-48811808D01*
X140025068Y-49061101D01*
X140204392Y-49279608D01*
X140422899Y-49458932D01*
X140560682Y-49532579D01*
X140368869Y-49647615D01*
X140160481Y-49836586D01*
X139992963Y-50062580D01*
X139872754Y-50316913D01*
X139832096Y-50450961D01*
X139954085Y-50673000D01*
X141097000Y-50673000D01*
X141097000Y-50653000D01*
X141351000Y-50653000D01*
X141351000Y-50673000D01*
X142493915Y-50673000D01*
X142615904Y-50450961D01*
X142575246Y-50316913D01*
X142455037Y-50062580D01*
X142287519Y-49836586D01*
X142079131Y-49647615D01*
X141887318Y-49532579D01*
X142025101Y-49458932D01*
X142243608Y-49279608D01*
X142422932Y-49061101D01*
X142556182Y-48811808D01*
X142638236Y-48541309D01*
X142665943Y-48260000D01*
X142638236Y-47978691D01*
X142556182Y-47708192D01*
X142422932Y-47458899D01*
X142243608Y-47240392D01*
X142025101Y-47061068D01*
X141892142Y-46990000D01*
X142025101Y-46918932D01*
X142243608Y-46739608D01*
X142422932Y-46521101D01*
X142556182Y-46271808D01*
X142638236Y-46001309D01*
X142665943Y-45720000D01*
X142638236Y-45438691D01*
X142556182Y-45168192D01*
X142422932Y-44918899D01*
X142243608Y-44700392D01*
X142025101Y-44521068D01*
X141887318Y-44447421D01*
X142079131Y-44332385D01*
X142287519Y-44143414D01*
X142455037Y-43917420D01*
X142575246Y-43663087D01*
X142615904Y-43529039D01*
X142493915Y-43307000D01*
X141351000Y-43307000D01*
X141351000Y-43327000D01*
X141097000Y-43327000D01*
X141097000Y-43307000D01*
X139954085Y-43307000D01*
X139832096Y-43529039D01*
X139872754Y-43663087D01*
X139992963Y-43917420D01*
X140160481Y-44143414D01*
X140368869Y-44332385D01*
X140560682Y-44447421D01*
X140422899Y-44521068D01*
X140204392Y-44700392D01*
X140025068Y-44918899D01*
X139891818Y-45168192D01*
X139809764Y-45438691D01*
X139782057Y-45720000D01*
X128187943Y-45720000D01*
X128160236Y-45438691D01*
X128078182Y-45168192D01*
X127944932Y-44918899D01*
X127765608Y-44700392D01*
X127547101Y-44521068D01*
X127409318Y-44447421D01*
X127601131Y-44332385D01*
X127809519Y-44143414D01*
X127977037Y-43917420D01*
X128097246Y-43663087D01*
X128137904Y-43529039D01*
X132212096Y-43529039D01*
X132252754Y-43663087D01*
X132372963Y-43917420D01*
X132540481Y-44143414D01*
X132748869Y-44332385D01*
X132944982Y-44450000D01*
X132748869Y-44567615D01*
X132540481Y-44756586D01*
X132372963Y-44982580D01*
X132252754Y-45236913D01*
X132212096Y-45370961D01*
X132334085Y-45593000D01*
X133477000Y-45593000D01*
X133477000Y-43307000D01*
X133731000Y-43307000D01*
X133731000Y-45593000D01*
X134873915Y-45593000D01*
X134995904Y-45370961D01*
X134955246Y-45236913D01*
X134835037Y-44982580D01*
X134667519Y-44756586D01*
X134459131Y-44567615D01*
X134263018Y-44450000D01*
X134459131Y-44332385D01*
X134667519Y-44143414D01*
X134835037Y-43917420D01*
X134955246Y-43663087D01*
X134995904Y-43529039D01*
X134873915Y-43307000D01*
X133731000Y-43307000D01*
X133477000Y-43307000D01*
X132334085Y-43307000D01*
X132212096Y-43529039D01*
X128137904Y-43529039D01*
X128015915Y-43307000D01*
X126873000Y-43307000D01*
X126873000Y-43327000D01*
X126619000Y-43327000D01*
X126619000Y-43307000D01*
X125476085Y-43307000D01*
X125354096Y-43529039D01*
X125394754Y-43663087D01*
X125514963Y-43917420D01*
X125682481Y-44143414D01*
X125890869Y-44332385D01*
X126082682Y-44447421D01*
X125944899Y-44521068D01*
X125726392Y-44700392D01*
X125547068Y-44918899D01*
X125413818Y-45168192D01*
X125331764Y-45438691D01*
X125304057Y-45720000D01*
X103524925Y-45720000D01*
X103549943Y-45466000D01*
X103522236Y-45184691D01*
X103440182Y-44914192D01*
X103306932Y-44664899D01*
X103127608Y-44446392D01*
X102909101Y-44267068D01*
X102659808Y-44133818D01*
X102389309Y-44051764D01*
X102178492Y-44031000D01*
X102037508Y-44031000D01*
X101826691Y-44051764D01*
X101556192Y-44133818D01*
X101306899Y-44267068D01*
X101088392Y-44446392D01*
X100909068Y-44664899D01*
X100775818Y-44914192D01*
X100693764Y-45184691D01*
X100666057Y-45466000D01*
X95929943Y-45466000D01*
X95902236Y-45184691D01*
X95820182Y-44914192D01*
X95686932Y-44664899D01*
X95507608Y-44446392D01*
X95289101Y-44267068D01*
X95039808Y-44133818D01*
X94769309Y-44051764D01*
X94558492Y-44031000D01*
X94417508Y-44031000D01*
X94206691Y-44051764D01*
X93936192Y-44133818D01*
X93686899Y-44267068D01*
X93468392Y-44446392D01*
X93289068Y-44664899D01*
X93155818Y-44914192D01*
X93073764Y-45184691D01*
X93046057Y-45466000D01*
X91420254Y-45466000D01*
X91570608Y-45342608D01*
X91749932Y-45124101D01*
X91883182Y-44874808D01*
X91965236Y-44604309D01*
X91992943Y-44323000D01*
X91965236Y-44041691D01*
X91883182Y-43771192D01*
X91749932Y-43521899D01*
X91570608Y-43303392D01*
X91352101Y-43124068D01*
X91102808Y-42990818D01*
X90832309Y-42908764D01*
X90621492Y-42888000D01*
X90480508Y-42888000D01*
X90269691Y-42908764D01*
X89999192Y-42990818D01*
X89749899Y-43124068D01*
X89531392Y-43303392D01*
X89352068Y-43521899D01*
X89218818Y-43771192D01*
X89136764Y-44041691D01*
X89109057Y-44323000D01*
X85470600Y-44323000D01*
X85470600Y-42704279D01*
X85504672Y-42356790D01*
X85596214Y-42053587D01*
X85744907Y-41773936D01*
X85945084Y-41528495D01*
X86189121Y-41326609D01*
X86467725Y-41175969D01*
X86770288Y-41082310D01*
X87115758Y-41046000D01*
X94848274Y-41046000D01*
X94843241Y-41049363D01*
M02*
