G04 #@! TF.GenerationSoftware,KiCad,Pcbnew,(5.1.4)-1*
G04 #@! TF.CreationDate,2019-11-26T11:52:50-05:00*
G04 #@! TF.ProjectId,8-bit counter,382d6269-7420-4636-9f75-6e7465722e6b,rev?*
G04 #@! TF.SameCoordinates,Original*
G04 #@! TF.FileFunction,Legend,Top*
G04 #@! TF.FilePolarity,Positive*
%FSLAX46Y46*%
G04 Gerber Fmt 4.6, Leading zero omitted, Abs format (unit mm)*
G04 Created by KiCad (PCBNEW (5.1.4)-1) date 2019-11-26 11:52:50*
%MOMM*%
%LPD*%
G04 APERTURE LIST*
%ADD10C,0.150000*%
%ADD11C,0.100000*%
%ADD12C,0.300000*%
%ADD13C,0.120000*%
G04 APERTURE END LIST*
D10*
X143809980Y-53485657D02*
X143809980Y-54057085D01*
X143809980Y-53771371D02*
X142809980Y-53771371D01*
X142952838Y-53866609D01*
X143048076Y-53961847D01*
X143095695Y-54057085D01*
X143809980Y-52533276D02*
X143809980Y-53104704D01*
X143809980Y-52818990D02*
X142809980Y-52818990D01*
X142952838Y-52914228D01*
X143048076Y-53009466D01*
X143095695Y-53104704D01*
X142762361Y-51390419D02*
X144048076Y-52247561D01*
X142905219Y-51104704D02*
X142857600Y-51057085D01*
X142809980Y-50961847D01*
X142809980Y-50723752D01*
X142857600Y-50628514D01*
X142905219Y-50580895D01*
X143000457Y-50533276D01*
X143095695Y-50533276D01*
X143238552Y-50580895D01*
X143809980Y-51152323D01*
X143809980Y-50533276D01*
X142809980Y-49676133D02*
X142809980Y-49866609D01*
X142857600Y-49961847D01*
X142905219Y-50009466D01*
X143048076Y-50104704D01*
X143238552Y-50152323D01*
X143619504Y-50152323D01*
X143714742Y-50104704D01*
X143762361Y-50057085D01*
X143809980Y-49961847D01*
X143809980Y-49771371D01*
X143762361Y-49676133D01*
X143714742Y-49628514D01*
X143619504Y-49580895D01*
X143381409Y-49580895D01*
X143286171Y-49628514D01*
X143238552Y-49676133D01*
X143190933Y-49771371D01*
X143190933Y-49961847D01*
X143238552Y-50057085D01*
X143286171Y-50104704D01*
X143381409Y-50152323D01*
X142762361Y-48438038D02*
X144048076Y-49295180D01*
X143809980Y-47580895D02*
X143809980Y-48152323D01*
X143809980Y-47866609D02*
X142809980Y-47866609D01*
X142952838Y-47961847D01*
X143048076Y-48057085D01*
X143095695Y-48152323D01*
X143809980Y-47104704D02*
X143809980Y-46914228D01*
X143762361Y-46818990D01*
X143714742Y-46771371D01*
X143571885Y-46676133D01*
X143381409Y-46628514D01*
X143000457Y-46628514D01*
X142905219Y-46676133D01*
X142857600Y-46723752D01*
X142809980Y-46818990D01*
X142809980Y-47009466D01*
X142857600Y-47104704D01*
X142905219Y-47152323D01*
X143000457Y-47199942D01*
X143238552Y-47199942D01*
X143333790Y-47152323D01*
X143381409Y-47104704D01*
X143429028Y-47009466D01*
X143429028Y-46818990D01*
X143381409Y-46723752D01*
X143333790Y-46676133D01*
X143238552Y-46628514D01*
D11*
X114231028Y-47528990D02*
X113992933Y-47528990D01*
X113969123Y-47767085D01*
X113992933Y-47743276D01*
X114040552Y-47719466D01*
X114159600Y-47719466D01*
X114207219Y-47743276D01*
X114231028Y-47767085D01*
X114254838Y-47814704D01*
X114254838Y-47933752D01*
X114231028Y-47981371D01*
X114207219Y-48005180D01*
X114159600Y-48028990D01*
X114040552Y-48028990D01*
X113992933Y-48005180D01*
X113969123Y-47981371D01*
X114469123Y-47981371D02*
X114492933Y-48005180D01*
X114469123Y-48028990D01*
X114445314Y-48005180D01*
X114469123Y-47981371D01*
X114469123Y-48028990D01*
X114659600Y-47528990D02*
X114992933Y-47528990D01*
X114778647Y-48028990D01*
X115397695Y-47695657D02*
X115397695Y-48028990D01*
X115183409Y-47695657D02*
X115183409Y-47957561D01*
X115207219Y-48005180D01*
X115254838Y-48028990D01*
X115326266Y-48028990D01*
X115373885Y-48005180D01*
X115397695Y-47981371D01*
X115802457Y-47767085D02*
X115635790Y-47767085D01*
X115635790Y-48028990D02*
X115635790Y-47528990D01*
X115873885Y-47528990D01*
X103867828Y-46919390D02*
X103629733Y-46919390D01*
X103605923Y-47157485D01*
X103629733Y-47133676D01*
X103677352Y-47109866D01*
X103796400Y-47109866D01*
X103844019Y-47133676D01*
X103867828Y-47157485D01*
X103891638Y-47205104D01*
X103891638Y-47324152D01*
X103867828Y-47371771D01*
X103844019Y-47395580D01*
X103796400Y-47419390D01*
X103677352Y-47419390D01*
X103629733Y-47395580D01*
X103605923Y-47371771D01*
X104105923Y-47371771D02*
X104129733Y-47395580D01*
X104105923Y-47419390D01*
X104082114Y-47395580D01*
X104105923Y-47371771D01*
X104105923Y-47419390D01*
X104296400Y-46919390D02*
X104629733Y-46919390D01*
X104415447Y-47419390D01*
X105034495Y-47086057D02*
X105034495Y-47419390D01*
X104820209Y-47086057D02*
X104820209Y-47347961D01*
X104844019Y-47395580D01*
X104891638Y-47419390D01*
X104963066Y-47419390D01*
X105010685Y-47395580D01*
X105034495Y-47371771D01*
X105439257Y-47157485D02*
X105272590Y-47157485D01*
X105272590Y-47419390D02*
X105272590Y-46919390D01*
X105510685Y-46919390D01*
X114078628Y-41026590D02*
X113840533Y-41026590D01*
X113816723Y-41264685D01*
X113840533Y-41240876D01*
X113888152Y-41217066D01*
X114007200Y-41217066D01*
X114054819Y-41240876D01*
X114078628Y-41264685D01*
X114102438Y-41312304D01*
X114102438Y-41431352D01*
X114078628Y-41478971D01*
X114054819Y-41502780D01*
X114007200Y-41526590D01*
X113888152Y-41526590D01*
X113840533Y-41502780D01*
X113816723Y-41478971D01*
X114316723Y-41478971D02*
X114340533Y-41502780D01*
X114316723Y-41526590D01*
X114292914Y-41502780D01*
X114316723Y-41478971D01*
X114316723Y-41526590D01*
X114507200Y-41026590D02*
X114840533Y-41026590D01*
X114626247Y-41526590D01*
X115245295Y-41193257D02*
X115245295Y-41526590D01*
X115031009Y-41193257D02*
X115031009Y-41455161D01*
X115054819Y-41502780D01*
X115102438Y-41526590D01*
X115173866Y-41526590D01*
X115221485Y-41502780D01*
X115245295Y-41478971D01*
X115650057Y-41264685D02*
X115483390Y-41264685D01*
X115483390Y-41526590D02*
X115483390Y-41026590D01*
X115721485Y-41026590D01*
X115796190Y-57490323D02*
X115296190Y-57490323D01*
X115296190Y-57299847D01*
X115320000Y-57252228D01*
X115343809Y-57228419D01*
X115391428Y-57204609D01*
X115462857Y-57204609D01*
X115510476Y-57228419D01*
X115534285Y-57252228D01*
X115558095Y-57299847D01*
X115558095Y-57490323D01*
X115796190Y-56990323D02*
X115296190Y-56990323D01*
X115796190Y-56704609D01*
X115296190Y-56704609D01*
X115343809Y-56490323D02*
X115320000Y-56466514D01*
X115296190Y-56418895D01*
X115296190Y-56299847D01*
X115320000Y-56252228D01*
X115343809Y-56228419D01*
X115391428Y-56204609D01*
X115439047Y-56204609D01*
X115510476Y-56228419D01*
X115796190Y-56514133D01*
X115796190Y-56204609D01*
X115343809Y-56014133D02*
X115320000Y-55990323D01*
X115296190Y-55942704D01*
X115296190Y-55823657D01*
X115320000Y-55776038D01*
X115343809Y-55752228D01*
X115391428Y-55728419D01*
X115439047Y-55728419D01*
X115510476Y-55752228D01*
X115796190Y-56037942D01*
X115796190Y-55728419D01*
X115343809Y-55537942D02*
X115320000Y-55514133D01*
X115296190Y-55466514D01*
X115296190Y-55347466D01*
X115320000Y-55299847D01*
X115343809Y-55276038D01*
X115391428Y-55252228D01*
X115439047Y-55252228D01*
X115510476Y-55276038D01*
X115796190Y-55561752D01*
X115796190Y-55252228D01*
X115343809Y-55061752D02*
X115320000Y-55037942D01*
X115296190Y-54990323D01*
X115296190Y-54871276D01*
X115320000Y-54823657D01*
X115343809Y-54799847D01*
X115391428Y-54776038D01*
X115439047Y-54776038D01*
X115510476Y-54799847D01*
X115796190Y-55085561D01*
X115796190Y-54776038D01*
X115653333Y-54585561D02*
X115653333Y-54347466D01*
X115796190Y-54633180D02*
X115296190Y-54466514D01*
X115796190Y-54299847D01*
D10*
X137199714Y-59027104D02*
X137866380Y-59027104D01*
X136818761Y-59265200D02*
X137533047Y-59503295D01*
X137533047Y-58884247D01*
X137485428Y-58503295D02*
X137485428Y-57741390D01*
X137866380Y-57265200D02*
X136866380Y-57265200D01*
X137247333Y-57265200D02*
X137199714Y-57169961D01*
X137199714Y-56979485D01*
X137247333Y-56884247D01*
X137294952Y-56836628D01*
X137390190Y-56789009D01*
X137675904Y-56789009D01*
X137771142Y-56836628D01*
X137818761Y-56884247D01*
X137866380Y-56979485D01*
X137866380Y-57169961D01*
X137818761Y-57265200D01*
X137866380Y-56360438D02*
X137199714Y-56360438D01*
X136866380Y-56360438D02*
X136914000Y-56408057D01*
X136961619Y-56360438D01*
X136914000Y-56312819D01*
X136866380Y-56360438D01*
X136961619Y-56360438D01*
X137199714Y-56027104D02*
X137199714Y-55646152D01*
X136866380Y-55884247D02*
X137723523Y-55884247D01*
X137818761Y-55836628D01*
X137866380Y-55741390D01*
X137866380Y-55646152D01*
X137866380Y-54550914D02*
X136866380Y-54550914D01*
X137247333Y-54550914D02*
X137199714Y-54455676D01*
X137199714Y-54265200D01*
X137247333Y-54169961D01*
X137294952Y-54122342D01*
X137390190Y-54074723D01*
X137675904Y-54074723D01*
X137771142Y-54122342D01*
X137818761Y-54169961D01*
X137866380Y-54265200D01*
X137866380Y-54455676D01*
X137818761Y-54550914D01*
X137866380Y-53646152D02*
X137199714Y-53646152D01*
X136866380Y-53646152D02*
X136914000Y-53693771D01*
X136961619Y-53646152D01*
X136914000Y-53598533D01*
X136866380Y-53646152D01*
X136961619Y-53646152D01*
X137199714Y-53169961D02*
X137866380Y-53169961D01*
X137294952Y-53169961D02*
X137247333Y-53122342D01*
X137199714Y-53027104D01*
X137199714Y-52884247D01*
X137247333Y-52789009D01*
X137342571Y-52741390D01*
X137866380Y-52741390D01*
X137866380Y-51836628D02*
X137342571Y-51836628D01*
X137247333Y-51884247D01*
X137199714Y-51979485D01*
X137199714Y-52169961D01*
X137247333Y-52265200D01*
X137818761Y-51836628D02*
X137866380Y-51931866D01*
X137866380Y-52169961D01*
X137818761Y-52265200D01*
X137723523Y-52312819D01*
X137628285Y-52312819D01*
X137533047Y-52265200D01*
X137485428Y-52169961D01*
X137485428Y-51931866D01*
X137437809Y-51836628D01*
X137866380Y-51360438D02*
X137199714Y-51360438D01*
X137390190Y-51360438D02*
X137294952Y-51312819D01*
X137247333Y-51265200D01*
X137199714Y-51169961D01*
X137199714Y-51074723D01*
X137199714Y-50836628D02*
X137866380Y-50598533D01*
X137199714Y-50360438D02*
X137866380Y-50598533D01*
X138104476Y-50693771D01*
X138152095Y-50741390D01*
X138199714Y-50836628D01*
X137818761Y-48789009D02*
X137866380Y-48884247D01*
X137866380Y-49074723D01*
X137818761Y-49169961D01*
X137771142Y-49217580D01*
X137675904Y-49265200D01*
X137390190Y-49265200D01*
X137294952Y-49217580D01*
X137247333Y-49169961D01*
X137199714Y-49074723D01*
X137199714Y-48884247D01*
X137247333Y-48789009D01*
X137866380Y-48217580D02*
X137818761Y-48312819D01*
X137771142Y-48360438D01*
X137675904Y-48408057D01*
X137390190Y-48408057D01*
X137294952Y-48360438D01*
X137247333Y-48312819D01*
X137199714Y-48217580D01*
X137199714Y-48074723D01*
X137247333Y-47979485D01*
X137294952Y-47931866D01*
X137390190Y-47884247D01*
X137675904Y-47884247D01*
X137771142Y-47931866D01*
X137818761Y-47979485D01*
X137866380Y-48074723D01*
X137866380Y-48217580D01*
X137199714Y-47027104D02*
X137866380Y-47027104D01*
X137199714Y-47455676D02*
X137723523Y-47455676D01*
X137818761Y-47408057D01*
X137866380Y-47312819D01*
X137866380Y-47169961D01*
X137818761Y-47074723D01*
X137771142Y-47027104D01*
X137199714Y-46550914D02*
X137866380Y-46550914D01*
X137294952Y-46550914D02*
X137247333Y-46503295D01*
X137199714Y-46408057D01*
X137199714Y-46265200D01*
X137247333Y-46169961D01*
X137342571Y-46122342D01*
X137866380Y-46122342D01*
X137199714Y-45789009D02*
X137199714Y-45408057D01*
X136866380Y-45646152D02*
X137723523Y-45646152D01*
X137818761Y-45598533D01*
X137866380Y-45503295D01*
X137866380Y-45408057D01*
X137818761Y-44693771D02*
X137866380Y-44789009D01*
X137866380Y-44979485D01*
X137818761Y-45074723D01*
X137723523Y-45122342D01*
X137342571Y-45122342D01*
X137247333Y-45074723D01*
X137199714Y-44979485D01*
X137199714Y-44789009D01*
X137247333Y-44693771D01*
X137342571Y-44646152D01*
X137437809Y-44646152D01*
X137533047Y-45122342D01*
X137866380Y-44217580D02*
X137199714Y-44217580D01*
X137390190Y-44217580D02*
X137294952Y-44169961D01*
X137247333Y-44122342D01*
X137199714Y-44027104D01*
X137199714Y-43931866D01*
X122924914Y-59027104D02*
X123591580Y-59027104D01*
X122543961Y-59265200D02*
X123258247Y-59503295D01*
X123258247Y-58884247D01*
X123210628Y-58503295D02*
X123210628Y-57741390D01*
X123591580Y-57265200D02*
X122591580Y-57265200D01*
X122972533Y-57265200D02*
X122924914Y-57169961D01*
X122924914Y-56979485D01*
X122972533Y-56884247D01*
X123020152Y-56836628D01*
X123115390Y-56789009D01*
X123401104Y-56789009D01*
X123496342Y-56836628D01*
X123543961Y-56884247D01*
X123591580Y-56979485D01*
X123591580Y-57169961D01*
X123543961Y-57265200D01*
X123591580Y-56360438D02*
X122924914Y-56360438D01*
X122591580Y-56360438D02*
X122639200Y-56408057D01*
X122686819Y-56360438D01*
X122639200Y-56312819D01*
X122591580Y-56360438D01*
X122686819Y-56360438D01*
X122924914Y-56027104D02*
X122924914Y-55646152D01*
X122591580Y-55884247D02*
X123448723Y-55884247D01*
X123543961Y-55836628D01*
X123591580Y-55741390D01*
X123591580Y-55646152D01*
X123591580Y-54550914D02*
X122591580Y-54550914D01*
X122972533Y-54550914D02*
X122924914Y-54455676D01*
X122924914Y-54265200D01*
X122972533Y-54169961D01*
X123020152Y-54122342D01*
X123115390Y-54074723D01*
X123401104Y-54074723D01*
X123496342Y-54122342D01*
X123543961Y-54169961D01*
X123591580Y-54265200D01*
X123591580Y-54455676D01*
X123543961Y-54550914D01*
X123591580Y-53646152D02*
X122924914Y-53646152D01*
X122591580Y-53646152D02*
X122639200Y-53693771D01*
X122686819Y-53646152D01*
X122639200Y-53598533D01*
X122591580Y-53646152D01*
X122686819Y-53646152D01*
X122924914Y-53169961D02*
X123591580Y-53169961D01*
X123020152Y-53169961D02*
X122972533Y-53122342D01*
X122924914Y-53027104D01*
X122924914Y-52884247D01*
X122972533Y-52789009D01*
X123067771Y-52741390D01*
X123591580Y-52741390D01*
X123591580Y-51836628D02*
X123067771Y-51836628D01*
X122972533Y-51884247D01*
X122924914Y-51979485D01*
X122924914Y-52169961D01*
X122972533Y-52265200D01*
X123543961Y-51836628D02*
X123591580Y-51931866D01*
X123591580Y-52169961D01*
X123543961Y-52265200D01*
X123448723Y-52312819D01*
X123353485Y-52312819D01*
X123258247Y-52265200D01*
X123210628Y-52169961D01*
X123210628Y-51931866D01*
X123163009Y-51836628D01*
X123591580Y-51360438D02*
X122924914Y-51360438D01*
X123115390Y-51360438D02*
X123020152Y-51312819D01*
X122972533Y-51265200D01*
X122924914Y-51169961D01*
X122924914Y-51074723D01*
X122924914Y-50836628D02*
X123591580Y-50598533D01*
X122924914Y-50360438D02*
X123591580Y-50598533D01*
X123829676Y-50693771D01*
X123877295Y-50741390D01*
X123924914Y-50836628D01*
X123543961Y-48789009D02*
X123591580Y-48884247D01*
X123591580Y-49074723D01*
X123543961Y-49169961D01*
X123496342Y-49217580D01*
X123401104Y-49265200D01*
X123115390Y-49265200D01*
X123020152Y-49217580D01*
X122972533Y-49169961D01*
X122924914Y-49074723D01*
X122924914Y-48884247D01*
X122972533Y-48789009D01*
X123591580Y-48217580D02*
X123543961Y-48312819D01*
X123496342Y-48360438D01*
X123401104Y-48408057D01*
X123115390Y-48408057D01*
X123020152Y-48360438D01*
X122972533Y-48312819D01*
X122924914Y-48217580D01*
X122924914Y-48074723D01*
X122972533Y-47979485D01*
X123020152Y-47931866D01*
X123115390Y-47884247D01*
X123401104Y-47884247D01*
X123496342Y-47931866D01*
X123543961Y-47979485D01*
X123591580Y-48074723D01*
X123591580Y-48217580D01*
X122924914Y-47027104D02*
X123591580Y-47027104D01*
X122924914Y-47455676D02*
X123448723Y-47455676D01*
X123543961Y-47408057D01*
X123591580Y-47312819D01*
X123591580Y-47169961D01*
X123543961Y-47074723D01*
X123496342Y-47027104D01*
X122924914Y-46550914D02*
X123591580Y-46550914D01*
X123020152Y-46550914D02*
X122972533Y-46503295D01*
X122924914Y-46408057D01*
X122924914Y-46265200D01*
X122972533Y-46169961D01*
X123067771Y-46122342D01*
X123591580Y-46122342D01*
X122924914Y-45789009D02*
X122924914Y-45408057D01*
X122591580Y-45646152D02*
X123448723Y-45646152D01*
X123543961Y-45598533D01*
X123591580Y-45503295D01*
X123591580Y-45408057D01*
X123543961Y-44693771D02*
X123591580Y-44789009D01*
X123591580Y-44979485D01*
X123543961Y-45074723D01*
X123448723Y-45122342D01*
X123067771Y-45122342D01*
X122972533Y-45074723D01*
X122924914Y-44979485D01*
X122924914Y-44789009D01*
X122972533Y-44693771D01*
X123067771Y-44646152D01*
X123163009Y-44646152D01*
X123258247Y-45122342D01*
X123591580Y-44217580D02*
X122924914Y-44217580D01*
X123115390Y-44217580D02*
X123020152Y-44169961D01*
X122972533Y-44122342D01*
X122924914Y-44027104D01*
X122924914Y-43931866D01*
X97801180Y-52293447D02*
X97801180Y-52769638D01*
X98277371Y-52817257D01*
X98229752Y-52769638D01*
X98182133Y-52674400D01*
X98182133Y-52436304D01*
X98229752Y-52341066D01*
X98277371Y-52293447D01*
X98372609Y-52245828D01*
X98610704Y-52245828D01*
X98705942Y-52293447D01*
X98753561Y-52341066D01*
X98801180Y-52436304D01*
X98801180Y-52674400D01*
X98753561Y-52769638D01*
X98705942Y-52817257D01*
X97801180Y-51341066D02*
X97801180Y-51817257D01*
X98277371Y-51864876D01*
X98229752Y-51817257D01*
X98182133Y-51722019D01*
X98182133Y-51483923D01*
X98229752Y-51388685D01*
X98277371Y-51341066D01*
X98372609Y-51293447D01*
X98610704Y-51293447D01*
X98705942Y-51341066D01*
X98753561Y-51388685D01*
X98801180Y-51483923D01*
X98801180Y-51722019D01*
X98753561Y-51817257D01*
X98705942Y-51864876D01*
X97801180Y-50388685D02*
X97801180Y-50864876D01*
X98277371Y-50912495D01*
X98229752Y-50864876D01*
X98182133Y-50769638D01*
X98182133Y-50531542D01*
X98229752Y-50436304D01*
X98277371Y-50388685D01*
X98372609Y-50341066D01*
X98610704Y-50341066D01*
X98705942Y-50388685D01*
X98753561Y-50436304D01*
X98801180Y-50531542D01*
X98801180Y-50769638D01*
X98753561Y-50864876D01*
X98705942Y-50912495D01*
X97801180Y-49293447D02*
X97801180Y-48722019D01*
X98801180Y-49007733D02*
X97801180Y-49007733D01*
X98801180Y-48388685D02*
X98134514Y-48388685D01*
X97801180Y-48388685D02*
X97848800Y-48436304D01*
X97896419Y-48388685D01*
X97848800Y-48341066D01*
X97801180Y-48388685D01*
X97896419Y-48388685D01*
X98801180Y-47912495D02*
X98134514Y-47912495D01*
X98229752Y-47912495D02*
X98182133Y-47864876D01*
X98134514Y-47769638D01*
X98134514Y-47626780D01*
X98182133Y-47531542D01*
X98277371Y-47483923D01*
X98801180Y-47483923D01*
X98277371Y-47483923D02*
X98182133Y-47436304D01*
X98134514Y-47341066D01*
X98134514Y-47198209D01*
X98182133Y-47102971D01*
X98277371Y-47055352D01*
X98801180Y-47055352D01*
X98753561Y-46198209D02*
X98801180Y-46293447D01*
X98801180Y-46483923D01*
X98753561Y-46579161D01*
X98658323Y-46626780D01*
X98277371Y-46626780D01*
X98182133Y-46579161D01*
X98134514Y-46483923D01*
X98134514Y-46293447D01*
X98182133Y-46198209D01*
X98277371Y-46150590D01*
X98372609Y-46150590D01*
X98467847Y-46626780D01*
X98801180Y-45722019D02*
X98134514Y-45722019D01*
X98324990Y-45722019D02*
X98229752Y-45674400D01*
X98182133Y-45626780D01*
X98134514Y-45531542D01*
X98134514Y-45436304D01*
D11*
X88270590Y-61105123D02*
X88270590Y-61057504D01*
X88294400Y-61009885D01*
X88318209Y-60986076D01*
X88365828Y-60962266D01*
X88461066Y-60938457D01*
X88580114Y-60938457D01*
X88675352Y-60962266D01*
X88722971Y-60986076D01*
X88746780Y-61009885D01*
X88770590Y-61057504D01*
X88770590Y-61105123D01*
X88746780Y-61152742D01*
X88722971Y-61176552D01*
X88675352Y-61200361D01*
X88580114Y-61224171D01*
X88461066Y-61224171D01*
X88365828Y-61200361D01*
X88318209Y-61176552D01*
X88294400Y-61152742D01*
X88270590Y-61105123D01*
X88722971Y-60724171D02*
X88746780Y-60700361D01*
X88770590Y-60724171D01*
X88746780Y-60747980D01*
X88722971Y-60724171D01*
X88770590Y-60724171D01*
X88270590Y-60390838D02*
X88270590Y-60343219D01*
X88294400Y-60295600D01*
X88318209Y-60271790D01*
X88365828Y-60247980D01*
X88461066Y-60224171D01*
X88580114Y-60224171D01*
X88675352Y-60247980D01*
X88722971Y-60271790D01*
X88746780Y-60295600D01*
X88770590Y-60343219D01*
X88770590Y-60390838D01*
X88746780Y-60438457D01*
X88722971Y-60462266D01*
X88675352Y-60486076D01*
X88580114Y-60509885D01*
X88461066Y-60509885D01*
X88365828Y-60486076D01*
X88318209Y-60462266D01*
X88294400Y-60438457D01*
X88270590Y-60390838D01*
X88770590Y-59747980D02*
X88770590Y-60033695D01*
X88770590Y-59890838D02*
X88270590Y-59890838D01*
X88342019Y-59938457D01*
X88389638Y-59986076D01*
X88413447Y-60033695D01*
X88437257Y-59319409D02*
X88770590Y-59319409D01*
X88437257Y-59533695D02*
X88699161Y-59533695D01*
X88746780Y-59509885D01*
X88770590Y-59462266D01*
X88770590Y-59390838D01*
X88746780Y-59343219D01*
X88722971Y-59319409D01*
X88508685Y-58914647D02*
X88508685Y-59081314D01*
X88770590Y-59081314D02*
X88270590Y-59081314D01*
X88270590Y-58843219D01*
X97136876Y-42753790D02*
X97184495Y-42753790D01*
X97232114Y-42777600D01*
X97255923Y-42801409D01*
X97279733Y-42849028D01*
X97303542Y-42944266D01*
X97303542Y-43063314D01*
X97279733Y-43158552D01*
X97255923Y-43206171D01*
X97232114Y-43229980D01*
X97184495Y-43253790D01*
X97136876Y-43253790D01*
X97089257Y-43229980D01*
X97065447Y-43206171D01*
X97041638Y-43158552D01*
X97017828Y-43063314D01*
X97017828Y-42944266D01*
X97041638Y-42849028D01*
X97065447Y-42801409D01*
X97089257Y-42777600D01*
X97136876Y-42753790D01*
X97517828Y-43206171D02*
X97541638Y-43229980D01*
X97517828Y-43253790D01*
X97494019Y-43229980D01*
X97517828Y-43206171D01*
X97517828Y-43253790D01*
X97851161Y-42753790D02*
X97898780Y-42753790D01*
X97946400Y-42777600D01*
X97970209Y-42801409D01*
X97994019Y-42849028D01*
X98017828Y-42944266D01*
X98017828Y-43063314D01*
X97994019Y-43158552D01*
X97970209Y-43206171D01*
X97946400Y-43229980D01*
X97898780Y-43253790D01*
X97851161Y-43253790D01*
X97803542Y-43229980D01*
X97779733Y-43206171D01*
X97755923Y-43158552D01*
X97732114Y-43063314D01*
X97732114Y-42944266D01*
X97755923Y-42849028D01*
X97779733Y-42801409D01*
X97803542Y-42777600D01*
X97851161Y-42753790D01*
X98494019Y-43253790D02*
X98208304Y-43253790D01*
X98351161Y-43253790D02*
X98351161Y-42753790D01*
X98303542Y-42825219D01*
X98255923Y-42872838D01*
X98208304Y-42896647D01*
X98922590Y-42920457D02*
X98922590Y-43253790D01*
X98708304Y-42920457D02*
X98708304Y-43182361D01*
X98732114Y-43229980D01*
X98779733Y-43253790D01*
X98851161Y-43253790D01*
X98898780Y-43229980D01*
X98922590Y-43206171D01*
X99327352Y-42991885D02*
X99160685Y-42991885D01*
X99160685Y-43253790D02*
X99160685Y-42753790D01*
X99398780Y-42753790D01*
D10*
X91028780Y-50626876D02*
X91028780Y-51198304D01*
X91028780Y-50912590D02*
X90028780Y-50912590D01*
X90171638Y-51007828D01*
X90266876Y-51103066D01*
X90314495Y-51198304D01*
X91028780Y-50198304D02*
X90028780Y-50198304D01*
X90647828Y-50103066D02*
X91028780Y-49817352D01*
X90362114Y-49817352D02*
X90743066Y-50198304D01*
X91028780Y-49436400D02*
X91028780Y-49198304D01*
X90838304Y-49198304D01*
X90790685Y-49293542D01*
X90695447Y-49388780D01*
X90552590Y-49436400D01*
X90314495Y-49436400D01*
X90171638Y-49388780D01*
X90076400Y-49293542D01*
X90028780Y-49150685D01*
X90028780Y-48960209D01*
X90076400Y-48817352D01*
X90171638Y-48722114D01*
X90314495Y-48674495D01*
X90552590Y-48674495D01*
X90695447Y-48722114D01*
X90790685Y-48817352D01*
X90838304Y-48912590D01*
X91028780Y-48912590D01*
X91028780Y-48674495D01*
X107284780Y-53928876D02*
X107284780Y-54500304D01*
X107284780Y-54214590D02*
X106284780Y-54214590D01*
X106427638Y-54309828D01*
X106522876Y-54405066D01*
X106570495Y-54500304D01*
X107284780Y-53500304D02*
X106284780Y-53500304D01*
X106903828Y-53405066D02*
X107284780Y-53119352D01*
X106618114Y-53119352D02*
X106999066Y-53500304D01*
X107284780Y-52738400D02*
X107284780Y-52500304D01*
X107094304Y-52500304D01*
X107046685Y-52595542D01*
X106951447Y-52690780D01*
X106808590Y-52738400D01*
X106570495Y-52738400D01*
X106427638Y-52690780D01*
X106332400Y-52595542D01*
X106284780Y-52452685D01*
X106284780Y-52262209D01*
X106332400Y-52119352D01*
X106427638Y-52024114D01*
X106570495Y-51976495D01*
X106808590Y-51976495D01*
X106951447Y-52024114D01*
X107046685Y-52119352D01*
X107094304Y-52214590D01*
X107284780Y-52214590D01*
X107284780Y-51976495D01*
X96553542Y-57653180D02*
X95982114Y-57653180D01*
X96267828Y-57653180D02*
X96267828Y-56653180D01*
X96172590Y-56796038D01*
X96077352Y-56891276D01*
X95982114Y-56938895D01*
X97172590Y-56653180D02*
X97267828Y-56653180D01*
X97363066Y-56700800D01*
X97410685Y-56748419D01*
X97458304Y-56843657D01*
X97505923Y-57034133D01*
X97505923Y-57272228D01*
X97458304Y-57462704D01*
X97410685Y-57557942D01*
X97363066Y-57605561D01*
X97267828Y-57653180D01*
X97172590Y-57653180D01*
X97077352Y-57605561D01*
X97029733Y-57557942D01*
X96982114Y-57462704D01*
X96934495Y-57272228D01*
X96934495Y-57034133D01*
X96982114Y-56843657D01*
X97029733Y-56748419D01*
X97077352Y-56700800D01*
X97172590Y-56653180D01*
X98124971Y-56653180D02*
X98220209Y-56653180D01*
X98315447Y-56700800D01*
X98363066Y-56748419D01*
X98410685Y-56843657D01*
X98458304Y-57034133D01*
X98458304Y-57272228D01*
X98410685Y-57462704D01*
X98363066Y-57557942D01*
X98315447Y-57605561D01*
X98220209Y-57653180D01*
X98124971Y-57653180D01*
X98029733Y-57605561D01*
X97982114Y-57557942D01*
X97934495Y-57462704D01*
X97886876Y-57272228D01*
X97886876Y-57034133D01*
X97934495Y-56843657D01*
X97982114Y-56748419D01*
X98029733Y-56700800D01*
X98124971Y-56653180D01*
X98886876Y-57653180D02*
X98886876Y-56653180D01*
X98982114Y-57272228D02*
X99267828Y-57653180D01*
X99267828Y-56986514D02*
X98886876Y-57367466D01*
X99648780Y-57653180D02*
X99886876Y-57653180D01*
X99886876Y-57462704D01*
X99791638Y-57415085D01*
X99696400Y-57319847D01*
X99648780Y-57176990D01*
X99648780Y-56938895D01*
X99696400Y-56796038D01*
X99791638Y-56700800D01*
X99934495Y-56653180D01*
X100124971Y-56653180D01*
X100267828Y-56700800D01*
X100363066Y-56796038D01*
X100410685Y-56938895D01*
X100410685Y-57176990D01*
X100363066Y-57319847D01*
X100267828Y-57415085D01*
X100172590Y-57462704D01*
X100172590Y-57653180D01*
X100410685Y-57653180D01*
X108085142Y-61564780D02*
X107513714Y-61564780D01*
X107799428Y-61564780D02*
X107799428Y-60564780D01*
X107704190Y-60707638D01*
X107608952Y-60802876D01*
X107513714Y-60850495D01*
X108704190Y-60564780D02*
X108799428Y-60564780D01*
X108894666Y-60612400D01*
X108942285Y-60660019D01*
X108989904Y-60755257D01*
X109037523Y-60945733D01*
X109037523Y-61183828D01*
X108989904Y-61374304D01*
X108942285Y-61469542D01*
X108894666Y-61517161D01*
X108799428Y-61564780D01*
X108704190Y-61564780D01*
X108608952Y-61517161D01*
X108561333Y-61469542D01*
X108513714Y-61374304D01*
X108466095Y-61183828D01*
X108466095Y-60945733D01*
X108513714Y-60755257D01*
X108561333Y-60660019D01*
X108608952Y-60612400D01*
X108704190Y-60564780D01*
X109656571Y-60564780D02*
X109751809Y-60564780D01*
X109847047Y-60612400D01*
X109894666Y-60660019D01*
X109942285Y-60755257D01*
X109989904Y-60945733D01*
X109989904Y-61183828D01*
X109942285Y-61374304D01*
X109894666Y-61469542D01*
X109847047Y-61517161D01*
X109751809Y-61564780D01*
X109656571Y-61564780D01*
X109561333Y-61517161D01*
X109513714Y-61469542D01*
X109466095Y-61374304D01*
X109418476Y-61183828D01*
X109418476Y-60945733D01*
X109466095Y-60755257D01*
X109513714Y-60660019D01*
X109561333Y-60612400D01*
X109656571Y-60564780D01*
X110418476Y-61564780D02*
X110418476Y-60564780D01*
X110513714Y-61183828D02*
X110799428Y-61564780D01*
X110799428Y-60898114D02*
X110418476Y-61279066D01*
X111180380Y-61564780D02*
X111418476Y-61564780D01*
X111418476Y-61374304D01*
X111323238Y-61326685D01*
X111228000Y-61231447D01*
X111180380Y-61088590D01*
X111180380Y-60850495D01*
X111228000Y-60707638D01*
X111323238Y-60612400D01*
X111466095Y-60564780D01*
X111656571Y-60564780D01*
X111799428Y-60612400D01*
X111894666Y-60707638D01*
X111942285Y-60850495D01*
X111942285Y-61088590D01*
X111894666Y-61231447D01*
X111799428Y-61326685D01*
X111704190Y-61374304D01*
X111704190Y-61564780D01*
X111942285Y-61564780D01*
X95018457Y-61021980D02*
X95637504Y-61021980D01*
X95304171Y-61402933D01*
X95447028Y-61402933D01*
X95542266Y-61450552D01*
X95589885Y-61498171D01*
X95637504Y-61593409D01*
X95637504Y-61831504D01*
X95589885Y-61926742D01*
X95542266Y-61974361D01*
X95447028Y-62021980D01*
X95161314Y-62021980D01*
X95066076Y-61974361D01*
X95018457Y-61926742D01*
X95970838Y-61021980D02*
X96589885Y-61021980D01*
X96256552Y-61402933D01*
X96399409Y-61402933D01*
X96494647Y-61450552D01*
X96542266Y-61498171D01*
X96589885Y-61593409D01*
X96589885Y-61831504D01*
X96542266Y-61926742D01*
X96494647Y-61974361D01*
X96399409Y-62021980D01*
X96113695Y-62021980D01*
X96018457Y-61974361D01*
X95970838Y-61926742D01*
X97208933Y-61021980D02*
X97304171Y-61021980D01*
X97399409Y-61069600D01*
X97447028Y-61117219D01*
X97494647Y-61212457D01*
X97542266Y-61402933D01*
X97542266Y-61641028D01*
X97494647Y-61831504D01*
X97447028Y-61926742D01*
X97399409Y-61974361D01*
X97304171Y-62021980D01*
X97208933Y-62021980D01*
X97113695Y-61974361D01*
X97066076Y-61926742D01*
X97018457Y-61831504D01*
X96970838Y-61641028D01*
X96970838Y-61402933D01*
X97018457Y-61212457D01*
X97066076Y-61117219D01*
X97113695Y-61069600D01*
X97208933Y-61021980D01*
X97923219Y-62021980D02*
X98161314Y-62021980D01*
X98161314Y-61831504D01*
X98066076Y-61783885D01*
X97970838Y-61688647D01*
X97923219Y-61545790D01*
X97923219Y-61307695D01*
X97970838Y-61164838D01*
X98066076Y-61069600D01*
X98208933Y-61021980D01*
X98399409Y-61021980D01*
X98542266Y-61069600D01*
X98637504Y-61164838D01*
X98685123Y-61307695D01*
X98685123Y-61545790D01*
X98637504Y-61688647D01*
X98542266Y-61783885D01*
X98447028Y-61831504D01*
X98447028Y-62021980D01*
X98685123Y-62021980D01*
X95221657Y-64222380D02*
X95840704Y-64222380D01*
X95507371Y-64603333D01*
X95650228Y-64603333D01*
X95745466Y-64650952D01*
X95793085Y-64698571D01*
X95840704Y-64793809D01*
X95840704Y-65031904D01*
X95793085Y-65127142D01*
X95745466Y-65174761D01*
X95650228Y-65222380D01*
X95364514Y-65222380D01*
X95269276Y-65174761D01*
X95221657Y-65127142D01*
X96174038Y-64222380D02*
X96793085Y-64222380D01*
X96459752Y-64603333D01*
X96602609Y-64603333D01*
X96697847Y-64650952D01*
X96745466Y-64698571D01*
X96793085Y-64793809D01*
X96793085Y-65031904D01*
X96745466Y-65127142D01*
X96697847Y-65174761D01*
X96602609Y-65222380D01*
X96316895Y-65222380D01*
X96221657Y-65174761D01*
X96174038Y-65127142D01*
X97412133Y-64222380D02*
X97507371Y-64222380D01*
X97602609Y-64270000D01*
X97650228Y-64317619D01*
X97697847Y-64412857D01*
X97745466Y-64603333D01*
X97745466Y-64841428D01*
X97697847Y-65031904D01*
X97650228Y-65127142D01*
X97602609Y-65174761D01*
X97507371Y-65222380D01*
X97412133Y-65222380D01*
X97316895Y-65174761D01*
X97269276Y-65127142D01*
X97221657Y-65031904D01*
X97174038Y-64841428D01*
X97174038Y-64603333D01*
X97221657Y-64412857D01*
X97269276Y-64317619D01*
X97316895Y-64270000D01*
X97412133Y-64222380D01*
X98126419Y-65222380D02*
X98364514Y-65222380D01*
X98364514Y-65031904D01*
X98269276Y-64984285D01*
X98174038Y-64889047D01*
X98126419Y-64746190D01*
X98126419Y-64508095D01*
X98174038Y-64365238D01*
X98269276Y-64270000D01*
X98412133Y-64222380D01*
X98602609Y-64222380D01*
X98745466Y-64270000D01*
X98840704Y-64365238D01*
X98888323Y-64508095D01*
X98888323Y-64746190D01*
X98840704Y-64889047D01*
X98745466Y-64984285D01*
X98650228Y-65031904D01*
X98650228Y-65222380D01*
X98888323Y-65222380D01*
X95221657Y-67219580D02*
X95840704Y-67219580D01*
X95507371Y-67600533D01*
X95650228Y-67600533D01*
X95745466Y-67648152D01*
X95793085Y-67695771D01*
X95840704Y-67791009D01*
X95840704Y-68029104D01*
X95793085Y-68124342D01*
X95745466Y-68171961D01*
X95650228Y-68219580D01*
X95364514Y-68219580D01*
X95269276Y-68171961D01*
X95221657Y-68124342D01*
X96174038Y-67219580D02*
X96793085Y-67219580D01*
X96459752Y-67600533D01*
X96602609Y-67600533D01*
X96697847Y-67648152D01*
X96745466Y-67695771D01*
X96793085Y-67791009D01*
X96793085Y-68029104D01*
X96745466Y-68124342D01*
X96697847Y-68171961D01*
X96602609Y-68219580D01*
X96316895Y-68219580D01*
X96221657Y-68171961D01*
X96174038Y-68124342D01*
X97412133Y-67219580D02*
X97507371Y-67219580D01*
X97602609Y-67267200D01*
X97650228Y-67314819D01*
X97697847Y-67410057D01*
X97745466Y-67600533D01*
X97745466Y-67838628D01*
X97697847Y-68029104D01*
X97650228Y-68124342D01*
X97602609Y-68171961D01*
X97507371Y-68219580D01*
X97412133Y-68219580D01*
X97316895Y-68171961D01*
X97269276Y-68124342D01*
X97221657Y-68029104D01*
X97174038Y-67838628D01*
X97174038Y-67600533D01*
X97221657Y-67410057D01*
X97269276Y-67314819D01*
X97316895Y-67267200D01*
X97412133Y-67219580D01*
X98126419Y-68219580D02*
X98364514Y-68219580D01*
X98364514Y-68029104D01*
X98269276Y-67981485D01*
X98174038Y-67886247D01*
X98126419Y-67743390D01*
X98126419Y-67505295D01*
X98174038Y-67362438D01*
X98269276Y-67267200D01*
X98412133Y-67219580D01*
X98602609Y-67219580D01*
X98745466Y-67267200D01*
X98840704Y-67362438D01*
X98888323Y-67505295D01*
X98888323Y-67743390D01*
X98840704Y-67886247D01*
X98745466Y-67981485D01*
X98650228Y-68029104D01*
X98650228Y-68219580D01*
X98888323Y-68219580D01*
X110614057Y-68489580D02*
X111233104Y-68489580D01*
X110899771Y-68870533D01*
X111042628Y-68870533D01*
X111137866Y-68918152D01*
X111185485Y-68965771D01*
X111233104Y-69061009D01*
X111233104Y-69299104D01*
X111185485Y-69394342D01*
X111137866Y-69441961D01*
X111042628Y-69489580D01*
X110756914Y-69489580D01*
X110661676Y-69441961D01*
X110614057Y-69394342D01*
X111566438Y-68489580D02*
X112185485Y-68489580D01*
X111852152Y-68870533D01*
X111995009Y-68870533D01*
X112090247Y-68918152D01*
X112137866Y-68965771D01*
X112185485Y-69061009D01*
X112185485Y-69299104D01*
X112137866Y-69394342D01*
X112090247Y-69441961D01*
X111995009Y-69489580D01*
X111709295Y-69489580D01*
X111614057Y-69441961D01*
X111566438Y-69394342D01*
X112804533Y-68489580D02*
X112899771Y-68489580D01*
X112995009Y-68537200D01*
X113042628Y-68584819D01*
X113090247Y-68680057D01*
X113137866Y-68870533D01*
X113137866Y-69108628D01*
X113090247Y-69299104D01*
X113042628Y-69394342D01*
X112995009Y-69441961D01*
X112899771Y-69489580D01*
X112804533Y-69489580D01*
X112709295Y-69441961D01*
X112661676Y-69394342D01*
X112614057Y-69299104D01*
X112566438Y-69108628D01*
X112566438Y-68870533D01*
X112614057Y-68680057D01*
X112661676Y-68584819D01*
X112709295Y-68537200D01*
X112804533Y-68489580D01*
X113518819Y-69489580D02*
X113756914Y-69489580D01*
X113756914Y-69299104D01*
X113661676Y-69251485D01*
X113566438Y-69156247D01*
X113518819Y-69013390D01*
X113518819Y-68775295D01*
X113566438Y-68632438D01*
X113661676Y-68537200D01*
X113804533Y-68489580D01*
X113995009Y-68489580D01*
X114137866Y-68537200D01*
X114233104Y-68632438D01*
X114280723Y-68775295D01*
X114280723Y-69013390D01*
X114233104Y-69156247D01*
X114137866Y-69251485D01*
X114042628Y-69299104D01*
X114042628Y-69489580D01*
X114280723Y-69489580D01*
X110817257Y-63612780D02*
X111436304Y-63612780D01*
X111102971Y-63993733D01*
X111245828Y-63993733D01*
X111341066Y-64041352D01*
X111388685Y-64088971D01*
X111436304Y-64184209D01*
X111436304Y-64422304D01*
X111388685Y-64517542D01*
X111341066Y-64565161D01*
X111245828Y-64612780D01*
X110960114Y-64612780D01*
X110864876Y-64565161D01*
X110817257Y-64517542D01*
X111769638Y-63612780D02*
X112388685Y-63612780D01*
X112055352Y-63993733D01*
X112198209Y-63993733D01*
X112293447Y-64041352D01*
X112341066Y-64088971D01*
X112388685Y-64184209D01*
X112388685Y-64422304D01*
X112341066Y-64517542D01*
X112293447Y-64565161D01*
X112198209Y-64612780D01*
X111912495Y-64612780D01*
X111817257Y-64565161D01*
X111769638Y-64517542D01*
X113007733Y-63612780D02*
X113102971Y-63612780D01*
X113198209Y-63660400D01*
X113245828Y-63708019D01*
X113293447Y-63803257D01*
X113341066Y-63993733D01*
X113341066Y-64231828D01*
X113293447Y-64422304D01*
X113245828Y-64517542D01*
X113198209Y-64565161D01*
X113102971Y-64612780D01*
X113007733Y-64612780D01*
X112912495Y-64565161D01*
X112864876Y-64517542D01*
X112817257Y-64422304D01*
X112769638Y-64231828D01*
X112769638Y-63993733D01*
X112817257Y-63803257D01*
X112864876Y-63708019D01*
X112912495Y-63660400D01*
X113007733Y-63612780D01*
X113722019Y-64612780D02*
X113960114Y-64612780D01*
X113960114Y-64422304D01*
X113864876Y-64374685D01*
X113769638Y-64279447D01*
X113722019Y-64136590D01*
X113722019Y-63898495D01*
X113769638Y-63755638D01*
X113864876Y-63660400D01*
X114007733Y-63612780D01*
X114198209Y-63612780D01*
X114341066Y-63660400D01*
X114436304Y-63755638D01*
X114483923Y-63898495D01*
X114483923Y-64136590D01*
X114436304Y-64279447D01*
X114341066Y-64374685D01*
X114245828Y-64422304D01*
X114245828Y-64612780D01*
X114483923Y-64612780D01*
X125193657Y-67676780D02*
X125812704Y-67676780D01*
X125479371Y-68057733D01*
X125622228Y-68057733D01*
X125717466Y-68105352D01*
X125765085Y-68152971D01*
X125812704Y-68248209D01*
X125812704Y-68486304D01*
X125765085Y-68581542D01*
X125717466Y-68629161D01*
X125622228Y-68676780D01*
X125336514Y-68676780D01*
X125241276Y-68629161D01*
X125193657Y-68581542D01*
X126146038Y-67676780D02*
X126765085Y-67676780D01*
X126431752Y-68057733D01*
X126574609Y-68057733D01*
X126669847Y-68105352D01*
X126717466Y-68152971D01*
X126765085Y-68248209D01*
X126765085Y-68486304D01*
X126717466Y-68581542D01*
X126669847Y-68629161D01*
X126574609Y-68676780D01*
X126288895Y-68676780D01*
X126193657Y-68629161D01*
X126146038Y-68581542D01*
X127384133Y-67676780D02*
X127479371Y-67676780D01*
X127574609Y-67724400D01*
X127622228Y-67772019D01*
X127669847Y-67867257D01*
X127717466Y-68057733D01*
X127717466Y-68295828D01*
X127669847Y-68486304D01*
X127622228Y-68581542D01*
X127574609Y-68629161D01*
X127479371Y-68676780D01*
X127384133Y-68676780D01*
X127288895Y-68629161D01*
X127241276Y-68581542D01*
X127193657Y-68486304D01*
X127146038Y-68295828D01*
X127146038Y-68057733D01*
X127193657Y-67867257D01*
X127241276Y-67772019D01*
X127288895Y-67724400D01*
X127384133Y-67676780D01*
X128098419Y-68676780D02*
X128336514Y-68676780D01*
X128336514Y-68486304D01*
X128241276Y-68438685D01*
X128146038Y-68343447D01*
X128098419Y-68200590D01*
X128098419Y-67962495D01*
X128146038Y-67819638D01*
X128241276Y-67724400D01*
X128384133Y-67676780D01*
X128574609Y-67676780D01*
X128717466Y-67724400D01*
X128812704Y-67819638D01*
X128860323Y-67962495D01*
X128860323Y-68200590D01*
X128812704Y-68343447D01*
X128717466Y-68438685D01*
X128622228Y-68486304D01*
X128622228Y-68676780D01*
X128860323Y-68676780D01*
X125193657Y-64628780D02*
X125812704Y-64628780D01*
X125479371Y-65009733D01*
X125622228Y-65009733D01*
X125717466Y-65057352D01*
X125765085Y-65104971D01*
X125812704Y-65200209D01*
X125812704Y-65438304D01*
X125765085Y-65533542D01*
X125717466Y-65581161D01*
X125622228Y-65628780D01*
X125336514Y-65628780D01*
X125241276Y-65581161D01*
X125193657Y-65533542D01*
X126146038Y-64628780D02*
X126765085Y-64628780D01*
X126431752Y-65009733D01*
X126574609Y-65009733D01*
X126669847Y-65057352D01*
X126717466Y-65104971D01*
X126765085Y-65200209D01*
X126765085Y-65438304D01*
X126717466Y-65533542D01*
X126669847Y-65581161D01*
X126574609Y-65628780D01*
X126288895Y-65628780D01*
X126193657Y-65581161D01*
X126146038Y-65533542D01*
X127384133Y-64628780D02*
X127479371Y-64628780D01*
X127574609Y-64676400D01*
X127622228Y-64724019D01*
X127669847Y-64819257D01*
X127717466Y-65009733D01*
X127717466Y-65247828D01*
X127669847Y-65438304D01*
X127622228Y-65533542D01*
X127574609Y-65581161D01*
X127479371Y-65628780D01*
X127384133Y-65628780D01*
X127288895Y-65581161D01*
X127241276Y-65533542D01*
X127193657Y-65438304D01*
X127146038Y-65247828D01*
X127146038Y-65009733D01*
X127193657Y-64819257D01*
X127241276Y-64724019D01*
X127288895Y-64676400D01*
X127384133Y-64628780D01*
X128098419Y-65628780D02*
X128336514Y-65628780D01*
X128336514Y-65438304D01*
X128241276Y-65390685D01*
X128146038Y-65295447D01*
X128098419Y-65152590D01*
X128098419Y-64914495D01*
X128146038Y-64771638D01*
X128241276Y-64676400D01*
X128384133Y-64628780D01*
X128574609Y-64628780D01*
X128717466Y-64676400D01*
X128812704Y-64771638D01*
X128860323Y-64914495D01*
X128860323Y-65152590D01*
X128812704Y-65295447D01*
X128717466Y-65390685D01*
X128622228Y-65438304D01*
X128622228Y-65628780D01*
X128860323Y-65628780D01*
X142657580Y-71503942D02*
X142657580Y-70884895D01*
X143038533Y-71218228D01*
X143038533Y-71075371D01*
X143086152Y-70980133D01*
X143133771Y-70932514D01*
X143229009Y-70884895D01*
X143467104Y-70884895D01*
X143562342Y-70932514D01*
X143609961Y-70980133D01*
X143657580Y-71075371D01*
X143657580Y-71361085D01*
X143609961Y-71456323D01*
X143562342Y-71503942D01*
X142657580Y-70551561D02*
X142657580Y-69932514D01*
X143038533Y-70265847D01*
X143038533Y-70122990D01*
X143086152Y-70027752D01*
X143133771Y-69980133D01*
X143229009Y-69932514D01*
X143467104Y-69932514D01*
X143562342Y-69980133D01*
X143609961Y-70027752D01*
X143657580Y-70122990D01*
X143657580Y-70408704D01*
X143609961Y-70503942D01*
X143562342Y-70551561D01*
X142657580Y-69313466D02*
X142657580Y-69218228D01*
X142705200Y-69122990D01*
X142752819Y-69075371D01*
X142848057Y-69027752D01*
X143038533Y-68980133D01*
X143276628Y-68980133D01*
X143467104Y-69027752D01*
X143562342Y-69075371D01*
X143609961Y-69122990D01*
X143657580Y-69218228D01*
X143657580Y-69313466D01*
X143609961Y-69408704D01*
X143562342Y-69456323D01*
X143467104Y-69503942D01*
X143276628Y-69551561D01*
X143038533Y-69551561D01*
X142848057Y-69503942D01*
X142752819Y-69456323D01*
X142705200Y-69408704D01*
X142657580Y-69313466D01*
X143657580Y-68599180D02*
X143657580Y-68361085D01*
X143467104Y-68361085D01*
X143419485Y-68456323D01*
X143324247Y-68551561D01*
X143181390Y-68599180D01*
X142943295Y-68599180D01*
X142800438Y-68551561D01*
X142705200Y-68456323D01*
X142657580Y-68313466D01*
X142657580Y-68122990D01*
X142705200Y-67980133D01*
X142800438Y-67884895D01*
X142943295Y-67837276D01*
X143181390Y-67837276D01*
X143324247Y-67884895D01*
X143419485Y-67980133D01*
X143467104Y-68075371D01*
X143657580Y-68075371D01*
X143657580Y-67837276D01*
X87447380Y-48855190D02*
X86971190Y-49188523D01*
X87447380Y-49426619D02*
X86447380Y-49426619D01*
X86447380Y-49045666D01*
X86495000Y-48950428D01*
X86542619Y-48902809D01*
X86637857Y-48855190D01*
X86780714Y-48855190D01*
X86875952Y-48902809D01*
X86923571Y-48950428D01*
X86971190Y-49045666D01*
X86971190Y-49426619D01*
X87399761Y-48045666D02*
X87447380Y-48140904D01*
X87447380Y-48331380D01*
X87399761Y-48426619D01*
X87304523Y-48474238D01*
X86923571Y-48474238D01*
X86828333Y-48426619D01*
X86780714Y-48331380D01*
X86780714Y-48140904D01*
X86828333Y-48045666D01*
X86923571Y-47998047D01*
X87018809Y-47998047D01*
X87114047Y-48474238D01*
X86780714Y-47664714D02*
X87447380Y-47426619D01*
X86780714Y-47188523D01*
X86542619Y-46855190D02*
X86495000Y-46807571D01*
X86447380Y-46712333D01*
X86447380Y-46474238D01*
X86495000Y-46379000D01*
X86542619Y-46331380D01*
X86637857Y-46283761D01*
X86733095Y-46283761D01*
X86875952Y-46331380D01*
X87447380Y-46902809D01*
X87447380Y-46283761D01*
X87161666Y-44616523D02*
X87161666Y-44140333D01*
X87447380Y-44711761D02*
X86447380Y-44378428D01*
X87447380Y-44045095D01*
X86923571Y-43378428D02*
X86971190Y-43235571D01*
X87018809Y-43187952D01*
X87114047Y-43140333D01*
X87256904Y-43140333D01*
X87352142Y-43187952D01*
X87399761Y-43235571D01*
X87447380Y-43330809D01*
X87447380Y-43711761D01*
X86447380Y-43711761D01*
X86447380Y-43378428D01*
X86495000Y-43283190D01*
X86542619Y-43235571D01*
X86637857Y-43187952D01*
X86733095Y-43187952D01*
X86828333Y-43235571D01*
X86875952Y-43283190D01*
X86923571Y-43378428D01*
X86923571Y-43711761D01*
X86447380Y-42807000D02*
X87447380Y-42568904D01*
X86733095Y-42378428D01*
X87447380Y-42187952D01*
X86447380Y-41949857D01*
X86050952Y-75096476D02*
X86003333Y-75191714D01*
X85955714Y-75239333D01*
X85860476Y-75286952D01*
X85812857Y-75286952D01*
X85717619Y-75239333D01*
X85670000Y-75191714D01*
X85622380Y-75096476D01*
X85622380Y-74906000D01*
X85670000Y-74810761D01*
X85717619Y-74763142D01*
X85812857Y-74715523D01*
X85860476Y-74715523D01*
X85955714Y-74763142D01*
X86003333Y-74810761D01*
X86050952Y-74906000D01*
X86050952Y-75096476D01*
X86098571Y-75191714D01*
X86146190Y-75239333D01*
X86241428Y-75286952D01*
X86431904Y-75286952D01*
X86527142Y-75239333D01*
X86574761Y-75191714D01*
X86622380Y-75096476D01*
X86622380Y-74906000D01*
X86574761Y-74810761D01*
X86527142Y-74763142D01*
X86431904Y-74715523D01*
X86241428Y-74715523D01*
X86146190Y-74763142D01*
X86098571Y-74810761D01*
X86050952Y-74906000D01*
X86241428Y-74286952D02*
X86241428Y-73525047D01*
X86622380Y-73048857D02*
X85622380Y-73048857D01*
X86003333Y-73048857D02*
X85955714Y-72953619D01*
X85955714Y-72763142D01*
X86003333Y-72667904D01*
X86050952Y-72620285D01*
X86146190Y-72572666D01*
X86431904Y-72572666D01*
X86527142Y-72620285D01*
X86574761Y-72667904D01*
X86622380Y-72763142D01*
X86622380Y-72953619D01*
X86574761Y-73048857D01*
X86622380Y-72144095D02*
X85955714Y-72144095D01*
X85622380Y-72144095D02*
X85670000Y-72191714D01*
X85717619Y-72144095D01*
X85670000Y-72096476D01*
X85622380Y-72144095D01*
X85717619Y-72144095D01*
X85955714Y-71810761D02*
X85955714Y-71429809D01*
X85622380Y-71667904D02*
X86479523Y-71667904D01*
X86574761Y-71620285D01*
X86622380Y-71525047D01*
X86622380Y-71429809D01*
X88224761Y-75548857D02*
X88272380Y-75644095D01*
X88272380Y-75834571D01*
X88224761Y-75929809D01*
X88177142Y-75977428D01*
X88081904Y-76025047D01*
X87796190Y-76025047D01*
X87700952Y-75977428D01*
X87653333Y-75929809D01*
X87605714Y-75834571D01*
X87605714Y-75644095D01*
X87653333Y-75548857D01*
X88272380Y-74977428D02*
X88224761Y-75072666D01*
X88177142Y-75120285D01*
X88081904Y-75167904D01*
X87796190Y-75167904D01*
X87700952Y-75120285D01*
X87653333Y-75072666D01*
X87605714Y-74977428D01*
X87605714Y-74834571D01*
X87653333Y-74739333D01*
X87700952Y-74691714D01*
X87796190Y-74644095D01*
X88081904Y-74644095D01*
X88177142Y-74691714D01*
X88224761Y-74739333D01*
X88272380Y-74834571D01*
X88272380Y-74977428D01*
X87605714Y-73786952D02*
X88272380Y-73786952D01*
X87605714Y-74215523D02*
X88129523Y-74215523D01*
X88224761Y-74167904D01*
X88272380Y-74072666D01*
X88272380Y-73929809D01*
X88224761Y-73834571D01*
X88177142Y-73786952D01*
X87605714Y-73310761D02*
X88272380Y-73310761D01*
X87700952Y-73310761D02*
X87653333Y-73263142D01*
X87605714Y-73167904D01*
X87605714Y-73025047D01*
X87653333Y-72929809D01*
X87748571Y-72882190D01*
X88272380Y-72882190D01*
X87605714Y-72548857D02*
X87605714Y-72167904D01*
X87272380Y-72406000D02*
X88129523Y-72406000D01*
X88224761Y-72358380D01*
X88272380Y-72263142D01*
X88272380Y-72167904D01*
X88224761Y-71453619D02*
X88272380Y-71548857D01*
X88272380Y-71739333D01*
X88224761Y-71834571D01*
X88129523Y-71882190D01*
X87748571Y-71882190D01*
X87653333Y-71834571D01*
X87605714Y-71739333D01*
X87605714Y-71548857D01*
X87653333Y-71453619D01*
X87748571Y-71406000D01*
X87843809Y-71406000D01*
X87939047Y-71882190D01*
X88272380Y-70977428D02*
X87605714Y-70977428D01*
X87796190Y-70977428D02*
X87700952Y-70929809D01*
X87653333Y-70882190D01*
X87605714Y-70786952D01*
X87605714Y-70691714D01*
D12*
X87058571Y-68687142D02*
X88201428Y-68687142D01*
X87630000Y-69258571D02*
X87630000Y-68115714D01*
X87058571Y-50145142D02*
X88201428Y-50145142D01*
D13*
X112106225Y-42471000D02*
X112106225Y-42971000D01*
X111856225Y-42721000D02*
X112356225Y-42721000D01*
X117262000Y-43912000D02*
X117262000Y-44480000D01*
X117222000Y-43678000D02*
X117222000Y-44714000D01*
X117182000Y-43519000D02*
X117182000Y-44873000D01*
X117142000Y-43391000D02*
X117142000Y-45001000D01*
X117102000Y-43281000D02*
X117102000Y-45111000D01*
X117062000Y-43185000D02*
X117062000Y-45207000D01*
X117022000Y-43098000D02*
X117022000Y-45294000D01*
X116982000Y-43018000D02*
X116982000Y-45374000D01*
X116942000Y-45236000D02*
X116942000Y-45447000D01*
X116942000Y-42945000D02*
X116942000Y-43156000D01*
X116902000Y-45236000D02*
X116902000Y-45515000D01*
X116902000Y-42877000D02*
X116902000Y-43156000D01*
X116862000Y-45236000D02*
X116862000Y-45579000D01*
X116862000Y-42813000D02*
X116862000Y-43156000D01*
X116822000Y-45236000D02*
X116822000Y-45639000D01*
X116822000Y-42753000D02*
X116822000Y-43156000D01*
X116782000Y-45236000D02*
X116782000Y-45696000D01*
X116782000Y-42696000D02*
X116782000Y-43156000D01*
X116742000Y-45236000D02*
X116742000Y-45750000D01*
X116742000Y-42642000D02*
X116742000Y-43156000D01*
X116702000Y-45236000D02*
X116702000Y-45801000D01*
X116702000Y-42591000D02*
X116702000Y-43156000D01*
X116662000Y-45236000D02*
X116662000Y-45849000D01*
X116662000Y-42543000D02*
X116662000Y-43156000D01*
X116622000Y-45236000D02*
X116622000Y-45895000D01*
X116622000Y-42497000D02*
X116622000Y-43156000D01*
X116582000Y-45236000D02*
X116582000Y-45939000D01*
X116582000Y-42453000D02*
X116582000Y-43156000D01*
X116542000Y-45236000D02*
X116542000Y-45981000D01*
X116542000Y-42411000D02*
X116542000Y-43156000D01*
X116502000Y-45236000D02*
X116502000Y-46022000D01*
X116502000Y-42370000D02*
X116502000Y-43156000D01*
X116462000Y-45236000D02*
X116462000Y-46060000D01*
X116462000Y-42332000D02*
X116462000Y-43156000D01*
X116422000Y-45236000D02*
X116422000Y-46097000D01*
X116422000Y-42295000D02*
X116422000Y-43156000D01*
X116382000Y-45236000D02*
X116382000Y-46133000D01*
X116382000Y-42259000D02*
X116382000Y-43156000D01*
X116342000Y-45236000D02*
X116342000Y-46167000D01*
X116342000Y-42225000D02*
X116342000Y-43156000D01*
X116302000Y-45236000D02*
X116302000Y-46200000D01*
X116302000Y-42192000D02*
X116302000Y-43156000D01*
X116262000Y-45236000D02*
X116262000Y-46231000D01*
X116262000Y-42161000D02*
X116262000Y-43156000D01*
X116222000Y-45236000D02*
X116222000Y-46261000D01*
X116222000Y-42131000D02*
X116222000Y-43156000D01*
X116182000Y-45236000D02*
X116182000Y-46291000D01*
X116182000Y-42101000D02*
X116182000Y-43156000D01*
X116142000Y-45236000D02*
X116142000Y-46318000D01*
X116142000Y-42074000D02*
X116142000Y-43156000D01*
X116102000Y-45236000D02*
X116102000Y-46345000D01*
X116102000Y-42047000D02*
X116102000Y-43156000D01*
X116062000Y-45236000D02*
X116062000Y-46371000D01*
X116062000Y-42021000D02*
X116062000Y-43156000D01*
X116022000Y-45236000D02*
X116022000Y-46396000D01*
X116022000Y-41996000D02*
X116022000Y-43156000D01*
X115982000Y-45236000D02*
X115982000Y-46420000D01*
X115982000Y-41972000D02*
X115982000Y-43156000D01*
X115942000Y-45236000D02*
X115942000Y-46443000D01*
X115942000Y-41949000D02*
X115942000Y-43156000D01*
X115902000Y-45236000D02*
X115902000Y-46464000D01*
X115902000Y-41928000D02*
X115902000Y-43156000D01*
X115862000Y-45236000D02*
X115862000Y-46486000D01*
X115862000Y-41906000D02*
X115862000Y-43156000D01*
X115822000Y-45236000D02*
X115822000Y-46506000D01*
X115822000Y-41886000D02*
X115822000Y-43156000D01*
X115782000Y-45236000D02*
X115782000Y-46525000D01*
X115782000Y-41867000D02*
X115782000Y-43156000D01*
X115742000Y-45236000D02*
X115742000Y-46544000D01*
X115742000Y-41848000D02*
X115742000Y-43156000D01*
X115702000Y-45236000D02*
X115702000Y-46561000D01*
X115702000Y-41831000D02*
X115702000Y-43156000D01*
X115662000Y-45236000D02*
X115662000Y-46578000D01*
X115662000Y-41814000D02*
X115662000Y-43156000D01*
X115622000Y-45236000D02*
X115622000Y-46594000D01*
X115622000Y-41798000D02*
X115622000Y-43156000D01*
X115582000Y-45236000D02*
X115582000Y-46610000D01*
X115582000Y-41782000D02*
X115582000Y-43156000D01*
X115542000Y-45236000D02*
X115542000Y-46624000D01*
X115542000Y-41768000D02*
X115542000Y-43156000D01*
X115502000Y-45236000D02*
X115502000Y-46638000D01*
X115502000Y-41754000D02*
X115502000Y-43156000D01*
X115462000Y-45236000D02*
X115462000Y-46651000D01*
X115462000Y-41741000D02*
X115462000Y-43156000D01*
X115422000Y-45236000D02*
X115422000Y-46664000D01*
X115422000Y-41728000D02*
X115422000Y-43156000D01*
X115382000Y-45236000D02*
X115382000Y-46676000D01*
X115382000Y-41716000D02*
X115382000Y-43156000D01*
X115341000Y-45236000D02*
X115341000Y-46687000D01*
X115341000Y-41705000D02*
X115341000Y-43156000D01*
X115301000Y-45236000D02*
X115301000Y-46697000D01*
X115301000Y-41695000D02*
X115301000Y-43156000D01*
X115261000Y-45236000D02*
X115261000Y-46707000D01*
X115261000Y-41685000D02*
X115261000Y-43156000D01*
X115221000Y-45236000D02*
X115221000Y-46716000D01*
X115221000Y-41676000D02*
X115221000Y-43156000D01*
X115181000Y-45236000D02*
X115181000Y-46724000D01*
X115181000Y-41668000D02*
X115181000Y-43156000D01*
X115141000Y-45236000D02*
X115141000Y-46732000D01*
X115141000Y-41660000D02*
X115141000Y-43156000D01*
X115101000Y-45236000D02*
X115101000Y-46739000D01*
X115101000Y-41653000D02*
X115101000Y-43156000D01*
X115061000Y-45236000D02*
X115061000Y-46746000D01*
X115061000Y-41646000D02*
X115061000Y-43156000D01*
X115021000Y-45236000D02*
X115021000Y-46752000D01*
X115021000Y-41640000D02*
X115021000Y-43156000D01*
X114981000Y-45236000D02*
X114981000Y-46757000D01*
X114981000Y-41635000D02*
X114981000Y-43156000D01*
X114941000Y-45236000D02*
X114941000Y-46761000D01*
X114941000Y-41631000D02*
X114941000Y-43156000D01*
X114901000Y-45236000D02*
X114901000Y-46765000D01*
X114901000Y-41627000D02*
X114901000Y-43156000D01*
X114861000Y-41623000D02*
X114861000Y-46769000D01*
X114821000Y-41620000D02*
X114821000Y-46772000D01*
X114781000Y-41618000D02*
X114781000Y-46774000D01*
X114741000Y-41617000D02*
X114741000Y-46775000D01*
X114701000Y-41616000D02*
X114701000Y-46776000D01*
X114661000Y-41616000D02*
X114661000Y-46776000D01*
X117281000Y-44196000D02*
G75*
G03X117281000Y-44196000I-2620000J0D01*
G01*
X103978225Y-41709000D02*
X103978225Y-42209000D01*
X103728225Y-41959000D02*
X104228225Y-41959000D01*
X109134000Y-43150000D02*
X109134000Y-43718000D01*
X109094000Y-42916000D02*
X109094000Y-43952000D01*
X109054000Y-42757000D02*
X109054000Y-44111000D01*
X109014000Y-42629000D02*
X109014000Y-44239000D01*
X108974000Y-42519000D02*
X108974000Y-44349000D01*
X108934000Y-42423000D02*
X108934000Y-44445000D01*
X108894000Y-42336000D02*
X108894000Y-44532000D01*
X108854000Y-42256000D02*
X108854000Y-44612000D01*
X108814000Y-44474000D02*
X108814000Y-44685000D01*
X108814000Y-42183000D02*
X108814000Y-42394000D01*
X108774000Y-44474000D02*
X108774000Y-44753000D01*
X108774000Y-42115000D02*
X108774000Y-42394000D01*
X108734000Y-44474000D02*
X108734000Y-44817000D01*
X108734000Y-42051000D02*
X108734000Y-42394000D01*
X108694000Y-44474000D02*
X108694000Y-44877000D01*
X108694000Y-41991000D02*
X108694000Y-42394000D01*
X108654000Y-44474000D02*
X108654000Y-44934000D01*
X108654000Y-41934000D02*
X108654000Y-42394000D01*
X108614000Y-44474000D02*
X108614000Y-44988000D01*
X108614000Y-41880000D02*
X108614000Y-42394000D01*
X108574000Y-44474000D02*
X108574000Y-45039000D01*
X108574000Y-41829000D02*
X108574000Y-42394000D01*
X108534000Y-44474000D02*
X108534000Y-45087000D01*
X108534000Y-41781000D02*
X108534000Y-42394000D01*
X108494000Y-44474000D02*
X108494000Y-45133000D01*
X108494000Y-41735000D02*
X108494000Y-42394000D01*
X108454000Y-44474000D02*
X108454000Y-45177000D01*
X108454000Y-41691000D02*
X108454000Y-42394000D01*
X108414000Y-44474000D02*
X108414000Y-45219000D01*
X108414000Y-41649000D02*
X108414000Y-42394000D01*
X108374000Y-44474000D02*
X108374000Y-45260000D01*
X108374000Y-41608000D02*
X108374000Y-42394000D01*
X108334000Y-44474000D02*
X108334000Y-45298000D01*
X108334000Y-41570000D02*
X108334000Y-42394000D01*
X108294000Y-44474000D02*
X108294000Y-45335000D01*
X108294000Y-41533000D02*
X108294000Y-42394000D01*
X108254000Y-44474000D02*
X108254000Y-45371000D01*
X108254000Y-41497000D02*
X108254000Y-42394000D01*
X108214000Y-44474000D02*
X108214000Y-45405000D01*
X108214000Y-41463000D02*
X108214000Y-42394000D01*
X108174000Y-44474000D02*
X108174000Y-45438000D01*
X108174000Y-41430000D02*
X108174000Y-42394000D01*
X108134000Y-44474000D02*
X108134000Y-45469000D01*
X108134000Y-41399000D02*
X108134000Y-42394000D01*
X108094000Y-44474000D02*
X108094000Y-45499000D01*
X108094000Y-41369000D02*
X108094000Y-42394000D01*
X108054000Y-44474000D02*
X108054000Y-45529000D01*
X108054000Y-41339000D02*
X108054000Y-42394000D01*
X108014000Y-44474000D02*
X108014000Y-45556000D01*
X108014000Y-41312000D02*
X108014000Y-42394000D01*
X107974000Y-44474000D02*
X107974000Y-45583000D01*
X107974000Y-41285000D02*
X107974000Y-42394000D01*
X107934000Y-44474000D02*
X107934000Y-45609000D01*
X107934000Y-41259000D02*
X107934000Y-42394000D01*
X107894000Y-44474000D02*
X107894000Y-45634000D01*
X107894000Y-41234000D02*
X107894000Y-42394000D01*
X107854000Y-44474000D02*
X107854000Y-45658000D01*
X107854000Y-41210000D02*
X107854000Y-42394000D01*
X107814000Y-44474000D02*
X107814000Y-45681000D01*
X107814000Y-41187000D02*
X107814000Y-42394000D01*
X107774000Y-44474000D02*
X107774000Y-45702000D01*
X107774000Y-41166000D02*
X107774000Y-42394000D01*
X107734000Y-44474000D02*
X107734000Y-45724000D01*
X107734000Y-41144000D02*
X107734000Y-42394000D01*
X107694000Y-44474000D02*
X107694000Y-45744000D01*
X107694000Y-41124000D02*
X107694000Y-42394000D01*
X107654000Y-44474000D02*
X107654000Y-45763000D01*
X107654000Y-41105000D02*
X107654000Y-42394000D01*
X107614000Y-44474000D02*
X107614000Y-45782000D01*
X107614000Y-41086000D02*
X107614000Y-42394000D01*
X107574000Y-44474000D02*
X107574000Y-45799000D01*
X107574000Y-41069000D02*
X107574000Y-42394000D01*
X107534000Y-44474000D02*
X107534000Y-45816000D01*
X107534000Y-41052000D02*
X107534000Y-42394000D01*
X107494000Y-44474000D02*
X107494000Y-45832000D01*
X107494000Y-41036000D02*
X107494000Y-42394000D01*
X107454000Y-44474000D02*
X107454000Y-45848000D01*
X107454000Y-41020000D02*
X107454000Y-42394000D01*
X107414000Y-44474000D02*
X107414000Y-45862000D01*
X107414000Y-41006000D02*
X107414000Y-42394000D01*
X107374000Y-44474000D02*
X107374000Y-45876000D01*
X107374000Y-40992000D02*
X107374000Y-42394000D01*
X107334000Y-44474000D02*
X107334000Y-45889000D01*
X107334000Y-40979000D02*
X107334000Y-42394000D01*
X107294000Y-44474000D02*
X107294000Y-45902000D01*
X107294000Y-40966000D02*
X107294000Y-42394000D01*
X107254000Y-44474000D02*
X107254000Y-45914000D01*
X107254000Y-40954000D02*
X107254000Y-42394000D01*
X107213000Y-44474000D02*
X107213000Y-45925000D01*
X107213000Y-40943000D02*
X107213000Y-42394000D01*
X107173000Y-44474000D02*
X107173000Y-45935000D01*
X107173000Y-40933000D02*
X107173000Y-42394000D01*
X107133000Y-44474000D02*
X107133000Y-45945000D01*
X107133000Y-40923000D02*
X107133000Y-42394000D01*
X107093000Y-44474000D02*
X107093000Y-45954000D01*
X107093000Y-40914000D02*
X107093000Y-42394000D01*
X107053000Y-44474000D02*
X107053000Y-45962000D01*
X107053000Y-40906000D02*
X107053000Y-42394000D01*
X107013000Y-44474000D02*
X107013000Y-45970000D01*
X107013000Y-40898000D02*
X107013000Y-42394000D01*
X106973000Y-44474000D02*
X106973000Y-45977000D01*
X106973000Y-40891000D02*
X106973000Y-42394000D01*
X106933000Y-44474000D02*
X106933000Y-45984000D01*
X106933000Y-40884000D02*
X106933000Y-42394000D01*
X106893000Y-44474000D02*
X106893000Y-45990000D01*
X106893000Y-40878000D02*
X106893000Y-42394000D01*
X106853000Y-44474000D02*
X106853000Y-45995000D01*
X106853000Y-40873000D02*
X106853000Y-42394000D01*
X106813000Y-44474000D02*
X106813000Y-45999000D01*
X106813000Y-40869000D02*
X106813000Y-42394000D01*
X106773000Y-44474000D02*
X106773000Y-46003000D01*
X106773000Y-40865000D02*
X106773000Y-42394000D01*
X106733000Y-40861000D02*
X106733000Y-46007000D01*
X106693000Y-40858000D02*
X106693000Y-46010000D01*
X106653000Y-40856000D02*
X106653000Y-46012000D01*
X106613000Y-40855000D02*
X106613000Y-46013000D01*
X106573000Y-40854000D02*
X106573000Y-46014000D01*
X106533000Y-40854000D02*
X106533000Y-46014000D01*
X109153000Y-43434000D02*
G75*
G03X109153000Y-43434000I-2620000J0D01*
G01*
X86260000Y-55991000D02*
X89000000Y-55991000D01*
X86260000Y-64231000D02*
X89000000Y-64231000D01*
X89000000Y-64231000D02*
X89000000Y-55991000D01*
X86260000Y-64231000D02*
X86260000Y-55991000D01*
X102378000Y-40794000D02*
X102378000Y-43534000D01*
X94138000Y-40794000D02*
X94138000Y-43534000D01*
X94138000Y-43534000D02*
X102378000Y-43534000D01*
X94138000Y-40794000D02*
X102378000Y-40794000D01*
X100941000Y-61341000D02*
X100171000Y-61341000D01*
X92861000Y-61341000D02*
X93631000Y-61341000D01*
X100171000Y-59971000D02*
X93631000Y-59971000D01*
X100171000Y-62711000D02*
X100171000Y-59971000D01*
X93631000Y-62711000D02*
X100171000Y-62711000D01*
X93631000Y-59971000D02*
X93631000Y-62711000D01*
X108677225Y-46789000D02*
X108677225Y-47289000D01*
X108427225Y-47039000D02*
X108927225Y-47039000D01*
X113833000Y-48230000D02*
X113833000Y-48798000D01*
X113793000Y-47996000D02*
X113793000Y-49032000D01*
X113753000Y-47837000D02*
X113753000Y-49191000D01*
X113713000Y-47709000D02*
X113713000Y-49319000D01*
X113673000Y-47599000D02*
X113673000Y-49429000D01*
X113633000Y-47503000D02*
X113633000Y-49525000D01*
X113593000Y-47416000D02*
X113593000Y-49612000D01*
X113553000Y-47336000D02*
X113553000Y-49692000D01*
X113513000Y-49554000D02*
X113513000Y-49765000D01*
X113513000Y-47263000D02*
X113513000Y-47474000D01*
X113473000Y-49554000D02*
X113473000Y-49833000D01*
X113473000Y-47195000D02*
X113473000Y-47474000D01*
X113433000Y-49554000D02*
X113433000Y-49897000D01*
X113433000Y-47131000D02*
X113433000Y-47474000D01*
X113393000Y-49554000D02*
X113393000Y-49957000D01*
X113393000Y-47071000D02*
X113393000Y-47474000D01*
X113353000Y-49554000D02*
X113353000Y-50014000D01*
X113353000Y-47014000D02*
X113353000Y-47474000D01*
X113313000Y-49554000D02*
X113313000Y-50068000D01*
X113313000Y-46960000D02*
X113313000Y-47474000D01*
X113273000Y-49554000D02*
X113273000Y-50119000D01*
X113273000Y-46909000D02*
X113273000Y-47474000D01*
X113233000Y-49554000D02*
X113233000Y-50167000D01*
X113233000Y-46861000D02*
X113233000Y-47474000D01*
X113193000Y-49554000D02*
X113193000Y-50213000D01*
X113193000Y-46815000D02*
X113193000Y-47474000D01*
X113153000Y-49554000D02*
X113153000Y-50257000D01*
X113153000Y-46771000D02*
X113153000Y-47474000D01*
X113113000Y-49554000D02*
X113113000Y-50299000D01*
X113113000Y-46729000D02*
X113113000Y-47474000D01*
X113073000Y-49554000D02*
X113073000Y-50340000D01*
X113073000Y-46688000D02*
X113073000Y-47474000D01*
X113033000Y-49554000D02*
X113033000Y-50378000D01*
X113033000Y-46650000D02*
X113033000Y-47474000D01*
X112993000Y-49554000D02*
X112993000Y-50415000D01*
X112993000Y-46613000D02*
X112993000Y-47474000D01*
X112953000Y-49554000D02*
X112953000Y-50451000D01*
X112953000Y-46577000D02*
X112953000Y-47474000D01*
X112913000Y-49554000D02*
X112913000Y-50485000D01*
X112913000Y-46543000D02*
X112913000Y-47474000D01*
X112873000Y-49554000D02*
X112873000Y-50518000D01*
X112873000Y-46510000D02*
X112873000Y-47474000D01*
X112833000Y-49554000D02*
X112833000Y-50549000D01*
X112833000Y-46479000D02*
X112833000Y-47474000D01*
X112793000Y-49554000D02*
X112793000Y-50579000D01*
X112793000Y-46449000D02*
X112793000Y-47474000D01*
X112753000Y-49554000D02*
X112753000Y-50609000D01*
X112753000Y-46419000D02*
X112753000Y-47474000D01*
X112713000Y-49554000D02*
X112713000Y-50636000D01*
X112713000Y-46392000D02*
X112713000Y-47474000D01*
X112673000Y-49554000D02*
X112673000Y-50663000D01*
X112673000Y-46365000D02*
X112673000Y-47474000D01*
X112633000Y-49554000D02*
X112633000Y-50689000D01*
X112633000Y-46339000D02*
X112633000Y-47474000D01*
X112593000Y-49554000D02*
X112593000Y-50714000D01*
X112593000Y-46314000D02*
X112593000Y-47474000D01*
X112553000Y-49554000D02*
X112553000Y-50738000D01*
X112553000Y-46290000D02*
X112553000Y-47474000D01*
X112513000Y-49554000D02*
X112513000Y-50761000D01*
X112513000Y-46267000D02*
X112513000Y-47474000D01*
X112473000Y-49554000D02*
X112473000Y-50782000D01*
X112473000Y-46246000D02*
X112473000Y-47474000D01*
X112433000Y-49554000D02*
X112433000Y-50804000D01*
X112433000Y-46224000D02*
X112433000Y-47474000D01*
X112393000Y-49554000D02*
X112393000Y-50824000D01*
X112393000Y-46204000D02*
X112393000Y-47474000D01*
X112353000Y-49554000D02*
X112353000Y-50843000D01*
X112353000Y-46185000D02*
X112353000Y-47474000D01*
X112313000Y-49554000D02*
X112313000Y-50862000D01*
X112313000Y-46166000D02*
X112313000Y-47474000D01*
X112273000Y-49554000D02*
X112273000Y-50879000D01*
X112273000Y-46149000D02*
X112273000Y-47474000D01*
X112233000Y-49554000D02*
X112233000Y-50896000D01*
X112233000Y-46132000D02*
X112233000Y-47474000D01*
X112193000Y-49554000D02*
X112193000Y-50912000D01*
X112193000Y-46116000D02*
X112193000Y-47474000D01*
X112153000Y-49554000D02*
X112153000Y-50928000D01*
X112153000Y-46100000D02*
X112153000Y-47474000D01*
X112113000Y-49554000D02*
X112113000Y-50942000D01*
X112113000Y-46086000D02*
X112113000Y-47474000D01*
X112073000Y-49554000D02*
X112073000Y-50956000D01*
X112073000Y-46072000D02*
X112073000Y-47474000D01*
X112033000Y-49554000D02*
X112033000Y-50969000D01*
X112033000Y-46059000D02*
X112033000Y-47474000D01*
X111993000Y-49554000D02*
X111993000Y-50982000D01*
X111993000Y-46046000D02*
X111993000Y-47474000D01*
X111953000Y-49554000D02*
X111953000Y-50994000D01*
X111953000Y-46034000D02*
X111953000Y-47474000D01*
X111912000Y-49554000D02*
X111912000Y-51005000D01*
X111912000Y-46023000D02*
X111912000Y-47474000D01*
X111872000Y-49554000D02*
X111872000Y-51015000D01*
X111872000Y-46013000D02*
X111872000Y-47474000D01*
X111832000Y-49554000D02*
X111832000Y-51025000D01*
X111832000Y-46003000D02*
X111832000Y-47474000D01*
X111792000Y-49554000D02*
X111792000Y-51034000D01*
X111792000Y-45994000D02*
X111792000Y-47474000D01*
X111752000Y-49554000D02*
X111752000Y-51042000D01*
X111752000Y-45986000D02*
X111752000Y-47474000D01*
X111712000Y-49554000D02*
X111712000Y-51050000D01*
X111712000Y-45978000D02*
X111712000Y-47474000D01*
X111672000Y-49554000D02*
X111672000Y-51057000D01*
X111672000Y-45971000D02*
X111672000Y-47474000D01*
X111632000Y-49554000D02*
X111632000Y-51064000D01*
X111632000Y-45964000D02*
X111632000Y-47474000D01*
X111592000Y-49554000D02*
X111592000Y-51070000D01*
X111592000Y-45958000D02*
X111592000Y-47474000D01*
X111552000Y-49554000D02*
X111552000Y-51075000D01*
X111552000Y-45953000D02*
X111552000Y-47474000D01*
X111512000Y-49554000D02*
X111512000Y-51079000D01*
X111512000Y-45949000D02*
X111512000Y-47474000D01*
X111472000Y-49554000D02*
X111472000Y-51083000D01*
X111472000Y-45945000D02*
X111472000Y-47474000D01*
X111432000Y-45941000D02*
X111432000Y-51087000D01*
X111392000Y-45938000D02*
X111392000Y-51090000D01*
X111352000Y-45936000D02*
X111352000Y-51092000D01*
X111312000Y-45935000D02*
X111312000Y-51093000D01*
X111272000Y-45934000D02*
X111272000Y-51094000D01*
X111232000Y-45934000D02*
X111232000Y-51094000D01*
X113852000Y-48514000D02*
G75*
G03X113852000Y-48514000I-2620000J0D01*
G01*
X95648000Y-54416000D02*
X97298000Y-54416000D01*
X95648000Y-44136000D02*
X95648000Y-54416000D01*
X100948000Y-44136000D02*
X95648000Y-44136000D01*
X100948000Y-54416000D02*
X100948000Y-44136000D01*
X99298000Y-54416000D02*
X100948000Y-54416000D01*
X97298000Y-54416000D02*
G75*
G02X99298000Y-54416000I1000000J0D01*
G01*
X121936000Y-62290000D02*
G75*
G02X123936000Y-62290000I1000000J0D01*
G01*
X123936000Y-62290000D02*
X125586000Y-62290000D01*
X125586000Y-62290000D02*
X125586000Y-41850000D01*
X125586000Y-41850000D02*
X120286000Y-41850000D01*
X120286000Y-41850000D02*
X120286000Y-62290000D01*
X120286000Y-62290000D02*
X121936000Y-62290000D01*
X136414000Y-62290000D02*
G75*
G02X138414000Y-62290000I1000000J0D01*
G01*
X138414000Y-62290000D02*
X140064000Y-62290000D01*
X140064000Y-62290000D02*
X140064000Y-41850000D01*
X140064000Y-41850000D02*
X134764000Y-41850000D01*
X134764000Y-41850000D02*
X134764000Y-62290000D01*
X134764000Y-62290000D02*
X136414000Y-62290000D01*
X91694462Y-71686000D02*
G75*
G03X90149170Y-77236000I-462J-2990000D01*
G01*
X91693538Y-71686000D02*
G75*
G02X93238830Y-77236000I462J-2990000D01*
G01*
X94194000Y-74676000D02*
G75*
G03X94194000Y-74676000I-2500000J0D01*
G01*
X90149000Y-77236000D02*
X93239000Y-77236000D01*
X96716714Y-77236000D02*
X99806714Y-77236000D01*
X100761714Y-74676000D02*
G75*
G03X100761714Y-74676000I-2500000J0D01*
G01*
X98261252Y-71686000D02*
G75*
G02X99806544Y-77236000I462J-2990000D01*
G01*
X98262176Y-71686000D02*
G75*
G03X96716884Y-77236000I-462J-2990000D01*
G01*
X103284428Y-77236000D02*
X106374428Y-77236000D01*
X107329428Y-74676000D02*
G75*
G03X107329428Y-74676000I-2500000J0D01*
G01*
X104828966Y-71686000D02*
G75*
G02X106374258Y-77236000I462J-2990000D01*
G01*
X104829890Y-71686000D02*
G75*
G03X103284598Y-77236000I-462J-2990000D01*
G01*
X111397604Y-71686000D02*
G75*
G03X109852312Y-77236000I-462J-2990000D01*
G01*
X111396680Y-71686000D02*
G75*
G02X112941972Y-77236000I462J-2990000D01*
G01*
X113897142Y-74676000D02*
G75*
G03X113897142Y-74676000I-2500000J0D01*
G01*
X109852142Y-77236000D02*
X112942142Y-77236000D01*
X116419856Y-77236000D02*
X119509856Y-77236000D01*
X120464856Y-74676000D02*
G75*
G03X120464856Y-74676000I-2500000J0D01*
G01*
X117964394Y-71686000D02*
G75*
G02X119509686Y-77236000I462J-2990000D01*
G01*
X117965318Y-71686000D02*
G75*
G03X116420026Y-77236000I-462J-2990000D01*
G01*
X124533032Y-71686000D02*
G75*
G03X122987740Y-77236000I-462J-2990000D01*
G01*
X124532108Y-71686000D02*
G75*
G02X126077400Y-77236000I462J-2990000D01*
G01*
X127032570Y-74676000D02*
G75*
G03X127032570Y-74676000I-2500000J0D01*
G01*
X122987570Y-77236000D02*
X126077570Y-77236000D01*
X129555284Y-77236000D02*
X132645284Y-77236000D01*
X133600284Y-74676000D02*
G75*
G03X133600284Y-74676000I-2500000J0D01*
G01*
X131099822Y-71686000D02*
G75*
G02X132645114Y-77236000I462J-2990000D01*
G01*
X131100746Y-71686000D02*
G75*
G03X129555454Y-77236000I-462J-2990000D01*
G01*
X137668462Y-71686000D02*
G75*
G03X136123170Y-77236000I-462J-2990000D01*
G01*
X137667538Y-71686000D02*
G75*
G02X139212830Y-77236000I462J-2990000D01*
G01*
X140168000Y-74676000D02*
G75*
G03X140168000Y-74676000I-2500000J0D01*
G01*
X136123000Y-77236000D02*
X139213000Y-77236000D01*
X109148000Y-53953000D02*
X109148000Y-57553000D01*
X109159522Y-53914522D02*
G75*
G02X113598000Y-55753000I1838478J-1838478D01*
G01*
X109159522Y-57591478D02*
G75*
G03X113598000Y-55753000I1838478J1838478D01*
G01*
X90551000Y-45363000D02*
X90551000Y-46133000D01*
X90551000Y-53443000D02*
X90551000Y-52673000D01*
X89181000Y-46133000D02*
X89181000Y-52673000D01*
X91921000Y-46133000D02*
X89181000Y-46133000D01*
X91921000Y-52673000D02*
X91921000Y-46133000D01*
X89181000Y-52673000D02*
X91921000Y-52673000D01*
X95028000Y-55780000D02*
X95028000Y-58520000D01*
X95028000Y-58520000D02*
X101568000Y-58520000D01*
X101568000Y-58520000D02*
X101568000Y-55780000D01*
X101568000Y-55780000D02*
X95028000Y-55780000D01*
X94258000Y-57150000D02*
X95028000Y-57150000D01*
X102338000Y-57150000D02*
X101568000Y-57150000D01*
X100941000Y-64516000D02*
X100171000Y-64516000D01*
X92861000Y-64516000D02*
X93631000Y-64516000D01*
X100171000Y-63146000D02*
X93631000Y-63146000D01*
X100171000Y-65886000D02*
X100171000Y-63146000D01*
X93631000Y-65886000D02*
X100171000Y-65886000D01*
X93631000Y-63146000D02*
X93631000Y-65886000D01*
X93631000Y-66321000D02*
X93631000Y-69061000D01*
X93631000Y-69061000D02*
X100171000Y-69061000D01*
X100171000Y-69061000D02*
X100171000Y-66321000D01*
X100171000Y-66321000D02*
X93631000Y-66321000D01*
X92861000Y-67691000D02*
X93631000Y-67691000D01*
X100941000Y-67691000D02*
X100171000Y-67691000D01*
X118213000Y-65151000D02*
X117443000Y-65151000D01*
X110133000Y-65151000D02*
X110903000Y-65151000D01*
X117443000Y-63781000D02*
X110903000Y-63781000D01*
X117443000Y-66521000D02*
X117443000Y-63781000D01*
X110903000Y-66521000D02*
X117443000Y-66521000D01*
X110903000Y-63781000D02*
X110903000Y-66521000D01*
X110903000Y-66829000D02*
X110903000Y-69569000D01*
X110903000Y-69569000D02*
X117443000Y-69569000D01*
X117443000Y-69569000D02*
X117443000Y-66829000D01*
X117443000Y-66829000D02*
X110903000Y-66829000D01*
X110133000Y-68199000D02*
X110903000Y-68199000D01*
X118213000Y-68199000D02*
X117443000Y-68199000D01*
X123603000Y-63781000D02*
X123603000Y-66521000D01*
X123603000Y-66521000D02*
X130143000Y-66521000D01*
X130143000Y-66521000D02*
X130143000Y-63781000D01*
X130143000Y-63781000D02*
X123603000Y-63781000D01*
X122833000Y-65151000D02*
X123603000Y-65151000D01*
X130913000Y-65151000D02*
X130143000Y-65151000D01*
X130913000Y-68199000D02*
X130143000Y-68199000D01*
X122833000Y-68199000D02*
X123603000Y-68199000D01*
X130143000Y-66829000D02*
X123603000Y-66829000D01*
X130143000Y-69569000D02*
X130143000Y-66829000D01*
X123603000Y-69569000D02*
X130143000Y-69569000D01*
X123603000Y-66829000D02*
X123603000Y-69569000D01*
X141759000Y-72993000D02*
X144499000Y-72993000D01*
X144499000Y-72993000D02*
X144499000Y-66453000D01*
X144499000Y-66453000D02*
X141759000Y-66453000D01*
X141759000Y-66453000D02*
X141759000Y-72993000D01*
X143129000Y-73763000D02*
X143129000Y-72993000D01*
X143129000Y-65683000D02*
X143129000Y-66453000D01*
X105564000Y-56356000D02*
X108304000Y-56356000D01*
X108304000Y-56356000D02*
X108304000Y-49816000D01*
X108304000Y-49816000D02*
X105564000Y-49816000D01*
X105564000Y-49816000D02*
X105564000Y-56356000D01*
X106934000Y-57126000D02*
X106934000Y-56356000D01*
X106934000Y-49046000D02*
X106934000Y-49816000D01*
X105942000Y-60960000D02*
X106712000Y-60960000D01*
X114022000Y-60960000D02*
X113252000Y-60960000D01*
X106712000Y-62330000D02*
X113252000Y-62330000D01*
X106712000Y-59590000D02*
X106712000Y-62330000D01*
X113252000Y-59590000D02*
X106712000Y-59590000D01*
X113252000Y-62330000D02*
X113252000Y-59590000D01*
D10*
X111847333Y-42013142D02*
X111799714Y-42060761D01*
X111656857Y-42108380D01*
X111561619Y-42108380D01*
X111418761Y-42060761D01*
X111323523Y-41965523D01*
X111275904Y-41870285D01*
X111228285Y-41679809D01*
X111228285Y-41536952D01*
X111275904Y-41346476D01*
X111323523Y-41251238D01*
X111418761Y-41156000D01*
X111561619Y-41108380D01*
X111656857Y-41108380D01*
X111799714Y-41156000D01*
X111847333Y-41203619D01*
X112752095Y-41108380D02*
X112275904Y-41108380D01*
X112228285Y-41584571D01*
X112275904Y-41536952D01*
X112371142Y-41489333D01*
X112609238Y-41489333D01*
X112704476Y-41536952D01*
X112752095Y-41584571D01*
X112799714Y-41679809D01*
X112799714Y-41917904D01*
X112752095Y-42013142D01*
X112704476Y-42060761D01*
X112609238Y-42108380D01*
X112371142Y-42108380D01*
X112275904Y-42060761D01*
X112228285Y-42013142D01*
X104354333Y-46712142D02*
X104306714Y-46759761D01*
X104163857Y-46807380D01*
X104068619Y-46807380D01*
X103925761Y-46759761D01*
X103830523Y-46664523D01*
X103782904Y-46569285D01*
X103735285Y-46378809D01*
X103735285Y-46235952D01*
X103782904Y-46045476D01*
X103830523Y-45950238D01*
X103925761Y-45855000D01*
X104068619Y-45807380D01*
X104163857Y-45807380D01*
X104306714Y-45855000D01*
X104354333Y-45902619D01*
X105211476Y-46140714D02*
X105211476Y-46807380D01*
X104973380Y-45759761D02*
X104735285Y-46474047D01*
X105354333Y-46474047D01*
X90222342Y-58993066D02*
X90269961Y-59040685D01*
X90317580Y-59183542D01*
X90317580Y-59278780D01*
X90269961Y-59421638D01*
X90174723Y-59516876D01*
X90079485Y-59564495D01*
X89889009Y-59612114D01*
X89746152Y-59612114D01*
X89555676Y-59564495D01*
X89460438Y-59516876D01*
X89365200Y-59421638D01*
X89317580Y-59278780D01*
X89317580Y-59183542D01*
X89365200Y-59040685D01*
X89412819Y-58993066D01*
X89317580Y-58659733D02*
X89317580Y-58040685D01*
X89698533Y-58374019D01*
X89698533Y-58231161D01*
X89746152Y-58135923D01*
X89793771Y-58088304D01*
X89889009Y-58040685D01*
X90127104Y-58040685D01*
X90222342Y-58088304D01*
X90269961Y-58135923D01*
X90317580Y-58231161D01*
X90317580Y-58516876D01*
X90269961Y-58612114D01*
X90222342Y-58659733D01*
X93178333Y-42521142D02*
X93130714Y-42568761D01*
X92987857Y-42616380D01*
X92892619Y-42616380D01*
X92749761Y-42568761D01*
X92654523Y-42473523D01*
X92606904Y-42378285D01*
X92559285Y-42187809D01*
X92559285Y-42044952D01*
X92606904Y-41854476D01*
X92654523Y-41759238D01*
X92749761Y-41664000D01*
X92892619Y-41616380D01*
X92987857Y-41616380D01*
X93130714Y-41664000D01*
X93178333Y-41711619D01*
X94130714Y-42616380D02*
X93559285Y-42616380D01*
X93845000Y-42616380D02*
X93845000Y-41616380D01*
X93749761Y-41759238D01*
X93654523Y-41854476D01*
X93559285Y-41902095D01*
X92416333Y-60396380D02*
X92083000Y-59920190D01*
X91844904Y-60396380D02*
X91844904Y-59396380D01*
X92225857Y-59396380D01*
X92321095Y-59444000D01*
X92368714Y-59491619D01*
X92416333Y-59586857D01*
X92416333Y-59729714D01*
X92368714Y-59824952D01*
X92321095Y-59872571D01*
X92225857Y-59920190D01*
X91844904Y-59920190D01*
X92749666Y-59396380D02*
X93368714Y-59396380D01*
X93035380Y-59777333D01*
X93178238Y-59777333D01*
X93273476Y-59824952D01*
X93321095Y-59872571D01*
X93368714Y-59967809D01*
X93368714Y-60205904D01*
X93321095Y-60301142D01*
X93273476Y-60348761D01*
X93178238Y-60396380D01*
X92892523Y-60396380D01*
X92797285Y-60348761D01*
X92749666Y-60301142D01*
X114641333Y-49125142D02*
X114593714Y-49172761D01*
X114450857Y-49220380D01*
X114355619Y-49220380D01*
X114212761Y-49172761D01*
X114117523Y-49077523D01*
X114069904Y-48982285D01*
X114022285Y-48791809D01*
X114022285Y-48648952D01*
X114069904Y-48458476D01*
X114117523Y-48363238D01*
X114212761Y-48268000D01*
X114355619Y-48220380D01*
X114450857Y-48220380D01*
X114593714Y-48268000D01*
X114641333Y-48315619D01*
X115022285Y-48315619D02*
X115069904Y-48268000D01*
X115165142Y-48220380D01*
X115403238Y-48220380D01*
X115498476Y-48268000D01*
X115546095Y-48315619D01*
X115593714Y-48410857D01*
X115593714Y-48506095D01*
X115546095Y-48648952D01*
X114974666Y-49220380D01*
X115593714Y-49220380D01*
X97536095Y-54316380D02*
X97536095Y-55125904D01*
X97583714Y-55221142D01*
X97631333Y-55268761D01*
X97726571Y-55316380D01*
X97917047Y-55316380D01*
X98012285Y-55268761D01*
X98059904Y-55221142D01*
X98107523Y-55125904D01*
X98107523Y-54316380D01*
X99107523Y-55316380D02*
X98536095Y-55316380D01*
X98821809Y-55316380D02*
X98821809Y-54316380D01*
X98726571Y-54459238D01*
X98631333Y-54554476D01*
X98536095Y-54602095D01*
X122174095Y-62063380D02*
X122174095Y-62872904D01*
X122221714Y-62968142D01*
X122269333Y-63015761D01*
X122364571Y-63063380D01*
X122555047Y-63063380D01*
X122650285Y-63015761D01*
X122697904Y-62968142D01*
X122745523Y-62872904D01*
X122745523Y-62063380D01*
X123174095Y-62158619D02*
X123221714Y-62111000D01*
X123316952Y-62063380D01*
X123555047Y-62063380D01*
X123650285Y-62111000D01*
X123697904Y-62158619D01*
X123745523Y-62253857D01*
X123745523Y-62349095D01*
X123697904Y-62491952D01*
X123126476Y-63063380D01*
X123745523Y-63063380D01*
X136652095Y-62742380D02*
X136652095Y-63551904D01*
X136699714Y-63647142D01*
X136747333Y-63694761D01*
X136842571Y-63742380D01*
X137033047Y-63742380D01*
X137128285Y-63694761D01*
X137175904Y-63647142D01*
X137223523Y-63551904D01*
X137223523Y-62742380D01*
X137604476Y-62742380D02*
X138223523Y-62742380D01*
X137890190Y-63123333D01*
X138033047Y-63123333D01*
X138128285Y-63170952D01*
X138175904Y-63218571D01*
X138223523Y-63313809D01*
X138223523Y-63551904D01*
X138175904Y-63647142D01*
X138128285Y-63694761D01*
X138033047Y-63742380D01*
X137747333Y-63742380D01*
X137652095Y-63694761D01*
X137604476Y-63647142D01*
X90955904Y-71445380D02*
X90955904Y-70445380D01*
X91194000Y-70445380D01*
X91336857Y-70493000D01*
X91432095Y-70588238D01*
X91479714Y-70683476D01*
X91527333Y-70873952D01*
X91527333Y-71016809D01*
X91479714Y-71207285D01*
X91432095Y-71302523D01*
X91336857Y-71397761D01*
X91194000Y-71445380D01*
X90955904Y-71445380D01*
X92479714Y-71445380D02*
X91908285Y-71445380D01*
X92194000Y-71445380D02*
X92194000Y-70445380D01*
X92098761Y-70588238D01*
X92003523Y-70683476D01*
X91908285Y-70731095D01*
X97559904Y-71445380D02*
X97559904Y-70445380D01*
X97798000Y-70445380D01*
X97940857Y-70493000D01*
X98036095Y-70588238D01*
X98083714Y-70683476D01*
X98131333Y-70873952D01*
X98131333Y-71016809D01*
X98083714Y-71207285D01*
X98036095Y-71302523D01*
X97940857Y-71397761D01*
X97798000Y-71445380D01*
X97559904Y-71445380D01*
X98512285Y-70540619D02*
X98559904Y-70493000D01*
X98655142Y-70445380D01*
X98893238Y-70445380D01*
X98988476Y-70493000D01*
X99036095Y-70540619D01*
X99083714Y-70635857D01*
X99083714Y-70731095D01*
X99036095Y-70873952D01*
X98464666Y-71445380D01*
X99083714Y-71445380D01*
X104036904Y-71445380D02*
X104036904Y-70445380D01*
X104275000Y-70445380D01*
X104417857Y-70493000D01*
X104513095Y-70588238D01*
X104560714Y-70683476D01*
X104608333Y-70873952D01*
X104608333Y-71016809D01*
X104560714Y-71207285D01*
X104513095Y-71302523D01*
X104417857Y-71397761D01*
X104275000Y-71445380D01*
X104036904Y-71445380D01*
X104941666Y-70445380D02*
X105560714Y-70445380D01*
X105227380Y-70826333D01*
X105370238Y-70826333D01*
X105465476Y-70873952D01*
X105513095Y-70921571D01*
X105560714Y-71016809D01*
X105560714Y-71254904D01*
X105513095Y-71350142D01*
X105465476Y-71397761D01*
X105370238Y-71445380D01*
X105084523Y-71445380D01*
X104989285Y-71397761D01*
X104941666Y-71350142D01*
X110640904Y-71445380D02*
X110640904Y-70445380D01*
X110879000Y-70445380D01*
X111021857Y-70493000D01*
X111117095Y-70588238D01*
X111164714Y-70683476D01*
X111212333Y-70873952D01*
X111212333Y-71016809D01*
X111164714Y-71207285D01*
X111117095Y-71302523D01*
X111021857Y-71397761D01*
X110879000Y-71445380D01*
X110640904Y-71445380D01*
X112069476Y-70778714D02*
X112069476Y-71445380D01*
X111831380Y-70397761D02*
X111593285Y-71112047D01*
X112212333Y-71112047D01*
X117244904Y-71445380D02*
X117244904Y-70445380D01*
X117483000Y-70445380D01*
X117625857Y-70493000D01*
X117721095Y-70588238D01*
X117768714Y-70683476D01*
X117816333Y-70873952D01*
X117816333Y-71016809D01*
X117768714Y-71207285D01*
X117721095Y-71302523D01*
X117625857Y-71397761D01*
X117483000Y-71445380D01*
X117244904Y-71445380D01*
X118721095Y-70445380D02*
X118244904Y-70445380D01*
X118197285Y-70921571D01*
X118244904Y-70873952D01*
X118340142Y-70826333D01*
X118578238Y-70826333D01*
X118673476Y-70873952D01*
X118721095Y-70921571D01*
X118768714Y-71016809D01*
X118768714Y-71254904D01*
X118721095Y-71350142D01*
X118673476Y-71397761D01*
X118578238Y-71445380D01*
X118340142Y-71445380D01*
X118244904Y-71397761D01*
X118197285Y-71350142D01*
X123848904Y-71318380D02*
X123848904Y-70318380D01*
X124087000Y-70318380D01*
X124229857Y-70366000D01*
X124325095Y-70461238D01*
X124372714Y-70556476D01*
X124420333Y-70746952D01*
X124420333Y-70889809D01*
X124372714Y-71080285D01*
X124325095Y-71175523D01*
X124229857Y-71270761D01*
X124087000Y-71318380D01*
X123848904Y-71318380D01*
X125277476Y-70318380D02*
X125087000Y-70318380D01*
X124991761Y-70366000D01*
X124944142Y-70413619D01*
X124848904Y-70556476D01*
X124801285Y-70746952D01*
X124801285Y-71127904D01*
X124848904Y-71223142D01*
X124896523Y-71270761D01*
X124991761Y-71318380D01*
X125182238Y-71318380D01*
X125277476Y-71270761D01*
X125325095Y-71223142D01*
X125372714Y-71127904D01*
X125372714Y-70889809D01*
X125325095Y-70794571D01*
X125277476Y-70746952D01*
X125182238Y-70699333D01*
X124991761Y-70699333D01*
X124896523Y-70746952D01*
X124848904Y-70794571D01*
X124801285Y-70889809D01*
X130325904Y-71445380D02*
X130325904Y-70445380D01*
X130564000Y-70445380D01*
X130706857Y-70493000D01*
X130802095Y-70588238D01*
X130849714Y-70683476D01*
X130897333Y-70873952D01*
X130897333Y-71016809D01*
X130849714Y-71207285D01*
X130802095Y-71302523D01*
X130706857Y-71397761D01*
X130564000Y-71445380D01*
X130325904Y-71445380D01*
X131230666Y-70445380D02*
X131897333Y-70445380D01*
X131468761Y-71445380D01*
X136929904Y-71318380D02*
X136929904Y-70318380D01*
X137168000Y-70318380D01*
X137310857Y-70366000D01*
X137406095Y-70461238D01*
X137453714Y-70556476D01*
X137501333Y-70746952D01*
X137501333Y-70889809D01*
X137453714Y-71080285D01*
X137406095Y-71175523D01*
X137310857Y-71270761D01*
X137168000Y-71318380D01*
X136929904Y-71318380D01*
X138072761Y-70746952D02*
X137977523Y-70699333D01*
X137929904Y-70651714D01*
X137882285Y-70556476D01*
X137882285Y-70508857D01*
X137929904Y-70413619D01*
X137977523Y-70366000D01*
X138072761Y-70318380D01*
X138263238Y-70318380D01*
X138358476Y-70366000D01*
X138406095Y-70413619D01*
X138453714Y-70508857D01*
X138453714Y-70556476D01*
X138406095Y-70651714D01*
X138358476Y-70699333D01*
X138263238Y-70746952D01*
X138072761Y-70746952D01*
X137977523Y-70794571D01*
X137929904Y-70842190D01*
X137882285Y-70937428D01*
X137882285Y-71127904D01*
X137929904Y-71223142D01*
X137977523Y-71270761D01*
X138072761Y-71318380D01*
X138263238Y-71318380D01*
X138358476Y-71270761D01*
X138406095Y-71223142D01*
X138453714Y-71127904D01*
X138453714Y-70937428D01*
X138406095Y-70842190D01*
X138358476Y-70794571D01*
X138263238Y-70746952D01*
X115105619Y-55848238D02*
X115058000Y-55943476D01*
X114962761Y-56038714D01*
X114819904Y-56181571D01*
X114772285Y-56276809D01*
X114772285Y-56372047D01*
X115010380Y-56324428D02*
X114962761Y-56419666D01*
X114867523Y-56514904D01*
X114677047Y-56562523D01*
X114343714Y-56562523D01*
X114153238Y-56514904D01*
X114058000Y-56419666D01*
X114010380Y-56324428D01*
X114010380Y-56133952D01*
X114058000Y-56038714D01*
X114153238Y-55943476D01*
X114343714Y-55895857D01*
X114677047Y-55895857D01*
X114867523Y-55943476D01*
X114962761Y-56038714D01*
X115010380Y-56133952D01*
X115010380Y-56324428D01*
X115010380Y-54943476D02*
X115010380Y-55514904D01*
X115010380Y-55229190D02*
X114010380Y-55229190D01*
X114153238Y-55324428D01*
X114248476Y-55419666D01*
X114296095Y-55514904D01*
X91003380Y-42584666D02*
X90527190Y-42918000D01*
X91003380Y-43156095D02*
X90003380Y-43156095D01*
X90003380Y-42775142D01*
X90051000Y-42679904D01*
X90098619Y-42632285D01*
X90193857Y-42584666D01*
X90336714Y-42584666D01*
X90431952Y-42632285D01*
X90479571Y-42679904D01*
X90527190Y-42775142D01*
X90527190Y-43156095D01*
X91003380Y-41632285D02*
X91003380Y-42203714D01*
X91003380Y-41918000D02*
X90003380Y-41918000D01*
X90146238Y-42013238D01*
X90241476Y-42108476D01*
X90289095Y-42203714D01*
X102449333Y-59507380D02*
X102116000Y-59031190D01*
X101877904Y-59507380D02*
X101877904Y-58507380D01*
X102258857Y-58507380D01*
X102354095Y-58555000D01*
X102401714Y-58602619D01*
X102449333Y-58697857D01*
X102449333Y-58840714D01*
X102401714Y-58935952D01*
X102354095Y-58983571D01*
X102258857Y-59031190D01*
X101877904Y-59031190D01*
X102830285Y-58602619D02*
X102877904Y-58555000D01*
X102973142Y-58507380D01*
X103211238Y-58507380D01*
X103306476Y-58555000D01*
X103354095Y-58602619D01*
X103401714Y-58697857D01*
X103401714Y-58793095D01*
X103354095Y-58935952D01*
X102782666Y-59507380D01*
X103401714Y-59507380D01*
X103846333Y-65095380D02*
X103513000Y-64619190D01*
X103274904Y-65095380D02*
X103274904Y-64095380D01*
X103655857Y-64095380D01*
X103751095Y-64143000D01*
X103798714Y-64190619D01*
X103846333Y-64285857D01*
X103846333Y-64428714D01*
X103798714Y-64523952D01*
X103751095Y-64571571D01*
X103655857Y-64619190D01*
X103274904Y-64619190D01*
X104703476Y-64428714D02*
X104703476Y-65095380D01*
X104465380Y-64047761D02*
X104227285Y-64762047D01*
X104846333Y-64762047D01*
X103846333Y-68143380D02*
X103513000Y-67667190D01*
X103274904Y-68143380D02*
X103274904Y-67143380D01*
X103655857Y-67143380D01*
X103751095Y-67191000D01*
X103798714Y-67238619D01*
X103846333Y-67333857D01*
X103846333Y-67476714D01*
X103798714Y-67571952D01*
X103751095Y-67619571D01*
X103655857Y-67667190D01*
X103274904Y-67667190D01*
X104751095Y-67143380D02*
X104274904Y-67143380D01*
X104227285Y-67619571D01*
X104274904Y-67571952D01*
X104370142Y-67524333D01*
X104608238Y-67524333D01*
X104703476Y-67571952D01*
X104751095Y-67619571D01*
X104798714Y-67714809D01*
X104798714Y-67952904D01*
X104751095Y-68048142D01*
X104703476Y-68095761D01*
X104608238Y-68143380D01*
X104370142Y-68143380D01*
X104274904Y-68095761D01*
X104227285Y-68048142D01*
X116419333Y-63571380D02*
X116086000Y-63095190D01*
X115847904Y-63571380D02*
X115847904Y-62571380D01*
X116228857Y-62571380D01*
X116324095Y-62619000D01*
X116371714Y-62666619D01*
X116419333Y-62761857D01*
X116419333Y-62904714D01*
X116371714Y-62999952D01*
X116324095Y-63047571D01*
X116228857Y-63095190D01*
X115847904Y-63095190D01*
X117276476Y-62571380D02*
X117086000Y-62571380D01*
X116990761Y-62619000D01*
X116943142Y-62666619D01*
X116847904Y-62809476D01*
X116800285Y-62999952D01*
X116800285Y-63380904D01*
X116847904Y-63476142D01*
X116895523Y-63523761D01*
X116990761Y-63571380D01*
X117181238Y-63571380D01*
X117276476Y-63523761D01*
X117324095Y-63476142D01*
X117371714Y-63380904D01*
X117371714Y-63142809D01*
X117324095Y-63047571D01*
X117276476Y-62999952D01*
X117181238Y-62952333D01*
X116990761Y-62952333D01*
X116895523Y-62999952D01*
X116847904Y-63047571D01*
X116800285Y-63142809D01*
X114387333Y-70810380D02*
X114054000Y-70334190D01*
X113815904Y-70810380D02*
X113815904Y-69810380D01*
X114196857Y-69810380D01*
X114292095Y-69858000D01*
X114339714Y-69905619D01*
X114387333Y-70000857D01*
X114387333Y-70143714D01*
X114339714Y-70238952D01*
X114292095Y-70286571D01*
X114196857Y-70334190D01*
X113815904Y-70334190D01*
X114720666Y-69810380D02*
X115387333Y-69810380D01*
X114958761Y-70810380D01*
X129373333Y-63571380D02*
X129040000Y-63095190D01*
X128801904Y-63571380D02*
X128801904Y-62571380D01*
X129182857Y-62571380D01*
X129278095Y-62619000D01*
X129325714Y-62666619D01*
X129373333Y-62761857D01*
X129373333Y-62904714D01*
X129325714Y-62999952D01*
X129278095Y-63047571D01*
X129182857Y-63095190D01*
X128801904Y-63095190D01*
X129944761Y-62999952D02*
X129849523Y-62952333D01*
X129801904Y-62904714D01*
X129754285Y-62809476D01*
X129754285Y-62761857D01*
X129801904Y-62666619D01*
X129849523Y-62619000D01*
X129944761Y-62571380D01*
X130135238Y-62571380D01*
X130230476Y-62619000D01*
X130278095Y-62666619D01*
X130325714Y-62761857D01*
X130325714Y-62809476D01*
X130278095Y-62904714D01*
X130230476Y-62952333D01*
X130135238Y-62999952D01*
X129944761Y-62999952D01*
X129849523Y-63047571D01*
X129801904Y-63095190D01*
X129754285Y-63190428D01*
X129754285Y-63380904D01*
X129801904Y-63476142D01*
X129849523Y-63523761D01*
X129944761Y-63571380D01*
X130135238Y-63571380D01*
X130230476Y-63523761D01*
X130278095Y-63476142D01*
X130325714Y-63380904D01*
X130325714Y-63190428D01*
X130278095Y-63095190D01*
X130230476Y-63047571D01*
X130135238Y-62999952D01*
X127722333Y-70810380D02*
X127389000Y-70334190D01*
X127150904Y-70810380D02*
X127150904Y-69810380D01*
X127531857Y-69810380D01*
X127627095Y-69858000D01*
X127674714Y-69905619D01*
X127722333Y-70000857D01*
X127722333Y-70143714D01*
X127674714Y-70238952D01*
X127627095Y-70286571D01*
X127531857Y-70334190D01*
X127150904Y-70334190D01*
X128198523Y-70810380D02*
X128389000Y-70810380D01*
X128484238Y-70762761D01*
X128531857Y-70715142D01*
X128627095Y-70572285D01*
X128674714Y-70381809D01*
X128674714Y-70000857D01*
X128627095Y-69905619D01*
X128579476Y-69858000D01*
X128484238Y-69810380D01*
X128293761Y-69810380D01*
X128198523Y-69858000D01*
X128150904Y-69905619D01*
X128103285Y-70000857D01*
X128103285Y-70238952D01*
X128150904Y-70334190D01*
X128198523Y-70381809D01*
X128293761Y-70429428D01*
X128484238Y-70429428D01*
X128579476Y-70381809D01*
X128627095Y-70334190D01*
X128674714Y-70238952D01*
X141211380Y-70365857D02*
X140735190Y-70699190D01*
X141211380Y-70937285D02*
X140211380Y-70937285D01*
X140211380Y-70556333D01*
X140259000Y-70461095D01*
X140306619Y-70413476D01*
X140401857Y-70365857D01*
X140544714Y-70365857D01*
X140639952Y-70413476D01*
X140687571Y-70461095D01*
X140735190Y-70556333D01*
X140735190Y-70937285D01*
X141211380Y-69413476D02*
X141211380Y-69984904D01*
X141211380Y-69699190D02*
X140211380Y-69699190D01*
X140354238Y-69794428D01*
X140449476Y-69889666D01*
X140497095Y-69984904D01*
X140211380Y-68794428D02*
X140211380Y-68699190D01*
X140259000Y-68603952D01*
X140306619Y-68556333D01*
X140401857Y-68508714D01*
X140592333Y-68461095D01*
X140830428Y-68461095D01*
X141020904Y-68508714D01*
X141116142Y-68556333D01*
X141163761Y-68603952D01*
X141211380Y-68699190D01*
X141211380Y-68794428D01*
X141163761Y-68889666D01*
X141116142Y-68937285D01*
X141020904Y-68984904D01*
X140830428Y-69032523D01*
X140592333Y-69032523D01*
X140401857Y-68984904D01*
X140306619Y-68937285D01*
X140259000Y-68889666D01*
X140211380Y-68794428D01*
X105354380Y-54109857D02*
X104878190Y-54443190D01*
X105354380Y-54681285D02*
X104354380Y-54681285D01*
X104354380Y-54300333D01*
X104402000Y-54205095D01*
X104449619Y-54157476D01*
X104544857Y-54109857D01*
X104687714Y-54109857D01*
X104782952Y-54157476D01*
X104830571Y-54205095D01*
X104878190Y-54300333D01*
X104878190Y-54681285D01*
X105354380Y-53157476D02*
X105354380Y-53728904D01*
X105354380Y-53443190D02*
X104354380Y-53443190D01*
X104497238Y-53538428D01*
X104592476Y-53633666D01*
X104640095Y-53728904D01*
X105354380Y-52205095D02*
X105354380Y-52776523D01*
X105354380Y-52490809D02*
X104354380Y-52490809D01*
X104497238Y-52586047D01*
X104592476Y-52681285D01*
X104640095Y-52776523D01*
X104513142Y-63190380D02*
X104179809Y-62714190D01*
X103941714Y-63190380D02*
X103941714Y-62190380D01*
X104322666Y-62190380D01*
X104417904Y-62238000D01*
X104465523Y-62285619D01*
X104513142Y-62380857D01*
X104513142Y-62523714D01*
X104465523Y-62618952D01*
X104417904Y-62666571D01*
X104322666Y-62714190D01*
X103941714Y-62714190D01*
X105465523Y-63190380D02*
X104894095Y-63190380D01*
X105179809Y-63190380D02*
X105179809Y-62190380D01*
X105084571Y-62333238D01*
X104989333Y-62428476D01*
X104894095Y-62476095D01*
X105846476Y-62285619D02*
X105894095Y-62238000D01*
X105989333Y-62190380D01*
X106227428Y-62190380D01*
X106322666Y-62238000D01*
X106370285Y-62285619D01*
X106417904Y-62380857D01*
X106417904Y-62476095D01*
X106370285Y-62618952D01*
X105798857Y-63190380D01*
X106417904Y-63190380D01*
M02*
